G04*
G04 #@! TF.GenerationSoftware,Altium Limited,Altium Designer,23.7.1 (13)*
G04*
G04 Layer_Physical_Order=3*
G04 Layer_Color=128*
%FSLAX44Y44*%
%MOMM*%
G71*
G04*
G04 #@! TF.SameCoordinates,D80BC081-2A64-476D-8097-51FF93FC0A54*
G04*
G04*
G04 #@! TF.FilePolarity,Negative*
G04*
G01*
G75*
%ADD11C,0.5000*%
%ADD201C,1.0160*%
G04:AMPARAMS|DCode=202|XSize=2.524mm|YSize=2.524mm|CornerRadius=0mm|HoleSize=0mm|Usage=FLASHONLY|Rotation=0.000|XOffset=0mm|YOffset=0mm|HoleType=Round|Shape=Relief|Width=0.254mm|Gap=0.254mm|Entries=4|*
%AMTHD202*
7,0,0,2.5240,2.0160,0.2540,45*
%
%ADD202THD202*%
%ADD203C,2.0160*%
%ADD204C,4.2160*%
%ADD205O,1.8660X1.5160*%
%ADD206O,1.5160X2.1160*%
%ADD210C,2.5160*%
%ADD211C,2.1160*%
%ADD212C,3.1160*%
%ADD213C,1.7272*%
G04:AMPARAMS|DCode=214|XSize=2.2352mm|YSize=2.2352mm|CornerRadius=0mm|HoleSize=0mm|Usage=FLASHONLY|Rotation=0.000|XOffset=0mm|YOffset=0mm|HoleType=Round|Shape=Relief|Width=0.254mm|Gap=0.254mm|Entries=4|*
%AMTHD214*
7,0,0,2.2352,1.7272,0.2540,45*
%
%ADD214THD214*%
%ADD215C,1.3460*%
%ADD216C,2.6160*%
G04:AMPARAMS|DCode=217|XSize=2.624mm|YSize=2.624mm|CornerRadius=0mm|HoleSize=0mm|Usage=FLASHONLY|Rotation=0.000|XOffset=0mm|YOffset=0mm|HoleType=Round|Shape=Relief|Width=0.254mm|Gap=0.254mm|Entries=4|*
%AMTHD217*
7,0,0,2.6240,2.1160,0.2540,45*
%
%ADD217THD217*%
D11*
X861060Y325120D02*
X965200D01*
Y372110D01*
X989330D01*
Y511810D01*
X1029970D01*
Y666750D01*
X1544320D01*
Y720090D01*
X1374140D02*
X1544320D01*
X1374140D02*
Y836930D01*
X1454150D01*
Y839470D01*
X1714500D01*
Y958850D01*
X1099820D02*
X1714500D01*
X859790Y727710D02*
Y732790D01*
X1097280D01*
Y1036320D01*
X693420D02*
X1097280D01*
X693420Y814070D02*
Y1036320D01*
Y814070D02*
X742950D01*
Y791210D02*
Y814070D01*
X593090Y791210D02*
X742950D01*
X593090Y727710D02*
X859790D01*
X593090D02*
Y854710D01*
X859790Y254000D02*
X861060D01*
X859790D02*
Y727710D01*
X593090Y854710D02*
X650901D01*
Y955040D01*
X246380D02*
X650901D01*
D201*
X254000Y254000D02*
Y1270000D01*
X1778000D01*
Y254000D02*
Y1270000D01*
X254000Y254000D02*
X1778000D01*
D202*
X906780Y599440D02*
D03*
X1513840Y312420D02*
D03*
X1412240Y778510D02*
D03*
X336550Y810260D02*
D03*
Y615950D02*
D03*
X1017270Y1002030D02*
D03*
X1151890Y576580D02*
D03*
D203*
X1694180Y778510D02*
D03*
Y727710D02*
D03*
Y563880D02*
D03*
Y614680D02*
D03*
Y455930D02*
D03*
Y405130D02*
D03*
X336550Y899160D02*
D03*
Y949960D02*
D03*
X363220Y1098550D02*
D03*
X312420D02*
D03*
X337820D02*
D03*
X1049020Y1224280D02*
D03*
X1074420D02*
D03*
X492760Y1092202D02*
D03*
X1375410Y1169670D02*
D03*
X1324610D02*
D03*
X1493520D02*
D03*
X1442720D02*
D03*
X1611630Y1167130D02*
D03*
X1560830D02*
D03*
X1736090Y1165860D02*
D03*
X1685290D02*
D03*
X336550Y759460D02*
D03*
Y708660D02*
D03*
Y565150D02*
D03*
Y514350D02*
D03*
X337820Y422910D02*
D03*
Y372110D02*
D03*
X336550Y1178560D02*
D03*
X361950D02*
D03*
X311150D02*
D03*
D204*
X1750060Y280670D02*
D03*
X1752600Y1243330D02*
D03*
X279400Y280670D02*
D03*
Y1243330D02*
D03*
D205*
X585230Y1216330D02*
D03*
X535230D02*
D03*
D206*
X525228Y1243330D02*
D03*
X595230D02*
D03*
D210*
X697230Y1197610D02*
D03*
D211*
X1353820Y866140D02*
D03*
X1592580Y867410D02*
D03*
D212*
X1493520Y1018540D02*
D03*
X1315720Y993140D02*
D03*
X1732280Y1019810D02*
D03*
X1554480Y994410D02*
D03*
D213*
X1286510Y441960D02*
D03*
D03*
X665480Y712470D02*
D03*
D03*
X693420Y735330D02*
D03*
D03*
X688340Y595630D02*
D03*
D03*
X581660Y1075690D02*
D03*
D03*
X584200Y1141730D02*
D03*
D03*
X654050Y1007110D02*
D03*
X623570Y1073150D02*
D03*
D03*
X654050Y1007110D02*
D03*
X708660Y1141730D02*
D03*
D03*
X902970Y902970D02*
D03*
D03*
X821690Y929640D02*
D03*
D03*
X803698Y901758D02*
D03*
D03*
X755650Y930910D02*
D03*
D03*
X1628140Y604520D02*
D03*
D03*
X885190Y579120D02*
D03*
D03*
X1253490Y1042670D02*
D03*
D03*
X1181100Y523240D02*
D03*
D03*
X1151890D02*
D03*
D03*
X1102360Y521970D02*
D03*
D03*
X538140Y940730D02*
D03*
D03*
X514350Y1169670D02*
D03*
D03*
X449580Y1164590D02*
D03*
D03*
X459200Y784860D02*
D03*
D03*
X436880Y778510D02*
D03*
D03*
X396240Y1154430D02*
D03*
D03*
X679450Y989330D02*
D03*
D03*
X1068070Y673100D02*
D03*
D03*
X981710Y595630D02*
D03*
D03*
X875030Y701040D02*
D03*
D03*
X891540Y1130300D02*
D03*
D03*
X901700Y1084580D02*
D03*
D03*
X641350Y1059180D02*
D03*
D03*
X869190Y895350D02*
D03*
D03*
X1460500Y398780D02*
D03*
D03*
X1143000Y742950D02*
D03*
D03*
X563880Y1130300D02*
D03*
D03*
X909320Y1017270D02*
D03*
D03*
X1082040Y746760D02*
D03*
D03*
X956310Y1007110D02*
D03*
D03*
X1289050Y422910D02*
D03*
D03*
X1112900Y428370D02*
D03*
D03*
X577850Y1035050D02*
D03*
D03*
X1290320Y337820D02*
D03*
D03*
X789940Y1007110D02*
D03*
D03*
X836930Y996950D02*
D03*
D03*
X937260Y683260D02*
D03*
D03*
X932180Y436880D02*
D03*
D03*
X476980Y642620D02*
D03*
D03*
X580530Y606920D02*
D03*
D03*
X463550Y303530D02*
D03*
D03*
Y384810D02*
D03*
D03*
X839470Y1120140D02*
D03*
D03*
X821690Y1131570D02*
D03*
D03*
X839470Y1239520D02*
D03*
D03*
X1174750Y1088390D02*
D03*
D03*
X1139190Y1130300D02*
D03*
D03*
X1211580Y1123950D02*
D03*
D03*
X932690Y1212340D02*
D03*
D03*
X912020Y1205070D02*
D03*
D03*
X1536560Y431660D02*
D03*
D03*
X1490980Y774700D02*
D03*
D03*
X1604010Y744220D02*
D03*
D03*
X1581660Y766320D02*
D03*
D03*
X960120Y384810D02*
D03*
D03*
X1040130Y438150D02*
D03*
D03*
X527940Y566800D02*
D03*
D03*
X601980Y653320D02*
D03*
D03*
X562610Y659130D02*
D03*
D03*
X624840Y651510D02*
D03*
D03*
X664350Y606920D02*
D03*
D03*
X1051560Y855980D02*
D03*
D03*
X1113790Y796290D02*
D03*
D03*
X1037590Y707390D02*
D03*
D03*
X1051331Y748030D02*
D03*
D03*
X751980Y702310D02*
D03*
D03*
X459990Y588260D02*
D03*
D03*
X803090Y1132390D02*
D03*
D03*
X789940Y1073150D02*
D03*
D03*
X790526Y1031240D02*
D03*
D03*
X673100Y1075690D02*
D03*
D03*
X530860Y1108710D02*
D03*
D03*
X529589Y1070998D02*
D03*
D03*
X350520Y1045210D02*
D03*
D03*
X330200Y1127760D02*
D03*
D03*
X547370Y822960D02*
D03*
D03*
X660400Y457200D02*
D03*
D03*
X506730Y499110D02*
D03*
D03*
X509270Y472440D02*
D03*
D03*
X617220Y486410D02*
D03*
D03*
X702310Y426720D02*
D03*
D03*
X674370Y842010D02*
D03*
D03*
X742879Y839530D02*
D03*
D03*
X858520Y836930D02*
D03*
D03*
X514350Y1130300D02*
D03*
D03*
X1546860Y595630D02*
D03*
D03*
X1494790Y538480D02*
D03*
D03*
X1452880Y446090D02*
D03*
D03*
X1474595Y598295D02*
D03*
D03*
X1474470Y483870D02*
D03*
D03*
X1626870Y443230D02*
D03*
D03*
X1537970Y355600D02*
D03*
D03*
X1437640Y373380D02*
D03*
D03*
X1332230Y299720D02*
D03*
D03*
X1261110Y595630D02*
D03*
D03*
X1338580Y494030D02*
D03*
D03*
X1259840Y562610D02*
D03*
D03*
X1220470Y591820D02*
D03*
D03*
X1187444Y1113790D02*
D03*
X1187450Y1043940D02*
D03*
D03*
X1267460Y993140D02*
D03*
D03*
X1150620Y913130D02*
D03*
D03*
X1256030Y886460D02*
D03*
D03*
X1417320Y569860D02*
D03*
D03*
X1148080Y628650D02*
D03*
D03*
X1113790Y605790D02*
D03*
D03*
X1069340Y622300D02*
D03*
D03*
X927100Y495300D02*
D03*
D03*
X850900Y518160D02*
D03*
D03*
X741680Y515620D02*
D03*
D03*
X659130Y309880D02*
D03*
D03*
X754380Y375920D02*
D03*
D03*
X942340Y346710D02*
D03*
D03*
X1257300Y410210D02*
D03*
D03*
X1427410Y323780D02*
D03*
D03*
X1460500Y300990D02*
D03*
D03*
X1261110Y1134110D02*
D03*
X1253410Y1254760D02*
D03*
D03*
X1144865Y1257895D02*
D03*
D03*
X1062990Y1046480D02*
D03*
D03*
X1116330Y972820D02*
D03*
D03*
X983513Y349250D02*
D03*
D03*
X1129030Y397510D02*
D03*
D03*
X1070610Y394970D02*
D03*
D03*
X1004570Y391160D02*
D03*
D03*
D214*
X668020Y777240D02*
D03*
D03*
X556260Y425450D02*
D03*
D03*
X562610Y486410D02*
D03*
D03*
X831850Y869950D02*
D03*
D03*
X706547Y850107D02*
D03*
D03*
X740410Y900430D02*
D03*
D03*
X481330Y1146810D02*
D03*
D03*
X723900Y934720D02*
D03*
D03*
X1386840Y646430D02*
D03*
D03*
X1068070Y599440D02*
D03*
D03*
X1052830Y558800D02*
D03*
D03*
X815340Y998220D02*
D03*
D03*
X440690Y487680D02*
D03*
D03*
X1236980Y647700D02*
D03*
D03*
X975360Y704850D02*
D03*
D03*
X1181100Y613410D02*
D03*
D03*
X1202830Y429120D02*
D03*
D03*
X1063370Y471550D02*
D03*
D03*
X1217930Y728980D02*
D03*
D03*
X1292860Y707390D02*
D03*
D03*
X1459230Y678180D02*
D03*
D03*
X1532890Y783590D02*
D03*
D03*
X895350Y346710D02*
D03*
D03*
X882650Y449580D02*
D03*
D03*
X509270Y721360D02*
D03*
D03*
X430530Y1137920D02*
D03*
D03*
X310021Y1013460D02*
D03*
D03*
X637540Y834390D02*
D03*
D03*
X621030Y779780D02*
D03*
D03*
X725170Y999490D02*
D03*
D03*
X1076960Y782320D02*
D03*
D03*
X1012190Y764540D02*
D03*
D03*
X1028700Y855980D02*
D03*
D03*
X810260Y628650D02*
D03*
D03*
X422910Y706120D02*
D03*
D03*
X415290Y836930D02*
D03*
D03*
X513080Y858140D02*
D03*
D03*
X617220Y904240D02*
D03*
D03*
X1531620Y681990D02*
D03*
D03*
X1217930Y938530D02*
D03*
D03*
X1449070Y549540D02*
D03*
D03*
X1356360Y732790D02*
D03*
D03*
X930910Y546100D02*
D03*
D03*
X988060Y539750D02*
D03*
D03*
X1539240Y559680D02*
D03*
D03*
X1532890Y642620D02*
D03*
D03*
X1455420Y643890D02*
D03*
D03*
X1316990Y646430D02*
D03*
D03*
X784860Y515620D02*
D03*
D03*
X635000Y308610D02*
D03*
D03*
X524510Y304800D02*
D03*
D03*
X1004570Y443230D02*
D03*
D03*
X718620Y536480D02*
D03*
D03*
D215*
X669530Y645360D02*
D03*
X684530D02*
D03*
Y670360D02*
D03*
X669530D02*
D03*
Y657860D02*
D03*
X684530D02*
D03*
X658100Y532530D02*
D03*
X673100D02*
D03*
Y557530D02*
D03*
X658100D02*
D03*
Y545030D02*
D03*
X673100D02*
D03*
D216*
X722630Y1223010D02*
D03*
Y1172210D02*
D03*
X671830D02*
D03*
Y1223010D02*
D03*
D217*
X1455420Y866140D02*
D03*
X1694180Y867410D02*
D03*
M02*
