G04*
G04 #@! TF.GenerationSoftware,Altium Limited,Altium Designer,23.7.1 (13)*
G04*
G04 Layer_Color=65535*
%FSLAX44Y44*%
%MOMM*%
G71*
G04*
G04 #@! TF.SameCoordinates,D80BC081-2A64-476D-8097-51FF93FC0A54*
G04*
G04*
G04 #@! TF.FilePolarity,Positive*
G04*
G01*
G75*
%ADD10C,0.3000*%
%ADD11C,0.5000*%
%ADD12C,0.0000*%
%ADD13C,0.2540*%
%ADD14C,0.6000*%
G36*
X297840Y615950D02*
X291490Y609600D01*
Y613410D01*
X285140D01*
Y618490D01*
X291490D01*
Y622300D01*
X297840Y615950D01*
D02*
G37*
G36*
X988060Y591060D02*
X957060Y622060D01*
X1019060D01*
X988060Y591060D01*
D02*
G37*
G36*
X297840Y565150D02*
X291490Y558800D01*
Y562610D01*
X285140D01*
Y567690D01*
X291490D01*
Y571500D01*
X297840Y565150D01*
D02*
G37*
G36*
X275590Y563880D02*
X267970Y558800D01*
Y571500D01*
X275590Y563880D01*
D02*
G37*
G36*
X297840Y515150D02*
X291490Y508800D01*
Y512610D01*
X285140D01*
Y517690D01*
X291490D01*
Y521500D01*
X297840Y515150D01*
D02*
G37*
G36*
X299110Y422910D02*
X292760Y416560D01*
Y420370D01*
X286410D01*
Y425450D01*
X292760D01*
Y429260D01*
X299110Y422910D01*
D02*
G37*
G36*
X276860Y421640D02*
X269240Y416560D01*
Y429260D01*
X276860Y421640D01*
D02*
G37*
G36*
X299110Y372910D02*
X292760Y366560D01*
Y370370D01*
X286410D01*
Y375450D01*
X292760D01*
Y379260D01*
X299110Y372910D01*
D02*
G37*
G36*
X297840Y810260D02*
X291490Y803910D01*
Y807720D01*
X285140D01*
Y812800D01*
X291490D01*
Y816610D01*
X297840Y810260D01*
D02*
G37*
G36*
Y759460D02*
X291490Y753110D01*
Y756920D01*
X285140D01*
Y762000D01*
X291490D01*
Y765810D01*
X297840Y759460D01*
D02*
G37*
G36*
X273050Y758190D02*
X265430Y753110D01*
Y765810D01*
X273050Y758190D01*
D02*
G37*
G36*
X297840Y709460D02*
X291490Y703110D01*
Y706920D01*
X285140D01*
Y712000D01*
X291490D01*
Y715810D01*
X297840Y709460D01*
D02*
G37*
G36*
X273050Y889000D02*
X267970Y883920D01*
Y896620D01*
X275590Y889000D01*
X267970Y883920D01*
X273050Y889000D01*
D02*
G37*
G36*
X297840Y899960D02*
X291490Y893610D01*
Y897420D01*
X285140D01*
Y902500D01*
X291490D01*
Y906310D01*
X297840Y899960D01*
D02*
G37*
G36*
Y949960D02*
X291490Y943610D01*
Y947420D01*
X285140D01*
Y952500D01*
X291490D01*
Y956310D01*
X297840Y949960D01*
D02*
G37*
G36*
X573230Y1207186D02*
X575770Y1204138D01*
X570690D01*
X573230Y1207186D01*
D02*
G37*
G36*
X1492890Y298380D02*
X1500890Y293380D01*
Y303380D01*
X1492890Y298380D01*
D02*
G37*
G36*
X1732890Y405130D02*
X1739240Y411480D01*
Y407670D01*
X1745590D01*
Y402590D01*
X1739240D01*
Y398780D01*
X1732890Y405130D01*
D02*
G37*
G36*
X1758950Y407670D02*
X1764030Y412750D01*
Y400050D01*
X1756410Y407670D01*
X1764030Y412750D01*
X1758950Y407670D01*
D02*
G37*
G36*
X1732890Y455130D02*
X1739240Y461480D01*
Y457670D01*
X1745590D01*
Y452590D01*
X1739240D01*
Y448780D01*
X1732890Y455130D01*
D02*
G37*
G36*
Y563880D02*
X1739240Y570230D01*
Y566420D01*
X1745590D01*
Y561340D01*
X1739240D01*
Y557530D01*
X1732890Y563880D01*
D02*
G37*
G36*
X1244360Y907530D02*
X1213360Y938530D01*
X1244360Y969530D01*
Y907530D01*
D02*
G37*
G36*
X1739240Y780250D02*
X1745590D01*
Y775170D01*
X1739240D01*
Y771360D01*
X1732890Y777710D01*
X1739240Y784060D01*
Y780250D01*
D02*
G37*
G36*
Y730250D02*
X1745590D01*
Y725170D01*
X1739240D01*
Y721360D01*
X1732890Y727710D01*
X1739240Y734060D01*
Y730250D01*
D02*
G37*
G36*
Y616420D02*
X1745590D01*
Y611340D01*
X1739240D01*
Y607530D01*
X1732890Y613880D01*
X1739240Y620230D01*
Y616420D01*
D02*
G37*
G36*
X1325410Y1208380D02*
X1319060Y1214730D01*
X1322870D01*
Y1221080D01*
X1327950D01*
Y1214730D01*
X1331760D01*
X1325410Y1208380D01*
D02*
G37*
G36*
X1375410D02*
X1369060Y1214730D01*
X1372870D01*
Y1221080D01*
X1377950D01*
Y1214730D01*
X1381760D01*
X1375410Y1208380D01*
D02*
G37*
G36*
X1443520D02*
X1437170Y1214730D01*
X1440980D01*
Y1221080D01*
X1446060D01*
Y1214730D01*
X1449870D01*
X1443520Y1208380D01*
D02*
G37*
G36*
X1493520D02*
X1487170Y1214730D01*
X1490980D01*
Y1221080D01*
X1496060D01*
Y1214730D01*
X1499870D01*
X1493520Y1208380D01*
D02*
G37*
G36*
X1561630Y1205840D02*
X1555280Y1212190D01*
X1559090D01*
Y1218540D01*
X1564170D01*
Y1212190D01*
X1567980D01*
X1561630Y1205840D01*
D02*
G37*
G36*
X1611630D02*
X1605280Y1212190D01*
X1609090D01*
Y1218540D01*
X1614170D01*
Y1212190D01*
X1617980D01*
X1611630Y1205840D01*
D02*
G37*
G36*
X1686090Y1204570D02*
X1679740Y1210920D01*
X1683550D01*
Y1217270D01*
X1688630D01*
Y1210920D01*
X1692440D01*
X1686090Y1204570D01*
D02*
G37*
G36*
X1736090D02*
X1729740Y1210920D01*
X1733550D01*
Y1217270D01*
X1738630D01*
Y1210920D01*
X1742440D01*
X1736090Y1204570D01*
D02*
G37*
G36*
X277725Y406376D02*
X277711Y406277D01*
Y406164D01*
X277683Y405910D01*
X277655Y405629D01*
X277598Y405332D01*
X277528Y405036D01*
X277429Y404769D01*
Y404754D01*
X277415Y404740D01*
X277373Y404656D01*
X277302Y404529D01*
X277204Y404388D01*
X277077Y404219D01*
X276922Y404035D01*
X276724Y403866D01*
X276513Y403711D01*
X276485Y403697D01*
X276400Y403655D01*
X276287Y403584D01*
X276118Y403514D01*
X275921Y403443D01*
X275709Y403373D01*
X275470Y403331D01*
X275230Y403317D01*
X275202D01*
X275131D01*
X275004Y403331D01*
X274849Y403359D01*
X274666Y403401D01*
X274469Y403472D01*
X274271Y403556D01*
X274060Y403669D01*
X274032Y403683D01*
X273975Y403725D01*
X273862Y403810D01*
X273750Y403923D01*
X273609Y404064D01*
X273454Y404233D01*
X273313Y404444D01*
X273172Y404684D01*
Y404670D01*
X273158Y404642D01*
X273144Y404599D01*
X273115Y404543D01*
X273059Y404374D01*
X272960Y404176D01*
X272833Y403965D01*
X272678Y403725D01*
X272495Y403514D01*
X272270Y403317D01*
X272241Y403302D01*
X272157Y403246D01*
X272030Y403162D01*
X271861Y403077D01*
X271635Y402992D01*
X271396Y402908D01*
X271114Y402851D01*
X270804Y402837D01*
X270789D01*
X270775D01*
X270691D01*
X270550Y402851D01*
X270381Y402880D01*
X270183Y402908D01*
X269972Y402964D01*
X269746Y403035D01*
X269521Y403133D01*
X269492Y403147D01*
X269422Y403190D01*
X269323Y403246D01*
X269182Y403331D01*
X269041Y403443D01*
X268886Y403556D01*
X268731Y403697D01*
X268604Y403852D01*
X268590Y403866D01*
X268548Y403923D01*
X268492Y404021D01*
X268435Y404148D01*
X268351Y404303D01*
X268266Y404487D01*
X268196Y404684D01*
X268125Y404924D01*
Y404952D01*
X268097Y405036D01*
X268083Y405177D01*
X268055Y405361D01*
X268026Y405586D01*
X267998Y405854D01*
X267984Y406150D01*
X267970Y406488D01*
Y410210D01*
X277725D01*
Y406376D01*
D02*
G37*
G36*
Y399750D02*
X272086D01*
X272072D01*
X272030D01*
X271959D01*
X271875D01*
X271776Y399736D01*
X271649D01*
X271381Y399722D01*
X271071Y399694D01*
X270761Y399651D01*
X270465Y399595D01*
X270338Y399567D01*
X270211Y399524D01*
X270183Y399510D01*
X270113Y399482D01*
X270014Y399412D01*
X269873Y399327D01*
X269732Y399228D01*
X269577Y399087D01*
X269422Y398918D01*
X269295Y398721D01*
X269281Y398693D01*
X269239Y398622D01*
X269196Y398495D01*
X269140Y398326D01*
X269070Y398129D01*
X269027Y397875D01*
X268985Y397607D01*
X268971Y397311D01*
Y397170D01*
X268985Y397086D01*
Y396959D01*
X268999Y396832D01*
X269056Y396522D01*
X269126Y396184D01*
X269239Y395859D01*
X269394Y395549D01*
X269492Y395408D01*
X269605Y395281D01*
X269619Y395267D01*
X269633Y395253D01*
X269676Y395225D01*
X269732Y395183D01*
X269817Y395140D01*
X269901Y395084D01*
X270028Y395028D01*
X270155Y394971D01*
X270310Y394915D01*
X270493Y394873D01*
X270705Y394816D01*
X270930Y394774D01*
X271184Y394731D01*
X271452Y394703D01*
X271762Y394675D01*
X272086D01*
X277725D01*
Y393378D01*
X272086D01*
X272072D01*
X272016D01*
X271945D01*
X271847D01*
X271720Y393392D01*
X271579D01*
X271410Y393406D01*
X271241Y393420D01*
X270860Y393463D01*
X270465Y393519D01*
X270084Y393604D01*
X269901Y393660D01*
X269732Y393717D01*
X269718D01*
X269690Y393731D01*
X269648Y393759D01*
X269591Y393787D01*
X269436Y393872D01*
X269239Y393998D01*
X269013Y394168D01*
X268788Y394365D01*
X268548Y394619D01*
X268337Y394929D01*
Y394943D01*
X268308Y394971D01*
X268294Y395013D01*
X268252Y395084D01*
X268210Y395168D01*
X268167Y395281D01*
X268125Y395394D01*
X268069Y395535D01*
X268012Y395690D01*
X267970Y395859D01*
X267928Y396043D01*
X267885Y396254D01*
X267857Y396465D01*
X267829Y396691D01*
X267801Y397198D01*
Y397325D01*
X267815Y397424D01*
Y397537D01*
X267829Y397678D01*
X267843Y397833D01*
X267857Y397988D01*
X267914Y398340D01*
X267998Y398721D01*
X268111Y399087D01*
X268266Y399440D01*
Y399454D01*
X268294Y399482D01*
X268322Y399524D01*
X268351Y399581D01*
X268463Y399736D01*
X268619Y399919D01*
X268816Y400131D01*
X269041Y400328D01*
X269323Y400525D01*
X269633Y400680D01*
X269648D01*
X269676Y400695D01*
X269732Y400709D01*
X269803Y400737D01*
X269887Y400765D01*
X270000Y400793D01*
X270127Y400835D01*
X270282Y400864D01*
X270451Y400892D01*
X270634Y400934D01*
X270832Y400962D01*
X271043Y400991D01*
X271283Y401019D01*
X271537Y401033D01*
X271804Y401047D01*
X272086D01*
X277725D01*
Y399750D01*
D02*
G37*
G36*
Y384229D02*
X276569D01*
Y387443D01*
X267970D01*
Y388740D01*
X276569D01*
Y391954D01*
X277725D01*
Y384229D01*
D02*
G37*
G36*
Y375898D02*
X276569D01*
Y379112D01*
X267970D01*
Y380409D01*
X276569D01*
Y383623D01*
X277725D01*
Y375898D01*
D02*
G37*
G36*
X272946Y374939D02*
X273115D01*
X273313Y374911D01*
X273552Y374883D01*
X273820Y374841D01*
X274102Y374784D01*
X274398Y374728D01*
X274708Y374643D01*
X275019Y374530D01*
X275343Y374404D01*
X275653Y374263D01*
X275963Y374079D01*
X276245Y373882D01*
X276513Y373657D01*
X276527Y373642D01*
X276569Y373600D01*
X276640Y373516D01*
X276724Y373417D01*
X276837Y373290D01*
X276950Y373135D01*
X277077Y372952D01*
X277204Y372740D01*
X277330Y372515D01*
X277457Y372261D01*
X277570Y371979D01*
X277683Y371683D01*
X277767Y371359D01*
X277838Y371020D01*
X277880Y370668D01*
X277894Y370287D01*
Y370160D01*
X277880Y370062D01*
Y369935D01*
X277866Y369808D01*
X277838Y369639D01*
X277810Y369470D01*
X277739Y369103D01*
X277626Y368680D01*
X277457Y368271D01*
X277359Y368060D01*
X277246Y367849D01*
X277232Y367834D01*
X277218Y367806D01*
X277175Y367750D01*
X277133Y367665D01*
X277063Y367581D01*
X276978Y367468D01*
X276781Y367228D01*
X276527Y366974D01*
X276217Y366693D01*
X275850Y366425D01*
X275441Y366199D01*
X275427D01*
X275385Y366171D01*
X275329Y366143D01*
X275244Y366115D01*
X275131Y366058D01*
X275004Y366016D01*
X274849Y365960D01*
X274680Y365903D01*
X274497Y365861D01*
X274300Y365804D01*
X274074Y365748D01*
X273848Y365706D01*
X273355Y365649D01*
X272819Y365621D01*
X272805D01*
X272749D01*
X272678D01*
X272566Y365635D01*
X272439D01*
X272284Y365649D01*
X272115Y365678D01*
X271931Y365692D01*
X271522Y365762D01*
X271071Y365875D01*
X270620Y366030D01*
X270395Y366115D01*
X270169Y366227D01*
X270155D01*
X270113Y366256D01*
X270056Y366284D01*
X269972Y366340D01*
X269873Y366396D01*
X269774Y366467D01*
X269507Y366664D01*
X269225Y366904D01*
X268929Y367186D01*
X268647Y367524D01*
X268393Y367919D01*
Y367933D01*
X268365Y367961D01*
X268337Y368032D01*
X268294Y368116D01*
X268252Y368215D01*
X268210Y368328D01*
X268153Y368469D01*
X268097Y368624D01*
X268041Y368793D01*
X267984Y368976D01*
X267899Y369385D01*
X267829Y369822D01*
X267801Y370287D01*
Y370428D01*
X267815Y370513D01*
Y370640D01*
X267843Y370781D01*
X267857Y370936D01*
X267885Y371119D01*
X267970Y371500D01*
X268083Y371908D01*
X268252Y372331D01*
X268351Y372543D01*
X268463Y372754D01*
X268477Y372768D01*
X268492Y372797D01*
X268534Y372853D01*
X268590Y372938D01*
X268647Y373022D01*
X268731Y373121D01*
X268943Y373360D01*
X269196Y373628D01*
X269507Y373910D01*
X269859Y374164D01*
X270268Y374404D01*
X270282D01*
X270324Y374432D01*
X270381Y374460D01*
X270465Y374488D01*
X270578Y374530D01*
X270705Y374573D01*
X270846Y374629D01*
X271001Y374672D01*
X271184Y374728D01*
X271367Y374784D01*
X271790Y374869D01*
X272227Y374925D01*
X272707Y374953D01*
X272721D01*
X272735D01*
X272819D01*
X272946Y374939D01*
D02*
G37*
G36*
X277725Y362647D02*
X270056Y357529D01*
X277725D01*
Y356289D01*
X267970D01*
Y357628D01*
X275625Y362731D01*
X267970D01*
Y363972D01*
X277725D01*
Y362647D01*
D02*
G37*
G36*
X271676Y944866D02*
X271845D01*
X272043Y944838D01*
X272282Y944809D01*
X272550Y944767D01*
X272832Y944711D01*
X273128Y944654D01*
X273438Y944570D01*
X273748Y944457D01*
X274073Y944330D01*
X274383Y944189D01*
X274693Y944006D01*
X274975Y943809D01*
X275243Y943583D01*
X275257Y943569D01*
X275299Y943527D01*
X275370Y943442D01*
X275454Y943343D01*
X275567Y943217D01*
X275680Y943062D01*
X275807Y942878D01*
X275933Y942667D01*
X276060Y942441D01*
X276187Y942188D01*
X276300Y941906D01*
X276413Y941609D01*
X276497Y941285D01*
X276568Y940947D01*
X276610Y940594D01*
X276624Y940214D01*
Y940087D01*
X276610Y939988D01*
Y939862D01*
X276596Y939735D01*
X276568Y939565D01*
X276540Y939396D01*
X276469Y939030D01*
X276356Y938607D01*
X276187Y938198D01*
X276089Y937987D01*
X275976Y937775D01*
X275962Y937761D01*
X275948Y937733D01*
X275905Y937676D01*
X275863Y937592D01*
X275793Y937507D01*
X275708Y937394D01*
X275511Y937155D01*
X275257Y936901D01*
X274947Y936619D01*
X274580Y936351D01*
X274171Y936126D01*
X274157D01*
X274115Y936098D01*
X274059Y936069D01*
X273974Y936041D01*
X273861Y935985D01*
X273734Y935943D01*
X273579Y935886D01*
X273410Y935830D01*
X273227Y935787D01*
X273030Y935731D01*
X272804Y935675D01*
X272578Y935632D01*
X272085Y935576D01*
X271549Y935548D01*
X271535D01*
X271479D01*
X271408D01*
X271296Y935562D01*
X271169D01*
X271014Y935576D01*
X270844Y935604D01*
X270661Y935618D01*
X270252Y935689D01*
X269801Y935801D01*
X269350Y935957D01*
X269125Y936041D01*
X268899Y936154D01*
X268885D01*
X268843Y936182D01*
X268786Y936210D01*
X268702Y936267D01*
X268603Y936323D01*
X268504Y936394D01*
X268237Y936591D01*
X267955Y936831D01*
X267659Y937113D01*
X267377Y937451D01*
X267123Y937846D01*
Y937860D01*
X267095Y937888D01*
X267066Y937958D01*
X267024Y938043D01*
X266982Y938142D01*
X266940Y938254D01*
X266883Y938395D01*
X266827Y938550D01*
X266770Y938720D01*
X266714Y938903D01*
X266630Y939312D01*
X266559Y939749D01*
X266531Y940214D01*
Y940355D01*
X266545Y940439D01*
Y940566D01*
X266573Y940707D01*
X266587Y940862D01*
X266615Y941046D01*
X266700Y941426D01*
X266813Y941835D01*
X266982Y942258D01*
X267081Y942469D01*
X267193Y942681D01*
X267208Y942695D01*
X267222Y942723D01*
X267264Y942779D01*
X267320Y942864D01*
X267377Y942949D01*
X267461Y943047D01*
X267673Y943287D01*
X267926Y943555D01*
X268237Y943837D01*
X268589Y944091D01*
X268998Y944330D01*
X269012D01*
X269054Y944358D01*
X269111Y944387D01*
X269195Y944415D01*
X269308Y944457D01*
X269435Y944499D01*
X269576Y944556D01*
X269731Y944598D01*
X269914Y944654D01*
X270097Y944711D01*
X270520Y944795D01*
X270957Y944852D01*
X271437Y944880D01*
X271451D01*
X271465D01*
X271549D01*
X271676Y944866D01*
D02*
G37*
G36*
X276455Y932573D02*
X270816D01*
X270802D01*
X270760D01*
X270690D01*
X270605D01*
X270506Y932559D01*
X270379D01*
X270112Y932545D01*
X269801Y932517D01*
X269491Y932475D01*
X269195Y932418D01*
X269068Y932390D01*
X268941Y932348D01*
X268913Y932334D01*
X268843Y932306D01*
X268744Y932235D01*
X268603Y932150D01*
X268462Y932052D01*
X268307Y931911D01*
X268152Y931742D01*
X268025Y931544D01*
X268011Y931516D01*
X267969Y931446D01*
X267926Y931319D01*
X267870Y931150D01*
X267800Y930952D01*
X267757Y930698D01*
X267715Y930431D01*
X267701Y930135D01*
Y929994D01*
X267715Y929909D01*
Y929782D01*
X267729Y929655D01*
X267785Y929345D01*
X267856Y929007D01*
X267969Y928682D01*
X268124Y928372D01*
X268223Y928231D01*
X268335Y928105D01*
X268349Y928091D01*
X268363Y928076D01*
X268406Y928048D01*
X268462Y928006D01*
X268547Y927964D01*
X268631Y927907D01*
X268758Y927851D01*
X268885Y927794D01*
X269040Y927738D01*
X269223Y927696D01*
X269435Y927639D01*
X269660Y927597D01*
X269914Y927555D01*
X270182Y927527D01*
X270492Y927498D01*
X270816D01*
X276455D01*
Y926201D01*
X270816D01*
X270802D01*
X270746D01*
X270675D01*
X270577D01*
X270450Y926216D01*
X270309D01*
X270140Y926230D01*
X269970Y926244D01*
X269590Y926286D01*
X269195Y926342D01*
X268815Y926427D01*
X268631Y926483D01*
X268462Y926540D01*
X268448D01*
X268420Y926554D01*
X268377Y926582D01*
X268321Y926610D01*
X268166Y926695D01*
X267969Y926822D01*
X267743Y926991D01*
X267518Y927188D01*
X267278Y927442D01*
X267066Y927752D01*
Y927766D01*
X267038Y927794D01*
X267024Y927837D01*
X266982Y927907D01*
X266940Y927992D01*
X266897Y928105D01*
X266855Y928217D01*
X266799Y928358D01*
X266742Y928513D01*
X266700Y928682D01*
X266658Y928866D01*
X266615Y929077D01*
X266587Y929289D01*
X266559Y929514D01*
X266531Y930022D01*
Y930149D01*
X266545Y930247D01*
Y930360D01*
X266559Y930501D01*
X266573Y930656D01*
X266587Y930811D01*
X266644Y931164D01*
X266728Y931544D01*
X266841Y931911D01*
X266996Y932263D01*
Y932277D01*
X267024Y932306D01*
X267052Y932348D01*
X267081Y932404D01*
X267193Y932559D01*
X267348Y932742D01*
X267546Y932954D01*
X267771Y933151D01*
X268053Y933349D01*
X268363Y933504D01*
X268377D01*
X268406Y933518D01*
X268462Y933532D01*
X268533Y933560D01*
X268617Y933588D01*
X268730Y933616D01*
X268857Y933659D01*
X269012Y933687D01*
X269181Y933715D01*
X269364Y933757D01*
X269562Y933786D01*
X269773Y933814D01*
X270013Y933842D01*
X270266Y933856D01*
X270534Y933870D01*
X270816D01*
X276455D01*
Y932573D01*
D02*
G37*
G36*
Y917053D02*
X275299D01*
Y920267D01*
X266700D01*
Y921564D01*
X275299D01*
Y924778D01*
X276455D01*
Y917053D01*
D02*
G37*
G36*
X269435Y914994D02*
X269421D01*
X269393Y914980D01*
X269336Y914966D01*
X269266Y914952D01*
X269181Y914938D01*
X269082Y914910D01*
X268871Y914839D01*
X268617Y914741D01*
X268377Y914614D01*
X268152Y914473D01*
X267955Y914304D01*
X267941Y914275D01*
X267884Y914219D01*
X267814Y914106D01*
X267743Y913965D01*
X267659Y913796D01*
X267588Y913585D01*
X267532Y913345D01*
X267518Y913091D01*
Y913007D01*
X267532Y912950D01*
X267546Y912795D01*
X267588Y912598D01*
X267659Y912372D01*
X267757Y912133D01*
X267898Y911893D01*
X268096Y911667D01*
X268124Y911639D01*
X268208Y911569D01*
X268335Y911484D01*
X268504Y911371D01*
X268716Y911259D01*
X268955Y911174D01*
X269237Y911104D01*
X269548Y911075D01*
X269562D01*
X269590D01*
X269632D01*
X269689Y911089D01*
X269844Y911104D01*
X270027Y911146D01*
X270252Y911202D01*
X270478Y911301D01*
X270704Y911442D01*
X270915Y911625D01*
X270943Y911653D01*
X271000Y911724D01*
X271084Y911837D01*
X271183Y911992D01*
X271282Y912189D01*
X271366Y912429D01*
X271423Y912697D01*
X271451Y912993D01*
Y913120D01*
X271437Y913218D01*
X271423Y913345D01*
X271394Y913486D01*
X271366Y913655D01*
X271324Y913838D01*
X272381Y913697D01*
Y913627D01*
X272367Y913571D01*
Y913387D01*
X272395Y913232D01*
X272423Y913049D01*
X272466Y912838D01*
X272536Y912598D01*
X272635Y912372D01*
X272762Y912133D01*
Y912119D01*
X272776Y912104D01*
X272832Y912034D01*
X272931Y911935D01*
X273058Y911823D01*
X273241Y911710D01*
X273452Y911611D01*
X273692Y911541D01*
X273833Y911512D01*
X273988D01*
X274002D01*
X274016D01*
X274101D01*
X274214Y911541D01*
X274369Y911569D01*
X274538Y911625D01*
X274721Y911696D01*
X274904Y911808D01*
X275074Y911964D01*
X275088Y911978D01*
X275144Y912048D01*
X275215Y912147D01*
X275299Y912274D01*
X275370Y912443D01*
X275440Y912640D01*
X275497Y912866D01*
X275511Y913120D01*
Y913232D01*
X275482Y913359D01*
X275454Y913528D01*
X275398Y913711D01*
X275327Y913895D01*
X275215Y914092D01*
X275074Y914275D01*
X275060Y914289D01*
X274989Y914346D01*
X274890Y914430D01*
X274749Y914529D01*
X274566Y914628D01*
X274341Y914726D01*
X274073Y914811D01*
X273763Y914867D01*
X273974Y916066D01*
X273988D01*
X274030Y916052D01*
X274087Y916038D01*
X274171Y916023D01*
X274270Y915995D01*
X274383Y915953D01*
X274651Y915868D01*
X274961Y915727D01*
X275271Y915558D01*
X275567Y915347D01*
X275835Y915079D01*
X275849Y915065D01*
X275863Y915037D01*
X275891Y914994D01*
X275933Y914938D01*
X275990Y914867D01*
X276046Y914769D01*
X276103Y914670D01*
X276173Y914543D01*
X276286Y914261D01*
X276399Y913937D01*
X276469Y913557D01*
X276497Y913359D01*
Y913007D01*
X276483Y912852D01*
X276455Y912668D01*
X276413Y912443D01*
X276342Y912189D01*
X276258Y911935D01*
X276145Y911682D01*
Y911667D01*
X276131Y911653D01*
X276089Y911569D01*
X276004Y911442D01*
X275905Y911301D01*
X275764Y911132D01*
X275609Y910963D01*
X275426Y910794D01*
X275215Y910652D01*
X275186Y910638D01*
X275116Y910596D01*
X274989Y910540D01*
X274834Y910469D01*
X274651Y910399D01*
X274439Y910342D01*
X274200Y910300D01*
X273960Y910286D01*
X273932D01*
X273847D01*
X273734Y910300D01*
X273579Y910328D01*
X273396Y910370D01*
X273199Y910441D01*
X273001Y910526D01*
X272804Y910638D01*
X272776Y910652D01*
X272719Y910695D01*
X272621Y910779D01*
X272508Y910892D01*
X272381Y911033D01*
X272240Y911202D01*
X272113Y911400D01*
X271986Y911639D01*
Y911625D01*
X271972Y911597D01*
X271958Y911555D01*
X271944Y911498D01*
X271888Y911343D01*
X271803Y911146D01*
X271690Y910920D01*
X271549Y910695D01*
X271366Y910483D01*
X271155Y910286D01*
X271126Y910272D01*
X271042Y910216D01*
X270901Y910131D01*
X270718Y910046D01*
X270492Y909962D01*
X270224Y909877D01*
X269914Y909821D01*
X269576Y909807D01*
X269562D01*
X269519D01*
X269449D01*
X269364Y909821D01*
X269252Y909835D01*
X269125Y909863D01*
X268984Y909891D01*
X268829Y909919D01*
X268490Y910032D01*
X268307Y910117D01*
X268138Y910201D01*
X267955Y910314D01*
X267771Y910441D01*
X267588Y910582D01*
X267419Y910751D01*
X267405Y910765D01*
X267377Y910794D01*
X267334Y910850D01*
X267278Y910920D01*
X267208Y911005D01*
X267137Y911118D01*
X267052Y911245D01*
X266982Y911400D01*
X266897Y911555D01*
X266813Y911738D01*
X266742Y911921D01*
X266672Y912133D01*
X266615Y912358D01*
X266573Y912598D01*
X266545Y912838D01*
X266531Y913105D01*
Y913232D01*
X266545Y913317D01*
X266559Y913430D01*
X266573Y913557D01*
X266601Y913697D01*
X266630Y913852D01*
X266714Y914191D01*
X266855Y914543D01*
X266940Y914726D01*
X267038Y914896D01*
X267165Y915065D01*
X267292Y915234D01*
X267306Y915248D01*
X267334Y915276D01*
X267377Y915319D01*
X267433Y915361D01*
X267504Y915431D01*
X267602Y915502D01*
X267701Y915586D01*
X267828Y915671D01*
X267969Y915756D01*
X268110Y915840D01*
X268448Y915995D01*
X268843Y916122D01*
X269054Y916164D01*
X269280Y916193D01*
X269435Y914994D01*
D02*
G37*
G36*
X267402Y745548D02*
X267388D01*
X267374D01*
X267332Y745534D01*
X267275D01*
X267149Y745505D01*
X266965Y745463D01*
X266782Y745407D01*
X266571Y745350D01*
X266373Y745252D01*
X266190Y745153D01*
X266176Y745139D01*
X266119Y745097D01*
X266021Y745026D01*
X265922Y744913D01*
X265795Y744772D01*
X265668Y744617D01*
X265541Y744406D01*
X265429Y744180D01*
Y744166D01*
X265415Y744152D01*
X265401Y744110D01*
X265386Y744068D01*
X265344Y743926D01*
X265288Y743743D01*
X265231Y743518D01*
X265189Y743264D01*
X265161Y742982D01*
X265147Y742672D01*
Y742545D01*
X265161Y742404D01*
X265175Y742235D01*
X265203Y742038D01*
X265231Y741812D01*
X265288Y741586D01*
X265358Y741375D01*
X265372Y741347D01*
X265401Y741276D01*
X265457Y741178D01*
X265513Y741051D01*
X265612Y740924D01*
X265711Y740783D01*
X265823Y740642D01*
X265964Y740529D01*
X265979Y740515D01*
X266035Y740487D01*
X266105Y740444D01*
X266218Y740388D01*
X266331Y740332D01*
X266472Y740290D01*
X266627Y740261D01*
X266796Y740247D01*
X266810D01*
X266881D01*
X266965Y740261D01*
X267078Y740275D01*
X267191Y740318D01*
X267332Y740360D01*
X267473Y740430D01*
X267600Y740529D01*
X267614Y740543D01*
X267656Y740585D01*
X267712Y740642D01*
X267797Y740741D01*
X267882Y740853D01*
X267980Y741008D01*
X268079Y741192D01*
X268164Y741403D01*
X268178Y741417D01*
X268192Y741488D01*
X268234Y741600D01*
X268248Y741671D01*
X268276Y741770D01*
X268319Y741868D01*
X268347Y741995D01*
X268389Y742136D01*
X268431Y742305D01*
X268474Y742475D01*
X268530Y742672D01*
X268587Y742897D01*
X268643Y743137D01*
Y743151D01*
X268657Y743194D01*
X268671Y743264D01*
X268699Y743348D01*
X268727Y743461D01*
X268756Y743588D01*
X268840Y743870D01*
X268939Y744180D01*
X269038Y744504D01*
X269136Y744786D01*
X269193Y744913D01*
X269249Y745026D01*
Y745040D01*
X269263Y745054D01*
X269319Y745139D01*
X269390Y745266D01*
X269503Y745407D01*
X269630Y745576D01*
X269785Y745745D01*
X269968Y745914D01*
X270165Y746055D01*
X270194Y746069D01*
X270264Y746112D01*
X270377Y746168D01*
X270518Y746224D01*
X270701Y746281D01*
X270912Y746337D01*
X271138Y746379D01*
X271378Y746394D01*
X271392D01*
X271406D01*
X271448D01*
X271504D01*
X271646Y746365D01*
X271829Y746337D01*
X272040Y746295D01*
X272280Y746224D01*
X272519Y746126D01*
X272759Y745985D01*
X272773D01*
X272787Y745971D01*
X272872Y745900D01*
X272985Y745801D01*
X273126Y745675D01*
X273281Y745505D01*
X273450Y745294D01*
X273605Y745040D01*
X273746Y744758D01*
Y744744D01*
X273760Y744716D01*
X273774Y744674D01*
X273802Y744617D01*
X273831Y744547D01*
X273859Y744448D01*
X273915Y744237D01*
X273972Y743969D01*
X274028Y743659D01*
X274070Y743334D01*
X274084Y742968D01*
Y742785D01*
X274070Y742686D01*
Y742587D01*
X274042Y742319D01*
X274000Y742023D01*
X273929Y741713D01*
X273845Y741375D01*
X273732Y741065D01*
Y741051D01*
X273718Y741022D01*
X273690Y740980D01*
X273661Y740924D01*
X273591Y740783D01*
X273464Y740600D01*
X273323Y740388D01*
X273140Y740177D01*
X272928Y739979D01*
X272689Y739796D01*
X272675D01*
X272661Y739782D01*
X272618Y739754D01*
X272576Y739726D01*
X272435Y739655D01*
X272252Y739570D01*
X272026Y739472D01*
X271758Y739401D01*
X271476Y739331D01*
X271166Y739303D01*
X271068Y740543D01*
X271082D01*
X271110D01*
X271152Y740557D01*
X271223Y740571D01*
X271378Y740614D01*
X271589Y740670D01*
X271815Y740755D01*
X272040Y740882D01*
X272252Y741037D01*
X272449Y741234D01*
X272463Y741262D01*
X272519Y741333D01*
X272604Y741474D01*
X272689Y741657D01*
X272773Y741897D01*
X272858Y742178D01*
X272914Y742531D01*
X272928Y742926D01*
Y743123D01*
X272914Y743208D01*
X272900Y743320D01*
X272872Y743574D01*
X272816Y743856D01*
X272745Y744138D01*
X272632Y744406D01*
X272562Y744519D01*
X272491Y744631D01*
X272477Y744660D01*
X272421Y744716D01*
X272322Y744800D01*
X272209Y744885D01*
X272054Y744984D01*
X271885Y745068D01*
X271688Y745125D01*
X271462Y745153D01*
X271434D01*
X271378D01*
X271279Y745139D01*
X271166Y745111D01*
X271025Y745068D01*
X270884Y744998D01*
X270743Y744913D01*
X270602Y744786D01*
X270588Y744772D01*
X270546Y744702D01*
X270504Y744645D01*
X270476Y744589D01*
X270433Y744504D01*
X270377Y744406D01*
X270334Y744279D01*
X270278Y744138D01*
X270222Y743983D01*
X270151Y743800D01*
X270095Y743602D01*
X270024Y743377D01*
X269968Y743123D01*
X269897Y742841D01*
Y742827D01*
X269883Y742770D01*
X269869Y742686D01*
X269841Y742587D01*
X269813Y742460D01*
X269771Y742305D01*
X269728Y742150D01*
X269686Y741981D01*
X269587Y741615D01*
X269489Y741262D01*
X269432Y741093D01*
X269376Y740938D01*
X269334Y740797D01*
X269277Y740684D01*
Y740670D01*
X269263Y740642D01*
X269235Y740600D01*
X269207Y740543D01*
X269122Y740388D01*
X269009Y740205D01*
X268854Y739993D01*
X268685Y739782D01*
X268488Y739585D01*
X268276Y739416D01*
X268248Y739401D01*
X268178Y739345D01*
X268051Y739289D01*
X267882Y739204D01*
X267684Y739134D01*
X267445Y739063D01*
X267177Y739021D01*
X266895Y739007D01*
X266881D01*
X266867D01*
X266824D01*
X266768D01*
X266613Y739035D01*
X266416Y739063D01*
X266190Y739119D01*
X265950Y739190D01*
X265697Y739303D01*
X265429Y739458D01*
X265415D01*
X265401Y739472D01*
X265316Y739542D01*
X265189Y739641D01*
X265048Y739782D01*
X264879Y739965D01*
X264696Y740191D01*
X264527Y740444D01*
X264371Y740741D01*
Y740755D01*
X264357Y740783D01*
X264343Y740825D01*
X264315Y740882D01*
X264287Y740966D01*
X264245Y741065D01*
X264188Y741290D01*
X264118Y741558D01*
X264047Y741882D01*
X264005Y742235D01*
X263991Y742616D01*
Y742841D01*
X264005Y742954D01*
Y743081D01*
X264019Y743222D01*
X264033Y743391D01*
X264090Y743743D01*
X264146Y744110D01*
X264245Y744476D01*
X264371Y744829D01*
Y744843D01*
X264386Y744871D01*
X264414Y744913D01*
X264442Y744970D01*
X264527Y745139D01*
X264653Y745336D01*
X264823Y745562D01*
X265020Y745801D01*
X265260Y746027D01*
X265527Y746238D01*
X265541D01*
X265570Y746267D01*
X265612Y746281D01*
X265668Y746323D01*
X265739Y746351D01*
X265823Y746394D01*
X266035Y746492D01*
X266303Y746591D01*
X266599Y746675D01*
X266937Y746732D01*
X267290Y746760D01*
X267402Y745548D01*
D02*
G37*
G36*
X273915Y730154D02*
X272759D01*
Y735919D01*
X269785D01*
Y730520D01*
X268629D01*
Y735919D01*
X265316D01*
Y729928D01*
X264160D01*
Y737216D01*
X273915D01*
Y730154D01*
D02*
G37*
G36*
Y726827D02*
X266246Y721710D01*
X273915D01*
Y720469D01*
X264160D01*
Y721808D01*
X271815Y726911D01*
X264160D01*
Y728152D01*
X273915D01*
Y726827D01*
D02*
G37*
G36*
X267402Y717523D02*
X267388D01*
X267374D01*
X267332Y717509D01*
X267275D01*
X267149Y717480D01*
X266965Y717438D01*
X266782Y717382D01*
X266571Y717326D01*
X266373Y717227D01*
X266190Y717128D01*
X266176Y717114D01*
X266119Y717072D01*
X266021Y717001D01*
X265922Y716889D01*
X265795Y716748D01*
X265668Y716592D01*
X265541Y716381D01*
X265429Y716155D01*
Y716141D01*
X265415Y716127D01*
X265401Y716085D01*
X265386Y716043D01*
X265344Y715902D01*
X265288Y715718D01*
X265231Y715493D01*
X265189Y715239D01*
X265161Y714957D01*
X265147Y714647D01*
Y714520D01*
X265161Y714379D01*
X265175Y714210D01*
X265203Y714013D01*
X265231Y713787D01*
X265288Y713562D01*
X265358Y713350D01*
X265372Y713322D01*
X265401Y713251D01*
X265457Y713153D01*
X265513Y713026D01*
X265612Y712899D01*
X265711Y712758D01*
X265823Y712617D01*
X265964Y712504D01*
X265979Y712490D01*
X266035Y712462D01*
X266105Y712420D01*
X266218Y712363D01*
X266331Y712307D01*
X266472Y712265D01*
X266627Y712236D01*
X266796Y712222D01*
X266810D01*
X266881D01*
X266965Y712236D01*
X267078Y712251D01*
X267191Y712293D01*
X267332Y712335D01*
X267473Y712406D01*
X267600Y712504D01*
X267614Y712518D01*
X267656Y712561D01*
X267712Y712617D01*
X267797Y712716D01*
X267882Y712829D01*
X267980Y712984D01*
X268079Y713167D01*
X268164Y713378D01*
X268178Y713392D01*
X268192Y713463D01*
X268234Y713576D01*
X268248Y713646D01*
X268276Y713745D01*
X268319Y713844D01*
X268347Y713970D01*
X268389Y714111D01*
X268431Y714280D01*
X268474Y714450D01*
X268530Y714647D01*
X268587Y714873D01*
X268643Y715112D01*
Y715126D01*
X268657Y715169D01*
X268671Y715239D01*
X268699Y715324D01*
X268727Y715436D01*
X268756Y715563D01*
X268840Y715845D01*
X268939Y716155D01*
X269038Y716480D01*
X269136Y716762D01*
X269193Y716889D01*
X269249Y717001D01*
Y717015D01*
X269263Y717029D01*
X269319Y717114D01*
X269390Y717241D01*
X269503Y717382D01*
X269630Y717551D01*
X269785Y717720D01*
X269968Y717889D01*
X270165Y718030D01*
X270194Y718044D01*
X270264Y718087D01*
X270377Y718143D01*
X270518Y718199D01*
X270701Y718256D01*
X270912Y718312D01*
X271138Y718354D01*
X271378Y718369D01*
X271392D01*
X271406D01*
X271448D01*
X271504D01*
X271646Y718340D01*
X271829Y718312D01*
X272040Y718270D01*
X272280Y718199D01*
X272519Y718101D01*
X272759Y717960D01*
X272773D01*
X272787Y717946D01*
X272872Y717875D01*
X272985Y717777D01*
X273126Y717650D01*
X273281Y717480D01*
X273450Y717269D01*
X273605Y717015D01*
X273746Y716733D01*
Y716719D01*
X273760Y716691D01*
X273774Y716649D01*
X273802Y716592D01*
X273831Y716522D01*
X273859Y716423D01*
X273915Y716212D01*
X273972Y715944D01*
X274028Y715634D01*
X274070Y715310D01*
X274084Y714943D01*
Y714760D01*
X274070Y714661D01*
Y714563D01*
X274042Y714295D01*
X274000Y713999D01*
X273929Y713688D01*
X273845Y713350D01*
X273732Y713040D01*
Y713026D01*
X273718Y712998D01*
X273690Y712955D01*
X273661Y712899D01*
X273591Y712758D01*
X273464Y712575D01*
X273323Y712363D01*
X273140Y712152D01*
X272928Y711954D01*
X272689Y711771D01*
X272675D01*
X272661Y711757D01*
X272618Y711729D01*
X272576Y711701D01*
X272435Y711630D01*
X272252Y711546D01*
X272026Y711447D01*
X271758Y711376D01*
X271476Y711306D01*
X271166Y711278D01*
X271068Y712518D01*
X271082D01*
X271110D01*
X271152Y712533D01*
X271223Y712547D01*
X271378Y712589D01*
X271589Y712645D01*
X271815Y712730D01*
X272040Y712857D01*
X272252Y713012D01*
X272449Y713209D01*
X272463Y713237D01*
X272519Y713308D01*
X272604Y713449D01*
X272689Y713632D01*
X272773Y713872D01*
X272858Y714154D01*
X272914Y714506D01*
X272928Y714901D01*
Y715098D01*
X272914Y715183D01*
X272900Y715295D01*
X272872Y715549D01*
X272816Y715831D01*
X272745Y716113D01*
X272632Y716381D01*
X272562Y716494D01*
X272491Y716607D01*
X272477Y716635D01*
X272421Y716691D01*
X272322Y716776D01*
X272209Y716860D01*
X272054Y716959D01*
X271885Y717044D01*
X271688Y717100D01*
X271462Y717128D01*
X271434D01*
X271378D01*
X271279Y717114D01*
X271166Y717086D01*
X271025Y717044D01*
X270884Y716973D01*
X270743Y716889D01*
X270602Y716762D01*
X270588Y716748D01*
X270546Y716677D01*
X270504Y716621D01*
X270476Y716564D01*
X270433Y716480D01*
X270377Y716381D01*
X270334Y716254D01*
X270278Y716113D01*
X270222Y715958D01*
X270151Y715775D01*
X270095Y715577D01*
X270024Y715352D01*
X269968Y715098D01*
X269897Y714816D01*
Y714802D01*
X269883Y714746D01*
X269869Y714661D01*
X269841Y714563D01*
X269813Y714436D01*
X269771Y714280D01*
X269728Y714125D01*
X269686Y713956D01*
X269587Y713590D01*
X269489Y713237D01*
X269432Y713068D01*
X269376Y712913D01*
X269334Y712772D01*
X269277Y712659D01*
Y712645D01*
X269263Y712617D01*
X269235Y712575D01*
X269207Y712518D01*
X269122Y712363D01*
X269009Y712180D01*
X268854Y711969D01*
X268685Y711757D01*
X268488Y711560D01*
X268276Y711391D01*
X268248Y711376D01*
X268178Y711320D01*
X268051Y711264D01*
X267882Y711179D01*
X267684Y711109D01*
X267445Y711038D01*
X267177Y710996D01*
X266895Y710982D01*
X266881D01*
X266867D01*
X266824D01*
X266768D01*
X266613Y711010D01*
X266416Y711038D01*
X266190Y711095D01*
X265950Y711165D01*
X265697Y711278D01*
X265429Y711433D01*
X265415D01*
X265401Y711447D01*
X265316Y711517D01*
X265189Y711616D01*
X265048Y711757D01*
X264879Y711940D01*
X264696Y712166D01*
X264527Y712420D01*
X264371Y712716D01*
Y712730D01*
X264357Y712758D01*
X264343Y712800D01*
X264315Y712857D01*
X264287Y712941D01*
X264245Y713040D01*
X264188Y713266D01*
X264118Y713533D01*
X264047Y713858D01*
X264005Y714210D01*
X263991Y714591D01*
Y714816D01*
X264005Y714929D01*
Y715056D01*
X264019Y715197D01*
X264033Y715366D01*
X264090Y715718D01*
X264146Y716085D01*
X264245Y716451D01*
X264371Y716804D01*
Y716818D01*
X264386Y716846D01*
X264414Y716889D01*
X264442Y716945D01*
X264527Y717114D01*
X264653Y717311D01*
X264823Y717537D01*
X265020Y717777D01*
X265260Y718002D01*
X265527Y718214D01*
X265541D01*
X265570Y718242D01*
X265612Y718256D01*
X265668Y718298D01*
X265739Y718326D01*
X265823Y718369D01*
X266035Y718467D01*
X266303Y718566D01*
X266599Y718651D01*
X266937Y718707D01*
X267290Y718735D01*
X267402Y717523D01*
D02*
G37*
G36*
X269136Y709586D02*
X269305D01*
X269503Y709558D01*
X269742Y709530D01*
X270010Y709488D01*
X270292Y709431D01*
X270588Y709375D01*
X270898Y709290D01*
X271208Y709177D01*
X271533Y709051D01*
X271843Y708910D01*
X272153Y708726D01*
X272435Y708529D01*
X272703Y708303D01*
X272717Y708289D01*
X272759Y708247D01*
X272830Y708162D01*
X272914Y708064D01*
X273027Y707937D01*
X273140Y707782D01*
X273267Y707598D01*
X273393Y707387D01*
X273520Y707161D01*
X273647Y706908D01*
X273760Y706626D01*
X273873Y706330D01*
X273957Y706006D01*
X274028Y705667D01*
X274070Y705315D01*
X274084Y704934D01*
Y704807D01*
X274070Y704709D01*
Y704582D01*
X274056Y704455D01*
X274028Y704286D01*
X274000Y704117D01*
X273929Y703750D01*
X273816Y703327D01*
X273647Y702918D01*
X273549Y702707D01*
X273436Y702495D01*
X273422Y702481D01*
X273408Y702453D01*
X273365Y702397D01*
X273323Y702312D01*
X273253Y702228D01*
X273168Y702115D01*
X272971Y701875D01*
X272717Y701621D01*
X272407Y701339D01*
X272040Y701072D01*
X271631Y700846D01*
X271617D01*
X271575Y700818D01*
X271519Y700790D01*
X271434Y700761D01*
X271321Y700705D01*
X271194Y700663D01*
X271039Y700606D01*
X270870Y700550D01*
X270687Y700508D01*
X270490Y700451D01*
X270264Y700395D01*
X270038Y700353D01*
X269545Y700296D01*
X269009Y700268D01*
X268995D01*
X268939D01*
X268868D01*
X268756Y700282D01*
X268629D01*
X268474Y700296D01*
X268305Y700324D01*
X268121Y700339D01*
X267712Y700409D01*
X267261Y700522D01*
X266810Y700677D01*
X266585Y700761D01*
X266359Y700874D01*
X266345D01*
X266303Y700902D01*
X266246Y700931D01*
X266162Y700987D01*
X266063Y701043D01*
X265964Y701114D01*
X265697Y701311D01*
X265415Y701551D01*
X265119Y701833D01*
X264837Y702171D01*
X264583Y702566D01*
Y702580D01*
X264555Y702608D01*
X264527Y702679D01*
X264484Y702763D01*
X264442Y702862D01*
X264400Y702975D01*
X264343Y703116D01*
X264287Y703271D01*
X264230Y703440D01*
X264174Y703623D01*
X264090Y704032D01*
X264019Y704469D01*
X263991Y704934D01*
Y705075D01*
X264005Y705160D01*
Y705287D01*
X264033Y705428D01*
X264047Y705583D01*
X264075Y705766D01*
X264160Y706146D01*
X264273Y706555D01*
X264442Y706978D01*
X264541Y707190D01*
X264653Y707401D01*
X264667Y707415D01*
X264682Y707443D01*
X264724Y707500D01*
X264780Y707584D01*
X264837Y707669D01*
X264921Y707768D01*
X265133Y708007D01*
X265386Y708275D01*
X265697Y708557D01*
X266049Y708811D01*
X266458Y709051D01*
X266472D01*
X266514Y709079D01*
X266571Y709107D01*
X266655Y709135D01*
X266768Y709177D01*
X266895Y709220D01*
X267036Y709276D01*
X267191Y709318D01*
X267374Y709375D01*
X267557Y709431D01*
X267980Y709516D01*
X268417Y709572D01*
X268897Y709600D01*
X268911D01*
X268925D01*
X269009D01*
X269136Y709586D01*
D02*
G37*
G36*
X273915Y694065D02*
X273901Y693953D01*
Y693826D01*
X273887Y693530D01*
X273845Y693220D01*
X273802Y692881D01*
X273732Y692571D01*
X273690Y692416D01*
X273647Y692289D01*
Y692275D01*
X273633Y692261D01*
X273591Y692176D01*
X273535Y692049D01*
X273436Y691895D01*
X273309Y691725D01*
X273140Y691542D01*
X272942Y691373D01*
X272717Y691204D01*
X272703D01*
X272689Y691190D01*
X272604Y691133D01*
X272463Y691077D01*
X272280Y690992D01*
X272068Y690922D01*
X271815Y690851D01*
X271547Y690809D01*
X271251Y690795D01*
X271237D01*
X271208D01*
X271152D01*
X271082Y690809D01*
X270983D01*
X270884Y690823D01*
X270645Y690880D01*
X270363Y690964D01*
X270067Y691077D01*
X269771Y691246D01*
X269630Y691359D01*
X269489Y691472D01*
X269475Y691486D01*
X269461Y691500D01*
X269418Y691542D01*
X269376Y691598D01*
X269319Y691669D01*
X269263Y691753D01*
X269193Y691866D01*
X269108Y691979D01*
X269038Y692120D01*
X268967Y692275D01*
X268883Y692444D01*
X268812Y692627D01*
X268756Y692839D01*
X268685Y693050D01*
X268643Y693290D01*
X268601Y693544D01*
X268587Y693516D01*
X268558Y693459D01*
X268502Y693375D01*
X268445Y693262D01*
X268290Y693008D01*
X268192Y692881D01*
X268107Y692768D01*
X268079Y692740D01*
X268008Y692670D01*
X267896Y692557D01*
X267755Y692416D01*
X267557Y692261D01*
X267346Y692078D01*
X267092Y691895D01*
X266810Y691697D01*
X264160Y690020D01*
Y691627D01*
X266190Y692909D01*
X266204D01*
X266232Y692938D01*
X266275Y692966D01*
X266331Y693008D01*
X266486Y693107D01*
X266683Y693234D01*
X266895Y693389D01*
X267120Y693544D01*
X267332Y693699D01*
X267529Y693840D01*
X267543Y693854D01*
X267600Y693896D01*
X267684Y693967D01*
X267783Y694065D01*
X267994Y694277D01*
X268093Y694390D01*
X268178Y694502D01*
X268192Y694517D01*
X268206Y694545D01*
X268234Y694601D01*
X268276Y694686D01*
X268319Y694770D01*
X268361Y694869D01*
X268431Y695095D01*
Y695109D01*
X268445Y695137D01*
Y695193D01*
X268460Y695264D01*
X268474Y695362D01*
Y695475D01*
X268488Y695630D01*
Y697294D01*
X264160D01*
Y698591D01*
X273915D01*
Y694065D01*
D02*
G37*
G36*
X271504Y688328D02*
X271533Y688300D01*
X271547Y688243D01*
X271589Y688173D01*
X271631Y688088D01*
X271688Y687990D01*
X271829Y687750D01*
X271984Y687468D01*
X272181Y687186D01*
X272407Y686890D01*
X272646Y686594D01*
X272661Y686580D01*
X272675Y686566D01*
X272717Y686524D01*
X272759Y686467D01*
X272900Y686340D01*
X273069Y686171D01*
X273267Y686002D01*
X273492Y685819D01*
X273718Y685664D01*
X273957Y685523D01*
Y684747D01*
X264160D01*
Y685946D01*
X271786D01*
X271772Y685960D01*
X271716Y686030D01*
X271631Y686115D01*
X271533Y686256D01*
X271406Y686411D01*
X271265Y686608D01*
X271110Y686834D01*
X270955Y687087D01*
Y687102D01*
X270941Y687116D01*
X270884Y687200D01*
X270814Y687341D01*
X270729Y687510D01*
X270630Y687708D01*
X270532Y687919D01*
X270433Y688131D01*
X270349Y688342D01*
X271504D01*
Y688328D01*
D02*
G37*
G36*
X269942Y551238D02*
X269928D01*
X269914D01*
X269872Y551224D01*
X269815D01*
X269689Y551195D01*
X269505Y551153D01*
X269322Y551097D01*
X269111Y551040D01*
X268913Y550942D01*
X268730Y550843D01*
X268716Y550829D01*
X268659Y550787D01*
X268561Y550716D01*
X268462Y550603D01*
X268335Y550462D01*
X268208Y550307D01*
X268081Y550096D01*
X267969Y549870D01*
Y549856D01*
X267955Y549842D01*
X267941Y549800D01*
X267926Y549757D01*
X267884Y549617D01*
X267828Y549433D01*
X267771Y549208D01*
X267729Y548954D01*
X267701Y548672D01*
X267687Y548362D01*
Y548235D01*
X267701Y548094D01*
X267715Y547925D01*
X267743Y547728D01*
X267771Y547502D01*
X267828Y547276D01*
X267898Y547065D01*
X267912Y547037D01*
X267941Y546966D01*
X267997Y546868D01*
X268053Y546741D01*
X268152Y546614D01*
X268251Y546473D01*
X268363Y546332D01*
X268504Y546219D01*
X268519Y546205D01*
X268575Y546177D01*
X268645Y546134D01*
X268758Y546078D01*
X268871Y546022D01*
X269012Y545979D01*
X269167Y545951D01*
X269336Y545937D01*
X269350D01*
X269421D01*
X269505Y545951D01*
X269618Y545965D01*
X269731Y546008D01*
X269872Y546050D01*
X270013Y546120D01*
X270140Y546219D01*
X270154Y546233D01*
X270196Y546275D01*
X270252Y546332D01*
X270337Y546431D01*
X270422Y546543D01*
X270520Y546698D01*
X270619Y546882D01*
X270704Y547093D01*
X270718Y547107D01*
X270732Y547178D01*
X270774Y547290D01*
X270788Y547361D01*
X270816Y547460D01*
X270859Y547558D01*
X270887Y547685D01*
X270929Y547826D01*
X270971Y547995D01*
X271014Y548164D01*
X271070Y548362D01*
X271126Y548587D01*
X271183Y548827D01*
Y548841D01*
X271197Y548884D01*
X271211Y548954D01*
X271239Y549039D01*
X271267Y549151D01*
X271296Y549278D01*
X271380Y549560D01*
X271479Y549870D01*
X271578Y550195D01*
X271676Y550476D01*
X271733Y550603D01*
X271789Y550716D01*
Y550730D01*
X271803Y550744D01*
X271859Y550829D01*
X271930Y550956D01*
X272043Y551097D01*
X272170Y551266D01*
X272325Y551435D01*
X272508Y551604D01*
X272705Y551745D01*
X272733Y551759D01*
X272804Y551801D01*
X272917Y551858D01*
X273058Y551914D01*
X273241Y551971D01*
X273452Y552027D01*
X273678Y552069D01*
X273918Y552084D01*
X273932D01*
X273946D01*
X273988D01*
X274044D01*
X274186Y552055D01*
X274369Y552027D01*
X274580Y551985D01*
X274820Y551914D01*
X275060Y551816D01*
X275299Y551675D01*
X275313D01*
X275327Y551661D01*
X275412Y551590D01*
X275525Y551491D01*
X275666Y551365D01*
X275821Y551195D01*
X275990Y550984D01*
X276145Y550730D01*
X276286Y550448D01*
Y550434D01*
X276300Y550406D01*
X276314Y550364D01*
X276342Y550307D01*
X276371Y550237D01*
X276399Y550138D01*
X276455Y549927D01*
X276511Y549659D01*
X276568Y549349D01*
X276610Y549024D01*
X276624Y548658D01*
Y548475D01*
X276610Y548376D01*
Y548277D01*
X276582Y548009D01*
X276540Y547713D01*
X276469Y547403D01*
X276385Y547065D01*
X276272Y546755D01*
Y546741D01*
X276258Y546712D01*
X276230Y546670D01*
X276201Y546614D01*
X276131Y546473D01*
X276004Y546290D01*
X275863Y546078D01*
X275680Y545867D01*
X275468Y545669D01*
X275229Y545486D01*
X275215D01*
X275201Y545472D01*
X275158Y545444D01*
X275116Y545416D01*
X274975Y545345D01*
X274792Y545261D01*
X274566Y545162D01*
X274298Y545091D01*
X274016Y545021D01*
X273706Y544993D01*
X273608Y546233D01*
X273622D01*
X273650D01*
X273692Y546247D01*
X273763Y546261D01*
X273918Y546304D01*
X274129Y546360D01*
X274355Y546445D01*
X274580Y546572D01*
X274792Y546727D01*
X274989Y546924D01*
X275003Y546952D01*
X275060Y547023D01*
X275144Y547164D01*
X275229Y547347D01*
X275313Y547587D01*
X275398Y547868D01*
X275454Y548221D01*
X275468Y548616D01*
Y548813D01*
X275454Y548898D01*
X275440Y549010D01*
X275412Y549264D01*
X275356Y549546D01*
X275285Y549828D01*
X275172Y550096D01*
X275102Y550209D01*
X275031Y550321D01*
X275017Y550350D01*
X274961Y550406D01*
X274862Y550490D01*
X274749Y550575D01*
X274594Y550674D01*
X274425Y550758D01*
X274228Y550815D01*
X274002Y550843D01*
X273974D01*
X273918D01*
X273819Y550829D01*
X273706Y550801D01*
X273565Y550758D01*
X273424Y550688D01*
X273283Y550603D01*
X273142Y550476D01*
X273128Y550462D01*
X273086Y550392D01*
X273044Y550335D01*
X273015Y550279D01*
X272973Y550195D01*
X272917Y550096D01*
X272875Y549969D01*
X272818Y549828D01*
X272762Y549673D01*
X272691Y549490D01*
X272635Y549292D01*
X272564Y549067D01*
X272508Y548813D01*
X272437Y548531D01*
Y548517D01*
X272423Y548461D01*
X272409Y548376D01*
X272381Y548277D01*
X272353Y548150D01*
X272311Y547995D01*
X272268Y547840D01*
X272226Y547671D01*
X272127Y547305D01*
X272029Y546952D01*
X271972Y546783D01*
X271916Y546628D01*
X271874Y546487D01*
X271817Y546374D01*
Y546360D01*
X271803Y546332D01*
X271775Y546290D01*
X271747Y546233D01*
X271662Y546078D01*
X271549Y545895D01*
X271394Y545683D01*
X271225Y545472D01*
X271028Y545275D01*
X270816Y545106D01*
X270788Y545091D01*
X270718Y545035D01*
X270591Y544979D01*
X270422Y544894D01*
X270224Y544823D01*
X269985Y544753D01*
X269717Y544711D01*
X269435Y544697D01*
X269421D01*
X269407D01*
X269364D01*
X269308D01*
X269153Y544725D01*
X268955Y544753D01*
X268730Y544809D01*
X268490Y544880D01*
X268237Y544993D01*
X267969Y545148D01*
X267955D01*
X267941Y545162D01*
X267856Y545232D01*
X267729Y545331D01*
X267588Y545472D01*
X267419Y545655D01*
X267236Y545881D01*
X267066Y546134D01*
X266912Y546431D01*
Y546445D01*
X266897Y546473D01*
X266883Y546515D01*
X266855Y546572D01*
X266827Y546656D01*
X266785Y546755D01*
X266728Y546980D01*
X266658Y547248D01*
X266587Y547572D01*
X266545Y547925D01*
X266531Y548306D01*
Y548531D01*
X266545Y548644D01*
Y548771D01*
X266559Y548912D01*
X266573Y549081D01*
X266630Y549433D01*
X266686Y549800D01*
X266785Y550166D01*
X266912Y550519D01*
Y550533D01*
X266926Y550561D01*
X266954Y550603D01*
X266982Y550660D01*
X267066Y550829D01*
X267193Y551026D01*
X267363Y551252D01*
X267560Y551491D01*
X267800Y551717D01*
X268067Y551928D01*
X268081D01*
X268110Y551957D01*
X268152Y551971D01*
X268208Y552013D01*
X268279Y552041D01*
X268363Y552084D01*
X268575Y552182D01*
X268843Y552281D01*
X269139Y552365D01*
X269477Y552422D01*
X269830Y552450D01*
X269942Y551238D01*
D02*
G37*
G36*
X276455Y535844D02*
X275299D01*
Y541609D01*
X272325D01*
Y536210D01*
X271169D01*
Y541609D01*
X267856D01*
Y535618D01*
X266700D01*
Y542906D01*
X276455D01*
Y535844D01*
D02*
G37*
G36*
Y532517D02*
X268786Y527400D01*
X276455D01*
Y526159D01*
X266700D01*
Y527498D01*
X274355Y532601D01*
X266700D01*
Y533842D01*
X276455D01*
Y532517D01*
D02*
G37*
G36*
X269942Y523213D02*
X269928D01*
X269914D01*
X269872Y523199D01*
X269815D01*
X269689Y523171D01*
X269505Y523128D01*
X269322Y523072D01*
X269111Y523016D01*
X268913Y522917D01*
X268730Y522818D01*
X268716Y522804D01*
X268659Y522762D01*
X268561Y522691D01*
X268462Y522579D01*
X268335Y522438D01*
X268208Y522282D01*
X268081Y522071D01*
X267969Y521845D01*
Y521831D01*
X267955Y521817D01*
X267941Y521775D01*
X267926Y521733D01*
X267884Y521592D01*
X267828Y521408D01*
X267771Y521183D01*
X267729Y520929D01*
X267701Y520647D01*
X267687Y520337D01*
Y520210D01*
X267701Y520069D01*
X267715Y519900D01*
X267743Y519703D01*
X267771Y519477D01*
X267828Y519252D01*
X267898Y519040D01*
X267912Y519012D01*
X267941Y518941D01*
X267997Y518843D01*
X268053Y518716D01*
X268152Y518589D01*
X268251Y518448D01*
X268363Y518307D01*
X268504Y518194D01*
X268519Y518180D01*
X268575Y518152D01*
X268645Y518110D01*
X268758Y518053D01*
X268871Y517997D01*
X269012Y517955D01*
X269167Y517926D01*
X269336Y517912D01*
X269350D01*
X269421D01*
X269505Y517926D01*
X269618Y517940D01*
X269731Y517983D01*
X269872Y518025D01*
X270013Y518096D01*
X270140Y518194D01*
X270154Y518208D01*
X270196Y518251D01*
X270252Y518307D01*
X270337Y518406D01*
X270422Y518518D01*
X270520Y518674D01*
X270619Y518857D01*
X270704Y519068D01*
X270718Y519082D01*
X270732Y519153D01*
X270774Y519266D01*
X270788Y519336D01*
X270816Y519435D01*
X270859Y519534D01*
X270887Y519660D01*
X270929Y519801D01*
X270971Y519971D01*
X271014Y520140D01*
X271070Y520337D01*
X271126Y520563D01*
X271183Y520802D01*
Y520816D01*
X271197Y520859D01*
X271211Y520929D01*
X271239Y521014D01*
X271267Y521127D01*
X271296Y521253D01*
X271380Y521535D01*
X271479Y521845D01*
X271578Y522170D01*
X271676Y522452D01*
X271733Y522579D01*
X271789Y522691D01*
Y522705D01*
X271803Y522719D01*
X271859Y522804D01*
X271930Y522931D01*
X272043Y523072D01*
X272170Y523241D01*
X272325Y523410D01*
X272508Y523579D01*
X272705Y523720D01*
X272733Y523734D01*
X272804Y523777D01*
X272917Y523833D01*
X273058Y523890D01*
X273241Y523946D01*
X273452Y524002D01*
X273678Y524044D01*
X273918Y524059D01*
X273932D01*
X273946D01*
X273988D01*
X274044D01*
X274186Y524030D01*
X274369Y524002D01*
X274580Y523960D01*
X274820Y523890D01*
X275060Y523791D01*
X275299Y523650D01*
X275313D01*
X275327Y523636D01*
X275412Y523565D01*
X275525Y523467D01*
X275666Y523340D01*
X275821Y523171D01*
X275990Y522959D01*
X276145Y522705D01*
X276286Y522423D01*
Y522409D01*
X276300Y522381D01*
X276314Y522339D01*
X276342Y522282D01*
X276371Y522212D01*
X276399Y522113D01*
X276455Y521902D01*
X276511Y521634D01*
X276568Y521324D01*
X276610Y521000D01*
X276624Y520633D01*
Y520450D01*
X276610Y520351D01*
Y520252D01*
X276582Y519985D01*
X276540Y519689D01*
X276469Y519378D01*
X276385Y519040D01*
X276272Y518730D01*
Y518716D01*
X276258Y518688D01*
X276230Y518645D01*
X276201Y518589D01*
X276131Y518448D01*
X276004Y518265D01*
X275863Y518053D01*
X275680Y517842D01*
X275468Y517645D01*
X275229Y517461D01*
X275215D01*
X275201Y517447D01*
X275158Y517419D01*
X275116Y517391D01*
X274975Y517320D01*
X274792Y517236D01*
X274566Y517137D01*
X274298Y517066D01*
X274016Y516996D01*
X273706Y516968D01*
X273608Y518208D01*
X273622D01*
X273650D01*
X273692Y518223D01*
X273763Y518237D01*
X273918Y518279D01*
X274129Y518335D01*
X274355Y518420D01*
X274580Y518547D01*
X274792Y518702D01*
X274989Y518899D01*
X275003Y518927D01*
X275060Y518998D01*
X275144Y519139D01*
X275229Y519322D01*
X275313Y519562D01*
X275398Y519844D01*
X275454Y520196D01*
X275468Y520591D01*
Y520788D01*
X275454Y520873D01*
X275440Y520985D01*
X275412Y521239D01*
X275356Y521521D01*
X275285Y521803D01*
X275172Y522071D01*
X275102Y522184D01*
X275031Y522296D01*
X275017Y522325D01*
X274961Y522381D01*
X274862Y522466D01*
X274749Y522550D01*
X274594Y522649D01*
X274425Y522733D01*
X274228Y522790D01*
X274002Y522818D01*
X273974D01*
X273918D01*
X273819Y522804D01*
X273706Y522776D01*
X273565Y522733D01*
X273424Y522663D01*
X273283Y522579D01*
X273142Y522452D01*
X273128Y522438D01*
X273086Y522367D01*
X273044Y522311D01*
X273015Y522254D01*
X272973Y522170D01*
X272917Y522071D01*
X272875Y521944D01*
X272818Y521803D01*
X272762Y521648D01*
X272691Y521465D01*
X272635Y521267D01*
X272564Y521042D01*
X272508Y520788D01*
X272437Y520506D01*
Y520492D01*
X272423Y520436D01*
X272409Y520351D01*
X272381Y520252D01*
X272353Y520126D01*
X272311Y519971D01*
X272268Y519815D01*
X272226Y519646D01*
X272127Y519280D01*
X272029Y518927D01*
X271972Y518758D01*
X271916Y518603D01*
X271874Y518462D01*
X271817Y518349D01*
Y518335D01*
X271803Y518307D01*
X271775Y518265D01*
X271747Y518208D01*
X271662Y518053D01*
X271549Y517870D01*
X271394Y517659D01*
X271225Y517447D01*
X271028Y517250D01*
X270816Y517081D01*
X270788Y517066D01*
X270718Y517010D01*
X270591Y516954D01*
X270422Y516869D01*
X270224Y516799D01*
X269985Y516728D01*
X269717Y516686D01*
X269435Y516672D01*
X269421D01*
X269407D01*
X269364D01*
X269308D01*
X269153Y516700D01*
X268955Y516728D01*
X268730Y516785D01*
X268490Y516855D01*
X268237Y516968D01*
X267969Y517123D01*
X267955D01*
X267941Y517137D01*
X267856Y517207D01*
X267729Y517306D01*
X267588Y517447D01*
X267419Y517630D01*
X267236Y517856D01*
X267066Y518110D01*
X266912Y518406D01*
Y518420D01*
X266897Y518448D01*
X266883Y518490D01*
X266855Y518547D01*
X266827Y518631D01*
X266785Y518730D01*
X266728Y518955D01*
X266658Y519223D01*
X266587Y519548D01*
X266545Y519900D01*
X266531Y520281D01*
Y520506D01*
X266545Y520619D01*
Y520746D01*
X266559Y520887D01*
X266573Y521056D01*
X266630Y521408D01*
X266686Y521775D01*
X266785Y522141D01*
X266912Y522494D01*
Y522508D01*
X266926Y522536D01*
X266954Y522579D01*
X266982Y522635D01*
X267066Y522804D01*
X267193Y523001D01*
X267363Y523227D01*
X267560Y523467D01*
X267800Y523692D01*
X268067Y523904D01*
X268081D01*
X268110Y523932D01*
X268152Y523946D01*
X268208Y523988D01*
X268279Y524016D01*
X268363Y524059D01*
X268575Y524157D01*
X268843Y524256D01*
X269139Y524341D01*
X269477Y524397D01*
X269830Y524425D01*
X269942Y523213D01*
D02*
G37*
G36*
X271676Y515276D02*
X271845D01*
X272043Y515248D01*
X272282Y515220D01*
X272550Y515177D01*
X272832Y515121D01*
X273128Y515065D01*
X273438Y514980D01*
X273748Y514867D01*
X274073Y514740D01*
X274383Y514600D01*
X274693Y514416D01*
X274975Y514219D01*
X275243Y513993D01*
X275257Y513979D01*
X275299Y513937D01*
X275370Y513852D01*
X275454Y513754D01*
X275567Y513627D01*
X275680Y513472D01*
X275807Y513288D01*
X275933Y513077D01*
X276060Y512851D01*
X276187Y512598D01*
X276300Y512316D01*
X276413Y512020D01*
X276497Y511696D01*
X276568Y511357D01*
X276610Y511005D01*
X276624Y510624D01*
Y510497D01*
X276610Y510399D01*
Y510272D01*
X276596Y510145D01*
X276568Y509976D01*
X276540Y509807D01*
X276469Y509440D01*
X276356Y509017D01*
X276187Y508608D01*
X276089Y508397D01*
X275976Y508185D01*
X275962Y508171D01*
X275948Y508143D01*
X275905Y508087D01*
X275863Y508002D01*
X275793Y507918D01*
X275708Y507805D01*
X275511Y507565D01*
X275257Y507311D01*
X274947Y507029D01*
X274580Y506762D01*
X274171Y506536D01*
X274157D01*
X274115Y506508D01*
X274059Y506480D01*
X273974Y506451D01*
X273861Y506395D01*
X273734Y506353D01*
X273579Y506296D01*
X273410Y506240D01*
X273227Y506198D01*
X273030Y506141D01*
X272804Y506085D01*
X272578Y506043D01*
X272085Y505986D01*
X271549Y505958D01*
X271535D01*
X271479D01*
X271408D01*
X271296Y505972D01*
X271169D01*
X271014Y505986D01*
X270844Y506015D01*
X270661Y506029D01*
X270252Y506099D01*
X269801Y506212D01*
X269350Y506367D01*
X269125Y506451D01*
X268899Y506564D01*
X268885D01*
X268843Y506592D01*
X268786Y506621D01*
X268702Y506677D01*
X268603Y506733D01*
X268504Y506804D01*
X268237Y507001D01*
X267955Y507241D01*
X267659Y507523D01*
X267377Y507861D01*
X267123Y508256D01*
Y508270D01*
X267095Y508298D01*
X267066Y508369D01*
X267024Y508453D01*
X266982Y508552D01*
X266940Y508665D01*
X266883Y508806D01*
X266827Y508961D01*
X266770Y509130D01*
X266714Y509313D01*
X266630Y509722D01*
X266559Y510159D01*
X266531Y510624D01*
Y510765D01*
X266545Y510850D01*
Y510977D01*
X266573Y511118D01*
X266587Y511273D01*
X266615Y511456D01*
X266700Y511837D01*
X266813Y512245D01*
X266982Y512668D01*
X267081Y512880D01*
X267193Y513091D01*
X267208Y513105D01*
X267222Y513134D01*
X267264Y513190D01*
X267320Y513274D01*
X267377Y513359D01*
X267461Y513458D01*
X267673Y513697D01*
X267926Y513965D01*
X268237Y514247D01*
X268589Y514501D01*
X268998Y514740D01*
X269012D01*
X269054Y514769D01*
X269111Y514797D01*
X269195Y514825D01*
X269308Y514867D01*
X269435Y514910D01*
X269576Y514966D01*
X269731Y515008D01*
X269914Y515065D01*
X270097Y515121D01*
X270520Y515206D01*
X270957Y515262D01*
X271437Y515290D01*
X271451D01*
X271465D01*
X271549D01*
X271676Y515276D01*
D02*
G37*
G36*
X276455Y499755D02*
X276441Y499643D01*
Y499516D01*
X276427Y499220D01*
X276385Y498910D01*
X276342Y498571D01*
X276272Y498261D01*
X276230Y498106D01*
X276187Y497979D01*
Y497965D01*
X276173Y497951D01*
X276131Y497866D01*
X276075Y497739D01*
X275976Y497584D01*
X275849Y497415D01*
X275680Y497232D01*
X275482Y497063D01*
X275257Y496894D01*
X275243D01*
X275229Y496880D01*
X275144Y496823D01*
X275003Y496767D01*
X274820Y496682D01*
X274608Y496612D01*
X274355Y496541D01*
X274087Y496499D01*
X273791Y496485D01*
X273777D01*
X273748D01*
X273692D01*
X273622Y496499D01*
X273523D01*
X273424Y496513D01*
X273185Y496570D01*
X272903Y496654D01*
X272607Y496767D01*
X272311Y496936D01*
X272170Y497049D01*
X272029Y497162D01*
X272015Y497176D01*
X272001Y497190D01*
X271958Y497232D01*
X271916Y497288D01*
X271859Y497359D01*
X271803Y497444D01*
X271733Y497556D01*
X271648Y497669D01*
X271578Y497810D01*
X271507Y497965D01*
X271423Y498134D01*
X271352Y498317D01*
X271296Y498529D01*
X271225Y498740D01*
X271183Y498980D01*
X271141Y499234D01*
X271126Y499206D01*
X271098Y499149D01*
X271042Y499065D01*
X270986Y498952D01*
X270830Y498698D01*
X270732Y498571D01*
X270647Y498459D01*
X270619Y498430D01*
X270548Y498360D01*
X270436Y498247D01*
X270295Y498106D01*
X270097Y497951D01*
X269886Y497768D01*
X269632Y497584D01*
X269350Y497387D01*
X266700Y495710D01*
Y497317D01*
X268730Y498600D01*
X268744D01*
X268772Y498628D01*
X268815Y498656D01*
X268871Y498698D01*
X269026Y498797D01*
X269223Y498924D01*
X269435Y499079D01*
X269660Y499234D01*
X269872Y499389D01*
X270069Y499530D01*
X270083Y499544D01*
X270140Y499586D01*
X270224Y499657D01*
X270323Y499755D01*
X270534Y499967D01*
X270633Y500080D01*
X270718Y500192D01*
X270732Y500206D01*
X270746Y500235D01*
X270774Y500291D01*
X270816Y500376D01*
X270859Y500460D01*
X270901Y500559D01*
X270971Y500784D01*
Y500799D01*
X270986Y500827D01*
Y500883D01*
X271000Y500954D01*
X271014Y501052D01*
Y501165D01*
X271028Y501320D01*
Y502984D01*
X266700D01*
Y504281D01*
X276455D01*
Y499755D01*
D02*
G37*
G36*
X266968Y495103D02*
X267095Y495089D01*
X267236Y495061D01*
X267377Y495033D01*
X267532Y494977D01*
X267546D01*
X267560Y494962D01*
X267645Y494934D01*
X267771Y494878D01*
X267941Y494793D01*
X268138Y494680D01*
X268363Y494539D01*
X268589Y494384D01*
X268829Y494187D01*
X268843D01*
X268857Y494159D01*
X268941Y494088D01*
X269068Y493961D01*
X269252Y493778D01*
X269463Y493567D01*
X269717Y493299D01*
X269999Y492975D01*
X270295Y492622D01*
X270309Y492608D01*
X270351Y492552D01*
X270422Y492467D01*
X270506Y492369D01*
X270619Y492242D01*
X270746Y492087D01*
X270887Y491932D01*
X271042Y491748D01*
X271380Y491396D01*
X271719Y491044D01*
X271888Y490874D01*
X272057Y490719D01*
X272212Y490578D01*
X272367Y490466D01*
X272381D01*
X272395Y490437D01*
X272437Y490409D01*
X272494Y490381D01*
X272649Y490282D01*
X272832Y490169D01*
X273058Y490071D01*
X273297Y489972D01*
X273565Y489916D01*
X273819Y489888D01*
X273833D01*
X273847D01*
X273932Y489902D01*
X274073Y489916D01*
X274228Y489958D01*
X274425Y490014D01*
X274622Y490113D01*
X274820Y490240D01*
X275017Y490409D01*
X275045Y490437D01*
X275102Y490508D01*
X275172Y490606D01*
X275271Y490761D01*
X275356Y490959D01*
X275440Y491184D01*
X275497Y491452D01*
X275511Y491748D01*
Y491833D01*
X275497Y491889D01*
X275482Y492058D01*
X275440Y492256D01*
X275384Y492467D01*
X275285Y492707D01*
X275158Y492933D01*
X274989Y493144D01*
X274961Y493172D01*
X274890Y493228D01*
X274778Y493313D01*
X274608Y493398D01*
X274411Y493496D01*
X274157Y493581D01*
X273875Y493637D01*
X273551Y493666D01*
X273678Y494892D01*
X273692D01*
X273734Y494878D01*
X273805D01*
X273904Y494864D01*
X274016Y494836D01*
X274143Y494807D01*
X274298Y494765D01*
X274453Y494723D01*
X274792Y494610D01*
X275130Y494441D01*
X275299Y494342D01*
X275468Y494215D01*
X275623Y494088D01*
X275764Y493947D01*
X275779Y493933D01*
X275793Y493905D01*
X275835Y493863D01*
X275877Y493792D01*
X275933Y493708D01*
X275990Y493609D01*
X276060Y493496D01*
X276131Y493355D01*
X276201Y493200D01*
X276272Y493031D01*
X276328Y492848D01*
X276385Y492650D01*
X276427Y492439D01*
X276469Y492214D01*
X276483Y491974D01*
X276497Y491720D01*
Y491579D01*
X276483Y491480D01*
X276469Y491368D01*
X276455Y491227D01*
X276427Y491072D01*
X276399Y490917D01*
X276300Y490550D01*
X276159Y490184D01*
X276075Y490000D01*
X275976Y489817D01*
X275849Y489648D01*
X275708Y489493D01*
X275694Y489479D01*
X275680Y489450D01*
X275623Y489422D01*
X275567Y489366D01*
X275497Y489295D01*
X275398Y489225D01*
X275299Y489155D01*
X275172Y489070D01*
X274904Y488929D01*
X274566Y488788D01*
X274397Y488732D01*
X274200Y488703D01*
X274002Y488675D01*
X273791Y488661D01*
X273763D01*
X273692D01*
X273579Y488675D01*
X273424Y488689D01*
X273255Y488717D01*
X273058Y488774D01*
X272846Y488830D01*
X272635Y488915D01*
X272607Y488929D01*
X272536Y488957D01*
X272423Y489013D01*
X272268Y489098D01*
X272099Y489211D01*
X271888Y489352D01*
X271676Y489521D01*
X271437Y489718D01*
X271408Y489747D01*
X271324Y489817D01*
X271253Y489888D01*
X271183Y489958D01*
X271098Y490043D01*
X270986Y490155D01*
X270873Y490268D01*
X270746Y490409D01*
X270605Y490550D01*
X270450Y490719D01*
X270295Y490902D01*
X270112Y491100D01*
X269928Y491325D01*
X269731Y491551D01*
X269717Y491565D01*
X269689Y491593D01*
X269646Y491650D01*
X269590Y491720D01*
X269505Y491805D01*
X269421Y491903D01*
X269237Y492129D01*
X269026Y492369D01*
X268815Y492594D01*
X268631Y492791D01*
X268561Y492876D01*
X268490Y492947D01*
X268476Y492961D01*
X268434Y493003D01*
X268377Y493059D01*
X268293Y493130D01*
X268194Y493200D01*
X268096Y493285D01*
X267856Y493454D01*
Y488647D01*
X266700D01*
Y495117D01*
X266714D01*
X266770D01*
X266855D01*
X266968Y495103D01*
D02*
G37*
G36*
X1762636Y454159D02*
X1762748Y454145D01*
X1762875Y454117D01*
X1763016Y454089D01*
X1763171Y454061D01*
X1763510Y453948D01*
X1763693Y453863D01*
X1763862Y453779D01*
X1764045Y453666D01*
X1764229Y453539D01*
X1764412Y453398D01*
X1764581Y453229D01*
X1764595Y453215D01*
X1764623Y453186D01*
X1764666Y453130D01*
X1764722Y453060D01*
X1764792Y452975D01*
X1764863Y452862D01*
X1764948Y452735D01*
X1765018Y452580D01*
X1765103Y452425D01*
X1765187Y452242D01*
X1765258Y452059D01*
X1765328Y451847D01*
X1765385Y451622D01*
X1765427Y451382D01*
X1765455Y451143D01*
X1765469Y450875D01*
Y450748D01*
X1765455Y450663D01*
X1765441Y450550D01*
X1765427Y450424D01*
X1765399Y450283D01*
X1765370Y450127D01*
X1765286Y449789D01*
X1765145Y449437D01*
X1765060Y449254D01*
X1764962Y449084D01*
X1764835Y448915D01*
X1764708Y448746D01*
X1764694Y448732D01*
X1764666Y448704D01*
X1764623Y448661D01*
X1764567Y448619D01*
X1764496Y448549D01*
X1764398Y448478D01*
X1764299Y448394D01*
X1764172Y448309D01*
X1764031Y448224D01*
X1763890Y448140D01*
X1763552Y447985D01*
X1763157Y447858D01*
X1762946Y447816D01*
X1762720Y447787D01*
X1762565Y448986D01*
X1762579D01*
X1762608Y449000D01*
X1762664Y449014D01*
X1762734Y449028D01*
X1762819Y449042D01*
X1762918Y449070D01*
X1763129Y449141D01*
X1763383Y449239D01*
X1763622Y449366D01*
X1763848Y449507D01*
X1764045Y449676D01*
X1764059Y449705D01*
X1764116Y449761D01*
X1764186Y449874D01*
X1764257Y450015D01*
X1764341Y450184D01*
X1764412Y450395D01*
X1764468Y450635D01*
X1764482Y450889D01*
Y450973D01*
X1764468Y451030D01*
X1764454Y451185D01*
X1764412Y451382D01*
X1764341Y451608D01*
X1764243Y451847D01*
X1764102Y452087D01*
X1763904Y452313D01*
X1763876Y452341D01*
X1763792Y452411D01*
X1763665Y452496D01*
X1763496Y452609D01*
X1763284Y452721D01*
X1763044Y452806D01*
X1762762Y452876D01*
X1762452Y452905D01*
X1762438D01*
X1762410D01*
X1762368D01*
X1762311Y452891D01*
X1762156Y452876D01*
X1761973Y452834D01*
X1761748Y452778D01*
X1761522Y452679D01*
X1761297Y452538D01*
X1761085Y452355D01*
X1761057Y452327D01*
X1761000Y452256D01*
X1760916Y452143D01*
X1760817Y451988D01*
X1760719Y451791D01*
X1760634Y451551D01*
X1760578Y451283D01*
X1760549Y450987D01*
Y450860D01*
X1760563Y450762D01*
X1760578Y450635D01*
X1760606Y450494D01*
X1760634Y450325D01*
X1760676Y450142D01*
X1759619Y450283D01*
Y450353D01*
X1759633Y450409D01*
Y450593D01*
X1759605Y450748D01*
X1759577Y450931D01*
X1759534Y451143D01*
X1759464Y451382D01*
X1759365Y451608D01*
X1759238Y451847D01*
Y451861D01*
X1759224Y451875D01*
X1759168Y451946D01*
X1759069Y452045D01*
X1758942Y452158D01*
X1758759Y452270D01*
X1758548Y452369D01*
X1758308Y452439D01*
X1758167Y452468D01*
X1758012D01*
X1757998D01*
X1757984D01*
X1757899D01*
X1757786Y452439D01*
X1757631Y452411D01*
X1757462Y452355D01*
X1757279Y452284D01*
X1757095Y452172D01*
X1756926Y452016D01*
X1756912Y452002D01*
X1756856Y451932D01*
X1756785Y451833D01*
X1756701Y451706D01*
X1756630Y451537D01*
X1756560Y451340D01*
X1756503Y451114D01*
X1756489Y450860D01*
Y450748D01*
X1756518Y450621D01*
X1756546Y450452D01*
X1756602Y450269D01*
X1756673Y450085D01*
X1756785Y449888D01*
X1756926Y449705D01*
X1756940Y449691D01*
X1757011Y449634D01*
X1757110Y449549D01*
X1757251Y449451D01*
X1757434Y449352D01*
X1757659Y449254D01*
X1757927Y449169D01*
X1758237Y449113D01*
X1758026Y447914D01*
X1758012D01*
X1757970Y447928D01*
X1757913Y447943D01*
X1757829Y447957D01*
X1757730Y447985D01*
X1757617Y448027D01*
X1757349Y448112D01*
X1757039Y448253D01*
X1756729Y448422D01*
X1756433Y448633D01*
X1756165Y448901D01*
X1756151Y448915D01*
X1756137Y448943D01*
X1756109Y448986D01*
X1756066Y449042D01*
X1756010Y449113D01*
X1755954Y449211D01*
X1755897Y449310D01*
X1755827Y449437D01*
X1755714Y449719D01*
X1755601Y450043D01*
X1755531Y450424D01*
X1755503Y450621D01*
Y450973D01*
X1755517Y451128D01*
X1755545Y451312D01*
X1755587Y451537D01*
X1755658Y451791D01*
X1755742Y452045D01*
X1755855Y452298D01*
Y452313D01*
X1755869Y452327D01*
X1755911Y452411D01*
X1755996Y452538D01*
X1756095Y452679D01*
X1756236Y452848D01*
X1756391Y453017D01*
X1756574Y453186D01*
X1756785Y453327D01*
X1756814Y453342D01*
X1756884Y453384D01*
X1757011Y453440D01*
X1757166Y453511D01*
X1757349Y453581D01*
X1757561Y453638D01*
X1757800Y453680D01*
X1758040Y453694D01*
X1758068D01*
X1758153D01*
X1758266Y453680D01*
X1758421Y453652D01*
X1758604Y453610D01*
X1758801Y453539D01*
X1758999Y453454D01*
X1759196Y453342D01*
X1759224Y453327D01*
X1759281Y453285D01*
X1759379Y453201D01*
X1759492Y453088D01*
X1759619Y452947D01*
X1759760Y452778D01*
X1759887Y452580D01*
X1760014Y452341D01*
Y452355D01*
X1760028Y452383D01*
X1760042Y452425D01*
X1760056Y452482D01*
X1760112Y452637D01*
X1760197Y452834D01*
X1760310Y453060D01*
X1760451Y453285D01*
X1760634Y453497D01*
X1760845Y453694D01*
X1760874Y453708D01*
X1760958Y453764D01*
X1761099Y453849D01*
X1761282Y453934D01*
X1761508Y454018D01*
X1761776Y454103D01*
X1762086Y454159D01*
X1762424Y454173D01*
X1762438D01*
X1762481D01*
X1762551D01*
X1762636Y454159D01*
D02*
G37*
G36*
X1756701Y443713D02*
X1765300D01*
Y442416D01*
X1756701D01*
Y439202D01*
X1755545D01*
Y446927D01*
X1756701D01*
Y443713D01*
D02*
G37*
G36*
X1761550Y437764D02*
X1761691D01*
X1761860Y437750D01*
X1762030Y437736D01*
X1762410Y437694D01*
X1762805Y437638D01*
X1763185Y437553D01*
X1763369Y437497D01*
X1763538Y437440D01*
X1763552D01*
X1763580Y437426D01*
X1763622Y437398D01*
X1763679Y437370D01*
X1763834Y437285D01*
X1764031Y437158D01*
X1764257Y436989D01*
X1764482Y436792D01*
X1764722Y436538D01*
X1764933Y436228D01*
Y436214D01*
X1764962Y436186D01*
X1764976Y436143D01*
X1765018Y436073D01*
X1765060Y435988D01*
X1765103Y435875D01*
X1765145Y435763D01*
X1765201Y435622D01*
X1765258Y435467D01*
X1765300Y435298D01*
X1765342Y435114D01*
X1765385Y434903D01*
X1765413Y434691D01*
X1765441Y434466D01*
X1765469Y433958D01*
Y433831D01*
X1765455Y433733D01*
Y433620D01*
X1765441Y433479D01*
X1765427Y433324D01*
X1765413Y433169D01*
X1765356Y432816D01*
X1765272Y432436D01*
X1765159Y432069D01*
X1765004Y431717D01*
Y431703D01*
X1764976Y431674D01*
X1764948Y431632D01*
X1764919Y431576D01*
X1764807Y431421D01*
X1764651Y431237D01*
X1764454Y431026D01*
X1764229Y430829D01*
X1763947Y430631D01*
X1763637Y430476D01*
X1763622D01*
X1763594Y430462D01*
X1763538Y430448D01*
X1763467Y430420D01*
X1763383Y430392D01*
X1763270Y430364D01*
X1763143Y430321D01*
X1762988Y430293D01*
X1762819Y430265D01*
X1762636Y430223D01*
X1762438Y430194D01*
X1762227Y430166D01*
X1761987Y430138D01*
X1761734Y430124D01*
X1761466Y430110D01*
X1761184D01*
X1755545D01*
Y431407D01*
X1761184D01*
X1761198D01*
X1761240D01*
X1761310D01*
X1761395D01*
X1761494Y431421D01*
X1761621D01*
X1761888Y431435D01*
X1762199Y431463D01*
X1762509Y431505D01*
X1762805Y431562D01*
X1762932Y431590D01*
X1763059Y431632D01*
X1763087Y431646D01*
X1763157Y431674D01*
X1763256Y431745D01*
X1763397Y431830D01*
X1763538Y431928D01*
X1763693Y432069D01*
X1763848Y432238D01*
X1763975Y432436D01*
X1763989Y432464D01*
X1764031Y432534D01*
X1764074Y432661D01*
X1764130Y432831D01*
X1764200Y433028D01*
X1764243Y433282D01*
X1764285Y433549D01*
X1764299Y433845D01*
Y433986D01*
X1764285Y434071D01*
Y434198D01*
X1764271Y434325D01*
X1764214Y434635D01*
X1764144Y434973D01*
X1764031Y435298D01*
X1763876Y435608D01*
X1763777Y435749D01*
X1763665Y435875D01*
X1763651Y435890D01*
X1763637Y435904D01*
X1763594Y435932D01*
X1763538Y435974D01*
X1763453Y436016D01*
X1763369Y436073D01*
X1763242Y436129D01*
X1763115Y436186D01*
X1762960Y436242D01*
X1762777Y436284D01*
X1762565Y436341D01*
X1762340Y436383D01*
X1762086Y436425D01*
X1761818Y436453D01*
X1761508Y436482D01*
X1761184D01*
X1755545D01*
Y437779D01*
X1761184D01*
X1761198D01*
X1761254D01*
X1761325D01*
X1761423D01*
X1761550Y437764D01*
D02*
G37*
G36*
X1760704Y428418D02*
X1760831D01*
X1760986Y428404D01*
X1761156Y428376D01*
X1761339Y428362D01*
X1761748Y428291D01*
X1762199Y428178D01*
X1762650Y428023D01*
X1762875Y427939D01*
X1763101Y427826D01*
X1763115D01*
X1763157Y427798D01*
X1763214Y427770D01*
X1763298Y427713D01*
X1763397Y427657D01*
X1763496Y427586D01*
X1763763Y427389D01*
X1764045Y427149D01*
X1764341Y426867D01*
X1764623Y426529D01*
X1764877Y426134D01*
Y426120D01*
X1764905Y426092D01*
X1764933Y426022D01*
X1764976Y425937D01*
X1765018Y425838D01*
X1765060Y425726D01*
X1765117Y425585D01*
X1765173Y425430D01*
X1765229Y425260D01*
X1765286Y425077D01*
X1765370Y424668D01*
X1765441Y424231D01*
X1765469Y423766D01*
Y423625D01*
X1765455Y423541D01*
Y423414D01*
X1765427Y423273D01*
X1765413Y423118D01*
X1765385Y422934D01*
X1765300Y422554D01*
X1765187Y422145D01*
X1765018Y421722D01*
X1764919Y421511D01*
X1764807Y421299D01*
X1764792Y421285D01*
X1764778Y421257D01*
X1764736Y421200D01*
X1764680Y421116D01*
X1764623Y421031D01*
X1764539Y420933D01*
X1764327Y420693D01*
X1764074Y420425D01*
X1763763Y420143D01*
X1763411Y419889D01*
X1763002Y419650D01*
X1762988D01*
X1762946Y419622D01*
X1762889Y419593D01*
X1762805Y419565D01*
X1762692Y419523D01*
X1762565Y419481D01*
X1762424Y419424D01*
X1762269Y419382D01*
X1762086Y419326D01*
X1761903Y419269D01*
X1761480Y419185D01*
X1761043Y419128D01*
X1760563Y419100D01*
X1760549D01*
X1760535D01*
X1760451D01*
X1760324Y419114D01*
X1760155D01*
X1759957Y419142D01*
X1759718Y419170D01*
X1759450Y419213D01*
X1759168Y419269D01*
X1758872Y419326D01*
X1758562Y419410D01*
X1758251Y419523D01*
X1757927Y419650D01*
X1757617Y419791D01*
X1757307Y419974D01*
X1757025Y420171D01*
X1756757Y420397D01*
X1756743Y420411D01*
X1756701Y420453D01*
X1756630Y420538D01*
X1756546Y420637D01*
X1756433Y420763D01*
X1756320Y420919D01*
X1756193Y421102D01*
X1756066Y421313D01*
X1755940Y421539D01*
X1755813Y421792D01*
X1755700Y422075D01*
X1755587Y422370D01*
X1755503Y422695D01*
X1755432Y423033D01*
X1755390Y423386D01*
X1755376Y423766D01*
Y423893D01*
X1755390Y423992D01*
Y424118D01*
X1755404Y424245D01*
X1755432Y424415D01*
X1755460Y424584D01*
X1755531Y424950D01*
X1755644Y425373D01*
X1755813Y425782D01*
X1755911Y425993D01*
X1756024Y426205D01*
X1756038Y426219D01*
X1756052Y426247D01*
X1756095Y426304D01*
X1756137Y426388D01*
X1756207Y426473D01*
X1756292Y426586D01*
X1756489Y426825D01*
X1756743Y427079D01*
X1757053Y427361D01*
X1757420Y427629D01*
X1757829Y427854D01*
X1757843D01*
X1757885Y427882D01*
X1757941Y427911D01*
X1758026Y427939D01*
X1758139Y427995D01*
X1758266Y428037D01*
X1758421Y428094D01*
X1758590Y428150D01*
X1758773Y428193D01*
X1758970Y428249D01*
X1759196Y428305D01*
X1759422Y428348D01*
X1759915Y428404D01*
X1760451Y428432D01*
X1760465D01*
X1760521D01*
X1760592D01*
X1760704Y428418D01*
D02*
G37*
G36*
X1764030Y597464D02*
X1764016D01*
X1763960D01*
X1763875D01*
X1763762Y597478D01*
X1763635Y597492D01*
X1763494Y597520D01*
X1763353Y597549D01*
X1763198Y597605D01*
X1763184D01*
X1763170Y597619D01*
X1763085Y597647D01*
X1762959Y597704D01*
X1762789Y597788D01*
X1762592Y597901D01*
X1762367Y598042D01*
X1762141Y598197D01*
X1761901Y598395D01*
X1761887D01*
X1761873Y598423D01*
X1761789Y598493D01*
X1761662Y598620D01*
X1761478Y598803D01*
X1761267Y599015D01*
X1761013Y599283D01*
X1760731Y599607D01*
X1760435Y599959D01*
X1760421Y599973D01*
X1760379Y600030D01*
X1760308Y600114D01*
X1760224Y600213D01*
X1760111Y600340D01*
X1759984Y600495D01*
X1759843Y600650D01*
X1759688Y600833D01*
X1759350Y601186D01*
X1759012Y601538D01*
X1758842Y601707D01*
X1758673Y601862D01*
X1758518Y602003D01*
X1758363Y602116D01*
X1758349D01*
X1758335Y602144D01*
X1758293Y602173D01*
X1758236Y602201D01*
X1758081Y602299D01*
X1757898Y602412D01*
X1757672Y602511D01*
X1757433Y602609D01*
X1757165Y602666D01*
X1756911Y602694D01*
X1756897D01*
X1756883D01*
X1756798Y602680D01*
X1756657Y602666D01*
X1756502Y602624D01*
X1756305Y602567D01*
X1756107Y602469D01*
X1755910Y602342D01*
X1755713Y602173D01*
X1755685Y602144D01*
X1755628Y602074D01*
X1755558Y601975D01*
X1755459Y601820D01*
X1755374Y601623D01*
X1755290Y601397D01*
X1755233Y601129D01*
X1755219Y600833D01*
Y600749D01*
X1755233Y600692D01*
X1755248Y600523D01*
X1755290Y600326D01*
X1755346Y600114D01*
X1755445Y599875D01*
X1755572Y599649D01*
X1755741Y599438D01*
X1755769Y599409D01*
X1755840Y599353D01*
X1755952Y599268D01*
X1756122Y599184D01*
X1756319Y599085D01*
X1756573Y599001D01*
X1756855Y598944D01*
X1757179Y598916D01*
X1757052Y597690D01*
X1757038D01*
X1756996Y597704D01*
X1756925D01*
X1756826Y597718D01*
X1756714Y597746D01*
X1756587Y597774D01*
X1756432Y597817D01*
X1756277Y597859D01*
X1755938Y597972D01*
X1755600Y598141D01*
X1755431Y598240D01*
X1755262Y598366D01*
X1755107Y598493D01*
X1754966Y598634D01*
X1754951Y598648D01*
X1754937Y598676D01*
X1754895Y598719D01*
X1754853Y598789D01*
X1754796Y598874D01*
X1754740Y598973D01*
X1754670Y599085D01*
X1754599Y599226D01*
X1754529Y599381D01*
X1754458Y599551D01*
X1754402Y599734D01*
X1754345Y599931D01*
X1754303Y600143D01*
X1754261Y600368D01*
X1754247Y600608D01*
X1754233Y600862D01*
Y601003D01*
X1754247Y601101D01*
X1754261Y601214D01*
X1754275Y601355D01*
X1754303Y601510D01*
X1754331Y601665D01*
X1754430Y602032D01*
X1754571Y602398D01*
X1754655Y602581D01*
X1754754Y602765D01*
X1754881Y602934D01*
X1755022Y603089D01*
X1755036Y603103D01*
X1755050Y603131D01*
X1755107Y603159D01*
X1755163Y603216D01*
X1755233Y603286D01*
X1755332Y603357D01*
X1755431Y603427D01*
X1755558Y603512D01*
X1755826Y603653D01*
X1756164Y603794D01*
X1756333Y603850D01*
X1756530Y603878D01*
X1756728Y603907D01*
X1756939Y603921D01*
X1756967D01*
X1757038D01*
X1757151Y603907D01*
X1757306Y603892D01*
X1757475Y603864D01*
X1757672Y603808D01*
X1757884Y603751D01*
X1758095Y603667D01*
X1758123Y603653D01*
X1758194Y603624D01*
X1758307Y603568D01*
X1758462Y603484D01*
X1758631Y603371D01*
X1758842Y603230D01*
X1759054Y603061D01*
X1759293Y602863D01*
X1759322Y602835D01*
X1759406Y602765D01*
X1759477Y602694D01*
X1759547Y602624D01*
X1759632Y602539D01*
X1759745Y602426D01*
X1759857Y602313D01*
X1759984Y602173D01*
X1760125Y602032D01*
X1760280Y601862D01*
X1760435Y601679D01*
X1760618Y601482D01*
X1760802Y601256D01*
X1760999Y601031D01*
X1761013Y601017D01*
X1761041Y600988D01*
X1761084Y600932D01*
X1761140Y600862D01*
X1761225Y600777D01*
X1761309Y600678D01*
X1761492Y600453D01*
X1761704Y600213D01*
X1761915Y599987D01*
X1762099Y599790D01*
X1762169Y599706D01*
X1762240Y599635D01*
X1762254Y599621D01*
X1762296Y599579D01*
X1762352Y599522D01*
X1762437Y599452D01*
X1762536Y599381D01*
X1762634Y599297D01*
X1762874Y599128D01*
Y603935D01*
X1764030D01*
Y597464D01*
D02*
G37*
G36*
X1755431Y593573D02*
X1764030D01*
Y592276D01*
X1755431D01*
Y589062D01*
X1754275D01*
Y596787D01*
X1755431D01*
Y593573D01*
D02*
G37*
G36*
X1760280Y587624D02*
X1760421D01*
X1760590Y587610D01*
X1760759Y587596D01*
X1761140Y587554D01*
X1761535Y587498D01*
X1761915Y587413D01*
X1762099Y587357D01*
X1762268Y587300D01*
X1762282D01*
X1762310Y587286D01*
X1762352Y587258D01*
X1762409Y587230D01*
X1762564Y587145D01*
X1762761Y587018D01*
X1762987Y586849D01*
X1763212Y586652D01*
X1763452Y586398D01*
X1763663Y586088D01*
Y586074D01*
X1763692Y586046D01*
X1763706Y586003D01*
X1763748Y585933D01*
X1763790Y585848D01*
X1763833Y585735D01*
X1763875Y585623D01*
X1763931Y585482D01*
X1763988Y585327D01*
X1764030Y585158D01*
X1764072Y584974D01*
X1764115Y584763D01*
X1764143Y584551D01*
X1764171Y584326D01*
X1764199Y583818D01*
Y583691D01*
X1764185Y583593D01*
Y583480D01*
X1764171Y583339D01*
X1764157Y583184D01*
X1764143Y583029D01*
X1764086Y582676D01*
X1764002Y582296D01*
X1763889Y581929D01*
X1763734Y581577D01*
Y581563D01*
X1763706Y581535D01*
X1763678Y581492D01*
X1763649Y581436D01*
X1763537Y581281D01*
X1763382Y581097D01*
X1763184Y580886D01*
X1762959Y580689D01*
X1762677Y580491D01*
X1762367Y580336D01*
X1762352D01*
X1762324Y580322D01*
X1762268Y580308D01*
X1762197Y580280D01*
X1762113Y580252D01*
X1762000Y580224D01*
X1761873Y580181D01*
X1761718Y580153D01*
X1761549Y580125D01*
X1761366Y580083D01*
X1761168Y580054D01*
X1760957Y580026D01*
X1760717Y579998D01*
X1760464Y579984D01*
X1760196Y579970D01*
X1759914D01*
X1754275D01*
Y581267D01*
X1759914D01*
X1759928D01*
X1759970D01*
X1760040D01*
X1760125D01*
X1760224Y581281D01*
X1760351D01*
X1760618Y581295D01*
X1760929Y581323D01*
X1761239Y581365D01*
X1761535Y581422D01*
X1761662Y581450D01*
X1761789Y581492D01*
X1761817Y581506D01*
X1761887Y581535D01*
X1761986Y581605D01*
X1762127Y581690D01*
X1762268Y581788D01*
X1762423Y581929D01*
X1762578Y582098D01*
X1762705Y582296D01*
X1762719Y582324D01*
X1762761Y582394D01*
X1762804Y582521D01*
X1762860Y582691D01*
X1762930Y582888D01*
X1762973Y583142D01*
X1763015Y583409D01*
X1763029Y583705D01*
Y583846D01*
X1763015Y583931D01*
Y584058D01*
X1763001Y584185D01*
X1762944Y584495D01*
X1762874Y584833D01*
X1762761Y585158D01*
X1762606Y585468D01*
X1762507Y585609D01*
X1762395Y585735D01*
X1762381Y585750D01*
X1762367Y585764D01*
X1762324Y585792D01*
X1762268Y585834D01*
X1762183Y585876D01*
X1762099Y585933D01*
X1761972Y585989D01*
X1761845Y586046D01*
X1761690Y586102D01*
X1761507Y586144D01*
X1761295Y586201D01*
X1761070Y586243D01*
X1760816Y586285D01*
X1760548Y586313D01*
X1760238Y586342D01*
X1759914D01*
X1754275D01*
Y587639D01*
X1759914D01*
X1759928D01*
X1759984D01*
X1760055D01*
X1760153D01*
X1760280Y587624D01*
D02*
G37*
G36*
X1759434Y578278D02*
X1759561D01*
X1759716Y578264D01*
X1759886Y578236D01*
X1760069Y578222D01*
X1760478Y578151D01*
X1760929Y578038D01*
X1761380Y577883D01*
X1761605Y577799D01*
X1761831Y577686D01*
X1761845D01*
X1761887Y577658D01*
X1761944Y577630D01*
X1762028Y577573D01*
X1762127Y577517D01*
X1762226Y577446D01*
X1762493Y577249D01*
X1762775Y577009D01*
X1763071Y576727D01*
X1763353Y576389D01*
X1763607Y575994D01*
Y575980D01*
X1763635Y575952D01*
X1763663Y575882D01*
X1763706Y575797D01*
X1763748Y575698D01*
X1763790Y575586D01*
X1763847Y575445D01*
X1763903Y575290D01*
X1763960Y575120D01*
X1764016Y574937D01*
X1764100Y574528D01*
X1764171Y574091D01*
X1764199Y573626D01*
Y573485D01*
X1764185Y573401D01*
Y573274D01*
X1764157Y573133D01*
X1764143Y572978D01*
X1764115Y572794D01*
X1764030Y572414D01*
X1763917Y572005D01*
X1763748Y571582D01*
X1763649Y571371D01*
X1763537Y571159D01*
X1763522Y571145D01*
X1763508Y571117D01*
X1763466Y571060D01*
X1763410Y570976D01*
X1763353Y570891D01*
X1763269Y570793D01*
X1763057Y570553D01*
X1762804Y570285D01*
X1762493Y570003D01*
X1762141Y569749D01*
X1761732Y569510D01*
X1761718D01*
X1761676Y569482D01*
X1761619Y569453D01*
X1761535Y569425D01*
X1761422Y569383D01*
X1761295Y569341D01*
X1761154Y569284D01*
X1760999Y569242D01*
X1760816Y569186D01*
X1760633Y569129D01*
X1760210Y569045D01*
X1759773Y568988D01*
X1759293Y568960D01*
X1759279D01*
X1759265D01*
X1759181D01*
X1759054Y568974D01*
X1758885D01*
X1758687Y569002D01*
X1758448Y569030D01*
X1758180Y569073D01*
X1757898Y569129D01*
X1757602Y569186D01*
X1757292Y569270D01*
X1756982Y569383D01*
X1756657Y569510D01*
X1756347Y569651D01*
X1756037Y569834D01*
X1755755Y570031D01*
X1755487Y570257D01*
X1755473Y570271D01*
X1755431Y570313D01*
X1755360Y570398D01*
X1755276Y570497D01*
X1755163Y570623D01*
X1755050Y570779D01*
X1754923Y570962D01*
X1754796Y571173D01*
X1754670Y571399D01*
X1754543Y571652D01*
X1754430Y571935D01*
X1754317Y572230D01*
X1754233Y572555D01*
X1754162Y572893D01*
X1754120Y573246D01*
X1754106Y573626D01*
Y573753D01*
X1754120Y573852D01*
Y573979D01*
X1754134Y574105D01*
X1754162Y574275D01*
X1754190Y574444D01*
X1754261Y574810D01*
X1754374Y575233D01*
X1754543Y575642D01*
X1754641Y575853D01*
X1754754Y576065D01*
X1754768Y576079D01*
X1754782Y576107D01*
X1754825Y576164D01*
X1754867Y576248D01*
X1754937Y576333D01*
X1755022Y576446D01*
X1755219Y576685D01*
X1755473Y576939D01*
X1755783Y577221D01*
X1756150Y577489D01*
X1756559Y577714D01*
X1756573D01*
X1756615Y577742D01*
X1756671Y577771D01*
X1756756Y577799D01*
X1756869Y577855D01*
X1756996Y577897D01*
X1757151Y577954D01*
X1757320Y578010D01*
X1757503Y578053D01*
X1757700Y578109D01*
X1757926Y578165D01*
X1758152Y578208D01*
X1758645Y578264D01*
X1759181Y578292D01*
X1759195D01*
X1759251D01*
X1759322D01*
X1759434Y578278D01*
D02*
G37*
%LPC*%
G36*
X276569Y408913D02*
X273637D01*
Y406517D01*
X273651Y406333D01*
X273665Y406136D01*
X273679Y405939D01*
X273708Y405741D01*
X273736Y405586D01*
X273750Y405558D01*
X273764Y405502D01*
X273806Y405417D01*
X273862Y405304D01*
X273919Y405191D01*
X274004Y405065D01*
X274116Y404938D01*
X274229Y404839D01*
X274243Y404825D01*
X274286Y404797D01*
X274370Y404754D01*
X274469Y404712D01*
X274582Y404670D01*
X274722Y404628D01*
X274892Y404599D01*
X275075Y404585D01*
X275103D01*
X275159D01*
X275244Y404599D01*
X275357Y404613D01*
X275498Y404642D01*
X275639Y404684D01*
X275780Y404740D01*
X275921Y404825D01*
X275935Y404839D01*
X275977Y404867D01*
X276048Y404924D01*
X276118Y404994D01*
X276203Y405093D01*
X276287Y405206D01*
X276372Y405346D01*
X276428Y405502D01*
Y405516D01*
X276456Y405586D01*
X276471Y405685D01*
X276499Y405840D01*
X276527Y406051D01*
X276541Y406291D01*
X276569Y406601D01*
Y408913D01*
D02*
G37*
G36*
X272481D02*
X269126D01*
Y406136D01*
X269140Y405840D01*
X269154Y405713D01*
X269168Y405600D01*
Y405586D01*
X269182Y405530D01*
X269196Y405445D01*
X269225Y405346D01*
X269309Y405107D01*
X269422Y404867D01*
X269436Y404853D01*
X269464Y404811D01*
X269507Y404754D01*
X269563Y404684D01*
X269648Y404613D01*
X269732Y404515D01*
X269845Y404444D01*
X269972Y404360D01*
X269986Y404346D01*
X270028Y404332D01*
X270113Y404303D01*
X270211Y404261D01*
X270324Y404219D01*
X270465Y404191D01*
X270634Y404176D01*
X270804Y404162D01*
X270832D01*
X270888D01*
X271001Y404176D01*
X271128Y404205D01*
X271269Y404233D01*
X271424Y404289D01*
X271579Y404360D01*
X271734Y404458D01*
X271748Y404473D01*
X271804Y404515D01*
X271875Y404571D01*
X271959Y404656D01*
X272058Y404769D01*
X272157Y404910D01*
X272241Y405065D01*
X272312Y405248D01*
X272326Y405276D01*
X272340Y405332D01*
X272368Y405459D01*
X272397Y405614D01*
X272425Y405812D01*
X272453Y406051D01*
X272481Y406347D01*
Y408913D01*
D02*
G37*
G36*
X272693Y373628D02*
X272678D01*
X272622D01*
X272523D01*
X272397Y373614D01*
X272255Y373600D01*
X272086Y373572D01*
X271889Y373544D01*
X271692Y373516D01*
X271241Y373403D01*
X271015Y373318D01*
X270775Y373234D01*
X270550Y373121D01*
X270324Y372994D01*
X270113Y372853D01*
X269915Y372684D01*
X269901Y372670D01*
X269873Y372641D01*
X269817Y372585D01*
X269760Y372515D01*
X269676Y372416D01*
X269591Y372303D01*
X269507Y372176D01*
X269408Y372035D01*
X269309Y371866D01*
X269225Y371683D01*
X269140Y371485D01*
X269056Y371274D01*
X268999Y371049D01*
X268943Y370823D01*
X268915Y370569D01*
X268900Y370301D01*
Y370231D01*
X268915Y370160D01*
Y370062D01*
X268929Y369935D01*
X268957Y369794D01*
X268985Y369625D01*
X269027Y369456D01*
X269084Y369258D01*
X269154Y369075D01*
X269225Y368863D01*
X269323Y368666D01*
X269450Y368469D01*
X269577Y368271D01*
X269732Y368074D01*
X269915Y367891D01*
X269930Y367877D01*
X269958Y367849D01*
X270028Y367806D01*
X270113Y367736D01*
X270211Y367665D01*
X270338Y367595D01*
X270493Y367510D01*
X270662Y367411D01*
X270860Y367327D01*
X271085Y367242D01*
X271325Y367172D01*
X271579Y367087D01*
X271861Y367031D01*
X272171Y366989D01*
X272495Y366960D01*
X272833Y366946D01*
X272848D01*
X272890D01*
X272946D01*
X273031D01*
X273130Y366960D01*
X273256D01*
X273383Y366974D01*
X273538Y367003D01*
X273862Y367045D01*
X274201Y367116D01*
X274567Y367214D01*
X274906Y367355D01*
X274920D01*
X274948Y367369D01*
X274990Y367397D01*
X275047Y367426D01*
X275216Y367524D01*
X275413Y367651D01*
X275639Y367820D01*
X275864Y368032D01*
X276090Y368271D01*
X276287Y368539D01*
Y368553D01*
X276315Y368568D01*
X276329Y368610D01*
X276372Y368680D01*
X276400Y368751D01*
X276442Y368835D01*
X276541Y369047D01*
X276626Y369300D01*
X276710Y369596D01*
X276766Y369935D01*
X276781Y370287D01*
Y370414D01*
X276766Y370513D01*
X276752Y370640D01*
X276724Y370767D01*
X276696Y370922D01*
X276668Y371091D01*
X276555Y371457D01*
X276471Y371655D01*
X276386Y371852D01*
X276273Y372063D01*
X276146Y372261D01*
X276005Y372458D01*
X275836Y372641D01*
X275822Y372656D01*
X275794Y372684D01*
X275737Y372726D01*
X275653Y372797D01*
X275554Y372867D01*
X275427Y372952D01*
X275272Y373036D01*
X275089Y373135D01*
X274892Y373219D01*
X274652Y373318D01*
X274398Y373403D01*
X274116Y373473D01*
X273806Y373544D01*
X273454Y373586D01*
X273087Y373614D01*
X272693Y373628D01*
D02*
G37*
G36*
X271423Y943555D02*
X271408D01*
X271352D01*
X271253D01*
X271126Y943541D01*
X270986Y943527D01*
X270816Y943499D01*
X270619Y943470D01*
X270422Y943442D01*
X269970Y943329D01*
X269745Y943245D01*
X269505Y943160D01*
X269280Y943047D01*
X269054Y942921D01*
X268843Y942779D01*
X268645Y942610D01*
X268631Y942596D01*
X268603Y942568D01*
X268547Y942512D01*
X268490Y942441D01*
X268406Y942343D01*
X268321Y942230D01*
X268237Y942103D01*
X268138Y941962D01*
X268039Y941793D01*
X267955Y941609D01*
X267870Y941412D01*
X267785Y941201D01*
X267729Y940975D01*
X267673Y940750D01*
X267645Y940496D01*
X267630Y940228D01*
Y940157D01*
X267645Y940087D01*
Y939988D01*
X267659Y939862D01*
X267687Y939721D01*
X267715Y939551D01*
X267757Y939382D01*
X267814Y939185D01*
X267884Y939002D01*
X267955Y938790D01*
X268053Y938593D01*
X268180Y938395D01*
X268307Y938198D01*
X268462Y938001D01*
X268645Y937817D01*
X268659Y937803D01*
X268688Y937775D01*
X268758Y937733D01*
X268843Y937662D01*
X268941Y937592D01*
X269068Y937521D01*
X269223Y937437D01*
X269393Y937338D01*
X269590Y937253D01*
X269815Y937169D01*
X270055Y937098D01*
X270309Y937014D01*
X270591Y936957D01*
X270901Y936915D01*
X271225Y936887D01*
X271563Y936873D01*
X271578D01*
X271620D01*
X271676D01*
X271761D01*
X271859Y936887D01*
X271986D01*
X272113Y936901D01*
X272268Y936929D01*
X272593Y936972D01*
X272931Y937042D01*
X273297Y937141D01*
X273636Y937282D01*
X273650D01*
X273678Y937296D01*
X273720Y937324D01*
X273777Y937352D01*
X273946Y937451D01*
X274143Y937578D01*
X274369Y937747D01*
X274594Y937958D01*
X274820Y938198D01*
X275017Y938466D01*
Y938480D01*
X275045Y938494D01*
X275060Y938536D01*
X275102Y938607D01*
X275130Y938677D01*
X275172Y938762D01*
X275271Y938973D01*
X275356Y939227D01*
X275440Y939523D01*
X275497Y939862D01*
X275511Y940214D01*
Y940341D01*
X275497Y940439D01*
X275482Y940566D01*
X275454Y940693D01*
X275426Y940848D01*
X275398Y941017D01*
X275285Y941384D01*
X275201Y941581D01*
X275116Y941779D01*
X275003Y941990D01*
X274876Y942188D01*
X274735Y942385D01*
X274566Y942568D01*
X274552Y942582D01*
X274524Y942610D01*
X274467Y942653D01*
X274383Y942723D01*
X274284Y942794D01*
X274157Y942878D01*
X274002Y942963D01*
X273819Y943062D01*
X273622Y943146D01*
X273382Y943245D01*
X273128Y943329D01*
X272846Y943400D01*
X272536Y943470D01*
X272184Y943513D01*
X271817Y943541D01*
X271423Y943555D01*
D02*
G37*
G36*
X268883Y708275D02*
X268868D01*
X268812D01*
X268713D01*
X268587Y708261D01*
X268445Y708247D01*
X268276Y708219D01*
X268079Y708191D01*
X267882Y708162D01*
X267430Y708050D01*
X267205Y707965D01*
X266965Y707880D01*
X266740Y707768D01*
X266514Y707641D01*
X266303Y707500D01*
X266105Y707331D01*
X266091Y707317D01*
X266063Y707288D01*
X266007Y707232D01*
X265950Y707161D01*
X265866Y707063D01*
X265781Y706950D01*
X265697Y706823D01*
X265598Y706682D01*
X265499Y706513D01*
X265415Y706330D01*
X265330Y706132D01*
X265245Y705921D01*
X265189Y705695D01*
X265133Y705470D01*
X265105Y705216D01*
X265090Y704948D01*
Y704878D01*
X265105Y704807D01*
Y704709D01*
X265119Y704582D01*
X265147Y704441D01*
X265175Y704272D01*
X265217Y704102D01*
X265274Y703905D01*
X265344Y703722D01*
X265415Y703510D01*
X265513Y703313D01*
X265640Y703116D01*
X265767Y702918D01*
X265922Y702721D01*
X266105Y702538D01*
X266119Y702524D01*
X266148Y702495D01*
X266218Y702453D01*
X266303Y702383D01*
X266401Y702312D01*
X266528Y702242D01*
X266683Y702157D01*
X266852Y702058D01*
X267050Y701974D01*
X267275Y701889D01*
X267515Y701819D01*
X267769Y701734D01*
X268051Y701678D01*
X268361Y701636D01*
X268685Y701607D01*
X269023Y701593D01*
X269038D01*
X269080D01*
X269136D01*
X269221D01*
X269319Y701607D01*
X269446D01*
X269573Y701621D01*
X269728Y701650D01*
X270053Y701692D01*
X270391Y701762D01*
X270757Y701861D01*
X271096Y702002D01*
X271110D01*
X271138Y702016D01*
X271180Y702044D01*
X271237Y702073D01*
X271406Y702171D01*
X271603Y702298D01*
X271829Y702467D01*
X272054Y702679D01*
X272280Y702918D01*
X272477Y703186D01*
Y703200D01*
X272505Y703214D01*
X272519Y703257D01*
X272562Y703327D01*
X272590Y703398D01*
X272632Y703482D01*
X272731Y703694D01*
X272816Y703947D01*
X272900Y704243D01*
X272957Y704582D01*
X272971Y704934D01*
Y705061D01*
X272957Y705160D01*
X272942Y705287D01*
X272914Y705414D01*
X272886Y705569D01*
X272858Y705738D01*
X272745Y706104D01*
X272661Y706302D01*
X272576Y706499D01*
X272463Y706710D01*
X272336Y706908D01*
X272195Y707105D01*
X272026Y707288D01*
X272012Y707302D01*
X271984Y707331D01*
X271927Y707373D01*
X271843Y707443D01*
X271744Y707514D01*
X271617Y707598D01*
X271462Y707683D01*
X271279Y707782D01*
X271082Y707866D01*
X270842Y707965D01*
X270588Y708050D01*
X270306Y708120D01*
X269996Y708191D01*
X269644Y708233D01*
X269277Y708261D01*
X268883Y708275D01*
D02*
G37*
G36*
X272830Y697294D02*
X269601D01*
Y694390D01*
X269615Y694221D01*
X269630Y694023D01*
X269644Y693798D01*
X269672Y693572D01*
X269714Y693346D01*
X269771Y693149D01*
X269785Y693121D01*
X269813Y693064D01*
X269855Y692980D01*
X269912Y692867D01*
X269996Y692740D01*
X270095Y692613D01*
X270222Y692486D01*
X270363Y692388D01*
X270377Y692374D01*
X270433Y692346D01*
X270518Y692303D01*
X270630Y692247D01*
X270757Y692205D01*
X270898Y692162D01*
X271068Y692134D01*
X271237Y692120D01*
X271251D01*
X271265D01*
X271350Y692134D01*
X271476Y692148D01*
X271646Y692176D01*
X271815Y692247D01*
X272012Y692331D01*
X272195Y692458D01*
X272379Y692627D01*
X272393Y692656D01*
X272449Y692726D01*
X272519Y692839D01*
X272604Y693022D01*
X272689Y693234D01*
X272759Y693516D01*
X272816Y693840D01*
X272830Y694221D01*
Y697294D01*
D02*
G37*
G36*
X271423Y513965D02*
X271408D01*
X271352D01*
X271253D01*
X271126Y513951D01*
X270986Y513937D01*
X270816Y513909D01*
X270619Y513881D01*
X270422Y513852D01*
X269970Y513740D01*
X269745Y513655D01*
X269505Y513571D01*
X269280Y513458D01*
X269054Y513331D01*
X268843Y513190D01*
X268645Y513021D01*
X268631Y513007D01*
X268603Y512978D01*
X268547Y512922D01*
X268490Y512851D01*
X268406Y512753D01*
X268321Y512640D01*
X268237Y512513D01*
X268138Y512372D01*
X268039Y512203D01*
X267955Y512020D01*
X267870Y511822D01*
X267785Y511611D01*
X267729Y511385D01*
X267673Y511160D01*
X267645Y510906D01*
X267630Y510638D01*
Y510568D01*
X267645Y510497D01*
Y510399D01*
X267659Y510272D01*
X267687Y510131D01*
X267715Y509962D01*
X267757Y509793D01*
X267814Y509595D01*
X267884Y509412D01*
X267955Y509200D01*
X268053Y509003D01*
X268180Y508806D01*
X268307Y508608D01*
X268462Y508411D01*
X268645Y508228D01*
X268659Y508214D01*
X268688Y508185D01*
X268758Y508143D01*
X268843Y508073D01*
X268941Y508002D01*
X269068Y507932D01*
X269223Y507847D01*
X269393Y507748D01*
X269590Y507664D01*
X269815Y507579D01*
X270055Y507509D01*
X270309Y507424D01*
X270591Y507368D01*
X270901Y507326D01*
X271225Y507297D01*
X271563Y507283D01*
X271578D01*
X271620D01*
X271676D01*
X271761D01*
X271859Y507297D01*
X271986D01*
X272113Y507311D01*
X272268Y507340D01*
X272593Y507382D01*
X272931Y507452D01*
X273297Y507551D01*
X273636Y507692D01*
X273650D01*
X273678Y507706D01*
X273720Y507734D01*
X273777Y507762D01*
X273946Y507861D01*
X274143Y507988D01*
X274369Y508157D01*
X274594Y508369D01*
X274820Y508608D01*
X275017Y508876D01*
Y508890D01*
X275045Y508904D01*
X275060Y508947D01*
X275102Y509017D01*
X275130Y509088D01*
X275172Y509172D01*
X275271Y509384D01*
X275356Y509637D01*
X275440Y509933D01*
X275497Y510272D01*
X275511Y510624D01*
Y510751D01*
X275497Y510850D01*
X275482Y510977D01*
X275454Y511104D01*
X275426Y511259D01*
X275398Y511428D01*
X275285Y511794D01*
X275201Y511992D01*
X275116Y512189D01*
X275003Y512400D01*
X274876Y512598D01*
X274735Y512795D01*
X274566Y512978D01*
X274552Y512993D01*
X274524Y513021D01*
X274467Y513063D01*
X274383Y513134D01*
X274284Y513204D01*
X274157Y513288D01*
X274002Y513373D01*
X273819Y513472D01*
X273622Y513556D01*
X273382Y513655D01*
X273128Y513740D01*
X272846Y513810D01*
X272536Y513881D01*
X272184Y513923D01*
X271817Y513951D01*
X271423Y513965D01*
D02*
G37*
G36*
X275370Y502984D02*
X272141D01*
Y500080D01*
X272155Y499911D01*
X272170Y499713D01*
X272184Y499488D01*
X272212Y499262D01*
X272254Y499036D01*
X272311Y498839D01*
X272325Y498811D01*
X272353Y498755D01*
X272395Y498670D01*
X272452Y498557D01*
X272536Y498430D01*
X272635Y498303D01*
X272762Y498177D01*
X272903Y498078D01*
X272917Y498064D01*
X272973Y498036D01*
X273058Y497993D01*
X273171Y497937D01*
X273297Y497895D01*
X273438Y497852D01*
X273608Y497824D01*
X273777Y497810D01*
X273791D01*
X273805D01*
X273890Y497824D01*
X274016Y497838D01*
X274186Y497866D01*
X274355Y497937D01*
X274552Y498022D01*
X274735Y498148D01*
X274919Y498317D01*
X274933Y498346D01*
X274989Y498416D01*
X275060Y498529D01*
X275144Y498712D01*
X275229Y498924D01*
X275299Y499206D01*
X275356Y499530D01*
X275370Y499911D01*
Y502984D01*
D02*
G37*
G36*
X1760437Y427107D02*
X1760422D01*
X1760380D01*
X1760324D01*
X1760239D01*
X1760141Y427093D01*
X1760014D01*
X1759887Y427079D01*
X1759732Y427051D01*
X1759408Y427008D01*
X1759069Y426938D01*
X1758703Y426839D01*
X1758364Y426698D01*
X1758350D01*
X1758322Y426684D01*
X1758280Y426656D01*
X1758223Y426628D01*
X1758054Y426529D01*
X1757857Y426402D01*
X1757631Y426233D01*
X1757406Y426022D01*
X1757180Y425782D01*
X1756983Y425514D01*
Y425500D01*
X1756955Y425486D01*
X1756940Y425444D01*
X1756898Y425373D01*
X1756870Y425303D01*
X1756828Y425218D01*
X1756729Y425007D01*
X1756644Y424753D01*
X1756560Y424457D01*
X1756503Y424118D01*
X1756489Y423766D01*
Y423639D01*
X1756503Y423541D01*
X1756518Y423414D01*
X1756546Y423287D01*
X1756574Y423132D01*
X1756602Y422963D01*
X1756715Y422596D01*
X1756799Y422399D01*
X1756884Y422201D01*
X1756997Y421990D01*
X1757124Y421792D01*
X1757265Y421595D01*
X1757434Y421412D01*
X1757448Y421398D01*
X1757476Y421370D01*
X1757533Y421327D01*
X1757617Y421257D01*
X1757716Y421186D01*
X1757843Y421102D01*
X1757998Y421017D01*
X1758181Y420919D01*
X1758378Y420834D01*
X1758618Y420735D01*
X1758872Y420651D01*
X1759154Y420580D01*
X1759464Y420510D01*
X1759816Y420467D01*
X1760183Y420439D01*
X1760578Y420425D01*
X1760592D01*
X1760648D01*
X1760747D01*
X1760874Y420439D01*
X1761015Y420453D01*
X1761184Y420481D01*
X1761381Y420510D01*
X1761578Y420538D01*
X1762030Y420651D01*
X1762255Y420735D01*
X1762495Y420820D01*
X1762720Y420933D01*
X1762946Y421059D01*
X1763157Y421200D01*
X1763355Y421370D01*
X1763369Y421384D01*
X1763397Y421412D01*
X1763453Y421468D01*
X1763510Y421539D01*
X1763594Y421637D01*
X1763679Y421750D01*
X1763763Y421877D01*
X1763862Y422018D01*
X1763961Y422187D01*
X1764045Y422370D01*
X1764130Y422568D01*
X1764214Y422779D01*
X1764271Y423005D01*
X1764327Y423230D01*
X1764355Y423484D01*
X1764370Y423752D01*
Y423823D01*
X1764355Y423893D01*
Y423992D01*
X1764341Y424118D01*
X1764313Y424259D01*
X1764285Y424429D01*
X1764243Y424598D01*
X1764186Y424795D01*
X1764116Y424978D01*
X1764045Y425190D01*
X1763947Y425387D01*
X1763820Y425585D01*
X1763693Y425782D01*
X1763538Y425979D01*
X1763355Y426163D01*
X1763340Y426177D01*
X1763312Y426205D01*
X1763242Y426247D01*
X1763157Y426318D01*
X1763059Y426388D01*
X1762932Y426459D01*
X1762777Y426543D01*
X1762608Y426642D01*
X1762410Y426726D01*
X1762185Y426811D01*
X1761945Y426881D01*
X1761691Y426966D01*
X1761409Y427023D01*
X1761099Y427065D01*
X1760775Y427093D01*
X1760437Y427107D01*
D02*
G37*
G36*
X1759167Y576967D02*
X1759152D01*
X1759110D01*
X1759054D01*
X1758969D01*
X1758871Y576953D01*
X1758744D01*
X1758617Y576939D01*
X1758462Y576911D01*
X1758138Y576868D01*
X1757799Y576798D01*
X1757433Y576699D01*
X1757094Y576558D01*
X1757080D01*
X1757052Y576544D01*
X1757010Y576516D01*
X1756953Y576488D01*
X1756784Y576389D01*
X1756587Y576262D01*
X1756361Y576093D01*
X1756136Y575882D01*
X1755910Y575642D01*
X1755713Y575374D01*
Y575360D01*
X1755685Y575346D01*
X1755670Y575304D01*
X1755628Y575233D01*
X1755600Y575163D01*
X1755558Y575078D01*
X1755459Y574867D01*
X1755374Y574613D01*
X1755290Y574317D01*
X1755233Y573979D01*
X1755219Y573626D01*
Y573499D01*
X1755233Y573401D01*
X1755248Y573274D01*
X1755276Y573147D01*
X1755304Y572992D01*
X1755332Y572823D01*
X1755445Y572456D01*
X1755529Y572259D01*
X1755614Y572061D01*
X1755727Y571850D01*
X1755854Y571652D01*
X1755995Y571455D01*
X1756164Y571272D01*
X1756178Y571258D01*
X1756206Y571230D01*
X1756263Y571187D01*
X1756347Y571117D01*
X1756446Y571046D01*
X1756573Y570962D01*
X1756728Y570877D01*
X1756911Y570779D01*
X1757108Y570694D01*
X1757348Y570595D01*
X1757602Y570511D01*
X1757884Y570440D01*
X1758194Y570370D01*
X1758546Y570327D01*
X1758913Y570299D01*
X1759308Y570285D01*
X1759322D01*
X1759378D01*
X1759477D01*
X1759603Y570299D01*
X1759745Y570313D01*
X1759914Y570341D01*
X1760111Y570370D01*
X1760308Y570398D01*
X1760759Y570511D01*
X1760985Y570595D01*
X1761225Y570680D01*
X1761450Y570793D01*
X1761676Y570919D01*
X1761887Y571060D01*
X1762085Y571230D01*
X1762099Y571244D01*
X1762127Y571272D01*
X1762183Y571328D01*
X1762240Y571399D01*
X1762324Y571497D01*
X1762409Y571610D01*
X1762493Y571737D01*
X1762592Y571878D01*
X1762691Y572047D01*
X1762775Y572230D01*
X1762860Y572428D01*
X1762944Y572639D01*
X1763001Y572865D01*
X1763057Y573090D01*
X1763085Y573344D01*
X1763100Y573612D01*
Y573683D01*
X1763085Y573753D01*
Y573852D01*
X1763071Y573979D01*
X1763043Y574119D01*
X1763015Y574289D01*
X1762973Y574458D01*
X1762916Y574655D01*
X1762846Y574838D01*
X1762775Y575050D01*
X1762677Y575247D01*
X1762550Y575445D01*
X1762423Y575642D01*
X1762268Y575839D01*
X1762085Y576023D01*
X1762070Y576037D01*
X1762042Y576065D01*
X1761972Y576107D01*
X1761887Y576178D01*
X1761789Y576248D01*
X1761662Y576319D01*
X1761507Y576403D01*
X1761337Y576502D01*
X1761140Y576586D01*
X1760915Y576671D01*
X1760675Y576741D01*
X1760421Y576826D01*
X1760139Y576883D01*
X1759829Y576925D01*
X1759505Y576953D01*
X1759167Y576967D01*
D02*
G37*
%LPD*%
D10*
X1714180Y778510D02*
G03*
X1714180Y778510I-20000J0D01*
G01*
Y727710D02*
G03*
X1714180Y727710I-20000J0D01*
G01*
Y563880D02*
G03*
X1714180Y563880I-20000J0D01*
G01*
Y614680D02*
G03*
X1714180Y614680I-20000J0D01*
G01*
Y455930D02*
G03*
X1714180Y455930I-20000J0D01*
G01*
Y405130D02*
G03*
X1714180Y405130I-20000J0D01*
G01*
X915280Y599440D02*
G03*
X915280Y599440I-8500J0D01*
G01*
X433460Y598810D02*
G03*
X450460Y598810I8500J0D01*
G01*
X356550Y899160D02*
G03*
X356550Y899160I-20000J0D01*
G01*
Y949960D02*
G03*
X356550Y949960I-20000J0D01*
G01*
X1522340Y312420D02*
G03*
X1522340Y312420I-8500J0D01*
G01*
X1224910Y651900D02*
G03*
X1224910Y668900I0J8500D01*
G01*
X306844Y1068459D02*
G03*
X367936Y1067598I30976J30091D01*
G01*
X373120Y1085750D02*
G03*
X375920Y1088550I0J2800D01*
G01*
X375920Y1108550D02*
G03*
X373120Y1111350I-2800J0D01*
G01*
X299720Y1088550D02*
G03*
X302120Y1085750I2600J-200D01*
G01*
Y1111350D02*
G03*
X299720Y1108550I200J-2600D01*
G01*
X617319Y771041D02*
G03*
X546140Y771296I-35659J-19201D01*
G01*
X545985Y732668D02*
G03*
X617370Y732735I35675J19172D01*
G01*
X1514470Y653170D02*
G03*
X1514470Y670170I0J8500D01*
G01*
X1039120Y1237080D02*
G03*
X1036320Y1234280I0J-2800D01*
G01*
X1036320Y1214280D02*
G03*
X1039120Y1211480I2800J0D01*
G01*
X1087120Y1234280D02*
G03*
X1084720Y1237080I-2600J200D01*
G01*
Y1211480D02*
G03*
X1087120Y1214280I-200J2600D01*
G01*
X1420740Y778510D02*
G03*
X1420740Y778510I-8500J0D01*
G01*
X527760Y1092200D02*
G03*
X527760Y1092200I-1000J0D01*
G01*
X503760Y1058200D02*
G03*
X503760Y1058200I-1000J0D01*
G01*
X478760D02*
G03*
X478760Y1058200I-1000J0D01*
G01*
X459760Y1097200D02*
G03*
X459760Y1097200I-1000J0D01*
G01*
X488760Y1126200D02*
G03*
X488760Y1126200I-1000J0D01*
G01*
X1395410Y1169670D02*
G03*
X1395410Y1169670I-20000J0D01*
G01*
X1344610D02*
G03*
X1344610Y1169670I-20000J0D01*
G01*
X1297300Y654440D02*
G03*
X1297300Y671440I0J8500D01*
G01*
X1513520Y1169670D02*
G03*
X1513520Y1169670I-20000J0D01*
G01*
X1462720D02*
G03*
X1462720Y1169670I-20000J0D01*
G01*
X1438270Y653170D02*
G03*
X1438270Y670170I0J8500D01*
G01*
X1631630Y1167130D02*
G03*
X1631630Y1167130I-20000J0D01*
G01*
X1580830D02*
G03*
X1580830Y1167130I-20000J0D01*
G01*
X1365630Y652280D02*
G03*
X1365630Y669280I0J8500D01*
G01*
X1756090Y1165860D02*
G03*
X1756090Y1165860I-20000J0D01*
G01*
X1705290D02*
G03*
X1705290Y1165860I-20000J0D01*
G01*
X356550Y810260D02*
G03*
X356550Y810260I-20000J0D01*
G01*
Y759460D02*
G03*
X356550Y759460I-20000J0D01*
G01*
Y708660D02*
G03*
X356550Y708660I-20000J0D01*
G01*
X429650Y796930D02*
G03*
X446650Y796930I8500J0D01*
G01*
X356550Y615950D02*
G03*
X356550Y615950I-20000J0D01*
G01*
Y565150D02*
G03*
X356550Y565150I-20000J0D01*
G01*
Y514350D02*
G03*
X356550Y514350I-20000J0D01*
G01*
X357820Y422910D02*
G03*
X357820Y422910I-20000J0D01*
G01*
Y372110D02*
G03*
X357820Y372110I-20000J0D01*
G01*
X467750Y403230D02*
G03*
X484750Y403230I8500J0D01*
G01*
X372250Y1165760D02*
G03*
X374650Y1168560I-200J2600D01*
G01*
X374650Y1188560D02*
G03*
X372250Y1191360I-2600J200D01*
G01*
X298450Y1168560D02*
G03*
X301250Y1165760I2800J0D01*
G01*
Y1191360D02*
G03*
X298450Y1188560I0J-2800D01*
G01*
X367526Y1208651D02*
G03*
X306434Y1209512I-30976J-30091D01*
G01*
X1025770Y1002030D02*
G03*
X1025770Y1002030I-8500J0D01*
G01*
X862104Y484277D02*
G03*
X862104Y557123I-12474J36423D01*
G01*
X837156D02*
G03*
X837156Y484277I12474J-36423D01*
G01*
X993275Y843455D02*
G03*
X1086996Y843496I46855J12525D01*
G01*
X1086985Y868505D02*
G03*
X993264Y868464I-46855J-12525D01*
G01*
X1160390Y576580D02*
G03*
X1160390Y576580I-8500J0D01*
G01*
X1667180Y753110D02*
X1728180D01*
X1728180Y698110D02*
Y808110D01*
X1667180Y698110D02*
Y808110D01*
X1652180Y698110D02*
Y808110D01*
Y697310D02*
X1749180D01*
Y698110D02*
Y808110D01*
X1652180Y808910D02*
X1749180D01*
X1705180Y778510D02*
X1714180D01*
Y778110D02*
Y778510D01*
X1694180Y789510D02*
Y798510D01*
X1674180Y778510D02*
X1683180D01*
X1694180Y758510D02*
Y767510D01*
Y707710D02*
Y716710D01*
X1705180Y727710D02*
X1714180D01*
X1694180Y738710D02*
Y747710D01*
X1674180Y727710D02*
X1683180D01*
X1674180Y563880D02*
X1683180D01*
X1694180Y574880D02*
Y583880D01*
X1705180Y563880D02*
X1714180D01*
X1694180Y543880D02*
Y552880D01*
Y594680D02*
Y603680D01*
X1674180Y614680D02*
X1683180D01*
X1694180Y625680D02*
Y634680D01*
X1714180Y614280D02*
Y614680D01*
X1705180D02*
X1714180D01*
X1652180Y645080D02*
X1749180D01*
Y534280D02*
Y644280D01*
X1652180Y533480D02*
X1749180D01*
X1652180Y534280D02*
Y644280D01*
X1667180Y534280D02*
Y644280D01*
X1728180Y534280D02*
Y644280D01*
X1667180Y589280D02*
X1728180D01*
X1667180Y430530D02*
X1728180D01*
X1728180Y375530D02*
Y485530D01*
X1667180Y375530D02*
Y485530D01*
X1652180Y375530D02*
Y485530D01*
Y374730D02*
X1749180D01*
Y375530D02*
Y485530D01*
X1652180Y486330D02*
X1749180D01*
X1705180Y455930D02*
X1714180D01*
Y455530D02*
Y455930D01*
X1694180Y466930D02*
Y475930D01*
X1674180Y455930D02*
X1683180D01*
X1694180Y435930D02*
Y444930D01*
Y385130D02*
Y394130D01*
X1705180Y405130D02*
X1714180D01*
X1694180Y416130D02*
Y425130D01*
X1674180Y405130D02*
X1683180D01*
X1132920Y1271611D02*
X1264820Y1271712D01*
X1164980Y1113870D02*
X1191380D01*
X1164980Y1097870D02*
Y1113870D01*
X1121880Y1097870D02*
X1164980D01*
X1121880Y1147870D02*
Y1239970D01*
Y1097870D02*
Y1113670D01*
X1275880Y1148370D02*
Y1240270D01*
X522730Y1216330D02*
X526230D01*
X522730D02*
Y1231330D01*
X522730Y1255330D02*
Y1266330D01*
X597730Y1255330D02*
Y1266330D01*
X597730Y1216330D02*
Y1231330D01*
X594230Y1216330D02*
X597730D01*
X522728Y1257830D02*
X597730D01*
X1108250Y948990D02*
X1156250D01*
Y922990D02*
Y948990D01*
X1108250Y922990D02*
X1156250D01*
X1108250D02*
Y948990D01*
X945850Y397050D02*
Y445050D01*
X971850D01*
Y397050D02*
Y445050D01*
X945850Y397050D02*
X971850D01*
X871210Y631024D02*
X901710D01*
Y639593D01*
X871210D02*
X901710D01*
X871210Y631024D02*
Y639593D01*
Y613000D02*
Y631024D01*
Y613000D02*
X879460D01*
X408960Y551810D02*
Y555310D01*
Y551810D02*
X474960D01*
X408960Y569310D02*
Y581310D01*
X385960Y584252D02*
Y595310D01*
X408960D01*
Y598810D02*
X433460D01*
X408960Y595310D02*
Y598810D01*
X474960Y551810D02*
Y555310D01*
Y569310D02*
Y581310D01*
X450460Y598810D02*
X474960D01*
Y595310D02*
Y598810D01*
X302550Y924560D02*
X363550D01*
X302550Y869560D02*
Y979560D01*
X363550Y869560D02*
Y979560D01*
X378550Y869560D02*
Y979560D01*
X281550Y980360D02*
X378550D01*
X281550Y869560D02*
Y979560D01*
Y868760D02*
X378550D01*
X316550Y899160D02*
X325550D01*
X316550D02*
Y899560D01*
X336550Y879160D02*
Y888160D01*
X347550Y899160D02*
X356550D01*
X336550Y910160D02*
Y919160D01*
Y960960D02*
Y969960D01*
X316550Y949960D02*
X325550D01*
X336550Y929960D02*
Y938960D01*
X347550Y949960D02*
X356550D01*
X452440Y1189370D02*
Y1251570D01*
X458440Y1189370D02*
Y1251570D01*
X464440Y1189370D02*
Y1251570D01*
X462440D02*
X464440D01*
X436890Y1189370D02*
Y1201470D01*
Y1239470D02*
Y1251570D01*
X507990Y1189370D02*
Y1201470D01*
Y1239470D02*
Y1251570D01*
X436890Y1189370D02*
X507990D01*
X436890Y1251570D02*
X507990D01*
X1099820Y775070D02*
Y789570D01*
X1085470D02*
X1114320D01*
X1085320Y775070D02*
Y789570D01*
X1085470Y775070D02*
X1114170D01*
X1114320D02*
Y789570D01*
X499730Y682609D02*
X529730D01*
Y696609D01*
X499730D02*
X529730D01*
X499730Y682609D02*
Y696609D01*
X728610Y615050D02*
Y629550D01*
X714260D02*
X743110D01*
X714110Y615050D02*
Y629550D01*
X714260Y615050D02*
X742960D01*
X743110D02*
Y629550D01*
X723090Y691270D02*
X742390D01*
X723090Y657620D02*
Y691270D01*
X742390D02*
X742390Y657620D01*
X723090D02*
X742390D01*
X1186740Y701920D02*
X1206040D01*
Y735570D01*
X1186740D02*
X1186740Y701920D01*
X1186740Y735570D02*
X1206040D01*
X1268410Y627400D02*
X1271910D01*
Y693400D01*
X1242410Y627400D02*
X1254410D01*
X1228410Y604400D02*
X1239468D01*
X1228410D02*
Y627400D01*
X1224910D02*
Y651900D01*
Y627400D02*
X1228410D01*
X1268410Y693400D02*
X1271910D01*
X1242410D02*
X1254410D01*
X1224910Y668900D02*
Y693400D01*
X1228410D01*
X805470Y374940D02*
X873470D01*
X805470Y442940D02*
X873470D01*
X805470Y374940D02*
Y388940D01*
Y428940D02*
Y442940D01*
X873470Y374940D02*
Y388940D01*
Y428940D02*
Y442940D01*
X287480Y1051950D02*
X306780D01*
X287480Y1018300D02*
Y1051950D01*
X306780D02*
X306780Y1018300D01*
X287480D02*
X306780D01*
X299720Y1111550D02*
X375920D01*
X299720Y1068550D02*
X375920D01*
X299720Y1111550D02*
X375920D01*
Y1068550D02*
Y1111550D01*
X299720Y1068550D02*
Y1111550D01*
X347980Y1111250D02*
X350520Y1108710D01*
X353060Y1111250D01*
X350520Y1088290D02*
X353060Y1085750D01*
X350520Y1088290D02*
Y1088390D01*
X347980Y1085850D02*
X350520Y1088390D01*
X353060Y1111350D02*
X373380D01*
X353060Y1085750D02*
X373380D01*
X375920Y1088550D02*
Y1108550D01*
X299720Y1088550D02*
Y1108550D01*
X302120Y1111350D02*
X322580D01*
X302120Y1085750D02*
X322480D01*
X373380Y1111250D02*
Y1111350D01*
Y1085750D02*
Y1085850D01*
X322580Y1111250D02*
X325120Y1108710D01*
X327660Y1111250D01*
X322580Y1085750D02*
Y1085850D01*
X325120Y1088390D01*
Y1088290D02*
Y1088390D01*
Y1088290D02*
X327660Y1085750D01*
Y1111350D02*
X347980D01*
X322480Y1085750D02*
X322580Y1085850D01*
X327660Y1085750D02*
X347980D01*
X350520Y1088390D02*
Y1108710D01*
X662054Y631360D02*
Y684360D01*
X691718D01*
Y631360D02*
Y684360D01*
X719761Y633586D02*
Y641373D01*
X662054Y631360D02*
X691718D01*
X691876Y633586D02*
X719761D01*
X530160Y770840D02*
Y801840D01*
X633160D01*
Y770840D02*
Y801840D01*
X530160Y701840D02*
Y732840D01*
Y701840D02*
X633160D01*
Y732840D01*
X1304890Y223480D02*
X1484890D01*
X1460890Y478530D02*
X1484890D01*
X1304890D02*
X1330890D01*
X1484890Y471930D02*
Y478530D01*
Y223480D02*
Y290930D01*
X1304890Y470930D02*
Y478530D01*
Y223480D02*
Y290930D01*
Y286480D02*
X1484890D01*
X1389540Y230380D02*
Y234380D01*
Y230380D02*
X1405540D01*
X1461540D02*
Y278380D01*
X1441540Y230380D02*
Y268380D01*
X1421540Y230380D02*
Y258380D01*
X1405540Y230380D02*
Y258380D01*
X1389540Y234380D02*
Y258380D01*
X1373540Y230380D02*
Y258380D01*
X1357540Y230380D02*
Y258380D01*
X1341540Y230380D02*
Y258380D01*
X1323540Y230380D02*
Y250380D01*
Y230380D02*
X1341540D01*
X1357540D02*
X1373540D01*
X1405540Y258380D02*
X1421540D01*
X1341540D02*
X1357540D01*
X1421540Y230380D02*
X1461540D01*
X1373540Y258380D02*
X1389540D01*
X1205470Y528640D02*
Y568640D01*
X1235470Y528640D02*
Y568640D01*
X1231470Y528640D02*
X1235470D01*
X1231470Y568640D02*
X1235470D01*
X1205470Y528640D02*
X1209470D01*
X1205470Y568640D02*
X1209470D01*
X1038540Y360250D02*
Y364250D01*
X998540Y360250D02*
Y364250D01*
X1038540Y334250D02*
Y338250D01*
X998540Y334250D02*
Y338250D01*
Y334250D02*
X1038540D01*
X998540Y364250D02*
X1038540D01*
X1557970Y628670D02*
X1561470D01*
Y694670D01*
X1531970Y628670D02*
X1543970D01*
X1517970Y605670D02*
X1529028D01*
X1517970D02*
Y628670D01*
X1514470D02*
Y653170D01*
Y628670D02*
X1517970D01*
X1557970Y694670D02*
X1561470D01*
X1531970D02*
X1543970D01*
X1514470Y670170D02*
Y694670D01*
X1517970D01*
X501240Y812930D02*
Y844930D01*
Y812930D02*
X519840D01*
Y844930D01*
X501240D02*
X519840D01*
X428550Y812410D02*
X447850D01*
Y846060D01*
X428550D02*
X428550Y812410D01*
X428550Y846060D02*
X447850D01*
X1111210Y751760D02*
Y754760D01*
X1115210Y743260D02*
X1127210D01*
Y748260D01*
Y758260D02*
Y763260D01*
X1115210D02*
X1127210D01*
X1617170Y752370D02*
X1636470D01*
X1617170Y718720D02*
Y752370D01*
X1636470D02*
X1636470Y718720D01*
X1617170D02*
X1636470D01*
X1617170Y432190D02*
X1636470D01*
X1617170Y398540D02*
Y432190D01*
X1636470D02*
X1636470Y398540D01*
X1617170D02*
X1636470D01*
X819590Y963907D02*
X863510Y963907D01*
X899010Y978907D02*
X913590D01*
X768590D02*
X795010D01*
X768590D02*
Y998407D01*
Y1135407D02*
Y1154907D01*
X913590Y978907D02*
X925590Y990907D01*
X940590Y1056407D02*
Y1100007D01*
Y998407D02*
Y1045407D01*
X930590Y998407D02*
X940590D01*
Y1110907D02*
Y1135407D01*
X874590Y1169907D02*
X899090D01*
X819590D02*
X863590D01*
X795090D02*
X808590D01*
X753590Y1100007D02*
Y1135407D01*
X753590Y1100007D02*
X753590D01*
X753590Y1088907D02*
X753590Y1045407D01*
X753590Y998407D02*
Y1034407D01*
Y998407D02*
X753840D01*
X795090Y963907D02*
X808510D01*
X753590Y1135407D02*
X763590D01*
X930590D02*
Y1159907D01*
X795090D02*
Y1169907D01*
X930590Y1135407D02*
X940590D01*
X753590D02*
X753590D01*
X753590Y1039789D02*
X753590D01*
X899090Y1159907D02*
Y1169907D01*
Y963907D02*
Y973907D01*
X753590Y998407D02*
X763590D01*
Y973907D02*
Y998407D01*
Y1135407D02*
Y1159907D01*
X930590Y978907D02*
Y998407D01*
X753590D02*
X754090D01*
X874510Y963907D02*
X899090D01*
X795090D02*
Y973907D01*
X763590D02*
X795090D01*
X899090Y973907D02*
X930590D01*
Y998407D01*
X899090Y1159907D02*
X930590D01*
X763590D02*
X795090D01*
X925590Y990907D02*
Y998407D01*
Y1135407D02*
Y1154907D01*
X899590D02*
X925590D01*
X768590D02*
X795010D01*
X701600Y577460D02*
X720900D01*
Y611110D01*
X701600D02*
X701600Y577460D01*
X701600Y611110D02*
X720900D01*
X626570Y615070D02*
X645870D01*
X626570Y581420D02*
Y615070D01*
X645870D02*
X645870Y581420D01*
X626570D02*
X645870D01*
X650624Y518530D02*
Y571530D01*
X680287D01*
Y518530D02*
Y571530D01*
X708331Y520756D02*
Y528543D01*
X650624Y518530D02*
X680287D01*
X680446Y520756D02*
X708331D01*
X995270Y398020D02*
Y430020D01*
Y398020D02*
X1013870D01*
Y430020D01*
X995270D02*
X1013870D01*
X1030830Y447550D02*
Y479550D01*
Y447550D02*
X1049430D01*
Y479550D01*
X1030830D02*
X1049430D01*
X1119730Y404370D02*
Y436370D01*
Y404370D02*
X1138330D01*
Y436370D01*
X1119730D02*
X1138330D01*
X911711Y664016D02*
Y682016D01*
X922711Y664016D02*
X930711D01*
X941711D02*
Y682016D01*
X911711D02*
X920711D01*
X932711D02*
X941711D01*
X1227280Y437270D02*
X1246580D01*
X1227280Y403620D02*
Y437270D01*
X1246580D02*
X1246580Y403620D01*
X1227280D02*
X1246580D01*
X765950Y890930D02*
Y909930D01*
X782700Y890930D02*
Y909930D01*
X749200Y909930D02*
X782700D01*
X749200Y890930D02*
X782700D01*
X749200D02*
Y909930D01*
X1031490Y1015550D02*
X1094490D01*
X1031490Y1007050D02*
Y1065050D01*
X1094490Y1007050D02*
Y1065050D01*
X1228830Y983350D02*
Y997850D01*
X1228980D02*
X1257680D01*
X1257830Y983350D02*
Y997850D01*
X1228830Y983350D02*
X1257680D01*
X1243330D02*
Y997850D01*
X842630Y1188960D02*
X856630D01*
X842630D02*
Y1218960D01*
X856630D01*
Y1188960D02*
Y1218960D01*
X887081Y1189340D02*
X901081D01*
X887081D02*
Y1219340D01*
X901081D01*
Y1189340D02*
Y1219340D01*
X1244900Y1033780D02*
X1246900D01*
Y1026280D02*
Y1033780D01*
X1231900Y1026280D02*
X1246900D01*
X1244900Y1033780D02*
X1246900D01*
Y1024780D02*
Y1033780D01*
X1231900Y1024780D02*
X1246900D01*
X1231900D02*
Y1027780D01*
X1195900Y1028030D02*
X1244900D01*
Y1058530D01*
X1195900D02*
X1244900D01*
X1195900Y1028030D02*
Y1058530D01*
X800720Y1190230D02*
X814720D01*
X800720D02*
Y1220230D01*
X814720D01*
Y1190230D02*
Y1220230D01*
X822160Y638810D02*
X849160D01*
X737097Y825490D02*
Y855990D01*
Y825490D02*
X746273D01*
Y855990D01*
X737097D02*
X746273D01*
X716404D02*
X737704D01*
X716404Y847740D02*
Y855990D01*
X678953Y826760D02*
Y857260D01*
X669777D02*
X678953D01*
X669777Y826760D02*
Y857260D01*
Y826760D02*
X678953D01*
X678346D02*
X699647D01*
Y835010D01*
X665230Y1187610D02*
Y1207610D01*
X687230Y1229610D02*
X707230D01*
X729230Y1187610D02*
Y1207610D01*
X687230Y1165610D02*
X707230D01*
X1061720Y1214120D02*
X1064260Y1211580D01*
X1059180D02*
X1061720Y1214120D01*
X1059180Y1237080D02*
X1061720Y1234540D01*
Y1234440D02*
Y1234540D01*
Y1234440D02*
X1064260Y1236980D01*
X1038860Y1211480D02*
X1059180D01*
X1038860Y1237080D02*
X1059180D01*
X1036320Y1214280D02*
Y1234280D01*
X1087120Y1214280D02*
Y1234280D01*
X1064260Y1211480D02*
X1084720D01*
X1064360Y1237080D02*
X1084720D01*
X1038860Y1211480D02*
Y1211580D01*
Y1236980D02*
Y1237080D01*
X842420Y888240D02*
Y920240D01*
X823820D02*
X842420D01*
X823820Y888240D02*
Y920240D01*
Y888240D02*
X842420D01*
X698090Y925450D02*
Y957450D01*
Y925450D02*
X716690D01*
Y957450D01*
X698090D02*
X716690D01*
X696820Y992760D02*
Y1024760D01*
Y992760D02*
X715420D01*
Y1024760D01*
X696820D02*
X715420D01*
X682650Y952500D02*
Y972820D01*
X636930D02*
X682650D01*
X640740Y952500D02*
Y972820D01*
X636930Y952500D02*
Y972820D01*
Y952500D02*
X682650D01*
X644550D02*
Y972820D01*
X695960Y1054100D02*
X716280D01*
Y1099820D01*
X695960Y1096010D02*
X716280D01*
X695960Y1099820D02*
X716280D01*
X695960Y1054100D02*
Y1099820D01*
Y1092200D02*
X716280D01*
X891950Y886970D02*
Y918970D01*
X873350D02*
X891950D01*
X873350Y886970D02*
Y918970D01*
Y886970D02*
X891950D01*
X936400Y888240D02*
Y920240D01*
X917800D02*
X936400D01*
X917800Y888240D02*
Y920240D01*
Y888240D02*
X936400D01*
X637580Y1082850D02*
Y1092850D01*
X645580D01*
X659980D02*
X667980D01*
Y1082850D02*
Y1092850D01*
X650780Y1078850D02*
X654780D01*
X586780Y1081580D02*
Y1091580D01*
X594780D01*
X609180D02*
X617180D01*
Y1081580D02*
Y1091580D01*
X599980Y1077580D02*
X603980D01*
X634240Y1036730D02*
X666240D01*
X634240Y1018130D02*
Y1036730D01*
Y1018130D02*
X666240D01*
Y1036730D01*
X895860Y841600D02*
X927860D01*
Y860200D01*
X895860D02*
X927860D01*
X895860Y841600D02*
Y860200D01*
X1454730Y761470D02*
Y790470D01*
X1447230D02*
X1474230D01*
X1447230Y761470D02*
X1474230D01*
X1547720Y790320D02*
X1566320D01*
Y758320D02*
Y790320D01*
X1547720Y758320D02*
X1566320D01*
X1547720D02*
Y790320D01*
X988570Y696820D02*
Y715420D01*
X1020570D01*
Y696820D02*
Y715420D01*
X988570Y696820D02*
X1020570D01*
X1356820Y537210D02*
X1376120D01*
X1376120Y570860D02*
X1376120Y537210D01*
X1356820D02*
Y570860D01*
X1376120D01*
X1268730Y571500D02*
X1289050D01*
X1268730Y533400D02*
Y579120D01*
X1289050D01*
X1268730Y575310D02*
X1289050D01*
Y533400D02*
Y579120D01*
X1268730Y533400D02*
X1289050D01*
X1311200Y570860D02*
X1330500D01*
X1311200D02*
X1311200Y537210D01*
X1330500D02*
Y570860D01*
X1311200Y537210D02*
X1330500D01*
X505760Y1125200D02*
X511760D01*
Y1121200D02*
Y1125200D01*
Y1121200D02*
X519760D01*
Y1111200D02*
Y1121200D01*
X511760Y1067200D02*
X517760D01*
Y1073200D01*
X467760Y1067200D02*
Y1073200D01*
Y1067200D02*
X473760D01*
X467760Y1111200D02*
Y1117200D01*
X473760D01*
X540780Y1087680D02*
Y1106980D01*
Y1087680D02*
X574430Y1087680D01*
X540780Y1106980D02*
X574430D01*
Y1087680D02*
Y1106980D01*
X540920Y1038150D02*
Y1057450D01*
Y1038150D02*
X574570Y1038150D01*
X540920Y1057450D02*
X574570D01*
Y1038150D02*
Y1057450D01*
X420830Y1095770D02*
X440130D01*
X440130Y1129420D02*
X440130Y1095770D01*
X420830D02*
Y1129420D01*
X440130D01*
X542050Y1137210D02*
Y1156510D01*
Y1137210D02*
X575700Y1137210D01*
X542050Y1156510D02*
X575700D01*
Y1137210D02*
Y1156510D01*
X542050Y991160D02*
Y1010460D01*
Y991160D02*
X575700Y991160D01*
X542050Y1010460D02*
X575700D01*
Y991160D02*
Y1010460D01*
X543800Y942230D02*
X552800D01*
X564800D02*
X573800D01*
X543800D02*
Y960230D01*
X554800D02*
X562800D01*
X573800Y942230D02*
Y960230D01*
X1375410Y1149670D02*
Y1158670D01*
X1355410Y1169670D02*
X1364410D01*
X1375410Y1180670D02*
Y1189670D01*
X1386410Y1169670D02*
X1395410D01*
X1335610D02*
X1344610D01*
X1324610Y1149670D02*
Y1158670D01*
X1304610Y1169670D02*
X1313610D01*
X1324610Y1189670D02*
X1325010D01*
X1324610Y1180670D02*
Y1189670D01*
X1294210Y1127670D02*
Y1224670D01*
X1295010D02*
X1405010D01*
X1405810Y1127670D02*
Y1224670D01*
X1295010Y1127670D02*
X1405010D01*
X1295010Y1142670D02*
X1405010D01*
X1295010Y1203670D02*
X1405010D01*
X1350010Y1142670D02*
Y1203670D01*
X1297300Y695940D02*
X1300800D01*
X1297300Y671440D02*
Y695940D01*
X1314800D02*
X1326800D01*
X1340800D02*
X1344300D01*
X1297300Y629940D02*
X1300800D01*
X1297300D02*
Y654440D01*
X1300800Y606940D02*
Y629940D01*
Y606940D02*
X1311858D01*
X1314800Y629940D02*
X1326800D01*
X1344300D02*
Y695940D01*
X1340800Y629940D02*
X1344300D01*
X1213360Y908530D02*
Y968530D01*
X1207360Y938530D02*
X1251360D01*
X1493520Y1149670D02*
Y1158670D01*
X1473520Y1169670D02*
X1482520D01*
X1493520Y1180670D02*
Y1189670D01*
X1504520Y1169670D02*
X1513520D01*
X1453720D02*
X1462720D01*
X1442720Y1149670D02*
Y1158670D01*
X1422720Y1169670D02*
X1431720D01*
X1442720Y1189670D02*
X1443120D01*
X1442720Y1180670D02*
Y1189670D01*
X1412320Y1127670D02*
Y1224670D01*
X1413120D02*
X1523120D01*
X1523920Y1127670D02*
Y1224670D01*
X1413120Y1127670D02*
X1523120D01*
X1413120Y1142670D02*
X1523120D01*
X1413120Y1203670D02*
X1523120D01*
X1468120Y1142670D02*
Y1203670D01*
X1434620Y1017040D02*
Y1038040D01*
Y1017040D02*
X1435220Y1016440D01*
X1472620D01*
X1422620Y1052040D02*
X1447620Y1077040D01*
X1314620Y1052040D02*
X1422620D01*
X1454620Y879040D02*
Y899040D01*
X1434620D02*
X1454620D01*
X1354620Y879040D02*
Y899040D01*
X1374620D01*
Y889040D02*
Y909040D01*
X1434620D01*
Y889040D02*
Y909040D01*
X1374620Y889040D02*
X1434620D01*
X1314620Y1014440D02*
Y1052040D01*
X1515920Y825740D02*
Y1115740D01*
X1300920Y825740D02*
X1515920D01*
X1300920Y1115740D02*
X1515920D01*
X1300920Y825740D02*
Y978440D01*
Y1008440D02*
Y1115740D01*
X1283810Y868300D02*
Y880300D01*
X1278810Y868300D02*
X1283810D01*
X1263810D02*
X1268810D01*
X1263810D02*
Y880300D01*
X1272310Y884300D02*
X1275310D01*
X1438270Y694670D02*
X1441770D01*
X1438270Y670170D02*
Y694670D01*
X1455770D02*
X1467770D01*
X1481770D02*
X1485270D01*
X1438270Y628670D02*
X1441770D01*
X1438270D02*
Y653170D01*
X1441770Y605670D02*
Y628670D01*
Y605670D02*
X1452828D01*
X1455770Y628670D02*
X1467770D01*
X1485270D02*
Y694670D01*
X1481770Y628670D02*
X1485270D01*
X1611630Y1147130D02*
Y1156130D01*
X1591630Y1167130D02*
X1600630D01*
X1611630Y1178130D02*
Y1187130D01*
X1622630Y1167130D02*
X1631630D01*
X1571830D02*
X1580830D01*
X1560830Y1147130D02*
Y1156130D01*
X1540830Y1167130D02*
X1549830D01*
X1560830Y1187130D02*
X1561230D01*
X1560830Y1178130D02*
Y1187130D01*
X1530430Y1125130D02*
Y1222130D01*
X1531230D02*
X1641230D01*
X1642030Y1125130D02*
Y1222130D01*
X1531230Y1125130D02*
X1641230D01*
X1531230Y1140130D02*
X1641230D01*
X1531230Y1201130D02*
X1641230D01*
X1586230Y1140130D02*
Y1201130D01*
X1349770Y746050D02*
Y765350D01*
Y746050D02*
X1383420Y746050D01*
X1349770Y765350D02*
X1383420D01*
Y746050D02*
Y765350D01*
X1617170Y556160D02*
X1636470D01*
X1636470Y589810D02*
X1636470Y556160D01*
X1617170D02*
Y589810D01*
X1636470D01*
X958060Y591060D02*
X1018060D01*
X988060Y585060D02*
Y629060D01*
X1365630Y693780D02*
X1369130D01*
X1365630Y669280D02*
Y693780D01*
X1383130D02*
X1395130D01*
X1409130D02*
X1412630D01*
X1365630Y627780D02*
X1369130D01*
X1365630D02*
Y652280D01*
X1369130Y604780D02*
Y627780D01*
Y604780D02*
X1380188D01*
X1383130Y627780D02*
X1395130D01*
X1412630D02*
Y693780D01*
X1409130Y627780D02*
X1412630D01*
X1736090Y1145860D02*
Y1154860D01*
X1716090Y1165860D02*
X1725090D01*
X1736090Y1176860D02*
Y1185860D01*
X1747090Y1165860D02*
X1756090D01*
X1696290D02*
X1705290D01*
X1685290Y1145860D02*
Y1154860D01*
X1665290Y1165860D02*
X1674290D01*
X1685290Y1185860D02*
X1685690D01*
X1685290Y1176860D02*
Y1185860D01*
X1654890Y1123860D02*
Y1220860D01*
X1655690D02*
X1765690D01*
X1766490Y1123860D02*
Y1220860D01*
X1655690Y1123860D02*
X1765690D01*
X1655690Y1138860D02*
X1765690D01*
X1655690Y1199860D02*
X1765690D01*
X1710690Y1138860D02*
Y1199860D01*
X1673380Y1018310D02*
Y1039310D01*
Y1018310D02*
X1673980Y1017710D01*
X1711380D01*
X1661380Y1053310D02*
X1686380Y1078310D01*
X1553380Y1053310D02*
X1661380D01*
X1693380Y880310D02*
Y900310D01*
X1673380D02*
X1693380D01*
X1593380Y880310D02*
Y900310D01*
X1613380D01*
Y890310D02*
Y910310D01*
X1673380D01*
Y890310D02*
Y910310D01*
X1613380Y890310D02*
X1673380D01*
X1553380Y1015710D02*
Y1053310D01*
X1754680Y827010D02*
Y1117010D01*
X1539680Y827010D02*
X1754680D01*
X1539680Y1117010D02*
X1754680D01*
X1539680Y827010D02*
Y979710D01*
Y1009710D02*
Y1117010D01*
X281550Y840660D02*
X378550D01*
Y679060D02*
Y840660D01*
X302550Y784860D02*
X363550D01*
X336550Y821260D02*
Y830260D01*
X316550Y810260D02*
X325550D01*
X336550Y790260D02*
Y799260D01*
X347550Y810260D02*
X356550D01*
X347550Y759460D02*
X356550D01*
X336550Y739460D02*
Y748460D01*
X316550Y759460D02*
X325550D01*
X336550Y770460D02*
Y779460D01*
Y719660D02*
Y728660D01*
X347550Y708660D02*
X356550D01*
X336550Y688660D02*
Y697660D01*
X316550Y708660D02*
Y709060D01*
Y708660D02*
X325550D01*
X281550Y678260D02*
X378550D01*
X281550Y679060D02*
Y839860D01*
X363550Y679060D02*
Y840378D01*
X302550Y679060D02*
Y840632D01*
X302550Y734060D02*
X363550D01*
X392990Y713980D02*
X412290D01*
X392990D02*
X392990Y680330D01*
X412290D02*
Y713980D01*
X392990Y680330D02*
X412290D01*
X433310Y483060D02*
Y502360D01*
X399660Y502360D02*
X433310Y502360D01*
X399660Y483060D02*
X433310D01*
X399660D02*
Y502360D01*
X499350Y711660D02*
Y730960D01*
X465700Y730960D02*
X499350Y730960D01*
X465700Y711660D02*
X499350D01*
X465700D02*
Y730960D01*
X471150Y793430D02*
Y796930D01*
X446650D02*
X471150D01*
Y767430D02*
Y779430D01*
Y749930D02*
Y753430D01*
X405150Y793430D02*
Y796930D01*
X429650D01*
X382150Y793430D02*
X405150D01*
X382150Y782372D02*
Y793430D01*
X405150Y767430D02*
Y779430D01*
Y749930D02*
X471150D01*
X405150D02*
Y753430D01*
X281550Y646350D02*
X378550D01*
Y484750D02*
Y646350D01*
X302550Y590550D02*
X363550D01*
X336550Y626950D02*
Y635950D01*
X316550Y615950D02*
X325550D01*
X336550Y595950D02*
Y604950D01*
X347550Y615950D02*
X356550D01*
X347550Y565150D02*
X356550D01*
X336550Y545150D02*
Y554150D01*
X316550Y565150D02*
X325550D01*
X336550Y576150D02*
Y585150D01*
Y525350D02*
Y534350D01*
X347550Y514350D02*
X356550D01*
X336550Y494350D02*
Y503350D01*
X316550Y514350D02*
Y514750D01*
Y514350D02*
X325550D01*
X281550Y483950D02*
X378550D01*
X281550Y484750D02*
Y645550D01*
X363550Y484750D02*
Y646068D01*
X302550Y484750D02*
Y646322D01*
X302550Y539750D02*
X363550D01*
X348820Y422910D02*
X357820D01*
X337820Y402910D02*
Y411910D01*
X317820Y422910D02*
X326820D01*
X337820Y433910D02*
Y442910D01*
Y383110D02*
Y392110D01*
X348820Y372110D02*
X357820D01*
X337820Y352110D02*
Y361110D01*
X317820Y372110D02*
Y372510D01*
Y372110D02*
X326820D01*
X282820Y341710D02*
X379820D01*
X282820Y342510D02*
Y452510D01*
Y453310D02*
X379820D01*
Y342510D02*
Y452510D01*
X364820Y342510D02*
Y452510D01*
X303820Y342510D02*
Y452510D01*
X303820Y397510D02*
X364820D01*
X1529540Y470930D02*
X1548840D01*
X1548840Y504580D02*
X1548840Y470930D01*
X1529540D02*
Y504580D01*
X1548840D01*
X1505410Y406160D02*
X1524710D01*
X1524710Y439810D02*
X1524710Y406160D01*
X1505410D02*
Y439810D01*
X1524710D01*
X515860Y293830D02*
Y313130D01*
X482210Y313130D02*
X515860Y313130D01*
X482210Y293830D02*
X515860D01*
X482210D02*
Y313130D01*
X563170Y420610D02*
X582470D01*
X563170D02*
X563170Y386960D01*
X582470D02*
Y420610D01*
X563170Y386960D02*
X582470D01*
X1509320Y567930D02*
X1528620D01*
X1509320D02*
X1509320Y534280D01*
X1528620D02*
Y567930D01*
X1509320Y534280D02*
X1528620D01*
X509250Y399730D02*
Y403230D01*
X484750D02*
X509250D01*
Y373730D02*
Y385730D01*
Y356230D02*
Y359730D01*
X443250Y399730D02*
Y403230D01*
X467750D01*
X420250Y399730D02*
X443250D01*
X420250Y388672D02*
Y399730D01*
X443250Y373730D02*
Y385730D01*
Y356230D02*
X509250D01*
X443250D02*
Y359730D01*
X402830Y1024080D02*
Y1043380D01*
X369180Y1043380D02*
X402830Y1043380D01*
X369180Y1024080D02*
X402830D01*
X369180D02*
Y1043380D01*
X323850Y1168400D02*
Y1188720D01*
X326390Y1191360D02*
X346710D01*
X351790Y1191260D02*
X351890Y1191360D01*
X326390Y1165760D02*
X346710D01*
Y1191360D02*
X349250Y1188820D01*
Y1188720D02*
Y1188820D01*
Y1188720D02*
X351790Y1191260D01*
Y1191360D01*
X346710Y1165860D02*
X349250Y1168400D01*
X351790Y1165860D01*
X300990Y1191260D02*
Y1191360D01*
Y1165760D02*
Y1165860D01*
X351890Y1191360D02*
X372250D01*
X351790Y1165760D02*
X372250D01*
X374650Y1168560D02*
Y1188560D01*
X298450Y1168560D02*
Y1188560D01*
X300990Y1191360D02*
X321310D01*
X300990Y1165760D02*
X321310D01*
X323850Y1188720D02*
X326390Y1191260D01*
X323850Y1188720D02*
Y1188820D01*
X321310Y1191360D02*
X323850Y1188820D01*
X321310Y1165860D02*
X323850Y1168400D01*
X326390Y1165860D01*
X374650Y1165560D02*
Y1208560D01*
X298450Y1165560D02*
Y1208560D01*
Y1165560D02*
X374650D01*
X298450Y1208560D02*
X374650D01*
X298450Y1165560D02*
X374650D01*
X385840Y1167690D02*
Y1186990D01*
Y1167690D02*
X419490Y1167690D01*
X385840Y1186990D02*
X419490D01*
Y1167690D02*
Y1186990D01*
X1504140Y329960D02*
X1523440D01*
X1523440Y363610D02*
X1523440Y329960D01*
X1504140D02*
Y363610D01*
X1523440D01*
X1170130Y403620D02*
X1189430D01*
X1189430Y437270D02*
X1189430Y403620D01*
X1170130D02*
Y437270D01*
X1189430D01*
X1062580Y403100D02*
X1081180D01*
X1062580D02*
Y435100D01*
X1081180D01*
Y403100D02*
Y435100D01*
X440700Y611520D02*
Y622620D01*
Y611520D02*
X511800D01*
Y622620D01*
Y662620D02*
Y673720D01*
X440700D02*
X511800D01*
X440700Y662620D02*
Y673720D01*
X493850Y612720D02*
Y672720D01*
X682611Y755510D02*
X696611D01*
X682611D02*
Y785510D01*
X696611D01*
Y755510D02*
Y785510D01*
X862130Y557150D02*
Y562200D01*
Y479200D02*
Y484250D01*
X837130Y557150D02*
Y562200D01*
Y479200D02*
Y484250D01*
X808130Y479200D02*
X837130D01*
X822630Y562200D02*
X837130D01*
X808130Y479200D02*
Y547700D01*
X822630Y562200D01*
X891130Y479200D02*
Y547700D01*
X862130Y479200D02*
X891130D01*
X876630Y562200D02*
X891130Y547700D01*
X862130Y562200D02*
X876630D01*
X759920Y643650D02*
X779220D01*
X779220Y677300D02*
X779220Y643650D01*
X759920D02*
Y677300D01*
X779220D01*
X748400Y386960D02*
X762900D01*
X748400Y387110D02*
Y415810D01*
Y415960D02*
X762900D01*
Y386960D02*
Y415810D01*
X748400Y401460D02*
X762900D01*
X1009130Y804480D02*
X1091630D01*
Y843480D01*
X988630Y824980D02*
X1009130Y804480D01*
X988630Y824980D02*
Y843480D01*
X1009130Y907480D02*
X1091630D01*
Y868480D02*
Y907480D01*
X988630Y886980D02*
X1009130Y907480D01*
X988630Y868480D02*
Y886980D01*
X1087012Y843480D02*
X1091630Y843480D01*
X988630D02*
X993251D01*
X1087012Y868480D02*
X1091630Y868480D01*
X988630D02*
X993251D01*
X640160Y277510D02*
Y339610D01*
X634160Y277510D02*
Y339610D01*
X609610Y277510D02*
X680710D01*
X628160D02*
Y339610D01*
X609610Y339710D02*
X680710D01*
Y328610D02*
Y339710D01*
Y277510D02*
Y288610D01*
X609610Y328610D02*
Y339710D01*
Y277510D02*
Y288610D01*
X641720Y719720D02*
X656220D01*
Y690870D02*
Y719570D01*
X641720Y690720D02*
X656220D01*
X641720Y690870D02*
Y719720D01*
Y705220D02*
X656220D01*
X537580Y646270D02*
X552080D01*
X537580Y646420D02*
Y675120D01*
Y675270D02*
X552080D01*
Y646270D02*
Y675120D01*
X537580Y660770D02*
X552080D01*
X573140Y645900D02*
X587640D01*
X573140Y646050D02*
Y674750D01*
Y674900D02*
X587640D01*
Y645900D02*
Y674750D01*
X573140Y660400D02*
X587640D01*
X712230Y701660D02*
Y715660D01*
X682230Y701660D02*
X712230D01*
X682230D02*
Y715660D01*
X712230D01*
X526730Y448320D02*
X537830D01*
Y519420D01*
X526730D02*
X537830D01*
X475630D02*
X486730D01*
X475630Y448320D02*
Y519420D01*
Y448320D02*
X486730D01*
X476630Y501470D02*
X536630D01*
X593650Y614920D02*
X612950D01*
X593650D02*
X593650Y581270D01*
X612950D02*
Y614920D01*
X593650Y581270D02*
X612950D01*
X600710Y926350D02*
X628650D01*
X600710Y877050D02*
X628650D01*
Y926350D01*
X600710Y877050D02*
Y926350D01*
X449590Y874410D02*
X520690D01*
X449590Y936610D02*
X520690D01*
X449590Y874410D02*
Y886510D01*
Y924510D02*
Y936610D01*
X520690Y874410D02*
Y886510D01*
Y924510D02*
Y936610D01*
X493140Y874410D02*
X495140D01*
X493140D02*
Y936610D01*
X499140Y874410D02*
Y936610D01*
X505140Y874410D02*
Y936610D01*
X904750Y337410D02*
Y356010D01*
X936750D01*
Y337410D02*
Y356010D01*
X904750Y337410D02*
X936750D01*
X771350Y524270D02*
X790650D01*
X790650Y557920D02*
X790650Y524270D01*
X771350D02*
Y557920D01*
X790650D01*
X573280Y477110D02*
Y495710D01*
X605280D01*
Y477110D02*
Y495710D01*
X573280Y477110D02*
X605280D01*
X919070Y534920D02*
X937670D01*
Y502920D02*
Y534920D01*
X919070Y502920D02*
X937670D01*
X919070D02*
Y534920D01*
X626670Y420610D02*
X645970D01*
X626670D02*
X626670Y386960D01*
X645970D02*
Y420610D01*
X626670Y386960D02*
X645970D01*
X694280D02*
X712880D01*
X694280D02*
Y418960D01*
X712880D01*
Y386960D02*
Y418960D01*
X540610Y542800D02*
X559210D01*
X540610D02*
Y574800D01*
X559210D01*
Y542800D02*
Y574800D01*
X732080Y557770D02*
X751380D01*
X732080D02*
X732080Y524120D01*
X751380D02*
Y557770D01*
X732080Y524120D02*
X751380D01*
X1430280Y535000D02*
X1465320D01*
X1430280Y527000D02*
Y573000D01*
X1465320Y527000D02*
Y573000D01*
X1041770Y623200D02*
X1056270D01*
Y594350D02*
Y623050D01*
X1041770Y594200D02*
X1056270D01*
X1041770Y594350D02*
Y623200D01*
Y608700D02*
X1056270D01*
X1021519Y740665D02*
X1036018D01*
X1021519Y740816D02*
Y769516D01*
Y769666D02*
X1036018D01*
Y740665D02*
Y769516D01*
X1021519Y755166D02*
X1036018D01*
X1096270Y591250D02*
X1131310D01*
X1096270Y583250D02*
Y629250D01*
X1131310Y583250D02*
Y629250D01*
X1158610Y635530D02*
X1173110D01*
Y606680D02*
Y635380D01*
X1158610Y606530D02*
X1173110D01*
X1158610Y606680D02*
Y635530D01*
Y621030D02*
X1173110D01*
X824600Y830050D02*
X839100D01*
X824600Y830200D02*
Y858900D01*
Y859050D02*
X839100D01*
Y830050D02*
Y858900D01*
X824600Y844550D02*
X839100D01*
D11*
X815090Y963907D02*
G03*
X815090Y963907I-1000J0D01*
G01*
X941590Y1105400D02*
G03*
X941590Y1105400I-1000J0D01*
G01*
X815090Y1169907D02*
G03*
X815090Y1169907I-1000J0D01*
G01*
X870010Y963800D02*
G03*
X870010Y963800I-1000J0D01*
G01*
X754590Y1039789D02*
G03*
X754590Y1039789I-1000J0D01*
G01*
X941590Y1050789D02*
G03*
X941590Y1050789I-1000J0D01*
G01*
X754590Y1094407D02*
G03*
X754590Y1094407I-1000J0D01*
G01*
X870090Y1169907D02*
G03*
X870090Y1169907I-1000J0D01*
G01*
D12*
X691876Y633586D02*
X697030D01*
X1115210Y742260D02*
Y743260D01*
X680446Y520756D02*
X685600D01*
X1262810Y880300D02*
X1263810D01*
D13*
X1753952Y740177D02*
Y736845D01*
X1755618Y735179D01*
X1762282D01*
X1763948Y736845D01*
Y740177D01*
X1762282Y741843D01*
X1755618D01*
X1753952Y740177D01*
Y745176D02*
X1762282D01*
X1763948Y746842D01*
Y750174D01*
X1762282Y751840D01*
X1753952D01*
Y755172D02*
Y761837D01*
Y758505D01*
X1763948D01*
Y765169D02*
Y768501D01*
Y766835D01*
X1753952D01*
X1755618Y765169D01*
X872236Y677413D02*
Y664717D01*
X874775Y662178D01*
X879854D01*
X882393Y664717D01*
Y677413D01*
X887471Y662178D02*
X892549D01*
X890010D01*
Y677413D01*
X887471Y674874D01*
X907785Y662178D02*
Y677413D01*
X900167Y669796D01*
X910324D01*
X1042667Y1101340D02*
X1040127Y1103879D01*
X1035049D01*
X1032510Y1101340D01*
Y1091183D01*
X1035049Y1088644D01*
X1040127D01*
X1042667Y1091183D01*
X1047745Y1101340D02*
X1050284Y1103879D01*
X1055363D01*
X1057902Y1101340D01*
Y1098801D01*
X1055363Y1096262D01*
X1052823D01*
X1055363D01*
X1057902Y1093722D01*
Y1091183D01*
X1055363Y1088644D01*
X1050284D01*
X1047745Y1091183D01*
X1062980Y1101340D02*
X1065519Y1103879D01*
X1070598D01*
X1073137Y1101340D01*
Y1091183D01*
X1070598Y1088644D01*
X1065519D01*
X1062980Y1091183D01*
Y1101340D01*
X760473Y931668D02*
X757934Y934207D01*
X752855D01*
X750316Y931668D01*
Y921511D01*
X752855Y918972D01*
X757934D01*
X760473Y921511D01*
X775708Y918972D02*
X765551D01*
X775708Y929129D01*
Y931668D01*
X773169Y934207D01*
X768090D01*
X765551Y931668D01*
X780786Y921511D02*
X783325Y918972D01*
X788404D01*
X790943Y921511D01*
Y931668D01*
X788404Y934207D01*
X783325D01*
X780786Y931668D01*
Y929129D01*
X783325Y926590D01*
X790943D01*
X888238Y1228344D02*
Y1243579D01*
X895855D01*
X898395Y1241040D01*
Y1235962D01*
X895855Y1233422D01*
X888238D01*
X893316D02*
X898395Y1228344D01*
X911091D02*
Y1243579D01*
X903473Y1235962D01*
X913630D01*
X918708Y1241040D02*
X921247Y1243579D01*
X926326D01*
X928865Y1241040D01*
Y1238501D01*
X926326Y1235962D01*
X923786D01*
X926326D01*
X928865Y1233422D01*
Y1230883D01*
X926326Y1228344D01*
X921247D01*
X918708Y1230883D01*
X843788Y1228090D02*
Y1243325D01*
X851405D01*
X853945Y1240786D01*
Y1235707D01*
X851405Y1233168D01*
X843788D01*
X848866D02*
X853945Y1228090D01*
X866641D02*
Y1243325D01*
X859023Y1235707D01*
X869180D01*
X884415Y1228090D02*
X874258D01*
X884415Y1238247D01*
Y1240786D01*
X881876Y1243325D01*
X876797D01*
X874258Y1240786D01*
X1178561Y1233167D02*
X1173483D01*
X1176022D01*
Y1220472D01*
X1173483Y1217933D01*
X1170943D01*
X1168404Y1220472D01*
X1193796Y1233167D02*
X1188717Y1230628D01*
X1183639Y1225550D01*
Y1220472D01*
X1186178Y1217933D01*
X1191257D01*
X1193796Y1220472D01*
Y1223011D01*
X1191257Y1225550D01*
X1183639D01*
X1207005Y1082797D02*
X1196848D01*
Y1067562D01*
X1207005D01*
X1196848Y1075180D02*
X1201926D01*
X1222240Y1080258D02*
X1219701Y1082797D01*
X1214622D01*
X1212083Y1080258D01*
Y1077719D01*
X1214622Y1075180D01*
X1219701D01*
X1222240Y1072640D01*
Y1070101D01*
X1219701Y1067562D01*
X1214622D01*
X1212083Y1070101D01*
X1227318Y1082797D02*
Y1067562D01*
X1234936D01*
X1237475Y1070101D01*
Y1080258D01*
X1234936Y1082797D01*
X1227318D01*
X1242553Y1067562D02*
X1247632D01*
X1245092D01*
Y1082797D01*
X1242553Y1080258D01*
X1240025Y1019552D02*
X1237486Y1022091D01*
X1232407D01*
X1229868Y1019552D01*
Y1009395D01*
X1232407Y1006856D01*
X1237486D01*
X1240025Y1009395D01*
X1245103Y1019552D02*
X1247642Y1022091D01*
X1252721D01*
X1255260Y1019552D01*
Y1017013D01*
X1252721Y1014473D01*
X1250181D01*
X1252721D01*
X1255260Y1011934D01*
Y1009395D01*
X1252721Y1006856D01*
X1247642D01*
X1245103Y1009395D01*
X1260338Y1006856D02*
X1265416D01*
X1262877D01*
Y1022091D01*
X1260338Y1019552D01*
X823214Y681731D02*
Y666496D01*
X833371D01*
X848606D02*
X838449D01*
X848606Y676653D01*
Y679192D01*
X846067Y681731D01*
X840988D01*
X838449Y679192D01*
X653288Y881629D02*
Y868933D01*
X655827Y866394D01*
X660906D01*
X663445Y868933D01*
Y881629D01*
X676141Y866394D02*
Y881629D01*
X668523Y874012D01*
X678680D01*
X717550Y880359D02*
Y867663D01*
X720089Y865124D01*
X725167D01*
X727707Y867663D01*
Y880359D01*
X732785Y877820D02*
X735324Y880359D01*
X740403D01*
X742942Y877820D01*
Y875281D01*
X740403Y872741D01*
X737863D01*
X740403D01*
X742942Y870202D01*
Y867663D01*
X740403Y865124D01*
X735324D01*
X732785Y867663D01*
X610872Y1210318D02*
X623568D01*
X626107Y1212857D01*
Y1217936D01*
X623568Y1220475D01*
X610872D01*
X613412Y1235710D02*
X610872Y1233171D01*
Y1228092D01*
X613412Y1225553D01*
X615951D01*
X618490Y1228092D01*
Y1233171D01*
X621029Y1235710D01*
X623568D01*
X626107Y1233171D01*
Y1228092D01*
X623568Y1225553D01*
X610872Y1240788D02*
X626107D01*
Y1248406D01*
X623568Y1250945D01*
X621029D01*
X618490Y1248406D01*
Y1240788D01*
Y1248406D01*
X615951Y1250945D01*
X613412D01*
X610872Y1248406D01*
Y1240788D01*
X626107Y1256023D02*
Y1261102D01*
Y1258563D01*
X610872D01*
X613412Y1256023D01*
X1515618Y738373D02*
Y725677D01*
X1518157Y723138D01*
X1523235D01*
X1525775Y725677D01*
Y738373D01*
X1530853Y723138D02*
X1535931D01*
X1533392D01*
Y738373D01*
X1530853Y735834D01*
X1543549D02*
X1546088Y738373D01*
X1551167D01*
X1553706Y735834D01*
Y733295D01*
X1551167Y730755D01*
X1548627D01*
X1551167D01*
X1553706Y728216D01*
Y725677D01*
X1551167Y723138D01*
X1546088D01*
X1543549Y725677D01*
X1366774Y737357D02*
Y724661D01*
X1369313Y722122D01*
X1374391D01*
X1376931Y724661D01*
Y737357D01*
X1382009Y722122D02*
X1387087D01*
X1384548D01*
Y737357D01*
X1382009Y734818D01*
X1404862Y722122D02*
X1394705D01*
X1404862Y732279D01*
Y734818D01*
X1402323Y737357D01*
X1397244D01*
X1394705Y734818D01*
X1439418Y738373D02*
Y725677D01*
X1441957Y723138D01*
X1447036D01*
X1449575Y725677D01*
Y738373D01*
X1454653Y723138D02*
X1459731D01*
X1457192D01*
Y738373D01*
X1454653Y735834D01*
X1467349Y723138D02*
X1472427D01*
X1469888D01*
Y738373D01*
X1467349Y735834D01*
X1240796Y735328D02*
Y722632D01*
X1243335Y720092D01*
X1248414D01*
X1250953Y722632D01*
Y735328D01*
X1256031Y720092D02*
X1261110D01*
X1258570D01*
Y735328D01*
X1256031Y732788D01*
X1268727D02*
X1271266Y735328D01*
X1276345D01*
X1278884Y732788D01*
Y722632D01*
X1276345Y720092D01*
X1271266D01*
X1268727Y722632D01*
Y732788D01*
X1298448Y739643D02*
Y726947D01*
X1300987Y724408D01*
X1306066D01*
X1308605Y726947D01*
Y739643D01*
X1313683Y726947D02*
X1316222Y724408D01*
X1321301D01*
X1323840Y726947D01*
Y737104D01*
X1321301Y739643D01*
X1316222D01*
X1313683Y737104D01*
Y734565D01*
X1316222Y732026D01*
X1323840D01*
X421386Y427477D02*
Y414781D01*
X423925Y412242D01*
X429003D01*
X431543Y414781D01*
Y427477D01*
X436621Y424938D02*
X439160Y427477D01*
X444239D01*
X446778Y424938D01*
Y422399D01*
X444239Y419860D01*
X446778Y417320D01*
Y414781D01*
X444239Y412242D01*
X439160D01*
X436621Y414781D01*
Y417320D01*
X439160Y419860D01*
X436621Y422399D01*
Y424938D01*
X439160Y419860D02*
X444239D01*
X387096Y623057D02*
Y610361D01*
X389635Y607822D01*
X394714D01*
X397253Y610361D01*
Y623057D01*
X402331D02*
X412488D01*
Y620518D01*
X402331Y610361D01*
Y607822D01*
X383286Y821177D02*
Y808481D01*
X385825Y805942D01*
X390904D01*
X393443Y808481D01*
Y821177D01*
X408678D02*
X403599Y818638D01*
X398521Y813559D01*
Y808481D01*
X401060Y805942D01*
X406139D01*
X408678Y808481D01*
Y811020D01*
X406139Y813559D01*
X398521D01*
X1301242Y507233D02*
Y494537D01*
X1303781Y491998D01*
X1308860D01*
X1311399Y494537D01*
Y507233D01*
X1326634D02*
X1316477D01*
Y499616D01*
X1321555Y502155D01*
X1324095D01*
X1326634Y499616D01*
Y494537D01*
X1324095Y491998D01*
X1319016D01*
X1316477Y494537D01*
X652784Y591818D02*
Y579122D01*
X655323Y576582D01*
X660402D01*
X662941Y579122D01*
Y591818D01*
X678176Y576582D02*
X668019D01*
X678176Y586739D01*
Y589278D01*
X675637Y591818D01*
X670558D01*
X668019Y589278D01*
X600713Y692148D02*
Y679452D01*
X603252Y676913D01*
X608331D01*
X610870Y679452D01*
Y692148D01*
X615948Y676913D02*
X621027D01*
X618488D01*
Y692148D01*
X615948Y689608D01*
X1230627Y499112D02*
X1233166Y496572D01*
X1238244D01*
X1240783Y499112D01*
Y501651D01*
X1238244Y504190D01*
X1233166D01*
X1230627Y506729D01*
Y509268D01*
X1233166Y511808D01*
X1238244D01*
X1240783Y509268D01*
X1225548Y496572D02*
Y511808D01*
X1220470Y506729D01*
X1215392Y511808D01*
Y496572D01*
X1200157Y511808D02*
X1210313D01*
X1200157Y501651D01*
Y499112D01*
X1202696Y496572D01*
X1207774D01*
X1210313Y499112D01*
X1063702Y356876D02*
X1066242Y359415D01*
Y364493D01*
X1063702Y367032D01*
X1061163D01*
X1058624Y364493D01*
Y359415D01*
X1056085Y356876D01*
X1053546D01*
X1051007Y359415D01*
Y364493D01*
X1053546Y367032D01*
X1066242Y351797D02*
X1051007D01*
X1056085Y346719D01*
X1051007Y341641D01*
X1066242D01*
X1051007Y336562D02*
Y331484D01*
Y334023D01*
X1066242D01*
X1063702Y336562D01*
X1538478Y1126236D02*
Y1141471D01*
X1546095D01*
X1548635Y1138932D01*
Y1133854D01*
X1546095Y1131314D01*
X1538478D01*
X1543556D02*
X1548635Y1126236D01*
X1553713Y1141471D02*
Y1126236D01*
X1563870D01*
X1579105D02*
X1568948D01*
X1579105Y1136393D01*
Y1138932D01*
X1576566Y1141471D01*
X1571487D01*
X1568948Y1138932D01*
X1299718Y1124966D02*
Y1140201D01*
X1307336D01*
X1309875Y1137662D01*
Y1132583D01*
X1307336Y1130044D01*
X1299718D01*
X1304796D02*
X1309875Y1124966D01*
X1314953Y1140201D02*
Y1124966D01*
X1325110D01*
X1330188D02*
X1335267D01*
X1332727D01*
Y1140201D01*
X1330188Y1137662D01*
X635254Y1045972D02*
Y1061207D01*
X642871D01*
X645411Y1058668D01*
Y1053589D01*
X642871Y1051050D01*
X635254D01*
X640332D02*
X645411Y1045972D01*
X658107D02*
Y1061207D01*
X650489Y1053589D01*
X660646D01*
X665724Y1048511D02*
X668263Y1045972D01*
X673342D01*
X675881Y1048511D01*
Y1058668D01*
X673342Y1061207D01*
X668263D01*
X665724Y1058668D01*
Y1056129D01*
X668263Y1053589D01*
X675881D01*
X896874Y869442D02*
Y884677D01*
X904492D01*
X907031Y882138D01*
Y877059D01*
X904492Y874520D01*
X896874D01*
X901952D02*
X907031Y869442D01*
X919727D02*
Y884677D01*
X912109Y877059D01*
X922266D01*
X927344Y882138D02*
X929883Y884677D01*
X934962D01*
X937501Y882138D01*
Y879599D01*
X934962Y877059D01*
X937501Y874520D01*
Y871981D01*
X934962Y869442D01*
X929883D01*
X927344Y871981D01*
Y874520D01*
X929883Y877059D01*
X927344Y879599D01*
Y882138D01*
X929883Y877059D02*
X934962D01*
X874268Y928116D02*
Y943351D01*
X881886D01*
X884425Y940812D01*
Y935733D01*
X881886Y933194D01*
X874268D01*
X879346D02*
X884425Y928116D01*
X897121D02*
Y943351D01*
X889503Y935733D01*
X899660D01*
X904738Y943351D02*
X914895D01*
Y940812D01*
X904738Y930655D01*
Y928116D01*
X918718Y929386D02*
Y944621D01*
X926336D01*
X928875Y942082D01*
Y937003D01*
X926336Y934464D01*
X918718D01*
X923796D02*
X928875Y929386D01*
X941571D02*
Y944621D01*
X933953Y937003D01*
X944110D01*
X959345Y944621D02*
X954267Y942082D01*
X949188Y937003D01*
Y931925D01*
X951727Y929386D01*
X956806D01*
X959345Y931925D01*
Y934464D01*
X956806Y937003D01*
X949188D01*
X699008Y966470D02*
Y981705D01*
X706626D01*
X709165Y979166D01*
Y974088D01*
X706626Y971548D01*
X699008D01*
X704086D02*
X709165Y966470D01*
X721861D02*
Y981705D01*
X714243Y974088D01*
X724400D01*
X739635Y981705D02*
X729478D01*
Y974088D01*
X734557Y976627D01*
X737096D01*
X739635Y974088D01*
Y969009D01*
X737096Y966470D01*
X732017D01*
X729478Y969009D01*
X697738Y1033780D02*
Y1049015D01*
X705356D01*
X707895Y1046476D01*
Y1041397D01*
X705356Y1038858D01*
X697738D01*
X702816D02*
X707895Y1033780D01*
X720591D02*
Y1049015D01*
X712973Y1041397D01*
X723130D01*
X735826Y1033780D02*
Y1049015D01*
X728208Y1041397D01*
X738365D01*
X801878Y1229360D02*
Y1244595D01*
X809495D01*
X812035Y1242056D01*
Y1236977D01*
X809495Y1234438D01*
X801878D01*
X806956D02*
X812035Y1229360D01*
X824731D02*
Y1244595D01*
X817113Y1236977D01*
X827270D01*
X832348Y1229360D02*
X837427D01*
X834887D01*
Y1244595D01*
X832348Y1242056D01*
X824738Y929386D02*
Y944621D01*
X832355D01*
X834895Y942082D01*
Y937003D01*
X832355Y934464D01*
X824738D01*
X829816D02*
X834895Y929386D01*
X847591D02*
Y944621D01*
X839973Y937003D01*
X850130D01*
X855208Y942082D02*
X857747Y944621D01*
X862826D01*
X865365Y942082D01*
Y931925D01*
X862826Y929386D01*
X857747D01*
X855208Y931925D01*
Y942082D01*
X543052Y1019556D02*
Y1034791D01*
X550670D01*
X553209Y1032252D01*
Y1027173D01*
X550670Y1024634D01*
X543052D01*
X548130D02*
X553209Y1019556D01*
X558287Y1032252D02*
X560826Y1034791D01*
X565905D01*
X568444Y1032252D01*
Y1029713D01*
X565905Y1027173D01*
X563365D01*
X565905D01*
X568444Y1024634D01*
Y1022095D01*
X565905Y1019556D01*
X560826D01*
X558287Y1022095D01*
X573522D02*
X576061Y1019556D01*
X581140D01*
X583679Y1022095D01*
Y1032252D01*
X581140Y1034791D01*
X576061D01*
X573522Y1032252D01*
Y1029713D01*
X576061Y1027173D01*
X583679D01*
X543052Y1165606D02*
Y1180841D01*
X550670D01*
X553209Y1178302D01*
Y1173223D01*
X550670Y1170684D01*
X543052D01*
X548130D02*
X553209Y1165606D01*
X558287Y1178302D02*
X560826Y1180841D01*
X565905D01*
X568444Y1178302D01*
Y1175763D01*
X565905Y1173223D01*
X563365D01*
X565905D01*
X568444Y1170684D01*
Y1168145D01*
X565905Y1165606D01*
X560826D01*
X558287Y1168145D01*
X573522Y1178302D02*
X576061Y1180841D01*
X581140D01*
X583679Y1178302D01*
Y1175763D01*
X581140Y1173223D01*
X583679Y1170684D01*
Y1168145D01*
X581140Y1165606D01*
X576061D01*
X573522Y1168145D01*
Y1170684D01*
X576061Y1173223D01*
X573522Y1175763D01*
Y1178302D01*
X576061Y1173223D02*
X581140D01*
X421894Y1138428D02*
Y1153663D01*
X429511D01*
X432051Y1151124D01*
Y1146046D01*
X429511Y1143506D01*
X421894D01*
X426972D02*
X432051Y1138428D01*
X437129Y1151124D02*
X439668Y1153663D01*
X444747D01*
X447286Y1151124D01*
Y1148585D01*
X444747Y1146046D01*
X442207D01*
X444747D01*
X447286Y1143506D01*
Y1140967D01*
X444747Y1138428D01*
X439668D01*
X437129Y1140967D01*
X452364Y1153663D02*
X462521D01*
Y1151124D01*
X452364Y1140967D01*
Y1138428D01*
X542036Y1066546D02*
Y1081781D01*
X549654D01*
X552193Y1079242D01*
Y1074164D01*
X549654Y1071624D01*
X542036D01*
X547114D02*
X552193Y1066546D01*
X557271Y1079242D02*
X559810Y1081781D01*
X564889D01*
X567428Y1079242D01*
Y1076703D01*
X564889Y1074164D01*
X562349D01*
X564889D01*
X567428Y1071624D01*
Y1069085D01*
X564889Y1066546D01*
X559810D01*
X557271Y1069085D01*
X582663Y1081781D02*
X577584Y1079242D01*
X572506Y1074164D01*
Y1069085D01*
X575045Y1066546D01*
X580124D01*
X582663Y1069085D01*
Y1071624D01*
X580124Y1074164D01*
X572506D01*
X541782Y1116076D02*
Y1131311D01*
X549399D01*
X551939Y1128772D01*
Y1123693D01*
X549399Y1121154D01*
X541782D01*
X546860D02*
X551939Y1116076D01*
X557017Y1128772D02*
X559556Y1131311D01*
X564635D01*
X567174Y1128772D01*
Y1126233D01*
X564635Y1123693D01*
X562095D01*
X564635D01*
X567174Y1121154D01*
Y1118615D01*
X564635Y1116076D01*
X559556D01*
X557017Y1118615D01*
X582409Y1131311D02*
X572252D01*
Y1123693D01*
X577331Y1126233D01*
X579870D01*
X582409Y1123693D01*
Y1118615D01*
X579870Y1116076D01*
X574791D01*
X572252Y1118615D01*
X1312164Y579882D02*
Y595117D01*
X1319781D01*
X1322321Y592578D01*
Y587500D01*
X1319781Y584960D01*
X1312164D01*
X1317242D02*
X1322321Y579882D01*
X1327399Y592578D02*
X1329938Y595117D01*
X1335017D01*
X1337556Y592578D01*
Y590039D01*
X1335017Y587500D01*
X1332477D01*
X1335017D01*
X1337556Y584960D01*
Y582421D01*
X1335017Y579882D01*
X1329938D01*
X1327399Y582421D01*
X1350252Y579882D02*
Y595117D01*
X1342634Y587500D01*
X1352791D01*
X1357884Y579882D02*
Y595117D01*
X1365502D01*
X1368041Y592578D01*
Y587500D01*
X1365502Y584960D01*
X1357884D01*
X1362962D02*
X1368041Y579882D01*
X1373119Y592578D02*
X1375658Y595117D01*
X1380737D01*
X1383276Y592578D01*
Y590039D01*
X1380737Y587500D01*
X1378197D01*
X1380737D01*
X1383276Y584960D01*
Y582421D01*
X1380737Y579882D01*
X1375658D01*
X1373119Y582421D01*
X1388354Y592578D02*
X1390893Y595117D01*
X1395972D01*
X1398511Y592578D01*
Y590039D01*
X1395972Y587500D01*
X1393432D01*
X1395972D01*
X1398511Y584960D01*
Y582421D01*
X1395972Y579882D01*
X1390893D01*
X1388354Y582421D01*
X1606557Y375923D02*
Y391157D01*
X1614174D01*
X1616713Y388618D01*
Y383540D01*
X1614174Y381001D01*
X1606557D01*
X1611635D02*
X1616713Y375923D01*
X1621792Y388618D02*
X1624331Y391157D01*
X1629409D01*
X1631948Y388618D01*
Y386079D01*
X1629409Y383540D01*
X1626870D01*
X1629409D01*
X1631948Y381001D01*
Y378462D01*
X1629409Y375923D01*
X1624331D01*
X1621792Y378462D01*
X1647183Y375923D02*
X1637027D01*
X1647183Y386079D01*
Y388618D01*
X1644644Y391157D01*
X1639566D01*
X1637027Y388618D01*
X1618234Y598932D02*
Y614167D01*
X1625851D01*
X1628391Y611628D01*
Y606549D01*
X1625851Y604010D01*
X1618234D01*
X1623312D02*
X1628391Y598932D01*
X1633469Y611628D02*
X1636008Y614167D01*
X1641087D01*
X1643626Y611628D01*
Y609089D01*
X1641087Y606549D01*
X1638547D01*
X1641087D01*
X1643626Y604010D01*
Y601471D01*
X1641087Y598932D01*
X1636008D01*
X1633469Y601471D01*
X1648704Y598932D02*
X1653783D01*
X1651243D01*
Y614167D01*
X1648704Y611628D01*
X1350772Y774446D02*
Y789681D01*
X1358389D01*
X1360929Y787142D01*
Y782064D01*
X1358389Y779524D01*
X1350772D01*
X1355850D02*
X1360929Y774446D01*
X1366007Y787142D02*
X1368546Y789681D01*
X1373625D01*
X1376164Y787142D01*
Y784603D01*
X1373625Y782064D01*
X1371085D01*
X1373625D01*
X1376164Y779524D01*
Y776985D01*
X1373625Y774446D01*
X1368546D01*
X1366007Y776985D01*
X1381242Y787142D02*
X1383781Y789681D01*
X1388860D01*
X1391399Y787142D01*
Y776985D01*
X1388860Y774446D01*
X1383781D01*
X1381242Y776985D01*
Y787142D01*
X1605287Y760872D02*
Y776108D01*
X1612904D01*
X1615443Y773568D01*
Y768490D01*
X1612904Y765951D01*
X1605287D01*
X1610365D02*
X1615443Y760872D01*
X1630678D02*
X1620522D01*
X1630678Y771029D01*
Y773568D01*
X1628139Y776108D01*
X1623061D01*
X1620522Y773568D01*
X1635757Y763412D02*
X1638296Y760872D01*
X1643374D01*
X1645913Y763412D01*
Y773568D01*
X1643374Y776108D01*
X1638296D01*
X1635757Y773568D01*
Y771029D01*
X1638296Y768490D01*
X1645913D01*
X1193807Y740413D02*
Y755648D01*
X1201424D01*
X1203963Y753108D01*
Y748030D01*
X1201424Y745491D01*
X1193807D01*
X1198885D02*
X1203963Y740413D01*
X1219198D02*
X1209042D01*
X1219198Y750569D01*
Y753108D01*
X1216659Y755648D01*
X1211581D01*
X1209042Y753108D01*
X1224277D02*
X1226816Y755648D01*
X1231894D01*
X1234433Y753108D01*
Y750569D01*
X1231894Y748030D01*
X1234433Y745491D01*
Y742952D01*
X1231894Y740413D01*
X1226816D01*
X1224277Y742952D01*
Y745491D01*
X1226816Y748030D01*
X1224277Y750569D01*
Y753108D01*
X1226816Y748030D02*
X1231894D01*
X1505204Y372618D02*
Y387853D01*
X1512822D01*
X1515361Y385314D01*
Y380235D01*
X1512822Y377696D01*
X1505204D01*
X1510282D02*
X1515361Y372618D01*
X1530596D02*
X1520439D01*
X1530596Y382775D01*
Y385314D01*
X1528057Y387853D01*
X1522978D01*
X1520439Y385314D01*
X1535674Y387853D02*
X1545831D01*
Y385314D01*
X1535674Y375157D01*
Y372618D01*
X386842Y1196086D02*
Y1211321D01*
X394459D01*
X396999Y1208782D01*
Y1203704D01*
X394459Y1201164D01*
X386842D01*
X391920D02*
X396999Y1196086D01*
X412234D02*
X402077D01*
X412234Y1206243D01*
Y1208782D01*
X409695Y1211321D01*
X404616D01*
X402077Y1208782D01*
X427469Y1211321D02*
X422391Y1208782D01*
X417312Y1203704D01*
Y1198625D01*
X419851Y1196086D01*
X424930D01*
X427469Y1198625D01*
Y1201164D01*
X424930Y1203704D01*
X417312D01*
X370332Y1052576D02*
Y1067811D01*
X377949D01*
X380489Y1065272D01*
Y1060193D01*
X377949Y1057654D01*
X370332D01*
X375410D02*
X380489Y1052576D01*
X395724D02*
X385567D01*
X395724Y1062733D01*
Y1065272D01*
X393185Y1067811D01*
X388106D01*
X385567Y1065272D01*
X410959Y1067811D02*
X400802D01*
Y1060193D01*
X405881Y1062733D01*
X408420D01*
X410959Y1060193D01*
Y1055115D01*
X408420Y1052576D01*
X403341D01*
X400802Y1055115D01*
X1510284Y577088D02*
Y592323D01*
X1517901D01*
X1520441Y589784D01*
Y584706D01*
X1517901Y582166D01*
X1510284D01*
X1515362D02*
X1520441Y577088D01*
X1535676D02*
X1525519D01*
X1535676Y587245D01*
Y589784D01*
X1533137Y592323D01*
X1528058D01*
X1525519Y589784D01*
X1548372Y577088D02*
Y592323D01*
X1540754Y584706D01*
X1550911D01*
X483362Y322326D02*
Y337561D01*
X490979D01*
X493519Y335022D01*
Y329944D01*
X490979Y327404D01*
X483362D01*
X488440D02*
X493519Y322326D01*
X508754D02*
X498597D01*
X508754Y332483D01*
Y335022D01*
X506215Y337561D01*
X501136D01*
X498597Y335022D01*
X513832D02*
X516371Y337561D01*
X521450D01*
X523989Y335022D01*
Y332483D01*
X521450Y329944D01*
X518910D01*
X521450D01*
X523989Y327404D01*
Y324865D01*
X521450Y322326D01*
X516371D01*
X513832Y324865D01*
X564134Y429768D02*
Y445003D01*
X571752D01*
X574291Y442464D01*
Y437385D01*
X571752Y434846D01*
X564134D01*
X569212D02*
X574291Y429768D01*
X589526D02*
X579369D01*
X589526Y439925D01*
Y442464D01*
X586987Y445003D01*
X581908D01*
X579369Y442464D01*
X604761Y429768D02*
X594604D01*
X604761Y439925D01*
Y442464D01*
X602222Y445003D01*
X597143D01*
X594604Y442464D01*
X316236Y1026162D02*
Y1041397D01*
X323853D01*
X326393Y1038858D01*
Y1033780D01*
X323853Y1031241D01*
X316236D01*
X321314D02*
X326393Y1026162D01*
X341628D02*
X331471D01*
X341628Y1036319D01*
Y1038858D01*
X339088Y1041397D01*
X334010D01*
X331471Y1038858D01*
X346706Y1026162D02*
X351784D01*
X349245D01*
Y1041397D01*
X346706Y1038858D01*
X1530604Y513588D02*
Y528823D01*
X1538221D01*
X1540761Y526284D01*
Y521205D01*
X1538221Y518666D01*
X1530604D01*
X1535682D02*
X1540761Y513588D01*
X1555996D02*
X1545839D01*
X1555996Y523745D01*
Y526284D01*
X1553457Y528823D01*
X1548378D01*
X1545839Y526284D01*
X1561074D02*
X1563613Y528823D01*
X1568692D01*
X1571231Y526284D01*
Y516127D01*
X1568692Y513588D01*
X1563613D01*
X1561074Y516127D01*
Y526284D01*
X1506474Y448818D02*
Y464053D01*
X1514091D01*
X1516631Y461514D01*
Y456436D01*
X1514091Y453896D01*
X1506474D01*
X1511552D02*
X1516631Y448818D01*
X1521709D02*
X1526787D01*
X1524248D01*
Y464053D01*
X1521709Y461514D01*
X1534405Y451357D02*
X1536944Y448818D01*
X1542023D01*
X1544562Y451357D01*
Y461514D01*
X1542023Y464053D01*
X1536944D01*
X1534405Y461514D01*
Y458975D01*
X1536944Y456436D01*
X1544562D01*
X393954Y723138D02*
Y738373D01*
X401572D01*
X404111Y735834D01*
Y730755D01*
X401572Y728216D01*
X393954D01*
X399032D02*
X404111Y723138D01*
X409189D02*
X414267D01*
X411728D01*
Y738373D01*
X409189Y735834D01*
X421885D02*
X424424Y738373D01*
X429502D01*
X432042Y735834D01*
Y733295D01*
X429502Y730755D01*
X432042Y728216D01*
Y725677D01*
X429502Y723138D01*
X424424D01*
X421885Y725677D01*
Y728216D01*
X424424Y730755D01*
X421885Y733295D01*
Y735834D01*
X424424Y730755D02*
X429502D01*
X400812Y511556D02*
Y526791D01*
X408429D01*
X410969Y524252D01*
Y519174D01*
X408429Y516634D01*
X400812D01*
X405890D02*
X410969Y511556D01*
X416047D02*
X421125D01*
X418586D01*
Y526791D01*
X416047Y524252D01*
X428743Y526791D02*
X438900D01*
Y524252D01*
X428743Y514095D01*
Y511556D01*
X466852Y740156D02*
Y755391D01*
X474469D01*
X477009Y752852D01*
Y747774D01*
X474469Y745234D01*
X466852D01*
X471930D02*
X477009Y740156D01*
X482087D02*
X487165D01*
X484626D01*
Y755391D01*
X482087Y752852D01*
X504940Y755391D02*
X499861Y752852D01*
X494783Y747774D01*
Y742695D01*
X497322Y740156D01*
X502401D01*
X504940Y742695D01*
Y745234D01*
X502401Y747774D01*
X494783D01*
X463556Y820423D02*
Y835658D01*
X471174D01*
X473713Y833118D01*
Y828040D01*
X471174Y825501D01*
X463556D01*
X468634D02*
X473713Y820423D01*
X478791D02*
X483870D01*
X481330D01*
Y835658D01*
X478791Y833118D01*
X501644Y835658D02*
X491487D01*
Y828040D01*
X496566Y830579D01*
X499105D01*
X501644Y828040D01*
Y822962D01*
X499105Y820423D01*
X494026D01*
X491487Y822962D01*
X1228344Y446278D02*
Y461513D01*
X1235962D01*
X1238501Y458974D01*
Y453895D01*
X1235962Y451356D01*
X1228344D01*
X1233422D02*
X1238501Y446278D01*
X1243579D02*
X1248657D01*
X1246118D01*
Y461513D01*
X1243579Y458974D01*
X1263893Y446278D02*
Y461513D01*
X1256275Y453895D01*
X1266432D01*
X1171194Y446278D02*
Y461513D01*
X1178811D01*
X1181351Y458974D01*
Y453895D01*
X1178811Y451356D01*
X1171194D01*
X1176272D02*
X1181351Y446278D01*
X1186429D02*
X1191507D01*
X1188968D01*
Y461513D01*
X1186429Y458974D01*
X1199125D02*
X1201664Y461513D01*
X1206742D01*
X1209282Y458974D01*
Y456435D01*
X1206742Y453895D01*
X1204203D01*
X1206742D01*
X1209282Y451356D01*
Y448817D01*
X1206742Y446278D01*
X1201664D01*
X1199125Y448817D01*
X730256Y591823D02*
Y607057D01*
X737874D01*
X740413Y604518D01*
Y599440D01*
X737874Y596901D01*
X730256D01*
X735334D02*
X740413Y591823D01*
X745491D02*
X750570D01*
X748030D01*
Y607057D01*
X745491Y604518D01*
X768344Y591823D02*
X758187D01*
X768344Y601979D01*
Y604518D01*
X765805Y607057D01*
X760726D01*
X758187Y604518D01*
X733044Y566928D02*
Y582163D01*
X740661D01*
X743201Y579624D01*
Y574546D01*
X740661Y572006D01*
X733044D01*
X738122D02*
X743201Y566928D01*
X748279D02*
X753357D01*
X750818D01*
Y582163D01*
X748279Y579624D01*
X760975Y566928D02*
X766053D01*
X763514D01*
Y582163D01*
X760975Y579624D01*
X652786Y596903D02*
Y612137D01*
X660404D01*
X662943Y609598D01*
Y604520D01*
X660404Y601981D01*
X652786D01*
X657865D02*
X662943Y596903D01*
X668021D02*
X673100D01*
X670560D01*
Y612137D01*
X668021Y609598D01*
X680717D02*
X683256Y612137D01*
X688335D01*
X690874Y609598D01*
Y599442D01*
X688335Y596903D01*
X683256D01*
X680717Y599442D01*
Y609598D01*
X627634Y429768D02*
Y445003D01*
X635252D01*
X637791Y442464D01*
Y437385D01*
X635252Y434846D01*
X627634D01*
X632712D02*
X637791Y429768D01*
X642869Y432307D02*
X645408Y429768D01*
X650487D01*
X653026Y432307D01*
Y442464D01*
X650487Y445003D01*
X645408D01*
X642869Y442464D01*
Y439925D01*
X645408Y437385D01*
X653026D01*
X772414Y566928D02*
Y582163D01*
X780032D01*
X782571Y579624D01*
Y574546D01*
X780032Y572006D01*
X772414D01*
X777492D02*
X782571Y566928D01*
X787649Y579624D02*
X790188Y582163D01*
X795267D01*
X797806Y579624D01*
Y577085D01*
X795267Y574546D01*
X797806Y572006D01*
Y569467D01*
X795267Y566928D01*
X790188D01*
X787649Y569467D01*
Y572006D01*
X790188Y574546D01*
X787649Y577085D01*
Y579624D01*
X790188Y574546D02*
X795267D01*
X594614Y624078D02*
Y639313D01*
X602231D01*
X604771Y636774D01*
Y631696D01*
X602231Y629156D01*
X594614D01*
X599692D02*
X604771Y624078D01*
X609849Y639313D02*
X620006D01*
Y636774D01*
X609849Y626617D01*
Y624078D01*
X683260Y724662D02*
Y739897D01*
X690878D01*
X693417Y737358D01*
Y732280D01*
X690878Y729740D01*
X683260D01*
X688338D02*
X693417Y724662D01*
X708652Y739897D02*
X703573Y737358D01*
X698495Y732280D01*
Y727201D01*
X701034Y724662D01*
X706113D01*
X708652Y727201D01*
Y729740D01*
X706113Y732280D01*
X698495D01*
X721364Y695963D02*
Y711198D01*
X728982D01*
X731521Y708658D01*
Y703580D01*
X728982Y701041D01*
X721364D01*
X726442D02*
X731521Y695963D01*
X746756Y711198D02*
X736599D01*
Y703580D01*
X741677Y706119D01*
X744217D01*
X746756Y703580D01*
Y698502D01*
X744217Y695963D01*
X739138D01*
X736599Y698502D01*
X642874Y728726D02*
Y743961D01*
X650491D01*
X653031Y741422D01*
Y736344D01*
X650491Y733804D01*
X642874D01*
X647952D02*
X653031Y728726D01*
X665727D02*
Y743961D01*
X658109Y736344D01*
X668266D01*
X467364Y681992D02*
Y697227D01*
X474982D01*
X477521Y694688D01*
Y689610D01*
X474982Y687071D01*
X467364D01*
X472443D02*
X477521Y681992D01*
X482599Y694688D02*
X485138Y697227D01*
X490217D01*
X492756Y694688D01*
Y692149D01*
X490217Y689610D01*
X487677D01*
X490217D01*
X492756Y687071D01*
Y684532D01*
X490217Y681992D01*
X485138D01*
X482599Y684532D01*
X760984Y686308D02*
Y701543D01*
X768602D01*
X771141Y699004D01*
Y693925D01*
X768602Y691386D01*
X760984D01*
X766062D02*
X771141Y686308D01*
X786376D02*
X776219D01*
X786376Y696465D01*
Y699004D01*
X783837Y701543D01*
X778758D01*
X776219Y699004D01*
X683768Y794512D02*
Y809747D01*
X691385D01*
X693925Y807208D01*
Y802130D01*
X691385Y799590D01*
X683768D01*
X688846D02*
X693925Y794512D01*
X699003D02*
X704081D01*
X701542D01*
Y809747D01*
X699003Y807208D01*
X648713Y1111503D02*
Y1121660D01*
X646173Y1124199D01*
X641095D01*
X638556Y1121660D01*
Y1111503D01*
X641095Y1108964D01*
X646173D01*
X643634Y1114042D02*
X648713Y1108964D01*
X646173D02*
X648713Y1111503D01*
X663948Y1124199D02*
X658869Y1121660D01*
X653791Y1116581D01*
Y1111503D01*
X656330Y1108964D01*
X661409D01*
X663948Y1111503D01*
Y1114042D01*
X661409Y1116581D01*
X653791D01*
X597913Y1110233D02*
Y1120390D01*
X595373Y1122929D01*
X590295D01*
X587756Y1120390D01*
Y1110233D01*
X590295Y1107694D01*
X595373D01*
X592834Y1112772D02*
X597913Y1107694D01*
X595373D02*
X597913Y1110233D01*
X613148Y1122929D02*
X602991D01*
Y1115312D01*
X608069Y1117851D01*
X610609D01*
X613148Y1115312D01*
Y1110233D01*
X610609Y1107694D01*
X605530D01*
X602991Y1110233D01*
X554987Y976883D02*
Y987040D01*
X552448Y989579D01*
X547369D01*
X544830Y987040D01*
Y976883D01*
X547369Y974344D01*
X552448D01*
X549908Y979422D02*
X554987Y974344D01*
X552448D02*
X554987Y976883D01*
X567683Y974344D02*
Y989579D01*
X560065Y981962D01*
X570222D01*
X923033Y698753D02*
Y708910D01*
X920493Y711449D01*
X915415D01*
X912876Y708910D01*
Y698753D01*
X915415Y696214D01*
X920493D01*
X917954Y701292D02*
X923033Y696214D01*
X920493D02*
X923033Y698753D01*
X928111Y708910D02*
X930650Y711449D01*
X935729D01*
X938268Y708910D01*
Y706371D01*
X935729Y703831D01*
X933189D01*
X935729D01*
X938268Y701292D01*
Y698753D01*
X935729Y696214D01*
X930650D01*
X928111Y698753D01*
X1070951Y750722D02*
Y760878D01*
X1068412Y763418D01*
X1063333D01*
X1060794Y760878D01*
Y750722D01*
X1063333Y748183D01*
X1068412D01*
X1065872Y753261D02*
X1070951Y748183D01*
X1068412D02*
X1070951Y750722D01*
X1086186Y748183D02*
X1076029D01*
X1086186Y758339D01*
Y760878D01*
X1083647Y763418D01*
X1078568D01*
X1076029Y760878D01*
X1275077Y900937D02*
Y911094D01*
X1272538Y913633D01*
X1267459D01*
X1264920Y911094D01*
Y900937D01*
X1267459Y898398D01*
X1272538D01*
X1269998Y903476D02*
X1275077Y898398D01*
X1272538D02*
X1275077Y900937D01*
X1280155Y898398D02*
X1285233D01*
X1282694D01*
Y913633D01*
X1280155Y911094D01*
X638048Y997199D02*
Y981964D01*
X648205D01*
X663440Y997199D02*
X653283D01*
Y981964D01*
X663440D01*
X653283Y989582D02*
X658361D01*
X668518Y997199D02*
Y981964D01*
X676136D01*
X678675Y984503D01*
Y994660D01*
X676136Y997199D01*
X668518D01*
X693910Y981964D02*
X683753D01*
X693910Y992121D01*
Y994660D01*
X691371Y997199D01*
X686292D01*
X683753Y994660D01*
X696976Y1124199D02*
Y1108964D01*
X707133D01*
X722368Y1124199D02*
X712211D01*
Y1108964D01*
X722368D01*
X712211Y1116581D02*
X717289D01*
X727446Y1124199D02*
Y1108964D01*
X735064D01*
X737603Y1111503D01*
Y1121660D01*
X735064Y1124199D01*
X727446D01*
X742681Y1108964D02*
X747760D01*
X745220D01*
Y1124199D01*
X742681Y1121660D01*
X1109218Y973323D02*
Y958088D01*
X1119375D01*
X1134610Y973323D02*
X1124453D01*
Y965705D01*
X1129531Y968245D01*
X1132071D01*
X1134610Y965705D01*
Y960627D01*
X1132071Y958088D01*
X1126992D01*
X1124453Y960627D01*
X946912Y469387D02*
Y454152D01*
X957069D01*
X969765D02*
Y469387D01*
X962147Y461769D01*
X972304D01*
X826774Y417827D02*
Y402593D01*
X836931D01*
X842009Y415288D02*
X844548Y417827D01*
X849627D01*
X852166Y415288D01*
Y412749D01*
X849627Y410210D01*
X847087D01*
X849627D01*
X852166Y407671D01*
Y405132D01*
X849627Y402593D01*
X844548D01*
X842009Y405132D01*
X566423Y755648D02*
Y740413D01*
X576580D01*
X581658D02*
X586737D01*
X584198D01*
Y755648D01*
X581658Y753108D01*
X1656082Y430535D02*
Y425456D01*
Y427995D01*
X1668778D01*
X1671317Y425456D01*
Y422917D01*
X1668778Y420378D01*
X1671317Y435613D02*
X1656082D01*
Y443230D01*
X1658622Y445770D01*
X1663700D01*
X1666239Y443230D01*
Y435613D01*
X1671317Y450848D02*
Y455926D01*
Y453387D01*
X1656082D01*
X1658622Y450848D01*
X1671317Y463544D02*
Y468622D01*
Y466083D01*
X1656082D01*
X1658622Y463544D01*
X1658622Y575315D02*
Y570237D01*
Y572776D01*
X1671318D01*
X1673858Y570237D01*
Y567698D01*
X1671318Y565159D01*
X1673858Y580394D02*
X1658622D01*
Y588011D01*
X1661162Y590550D01*
X1666240D01*
X1668779Y588011D01*
Y580394D01*
X1673858Y595629D02*
Y600707D01*
Y598168D01*
X1658622D01*
X1661162Y595629D01*
Y608325D02*
X1658622Y610864D01*
Y615942D01*
X1661162Y618481D01*
X1671318D01*
X1673858Y615942D01*
Y610864D01*
X1671318Y608325D01*
X1661162D01*
X1656082Y753113D02*
Y748035D01*
Y750574D01*
X1668778D01*
X1671317Y748035D01*
Y745496D01*
X1668778Y742957D01*
X1671317Y758192D02*
X1656082D01*
Y765809D01*
X1658622Y768348D01*
X1663700D01*
X1666239Y765809D01*
Y758192D01*
X1668778Y773427D02*
X1671317Y775966D01*
Y781044D01*
X1668778Y783583D01*
X1658622D01*
X1656082Y781044D01*
Y775966D01*
X1658622Y773427D01*
X1661161D01*
X1663700Y775966D01*
Y783583D01*
X1665983Y1245103D02*
X1660904D01*
X1663443D01*
Y1232407D01*
X1660904Y1229868D01*
X1658365D01*
X1655826Y1232407D01*
X1671061Y1229868D02*
Y1245103D01*
X1678679D01*
X1681218Y1242564D01*
Y1237486D01*
X1678679Y1234946D01*
X1671061D01*
X1686296Y1242564D02*
X1688835Y1245103D01*
X1693914D01*
X1696453Y1242564D01*
Y1240025D01*
X1693914Y1237486D01*
X1696453Y1234946D01*
Y1232407D01*
X1693914Y1229868D01*
X1688835D01*
X1686296Y1232407D01*
Y1234946D01*
X1688835Y1237486D01*
X1686296Y1240025D01*
Y1242564D01*
X1688835Y1237486D02*
X1693914D01*
X1541523Y1246373D02*
X1536444D01*
X1538983D01*
Y1233677D01*
X1536444Y1231138D01*
X1533905D01*
X1531366Y1233677D01*
X1546601Y1231138D02*
Y1246373D01*
X1554219D01*
X1556758Y1243834D01*
Y1238755D01*
X1554219Y1236216D01*
X1546601D01*
X1561836Y1246373D02*
X1571993D01*
Y1243834D01*
X1561836Y1233677D01*
Y1231138D01*
X1423413Y1248913D02*
X1418334D01*
X1420874D01*
Y1236217D01*
X1418334Y1233678D01*
X1415795D01*
X1413256Y1236217D01*
X1428491Y1233678D02*
Y1248913D01*
X1436109D01*
X1438648Y1246374D01*
Y1241295D01*
X1436109Y1238756D01*
X1428491D01*
X1453883Y1248913D02*
X1448804Y1246374D01*
X1443726Y1241295D01*
Y1236217D01*
X1446265Y1233678D01*
X1451344D01*
X1453883Y1236217D01*
Y1238756D01*
X1451344Y1241295D01*
X1443726D01*
X1305303Y1248913D02*
X1300224D01*
X1302764D01*
Y1236217D01*
X1300224Y1233678D01*
X1297685D01*
X1295146Y1236217D01*
X1310381Y1233678D02*
Y1248913D01*
X1317999D01*
X1320538Y1246374D01*
Y1241295D01*
X1317999Y1238756D01*
X1310381D01*
X1335773Y1248913D02*
X1325616D01*
Y1241295D01*
X1330694Y1243835D01*
X1333234D01*
X1335773Y1241295D01*
Y1236217D01*
X1333234Y1233678D01*
X1328155D01*
X1325616Y1236217D01*
X294129Y477769D02*
X289050D01*
X291590D01*
Y465073D01*
X289050Y462534D01*
X286511D01*
X283972Y465073D01*
X299207Y462534D02*
Y477769D01*
X306825D01*
X309364Y475230D01*
Y470151D01*
X306825Y467612D01*
X299207D01*
X322060Y462534D02*
Y477769D01*
X314442Y470151D01*
X324599D01*
X292859Y670809D02*
X287780D01*
X290319D01*
Y658113D01*
X287780Y655574D01*
X285241D01*
X282702Y658113D01*
X297937Y655574D02*
Y670809D01*
X305555D01*
X308094Y668270D01*
Y663192D01*
X305555Y660652D01*
X297937D01*
X313172Y668270D02*
X315711Y670809D01*
X320790D01*
X323329Y668270D01*
Y665731D01*
X320790Y663192D01*
X318251D01*
X320790D01*
X323329Y660652D01*
Y658113D01*
X320790Y655574D01*
X315711D01*
X313172Y658113D01*
X292859Y865119D02*
X287780D01*
X290319D01*
Y852423D01*
X287780Y849884D01*
X285241D01*
X282702Y852423D01*
X297937Y849884D02*
Y865119D01*
X305555D01*
X308094Y862580D01*
Y857502D01*
X305555Y854962D01*
X297937D01*
X323329Y849884D02*
X313172D01*
X323329Y860041D01*
Y862580D01*
X320790Y865119D01*
X315711D01*
X313172Y862580D01*
X292859Y1004819D02*
X287780D01*
X290319D01*
Y992123D01*
X287780Y989584D01*
X285241D01*
X282702Y992123D01*
X297937Y989584D02*
Y1004819D01*
X305555D01*
X308094Y1002280D01*
Y997202D01*
X305555Y994662D01*
X297937D01*
X313172Y989584D02*
X318251D01*
X315711D01*
Y1004819D01*
X313172Y1002280D01*
X1414777Y811525D02*
X1409698D01*
X1412238D01*
Y798829D01*
X1409698Y796290D01*
X1407159D01*
X1404620Y798829D01*
X1430012Y811525D02*
X1419855D01*
Y803907D01*
X1424933Y806447D01*
X1427473D01*
X1430012Y803907D01*
Y798829D01*
X1427473Y796290D01*
X1422394D01*
X1419855Y798829D01*
X1518921Y294638D02*
X1513842D01*
X1516382D01*
Y281942D01*
X1513842Y279403D01*
X1511303D01*
X1508764Y281942D01*
X1531617Y279403D02*
Y294638D01*
X1523999Y287020D01*
X1534156D01*
X1154427Y609595D02*
X1149348D01*
X1151888D01*
Y596899D01*
X1149348Y594360D01*
X1146809D01*
X1144270Y596899D01*
X1159505Y607056D02*
X1162044Y609595D01*
X1167123D01*
X1169662Y607056D01*
Y604517D01*
X1167123Y601978D01*
X1164583D01*
X1167123D01*
X1169662Y599438D01*
Y596899D01*
X1167123Y594360D01*
X1162044D01*
X1159505Y596899D01*
X934719Y591822D02*
X939798D01*
X937259D01*
Y604518D01*
X939798Y607057D01*
X942337D01*
X944876Y604518D01*
X919484Y607057D02*
X929641D01*
X919484Y596901D01*
Y594362D01*
X922023Y591822D01*
X927102D01*
X929641Y594362D01*
X1019807Y1035045D02*
X1014728D01*
X1017268D01*
Y1022349D01*
X1014728Y1019810D01*
X1012189D01*
X1009650Y1022349D01*
X1024885Y1019810D02*
X1029963D01*
X1027424D01*
Y1035045D01*
X1024885Y1032506D01*
X800106Y1123948D02*
X805184D01*
X802645D01*
Y1108712D01*
X800106D01*
X805184D01*
X822959Y1121408D02*
X820420Y1123948D01*
X815341D01*
X812802Y1121408D01*
Y1111252D01*
X815341Y1108712D01*
X820420D01*
X822959Y1111252D01*
X835655Y1108712D02*
Y1123948D01*
X828037Y1116330D01*
X838194D01*
X458724Y1151631D02*
X463802D01*
X461263D01*
Y1136396D01*
X458724D01*
X463802D01*
X481577Y1149092D02*
X479037Y1151631D01*
X473959D01*
X471420Y1149092D01*
Y1138935D01*
X473959Y1136396D01*
X479037D01*
X481577Y1138935D01*
X486655Y1149092D02*
X489194Y1151631D01*
X494272D01*
X496812Y1149092D01*
Y1146553D01*
X494272Y1144014D01*
X491733D01*
X494272D01*
X496812Y1141474D01*
Y1138935D01*
X494272Y1136396D01*
X489194D01*
X486655Y1138935D01*
X299466Y1246119D02*
X304544D01*
X302005D01*
Y1230884D01*
X299466D01*
X304544D01*
X322319Y1243580D02*
X319779Y1246119D01*
X314701D01*
X312162Y1243580D01*
Y1233423D01*
X314701Y1230884D01*
X319779D01*
X322319Y1233423D01*
X337554Y1230884D02*
X327397D01*
X337554Y1241041D01*
Y1243580D01*
X335014Y1246119D01*
X329936D01*
X327397Y1243580D01*
X300736Y1136899D02*
X305814D01*
X303275D01*
Y1121664D01*
X300736D01*
X305814D01*
X323589Y1134360D02*
X321049Y1136899D01*
X315971D01*
X313432Y1134360D01*
Y1124203D01*
X315971Y1121664D01*
X321049D01*
X323589Y1124203D01*
X328667Y1121664D02*
X333745D01*
X331206D01*
Y1136899D01*
X328667Y1134360D01*
X267972Y1151901D02*
X283207D01*
X275590D01*
X273051Y1154440D01*
Y1159519D01*
X275590Y1162058D01*
X283207D01*
Y1169675D02*
Y1174754D01*
X280668Y1177293D01*
X275590D01*
X273051Y1174754D01*
Y1169675D01*
X275590Y1167136D01*
X280668D01*
X283207Y1169675D01*
Y1182371D02*
Y1187450D01*
Y1184910D01*
X267972D01*
Y1182371D01*
X283207Y1202685D02*
Y1197606D01*
X280668Y1195067D01*
X275590D01*
X273051Y1197606D01*
Y1202685D01*
X275590Y1205224D01*
X278129D01*
Y1195067D01*
X283207Y1217920D02*
X267972D01*
X275590Y1210302D01*
Y1220459D01*
X1656091Y283207D02*
Y267973D01*
Y275590D01*
X1658630Y278129D01*
X1663709D01*
X1666248Y275590D01*
Y267973D01*
X1673865D02*
X1678944D01*
X1681483Y270512D01*
Y275590D01*
X1678944Y278129D01*
X1673865D01*
X1671326Y275590D01*
Y270512D01*
X1673865Y267973D01*
X1686561D02*
X1691640D01*
X1689100D01*
Y283207D01*
X1686561D01*
X1706875Y267973D02*
X1701796D01*
X1699257Y270512D01*
Y275590D01*
X1701796Y278129D01*
X1706875D01*
X1709414Y275590D01*
Y273051D01*
X1699257D01*
X1714492Y280668D02*
X1717031Y283207D01*
X1722110D01*
X1724649Y280668D01*
Y278129D01*
X1722110Y275590D01*
X1719571D01*
X1722110D01*
X1724649Y273051D01*
Y270512D01*
X1722110Y267973D01*
X1717031D01*
X1714492Y270512D01*
X1767838Y1219189D02*
X1752603D01*
X1760220D01*
X1762759Y1216650D01*
Y1211571D01*
X1760220Y1209032D01*
X1752603D01*
Y1201415D02*
Y1196336D01*
X1755142Y1193797D01*
X1760220D01*
X1762759Y1196336D01*
Y1201415D01*
X1760220Y1203954D01*
X1755142D01*
X1752603Y1201415D01*
Y1188719D02*
Y1183640D01*
Y1186180D01*
X1767838D01*
Y1188719D01*
X1752603Y1168405D02*
Y1173484D01*
X1755142Y1176023D01*
X1760220D01*
X1762759Y1173484D01*
Y1168405D01*
X1760220Y1165866D01*
X1757681D01*
Y1176023D01*
X1752603Y1150631D02*
Y1160788D01*
X1762759Y1150631D01*
X1765298D01*
X1767838Y1153170D01*
Y1158249D01*
X1765298Y1160788D01*
X311160Y287017D02*
Y271782D01*
Y279400D01*
X313699Y281939D01*
X318778D01*
X321317Y279400D01*
Y271782D01*
X328935D02*
X334013D01*
X336552Y274322D01*
Y279400D01*
X334013Y281939D01*
X328935D01*
X326395Y279400D01*
Y274322D01*
X328935Y271782D01*
X341630D02*
X346709D01*
X344170D01*
Y287017D01*
X341630D01*
X361944Y271782D02*
X356866D01*
X354326Y274322D01*
Y279400D01*
X356866Y281939D01*
X361944D01*
X364483Y279400D01*
Y276861D01*
X354326D01*
X369561Y271782D02*
X374640D01*
X372101D01*
Y287017D01*
X369561Y284478D01*
X1047493Y1258820D02*
X1044954Y1261359D01*
X1039875D01*
X1037336Y1258820D01*
Y1248663D01*
X1039875Y1246124D01*
X1044954D01*
X1047493Y1248663D01*
Y1253742D01*
X1042414D01*
X1062728Y1258820D02*
X1060189Y1261359D01*
X1055110D01*
X1052571Y1258820D01*
Y1256281D01*
X1055110Y1253742D01*
X1060189D01*
X1062728Y1251202D01*
Y1248663D01*
X1060189Y1246124D01*
X1055110D01*
X1052571Y1248663D01*
X1067806Y1246124D02*
Y1261359D01*
X1072885Y1256281D01*
X1077963Y1261359D01*
Y1246124D01*
X1083041D02*
X1088120D01*
X1085580D01*
Y1261359D01*
X1083041Y1258820D01*
X594865Y950717D02*
X584708D01*
Y943100D01*
X589786D01*
X584708D01*
Y935482D01*
X599943D02*
X605021D01*
X602482D01*
Y950717D01*
X599943Y948178D01*
X1269746Y603499D02*
Y588264D01*
X1277364D01*
X1279903Y590803D01*
Y600960D01*
X1277364Y603499D01*
X1269746D01*
X1284981Y600960D02*
X1287520Y603499D01*
X1292599D01*
X1295138Y600960D01*
Y598421D01*
X1292599Y595882D01*
X1295138Y593342D01*
Y590803D01*
X1292599Y588264D01*
X1287520D01*
X1284981Y590803D01*
Y593342D01*
X1287520Y595882D01*
X1284981Y598421D01*
Y600960D01*
X1287520Y595882D02*
X1292599D01*
X472444Y1249678D02*
Y1234443D01*
X480062D01*
X482601Y1236982D01*
Y1247138D01*
X480062Y1249678D01*
X472444D01*
X487679D02*
X497836D01*
Y1247138D01*
X487679Y1236982D01*
Y1234443D01*
X959104Y691637D02*
Y676402D01*
X966721D01*
X969261Y678941D01*
Y689098D01*
X966721Y691637D01*
X959104D01*
X984496D02*
X979417Y689098D01*
X974339Y684019D01*
Y678941D01*
X976878Y676402D01*
X981957D01*
X984496Y678941D01*
Y681480D01*
X981957Y684019D01*
X974339D01*
X1170178Y992881D02*
Y977646D01*
X1177795D01*
X1180335Y980185D01*
Y990342D01*
X1177795Y992881D01*
X1170178D01*
X1195570D02*
X1185413D01*
Y985264D01*
X1190491Y987803D01*
X1193031D01*
X1195570Y985264D01*
Y980185D01*
X1193031Y977646D01*
X1187952D01*
X1185413Y980185D01*
X444754Y960877D02*
Y945642D01*
X452371D01*
X454911Y948181D01*
Y958338D01*
X452371Y960877D01*
X444754D01*
X467607Y945642D02*
Y960877D01*
X459989Y953260D01*
X470146D01*
X476758Y555239D02*
Y540004D01*
X484375D01*
X486915Y542543D01*
Y552700D01*
X484375Y555239D01*
X476758D01*
X491993Y552700D02*
X494532Y555239D01*
X499611D01*
X502150Y552700D01*
Y550161D01*
X499611Y547621D01*
X497071D01*
X499611D01*
X502150Y545082D01*
Y542543D01*
X499611Y540004D01*
X494532D01*
X491993Y542543D01*
X601726Y363977D02*
Y348742D01*
X609343D01*
X611883Y351281D01*
Y361438D01*
X609343Y363977D01*
X601726D01*
X627118Y348742D02*
X616961D01*
X627118Y358899D01*
Y361438D01*
X624579Y363977D01*
X619500D01*
X616961Y361438D01*
X430276Y697987D02*
Y682752D01*
X437893D01*
X440433Y685291D01*
Y695448D01*
X437893Y697987D01*
X430276D01*
X445511Y682752D02*
X450589D01*
X448050D01*
Y697987D01*
X445511Y695448D01*
X999741Y737358D02*
X997202Y739897D01*
X992123D01*
X989584Y737358D01*
Y727201D01*
X992123Y724662D01*
X997202D01*
X999741Y727201D01*
X1014976Y724662D02*
X1004819D01*
X1014976Y734819D01*
Y737358D01*
X1012437Y739897D01*
X1007358D01*
X1004819Y737358D01*
X1020054D02*
X1022593Y739897D01*
X1027672D01*
X1030211Y737358D01*
Y734819D01*
X1027672Y732280D01*
X1030211Y729740D01*
Y727201D01*
X1027672Y724662D01*
X1022593D01*
X1020054Y727201D01*
Y729740D01*
X1022593Y732280D01*
X1020054Y734819D01*
Y737358D01*
X1022593Y732280D02*
X1027672D01*
X1558795Y812034D02*
X1556255Y814573D01*
X1551177D01*
X1548638Y812034D01*
Y801877D01*
X1551177Y799338D01*
X1556255D01*
X1558795Y801877D01*
X1574030Y799338D02*
X1563873D01*
X1574030Y809495D01*
Y812034D01*
X1571491Y814573D01*
X1566412D01*
X1563873Y812034D01*
X1579108Y814573D02*
X1589265D01*
Y812034D01*
X1579108Y801877D01*
Y799338D01*
X1448813Y812288D02*
X1446273Y814827D01*
X1441195D01*
X1438656Y812288D01*
Y802131D01*
X1441195Y799592D01*
X1446273D01*
X1448813Y802131D01*
X1464048Y799592D02*
X1453891D01*
X1464048Y809749D01*
Y812288D01*
X1461509Y814827D01*
X1456430D01*
X1453891Y812288D01*
X1479283Y814827D02*
X1474205Y812288D01*
X1469126Y807209D01*
Y802131D01*
X1471665Y799592D01*
X1476744D01*
X1479283Y802131D01*
Y804670D01*
X1476744Y807209D01*
X1469126D01*
X353819Y1156458D02*
X351279Y1158997D01*
X346201D01*
X343662Y1156458D01*
Y1146301D01*
X346201Y1143762D01*
X351279D01*
X353819Y1146301D01*
X369054Y1143762D02*
X358897D01*
X369054Y1153919D01*
Y1156458D01*
X366515Y1158997D01*
X361436D01*
X358897Y1156458D01*
X384289Y1158997D02*
X374132D01*
Y1151379D01*
X379211Y1153919D01*
X381750D01*
X384289Y1151379D01*
Y1146301D01*
X381750Y1143762D01*
X376671D01*
X374132Y1146301D01*
X1073655Y456942D02*
X1071115Y459481D01*
X1066037D01*
X1063498Y456942D01*
Y446785D01*
X1066037Y444246D01*
X1071115D01*
X1073655Y446785D01*
X1088890Y444246D02*
X1078733D01*
X1088890Y454403D01*
Y456942D01*
X1086351Y459481D01*
X1081272D01*
X1078733Y456942D01*
X1101586Y444246D02*
Y459481D01*
X1093968Y451864D01*
X1104125D01*
X1130805Y458212D02*
X1128266Y460751D01*
X1123187D01*
X1120648Y458212D01*
Y448055D01*
X1123187Y445516D01*
X1128266D01*
X1130805Y448055D01*
X1146040Y445516D02*
X1135883D01*
X1146040Y455673D01*
Y458212D01*
X1143501Y460751D01*
X1138422D01*
X1135883Y458212D01*
X1151118D02*
X1153657Y460751D01*
X1158736D01*
X1161275Y458212D01*
Y455673D01*
X1158736Y453134D01*
X1156197D01*
X1158736D01*
X1161275Y450594D01*
Y448055D01*
X1158736Y445516D01*
X1153657D01*
X1151118Y448055D01*
X1026163Y501648D02*
X1023624Y504188D01*
X1018546D01*
X1016007Y501648D01*
Y491492D01*
X1018546Y488952D01*
X1023624D01*
X1026163Y491492D01*
X1041398Y488952D02*
X1031242D01*
X1041398Y499109D01*
Y501648D01*
X1038859Y504188D01*
X1033781D01*
X1031242Y501648D01*
X1056633Y488952D02*
X1046477D01*
X1056633Y499109D01*
Y501648D01*
X1054094Y504188D01*
X1049016D01*
X1046477Y501648D01*
X1000762Y453388D02*
X998223Y455928D01*
X993145D01*
X990606Y453388D01*
Y443232D01*
X993145Y440692D01*
X998223D01*
X1000762Y443232D01*
X1015998Y440692D02*
X1005841D01*
X1015998Y450849D01*
Y453388D01*
X1013458Y455928D01*
X1008380D01*
X1005841Y453388D01*
X1021076Y440692D02*
X1026154D01*
X1023615D01*
Y455928D01*
X1021076Y453388D01*
X1169921Y657348D02*
X1167382Y659887D01*
X1162303D01*
X1159764Y657348D01*
Y647191D01*
X1162303Y644652D01*
X1167382D01*
X1169921Y647191D01*
X1185156Y644652D02*
X1174999D01*
X1185156Y654809D01*
Y657348D01*
X1182617Y659887D01*
X1177538D01*
X1174999Y657348D01*
X1190234D02*
X1192773Y659887D01*
X1197852D01*
X1200391Y657348D01*
Y647191D01*
X1197852Y644652D01*
X1192773D01*
X1190234Y647191D01*
Y657348D01*
X835911Y880868D02*
X833372Y883407D01*
X828293D01*
X825754Y880868D01*
Y870711D01*
X828293Y868172D01*
X833372D01*
X835911Y870711D01*
X840989Y868172D02*
X846067D01*
X843528D01*
Y883407D01*
X840989Y880868D01*
X853685Y870711D02*
X856224Y868172D01*
X861302D01*
X863842Y870711D01*
Y880868D01*
X861302Y883407D01*
X856224D01*
X853685Y880868D01*
Y878329D01*
X856224Y875789D01*
X863842D01*
X1107437Y659126D02*
X1104898Y661665D01*
X1099819D01*
X1097280Y659126D01*
Y648969D01*
X1099819Y646430D01*
X1104898D01*
X1107437Y648969D01*
X1112515Y646430D02*
X1117593D01*
X1115054D01*
Y661665D01*
X1112515Y659126D01*
X1125211D02*
X1127750Y661665D01*
X1132829D01*
X1135368Y659126D01*
Y656587D01*
X1132829Y654047D01*
X1135368Y651508D01*
Y648969D01*
X1132829Y646430D01*
X1127750D01*
X1125211Y648969D01*
Y651508D01*
X1127750Y654047D01*
X1125211Y656587D01*
Y659126D01*
X1127750Y654047D02*
X1132829D01*
X1053081Y644902D02*
X1050542Y647441D01*
X1045463D01*
X1042924Y644902D01*
Y634745D01*
X1045463Y632206D01*
X1050542D01*
X1053081Y634745D01*
X1058159Y632206D02*
X1063237D01*
X1060698D01*
Y647441D01*
X1058159Y644902D01*
X1070855Y647441D02*
X1081012D01*
Y644902D01*
X1070855Y634745D01*
Y632206D01*
X1032761Y791460D02*
X1030221Y793999D01*
X1025143D01*
X1022604Y791460D01*
Y781303D01*
X1025143Y778764D01*
X1030221D01*
X1032761Y781303D01*
X1037839Y778764D02*
X1042917D01*
X1040378D01*
Y793999D01*
X1037839Y791460D01*
X1060692Y793999D02*
X1055613Y791460D01*
X1050535Y786382D01*
Y781303D01*
X1053074Y778764D01*
X1058152D01*
X1060692Y781303D01*
Y783842D01*
X1058152Y786382D01*
X1050535D01*
X1441447Y602738D02*
X1438907Y605277D01*
X1433829D01*
X1431290Y602738D01*
Y592581D01*
X1433829Y590042D01*
X1438907D01*
X1441447Y592581D01*
X1446525Y590042D02*
X1451603D01*
X1449064D01*
Y605277D01*
X1446525Y602738D01*
X1469378Y605277D02*
X1459221D01*
Y597659D01*
X1464299Y600199D01*
X1466839D01*
X1469378Y597659D01*
Y592581D01*
X1466839Y590042D01*
X1461760D01*
X1459221Y592581D01*
X705355Y440686D02*
X702815Y443225D01*
X697737D01*
X695198Y440686D01*
Y430529D01*
X697737Y427990D01*
X702815D01*
X705355Y430529D01*
X710433Y427990D02*
X715511D01*
X712972D01*
Y443225D01*
X710433Y440686D01*
X730747Y427990D02*
Y443225D01*
X723129Y435607D01*
X733286D01*
X551685Y596642D02*
X549146Y599181D01*
X544067D01*
X541528Y596642D01*
Y586485D01*
X544067Y583946D01*
X549146D01*
X551685Y586485D01*
X556763Y583946D02*
X561841D01*
X559302D01*
Y599181D01*
X556763Y596642D01*
X569459D02*
X571998Y599181D01*
X577076D01*
X579616Y596642D01*
Y594103D01*
X577076Y591563D01*
X574537D01*
X577076D01*
X579616Y589024D01*
Y586485D01*
X577076Y583946D01*
X571998D01*
X569459Y586485D01*
X930145Y556764D02*
X927606Y559303D01*
X922527D01*
X919988Y556764D01*
Y546607D01*
X922527Y544068D01*
X927606D01*
X930145Y546607D01*
X935223Y544068D02*
X940301D01*
X937762D01*
Y559303D01*
X935223Y556764D01*
X958076Y544068D02*
X947919D01*
X958076Y554225D01*
Y556764D01*
X955536Y559303D01*
X950458D01*
X947919Y556764D01*
X584451Y517648D02*
X581912Y520187D01*
X576833D01*
X574294Y517648D01*
Y507491D01*
X576833Y504952D01*
X581912D01*
X584451Y507491D01*
X589529Y504952D02*
X594607D01*
X592068D01*
Y520187D01*
X589529Y517648D01*
X602225Y504952D02*
X607303D01*
X604764D01*
Y520187D01*
X602225Y517648D01*
X544833Y828928D02*
X542294Y831468D01*
X537215D01*
X534676Y828928D01*
Y818772D01*
X537215Y816233D01*
X542294D01*
X544833Y818772D01*
X549911Y816233D02*
X554990D01*
X552450D01*
Y831468D01*
X549911Y828928D01*
X562607D02*
X565146Y831468D01*
X570225D01*
X572764Y828928D01*
Y818772D01*
X570225Y816233D01*
X565146D01*
X562607Y818772D01*
Y828928D01*
X915921Y377948D02*
X913382Y380487D01*
X908303D01*
X905764Y377948D01*
Y367791D01*
X908303Y365252D01*
X913382D01*
X915921Y367791D01*
X920999D02*
X923538Y365252D01*
X928617D01*
X931156Y367791D01*
Y377948D01*
X928617Y380487D01*
X923538D01*
X920999Y377948D01*
Y375409D01*
X923538Y372869D01*
X931156D01*
X548891Y696972D02*
X546352Y699511D01*
X541273D01*
X538734Y696972D01*
Y686815D01*
X541273Y684276D01*
X546352D01*
X548891Y686815D01*
X553969Y699511D02*
X564126D01*
Y696972D01*
X553969Y686815D01*
Y684276D01*
X584451Y696718D02*
X581912Y699257D01*
X576833D01*
X574294Y696718D01*
Y686561D01*
X576833Y684022D01*
X581912D01*
X584451Y686561D01*
X599686Y699257D02*
X594607Y696718D01*
X589529Y691639D01*
Y686561D01*
X592068Y684022D01*
X597147D01*
X599686Y686561D01*
Y689100D01*
X597147Y691639D01*
X589529D01*
X1144271Y787398D02*
X1141732Y789938D01*
X1136653D01*
X1134114Y787398D01*
Y777242D01*
X1136653Y774703D01*
X1141732D01*
X1144271Y777242D01*
X1159506Y789938D02*
X1149349D01*
Y782320D01*
X1154427Y784859D01*
X1156967D01*
X1159506Y782320D01*
Y777242D01*
X1156967Y774703D01*
X1151888D01*
X1149349Y777242D01*
X987803Y929382D02*
X985264Y931921D01*
X980185D01*
X977646Y929382D01*
Y919225D01*
X980185Y916686D01*
X985264D01*
X987803Y919225D01*
X1000499Y916686D02*
Y931921D01*
X992881Y924304D01*
X1003038D01*
X759711Y437892D02*
X757171Y440431D01*
X752093D01*
X749554Y437892D01*
Y427735D01*
X752093Y425196D01*
X757171D01*
X759711Y427735D01*
X764789Y437892D02*
X767328Y440431D01*
X772407D01*
X774946Y437892D01*
Y435353D01*
X772407Y432813D01*
X769867D01*
X772407D01*
X774946Y430274D01*
Y427735D01*
X772407Y425196D01*
X767328D01*
X764789Y427735D01*
X819401Y597404D02*
X816861Y599943D01*
X811783D01*
X809244Y597404D01*
Y587247D01*
X811783Y584708D01*
X816861D01*
X819401Y587247D01*
X834636Y584708D02*
X824479D01*
X834636Y594865D01*
Y597404D01*
X832097Y599943D01*
X827018D01*
X824479Y597404D01*
X764540Y627378D02*
X762001Y629917D01*
X756923D01*
X754383Y627378D01*
Y617222D01*
X756923Y614683D01*
X762001D01*
X764540Y617222D01*
X769618Y614683D02*
X774697D01*
X772158D01*
Y629917D01*
X769618Y627378D01*
X660908Y1244092D02*
Y1254249D01*
X665986Y1259327D01*
X671065Y1254249D01*
Y1244092D01*
Y1251710D01*
X660908D01*
X676143Y1244092D02*
Y1259327D01*
X686300Y1244092D01*
Y1259327D01*
X691378D02*
X701535D01*
X696457D01*
Y1244092D01*
X706613D02*
X711692D01*
X709152D01*
Y1259327D01*
X706613Y1256788D01*
D14*
X718470Y282860D02*
Y312850D01*
X738464Y282860D01*
Y312850D01*
X748460D02*
Y282860D01*
Y297855D01*
X753459Y302854D01*
X763455D01*
X768454Y297855D01*
Y282860D01*
X778451Y302854D02*
Y287858D01*
X783449Y282860D01*
X798444D01*
Y302854D01*
X838431Y312850D02*
Y282860D01*
X853426D01*
X858425Y287858D01*
Y307852D01*
X853426Y312850D01*
X838431D01*
X868421Y282860D02*
X878418D01*
X873420D01*
Y302854D01*
X868421D01*
X893413Y282860D02*
Y302854D01*
X908409D01*
X913407Y297855D01*
Y282860D01*
X923404Y312850D02*
Y282860D01*
Y297855D01*
X928402Y302854D01*
X938399D01*
X943397Y297855D01*
Y282860D01*
X983384Y312850D02*
X1003378D01*
X993381D01*
Y282860D01*
X1013374Y312850D02*
Y282860D01*
Y297855D01*
X1018373Y302854D01*
X1028370D01*
X1033368Y297855D01*
Y282860D01*
X1048363Y302854D02*
X1058360D01*
X1063358Y297855D01*
Y282860D01*
X1048363D01*
X1043365Y287858D01*
X1048363Y292857D01*
X1063358D01*
X1073355Y282860D02*
Y302854D01*
X1088350D01*
X1093349Y297855D01*
Y282860D01*
X1103345Y312850D02*
Y282860D01*
Y297855D01*
X1108344Y302854D01*
X1118341D01*
X1123339Y297855D01*
Y282860D01*
M02*
