G04*
G04 #@! TF.GenerationSoftware,Altium Limited,Altium Designer,23.7.1 (13)*
G04*
G04 Layer_Color=8388736*
%FSLAX44Y44*%
%MOMM*%
G71*
G04*
G04 #@! TF.SameCoordinates,D80BC081-2A64-476D-8097-51FF93FC0A54*
G04*
G04*
G04 #@! TF.FilePolarity,Negative*
G04*
G01*
G75*
G04:AMPARAMS|DCode=29|XSize=3.1mm|YSize=2.4mm|CornerRadius=0.12mm|HoleSize=0mm|Usage=FLASHONLY|Rotation=90.000|XOffset=0mm|YOffset=0mm|HoleType=Round|Shape=RoundedRectangle|*
%AMROUNDEDRECTD29*
21,1,3.1000,2.1600,0,0,90.0*
21,1,2.8600,2.4000,0,0,90.0*
1,1,0.2400,1.0800,1.4300*
1,1,0.2400,1.0800,-1.4300*
1,1,0.2400,-1.0800,-1.4300*
1,1,0.2400,-1.0800,1.4300*
%
%ADD29ROUNDEDRECTD29*%
%ADD69R,2.9500X4.9000*%
G04:AMPARAMS|DCode=70|XSize=1.75mm|YSize=2.8mm|CornerRadius=0.1775mm|HoleSize=0mm|Usage=FLASHONLY|Rotation=180.000|XOffset=0mm|YOffset=0mm|HoleType=Round|Shape=RoundedRectangle|*
%AMROUNDEDRECTD70*
21,1,1.7500,2.4450,0,0,180.0*
21,1,1.3950,2.8000,0,0,180.0*
1,1,0.3550,-0.6975,1.2225*
1,1,0.3550,0.6975,1.2225*
1,1,0.3550,0.6975,-1.2225*
1,1,0.3550,-0.6975,-1.2225*
%
%ADD70ROUNDEDRECTD70*%
G04:AMPARAMS|DCode=71|XSize=0.8mm|YSize=1.55mm|CornerRadius=0.13mm|HoleSize=0mm|Usage=FLASHONLY|Rotation=180.000|XOffset=0mm|YOffset=0mm|HoleType=Round|Shape=RoundedRectangle|*
%AMROUNDEDRECTD71*
21,1,0.8000,1.2900,0,0,180.0*
21,1,0.5400,1.5500,0,0,180.0*
1,1,0.2600,-0.2700,0.6450*
1,1,0.2600,0.2700,0.6450*
1,1,0.2600,0.2700,-0.6450*
1,1,0.2600,-0.2700,-0.6450*
%
%ADD71ROUNDEDRECTD71*%
G04:AMPARAMS|DCode=72|XSize=1.8032mm|YSize=0.6032mm|CornerRadius=0.1216mm|HoleSize=0mm|Usage=FLASHONLY|Rotation=90.000|XOffset=0mm|YOffset=0mm|HoleType=Round|Shape=RoundedRectangle|*
%AMROUNDEDRECTD72*
21,1,1.8032,0.3600,0,0,90.0*
21,1,1.5600,0.6032,0,0,90.0*
1,1,0.2432,0.1800,0.7800*
1,1,0.2432,0.1800,-0.7800*
1,1,0.2432,-0.1800,-0.7800*
1,1,0.2432,-0.1800,0.7800*
%
%ADD72ROUNDEDRECTD72*%
G04:AMPARAMS|DCode=73|XSize=1.7032mm|YSize=1.7532mm|CornerRadius=0.1766mm|HoleSize=0mm|Usage=FLASHONLY|Rotation=0.000|XOffset=0mm|YOffset=0mm|HoleType=Round|Shape=RoundedRectangle|*
%AMROUNDEDRECTD73*
21,1,1.7032,1.4000,0,0,0.0*
21,1,1.3500,1.7532,0,0,0.0*
1,1,0.3532,0.6750,-0.7000*
1,1,0.3532,-0.6750,-0.7000*
1,1,0.3532,-0.6750,0.7000*
1,1,0.3532,0.6750,0.7000*
%
%ADD73ROUNDEDRECTD73*%
G04:AMPARAMS|DCode=74|XSize=1.2mm|YSize=2.2mm|CornerRadius=0.15mm|HoleSize=0mm|Usage=FLASHONLY|Rotation=0.000|XOffset=0mm|YOffset=0mm|HoleType=Round|Shape=RoundedRectangle|*
%AMROUNDEDRECTD74*
21,1,1.2000,1.9000,0,0,0.0*
21,1,0.9000,2.2000,0,0,0.0*
1,1,0.3000,0.4500,-0.9500*
1,1,0.3000,-0.4500,-0.9500*
1,1,0.3000,-0.4500,0.9500*
1,1,0.3000,0.4500,0.9500*
%
%ADD74ROUNDEDRECTD74*%
G04:AMPARAMS|DCode=75|XSize=1.2mm|YSize=2.2mm|CornerRadius=0.15mm|HoleSize=0mm|Usage=FLASHONLY|Rotation=90.000|XOffset=0mm|YOffset=0mm|HoleType=Round|Shape=RoundedRectangle|*
%AMROUNDEDRECTD75*
21,1,1.2000,1.9000,0,0,90.0*
21,1,0.9000,2.2000,0,0,90.0*
1,1,0.3000,0.9500,0.4500*
1,1,0.3000,0.9500,-0.4500*
1,1,0.3000,-0.9500,-0.4500*
1,1,0.3000,-0.9500,0.4500*
%
%ADD75ROUNDEDRECTD75*%
G04:AMPARAMS|DCode=76|XSize=1.3032mm|YSize=0.8032mm|CornerRadius=0.1316mm|HoleSize=0mm|Usage=FLASHONLY|Rotation=270.000|XOffset=0mm|YOffset=0mm|HoleType=Round|Shape=RoundedRectangle|*
%AMROUNDEDRECTD76*
21,1,1.3032,0.5400,0,0,270.0*
21,1,1.0400,0.8032,0,0,270.0*
1,1,0.2632,-0.2700,-0.5200*
1,1,0.2632,-0.2700,0.5200*
1,1,0.2632,0.2700,0.5200*
1,1,0.2632,0.2700,-0.5200*
%
%ADD76ROUNDEDRECTD76*%
G04:AMPARAMS|DCode=77|XSize=1.0032mm|YSize=2.8032mm|CornerRadius=0.1416mm|HoleSize=0mm|Usage=FLASHONLY|Rotation=90.000|XOffset=0mm|YOffset=0mm|HoleType=Round|Shape=RoundedRectangle|*
%AMROUNDEDRECTD77*
21,1,1.0032,2.5200,0,0,90.0*
21,1,0.7200,2.8032,0,0,90.0*
1,1,0.2832,1.2600,0.3600*
1,1,0.2832,1.2600,-0.3600*
1,1,0.2832,-1.2600,-0.3600*
1,1,0.2832,-1.2600,0.3600*
%
%ADD77ROUNDEDRECTD77*%
G04:AMPARAMS|DCode=78|XSize=1.9812mm|YSize=3.3782mm|CornerRadius=0.1905mm|HoleSize=0mm|Usage=FLASHONLY|Rotation=180.000|XOffset=0mm|YOffset=0mm|HoleType=Round|Shape=RoundedRectangle|*
%AMROUNDEDRECTD78*
21,1,1.9812,2.9972,0,0,180.0*
21,1,1.6002,3.3782,0,0,180.0*
1,1,0.3810,-0.8001,1.4986*
1,1,0.3810,0.8001,1.4986*
1,1,0.3810,0.8001,-1.4986*
1,1,0.3810,-0.8001,-1.4986*
%
%ADD78ROUNDEDRECTD78*%
G04:AMPARAMS|DCode=79|XSize=1.15mm|YSize=1.15mm|CornerRadius=0.1475mm|HoleSize=0mm|Usage=FLASHONLY|Rotation=180.000|XOffset=0mm|YOffset=0mm|HoleType=Round|Shape=RoundedRectangle|*
%AMROUNDEDRECTD79*
21,1,1.1500,0.8550,0,0,180.0*
21,1,0.8550,1.1500,0,0,180.0*
1,1,0.2950,-0.4275,0.4275*
1,1,0.2950,0.4275,0.4275*
1,1,0.2950,0.4275,-0.4275*
1,1,0.2950,-0.4275,-0.4275*
%
%ADD79ROUNDEDRECTD79*%
G04:AMPARAMS|DCode=80|XSize=1mm|YSize=1mm|CornerRadius=0.12mm|HoleSize=0mm|Usage=FLASHONLY|Rotation=0.000|XOffset=0mm|YOffset=0mm|HoleType=Round|Shape=RoundedRectangle|*
%AMROUNDEDRECTD80*
21,1,1.0000,0.7600,0,0,0.0*
21,1,0.7600,1.0000,0,0,0.0*
1,1,0.2400,0.3800,-0.3800*
1,1,0.2400,-0.3800,-0.3800*
1,1,0.2400,-0.3800,0.3800*
1,1,0.2400,0.3800,0.3800*
%
%ADD80ROUNDEDRECTD80*%
G04:AMPARAMS|DCode=81|XSize=1.3mm|YSize=1.6mm|CornerRadius=0.155mm|HoleSize=0mm|Usage=FLASHONLY|Rotation=270.000|XOffset=0mm|YOffset=0mm|HoleType=Round|Shape=RoundedRectangle|*
%AMROUNDEDRECTD81*
21,1,1.3000,1.2900,0,0,270.0*
21,1,0.9900,1.6000,0,0,270.0*
1,1,0.3100,-0.6450,-0.4950*
1,1,0.3100,-0.6450,0.4950*
1,1,0.3100,0.6450,0.4950*
1,1,0.3100,0.6450,-0.4950*
%
%ADD81ROUNDEDRECTD81*%
G04:AMPARAMS|DCode=82|XSize=1.0032mm|YSize=2.8032mm|CornerRadius=0.1416mm|HoleSize=0mm|Usage=FLASHONLY|Rotation=180.000|XOffset=0mm|YOffset=0mm|HoleType=Round|Shape=RoundedRectangle|*
%AMROUNDEDRECTD82*
21,1,1.0032,2.5200,0,0,180.0*
21,1,0.7200,2.8032,0,0,180.0*
1,1,0.2832,-0.3600,1.2600*
1,1,0.2832,0.3600,1.2600*
1,1,0.2832,0.3600,-1.2600*
1,1,0.2832,-0.3600,-1.2600*
%
%ADD82ROUNDEDRECTD82*%
G04:AMPARAMS|DCode=83|XSize=2.0532mm|YSize=3.6532mm|CornerRadius=0.1941mm|HoleSize=0mm|Usage=FLASHONLY|Rotation=180.000|XOffset=0mm|YOffset=0mm|HoleType=Round|Shape=RoundedRectangle|*
%AMROUNDEDRECTD83*
21,1,2.0532,3.2650,0,0,180.0*
21,1,1.6650,3.6532,0,0,180.0*
1,1,0.3882,-0.8325,1.6325*
1,1,0.3882,0.8325,1.6325*
1,1,0.3882,0.8325,-1.6325*
1,1,0.3882,-0.8325,-1.6325*
%
%ADD83ROUNDEDRECTD83*%
G04:AMPARAMS|DCode=84|XSize=0.64mm|YSize=2.34mm|CornerRadius=0.095mm|HoleSize=0mm|Usage=FLASHONLY|Rotation=90.000|XOffset=0mm|YOffset=0mm|HoleType=Round|Shape=RoundedRectangle|*
%AMROUNDEDRECTD84*
21,1,0.6400,2.1500,0,0,90.0*
21,1,0.4500,2.3400,0,0,90.0*
1,1,0.1900,1.0750,0.2250*
1,1,0.1900,1.0750,-0.2250*
1,1,0.1900,-1.0750,-0.2250*
1,1,0.1900,-1.0750,0.2250*
%
%ADD84ROUNDEDRECTD84*%
G04:AMPARAMS|DCode=85|XSize=2.7mm|YSize=3.4mm|CornerRadius=0.225mm|HoleSize=0mm|Usage=FLASHONLY|Rotation=0.000|XOffset=0mm|YOffset=0mm|HoleType=Round|Shape=RoundedRectangle|*
%AMROUNDEDRECTD85*
21,1,2.7000,2.9500,0,0,0.0*
21,1,2.2500,3.4000,0,0,0.0*
1,1,0.4500,1.1250,-1.4750*
1,1,0.4500,-1.1250,-1.4750*
1,1,0.4500,-1.1250,1.4750*
1,1,0.4500,1.1250,1.4750*
%
%ADD85ROUNDEDRECTD85*%
G04:AMPARAMS|DCode=86|XSize=5.2032mm|YSize=5.2032mm|CornerRadius=0.3516mm|HoleSize=0mm|Usage=FLASHONLY|Rotation=0.000|XOffset=0mm|YOffset=0mm|HoleType=Round|Shape=RoundedRectangle|*
%AMROUNDEDRECTD86*
21,1,5.2032,4.5000,0,0,0.0*
21,1,4.5000,5.2032,0,0,0.0*
1,1,0.7032,2.2500,-2.2500*
1,1,0.7032,-2.2500,-2.2500*
1,1,0.7032,-2.2500,2.2500*
1,1,0.7032,2.2500,2.2500*
%
%ADD86ROUNDEDRECTD86*%
G04:AMPARAMS|DCode=87|XSize=2.2032mm|YSize=1.1032mm|CornerRadius=0.1466mm|HoleSize=0mm|Usage=FLASHONLY|Rotation=0.000|XOffset=0mm|YOffset=0mm|HoleType=Round|Shape=RoundedRectangle|*
%AMROUNDEDRECTD87*
21,1,2.2032,0.8100,0,0,0.0*
21,1,1.9100,1.1032,0,0,0.0*
1,1,0.2932,0.9550,-0.4050*
1,1,0.2932,-0.9550,-0.4050*
1,1,0.2932,-0.9550,0.4050*
1,1,0.2932,0.9550,0.4050*
%
%ADD87ROUNDEDRECTD87*%
G04:AMPARAMS|DCode=88|XSize=2.2032mm|YSize=1.1032mm|CornerRadius=0.1466mm|HoleSize=0mm|Usage=FLASHONLY|Rotation=90.000|XOffset=0mm|YOffset=0mm|HoleType=Round|Shape=RoundedRectangle|*
%AMROUNDEDRECTD88*
21,1,2.2032,0.8100,0,0,90.0*
21,1,1.9100,1.1032,0,0,90.0*
1,1,0.2932,0.4050,0.9550*
1,1,0.2932,0.4050,-0.9550*
1,1,0.2932,-0.4050,-0.9550*
1,1,0.2932,-0.4050,0.9550*
%
%ADD88ROUNDEDRECTD88*%
G04:AMPARAMS|DCode=89|XSize=1.3462mm|YSize=1.7032mm|CornerRadius=0.1588mm|HoleSize=0mm|Usage=FLASHONLY|Rotation=90.000|XOffset=0mm|YOffset=0mm|HoleType=Round|Shape=RoundedRectangle|*
%AMROUNDEDRECTD89*
21,1,1.3462,1.3857,0,0,90.0*
21,1,1.0287,1.7032,0,0,90.0*
1,1,0.3175,0.6929,0.5143*
1,1,0.3175,0.6929,-0.5143*
1,1,0.3175,-0.6929,-0.5143*
1,1,0.3175,-0.6929,0.5143*
%
%ADD89ROUNDEDRECTD89*%
G04:AMPARAMS|DCode=90|XSize=1.3462mm|YSize=1.7032mm|CornerRadius=0.1588mm|HoleSize=0mm|Usage=FLASHONLY|Rotation=0.000|XOffset=0mm|YOffset=0mm|HoleType=Round|Shape=RoundedRectangle|*
%AMROUNDEDRECTD90*
21,1,1.3462,1.3857,0,0,0.0*
21,1,1.0287,1.7032,0,0,0.0*
1,1,0.3175,0.5143,-0.6929*
1,1,0.3175,-0.5143,-0.6929*
1,1,0.3175,-0.5143,0.6929*
1,1,0.3175,0.5143,0.6929*
%
%ADD90ROUNDEDRECTD90*%
G04:AMPARAMS|DCode=91|XSize=1.5032mm|YSize=1.2032mm|CornerRadius=0.1516mm|HoleSize=0mm|Usage=FLASHONLY|Rotation=180.000|XOffset=0mm|YOffset=0mm|HoleType=Round|Shape=RoundedRectangle|*
%AMROUNDEDRECTD91*
21,1,1.5032,0.9000,0,0,180.0*
21,1,1.2000,1.2032,0,0,180.0*
1,1,0.3032,-0.6000,0.4500*
1,1,0.3032,0.6000,0.4500*
1,1,0.3032,0.6000,-0.4500*
1,1,0.3032,-0.6000,-0.4500*
%
%ADD91ROUNDEDRECTD91*%
G04:AMPARAMS|DCode=92|XSize=0.8mm|YSize=0.6mm|CornerRadius=0.12mm|HoleSize=0mm|Usage=FLASHONLY|Rotation=180.000|XOffset=0mm|YOffset=0mm|HoleType=Round|Shape=RoundedRectangle|*
%AMROUNDEDRECTD92*
21,1,0.8000,0.3600,0,0,180.0*
21,1,0.5600,0.6000,0,0,180.0*
1,1,0.2400,-0.2800,0.1800*
1,1,0.2400,0.2800,0.1800*
1,1,0.2400,0.2800,-0.1800*
1,1,0.2400,-0.2800,-0.1800*
%
%ADD92ROUNDEDRECTD92*%
G04:AMPARAMS|DCode=93|XSize=0.8mm|YSize=2mm|CornerRadius=0.115mm|HoleSize=0mm|Usage=FLASHONLY|Rotation=90.000|XOffset=0mm|YOffset=0mm|HoleType=Round|Shape=RoundedRectangle|*
%AMROUNDEDRECTD93*
21,1,0.8000,1.7700,0,0,90.0*
21,1,0.5700,2.0000,0,0,90.0*
1,1,0.2300,0.8850,0.2850*
1,1,0.2300,0.8850,-0.2850*
1,1,0.2300,-0.8850,-0.2850*
1,1,0.2300,-0.8850,0.2850*
%
%ADD93ROUNDEDRECTD93*%
G04:AMPARAMS|DCode=94|XSize=0.8mm|YSize=2mm|CornerRadius=0.115mm|HoleSize=0mm|Usage=FLASHONLY|Rotation=180.000|XOffset=0mm|YOffset=0mm|HoleType=Round|Shape=RoundedRectangle|*
%AMROUNDEDRECTD94*
21,1,0.8000,1.7700,0,0,180.0*
21,1,0.5700,2.0000,0,0,180.0*
1,1,0.2300,-0.2850,0.8850*
1,1,0.2300,0.2850,0.8850*
1,1,0.2300,0.2850,-0.8850*
1,1,0.2300,-0.2850,-0.8850*
%
%ADD94ROUNDEDRECTD94*%
G04:AMPARAMS|DCode=95|XSize=0.7mm|YSize=1mm|CornerRadius=0.08mm|HoleSize=0mm|Usage=FLASHONLY|Rotation=0.000|XOffset=0mm|YOffset=0mm|HoleType=Round|Shape=RoundedRectangle|*
%AMROUNDEDRECTD95*
21,1,0.7000,0.8400,0,0,0.0*
21,1,0.5400,1.0000,0,0,0.0*
1,1,0.1600,0.2700,-0.4200*
1,1,0.1600,-0.2700,-0.4200*
1,1,0.1600,-0.2700,0.4200*
1,1,0.1600,0.2700,0.4200*
%
%ADD95ROUNDEDRECTD95*%
G04:AMPARAMS|DCode=96|XSize=1.3mm|YSize=1.6mm|CornerRadius=0.155mm|HoleSize=0mm|Usage=FLASHONLY|Rotation=0.000|XOffset=0mm|YOffset=0mm|HoleType=Round|Shape=RoundedRectangle|*
%AMROUNDEDRECTD96*
21,1,1.3000,1.2900,0,0,0.0*
21,1,0.9900,1.6000,0,0,0.0*
1,1,0.3100,0.4950,-0.6450*
1,1,0.3100,-0.4950,-0.6450*
1,1,0.3100,-0.4950,0.6450*
1,1,0.3100,0.4950,0.6450*
%
%ADD96ROUNDEDRECTD96*%
G04:AMPARAMS|DCode=97|XSize=2.5mm|YSize=4.5mm|CornerRadius=0.215mm|HoleSize=0mm|Usage=FLASHONLY|Rotation=90.000|XOffset=0mm|YOffset=0mm|HoleType=Round|Shape=RoundedRectangle|*
%AMROUNDEDRECTD97*
21,1,2.5000,4.0700,0,0,90.0*
21,1,2.0700,4.5000,0,0,90.0*
1,1,0.4300,2.0350,1.0350*
1,1,0.4300,2.0350,-1.0350*
1,1,0.4300,-2.0350,-1.0350*
1,1,0.4300,-2.0350,1.0350*
%
%ADD97ROUNDEDRECTD97*%
G04:AMPARAMS|DCode=98|XSize=1mm|YSize=1mm|CornerRadius=0.12mm|HoleSize=0mm|Usage=FLASHONLY|Rotation=90.000|XOffset=0mm|YOffset=0mm|HoleType=Round|Shape=RoundedRectangle|*
%AMROUNDEDRECTD98*
21,1,1.0000,0.7600,0,0,90.0*
21,1,0.7600,1.0000,0,0,90.0*
1,1,0.2400,0.3800,0.3800*
1,1,0.2400,0.3800,-0.3800*
1,1,0.2400,-0.3800,-0.3800*
1,1,0.2400,-0.3800,0.3800*
%
%ADD98ROUNDEDRECTD98*%
G04:AMPARAMS|DCode=99|XSize=0.8mm|YSize=1.8mm|CornerRadius=0.13mm|HoleSize=0mm|Usage=FLASHONLY|Rotation=90.000|XOffset=0mm|YOffset=0mm|HoleType=Round|Shape=RoundedRectangle|*
%AMROUNDEDRECTD99*
21,1,0.8000,1.5400,0,0,90.0*
21,1,0.5400,1.8000,0,0,90.0*
1,1,0.2600,0.7700,0.2700*
1,1,0.2600,0.7700,-0.2700*
1,1,0.2600,-0.7700,-0.2700*
1,1,0.2600,-0.7700,0.2700*
%
%ADD99ROUNDEDRECTD99*%
G04:AMPARAMS|DCode=100|XSize=1.7mm|YSize=2.8mm|CornerRadius=0.13mm|HoleSize=0mm|Usage=FLASHONLY|Rotation=270.000|XOffset=0mm|YOffset=0mm|HoleType=Round|Shape=RoundedRectangle|*
%AMROUNDEDRECTD100*
21,1,1.7000,2.5400,0,0,270.0*
21,1,1.4400,2.8000,0,0,270.0*
1,1,0.2600,-1.2700,-0.7200*
1,1,0.2600,-1.2700,0.7200*
1,1,0.2600,1.2700,0.7200*
1,1,0.2600,1.2700,-0.7200*
%
%ADD100ROUNDEDRECTD100*%
G04:AMPARAMS|DCode=101|XSize=1.7032mm|YSize=0.8032mm|CornerRadius=0.1316mm|HoleSize=0mm|Usage=FLASHONLY|Rotation=180.000|XOffset=0mm|YOffset=0mm|HoleType=Round|Shape=RoundedRectangle|*
%AMROUNDEDRECTD101*
21,1,1.7032,0.5400,0,0,180.0*
21,1,1.4400,0.8032,0,0,180.0*
1,1,0.2632,-0.7200,0.2700*
1,1,0.2632,0.7200,0.2700*
1,1,0.2632,0.7200,-0.2700*
1,1,0.2632,-0.7200,-0.2700*
%
%ADD101ROUNDEDRECTD101*%
G04:AMPARAMS|DCode=102|XSize=1.7032mm|YSize=1.5032mm|CornerRadius=0.4266mm|HoleSize=0mm|Usage=FLASHONLY|Rotation=270.000|XOffset=0mm|YOffset=0mm|HoleType=Round|Shape=RoundedRectangle|*
%AMROUNDEDRECTD102*
21,1,1.7032,0.6500,0,0,270.0*
21,1,0.8500,1.5032,0,0,270.0*
1,1,0.8532,-0.3250,-0.4250*
1,1,0.8532,-0.3250,0.4250*
1,1,0.8532,0.3250,0.4250*
1,1,0.8532,0.3250,-0.4250*
%
%ADD102ROUNDEDRECTD102*%
G04:AMPARAMS|DCode=103|XSize=1.7032mm|YSize=1.5032mm|CornerRadius=0.4266mm|HoleSize=0mm|Usage=FLASHONLY|Rotation=180.000|XOffset=0mm|YOffset=0mm|HoleType=Round|Shape=RoundedRectangle|*
%AMROUNDEDRECTD103*
21,1,1.7032,0.6500,0,0,180.0*
21,1,0.8500,1.5032,0,0,180.0*
1,1,0.8532,-0.4250,0.3250*
1,1,0.8532,0.4250,0.3250*
1,1,0.8532,0.4250,-0.3250*
1,1,0.8532,-0.4250,-0.3250*
%
%ADD103ROUNDEDRECTD103*%
G04:AMPARAMS|DCode=104|XSize=1mm|YSize=1.1mm|CornerRadius=0.14mm|HoleSize=0mm|Usage=FLASHONLY|Rotation=0.000|XOffset=0mm|YOffset=0mm|HoleType=Round|Shape=RoundedRectangle|*
%AMROUNDEDRECTD104*
21,1,1.0000,0.8200,0,0,0.0*
21,1,0.7200,1.1000,0,0,0.0*
1,1,0.2800,0.3600,-0.4100*
1,1,0.2800,-0.3600,-0.4100*
1,1,0.2800,-0.3600,0.4100*
1,1,0.2800,0.3600,0.4100*
%
%ADD104ROUNDEDRECTD104*%
G04:AMPARAMS|DCode=105|XSize=1.5032mm|YSize=1.2032mm|CornerRadius=0.1516mm|HoleSize=0mm|Usage=FLASHONLY|Rotation=90.000|XOffset=0mm|YOffset=0mm|HoleType=Round|Shape=RoundedRectangle|*
%AMROUNDEDRECTD105*
21,1,1.5032,0.9000,0,0,90.0*
21,1,1.2000,1.2032,0,0,90.0*
1,1,0.3032,0.4500,0.6000*
1,1,0.3032,0.4500,-0.6000*
1,1,0.3032,-0.4500,-0.6000*
1,1,0.3032,-0.4500,0.6000*
%
%ADD105ROUNDEDRECTD105*%
G04:AMPARAMS|DCode=106|XSize=1.7mm|YSize=2.6mm|CornerRadius=0.175mm|HoleSize=0mm|Usage=FLASHONLY|Rotation=0.000|XOffset=0mm|YOffset=0mm|HoleType=Round|Shape=RoundedRectangle|*
%AMROUNDEDRECTD106*
21,1,1.7000,2.2500,0,0,0.0*
21,1,1.3500,2.6000,0,0,0.0*
1,1,0.3500,0.6750,-1.1250*
1,1,0.3500,-0.6750,-1.1250*
1,1,0.3500,-0.6750,1.1250*
1,1,0.3500,0.6750,1.1250*
%
%ADD106ROUNDEDRECTD106*%
G04:AMPARAMS|DCode=107|XSize=0.6mm|YSize=0.6mm|CornerRadius=0.075mm|HoleSize=0mm|Usage=FLASHONLY|Rotation=90.000|XOffset=0mm|YOffset=0mm|HoleType=Round|Shape=RoundedRectangle|*
%AMROUNDEDRECTD107*
21,1,0.6000,0.4500,0,0,90.0*
21,1,0.4500,0.6000,0,0,90.0*
1,1,0.1500,0.2250,0.2250*
1,1,0.1500,0.2250,-0.2250*
1,1,0.1500,-0.2250,-0.2250*
1,1,0.1500,-0.2250,0.2250*
%
%ADD107ROUNDEDRECTD107*%
G04:AMPARAMS|DCode=108|XSize=0.4mm|YSize=1.1mm|CornerRadius=0.065mm|HoleSize=0mm|Usage=FLASHONLY|Rotation=0.000|XOffset=0mm|YOffset=0mm|HoleType=Round|Shape=RoundedRectangle|*
%AMROUNDEDRECTD108*
21,1,0.4000,0.9700,0,0,0.0*
21,1,0.2700,1.1000,0,0,0.0*
1,1,0.1300,0.1350,-0.4850*
1,1,0.1300,-0.1350,-0.4850*
1,1,0.1300,-0.1350,0.4850*
1,1,0.1300,0.1350,0.4850*
%
%ADD108ROUNDEDRECTD108*%
G04:AMPARAMS|DCode=109|XSize=0.4mm|YSize=1.1mm|CornerRadius=0.065mm|HoleSize=0mm|Usage=FLASHONLY|Rotation=270.000|XOffset=0mm|YOffset=0mm|HoleType=Round|Shape=RoundedRectangle|*
%AMROUNDEDRECTD109*
21,1,0.4000,0.9700,0,0,270.0*
21,1,0.2700,1.1000,0,0,270.0*
1,1,0.1300,-0.4850,-0.1350*
1,1,0.1300,-0.4850,0.1350*
1,1,0.1300,0.4850,0.1350*
1,1,0.1300,0.4850,-0.1350*
%
%ADD109ROUNDEDRECTD109*%
G04:AMPARAMS|DCode=110|XSize=3.25mm|YSize=3.25mm|CornerRadius=0.2075mm|HoleSize=0mm|Usage=FLASHONLY|Rotation=270.000|XOffset=0mm|YOffset=0mm|HoleType=Round|Shape=RoundedRectangle|*
%AMROUNDEDRECTD110*
21,1,3.2500,2.8350,0,0,270.0*
21,1,2.8350,3.2500,0,0,270.0*
1,1,0.4150,-1.4175,-1.4175*
1,1,0.4150,-1.4175,1.4175*
1,1,0.4150,1.4175,1.4175*
1,1,0.4150,1.4175,-1.4175*
%
%ADD110ROUNDEDRECTD110*%
G04:AMPARAMS|DCode=111|XSize=3.72mm|YSize=3.72mm|CornerRadius=0.276mm|HoleSize=0mm|Usage=FLASHONLY|Rotation=180.000|XOffset=0mm|YOffset=0mm|HoleType=Round|Shape=RoundedRectangle|*
%AMROUNDEDRECTD111*
21,1,3.7200,3.1680,0,0,180.0*
21,1,3.1680,3.7200,0,0,180.0*
1,1,0.5520,-1.5840,1.5840*
1,1,0.5520,1.5840,1.5840*
1,1,0.5520,1.5840,-1.5840*
1,1,0.5520,-1.5840,-1.5840*
%
%ADD111ROUNDEDRECTD111*%
G04:AMPARAMS|DCode=112|XSize=0.8mm|YSize=0.6mm|CornerRadius=0.12mm|HoleSize=0mm|Usage=FLASHONLY|Rotation=90.000|XOffset=0mm|YOffset=0mm|HoleType=Round|Shape=RoundedRectangle|*
%AMROUNDEDRECTD112*
21,1,0.8000,0.3600,0,0,90.0*
21,1,0.5600,0.6000,0,0,90.0*
1,1,0.2400,0.1800,0.2800*
1,1,0.2400,0.1800,-0.2800*
1,1,0.2400,-0.1800,-0.2800*
1,1,0.2400,-0.1800,0.2800*
%
%ADD112ROUNDEDRECTD112*%
G04:AMPARAMS|DCode=113|XSize=3.72mm|YSize=3.72mm|CornerRadius=0.276mm|HoleSize=0mm|Usage=FLASHONLY|Rotation=270.000|XOffset=0mm|YOffset=0mm|HoleType=Round|Shape=RoundedRectangle|*
%AMROUNDEDRECTD113*
21,1,3.7200,3.1680,0,0,270.0*
21,1,3.1680,3.7200,0,0,270.0*
1,1,0.5520,-1.5840,-1.5840*
1,1,0.5520,-1.5840,1.5840*
1,1,0.5520,1.5840,1.5840*
1,1,0.5520,1.5840,-1.5840*
%
%ADD113ROUNDEDRECTD113*%
%ADD114R,1.3032X1.6032*%
G04:AMPARAMS|DCode=115|XSize=3.6mm|YSize=2.8mm|CornerRadius=0.275mm|HoleSize=0mm|Usage=FLASHONLY|Rotation=90.000|XOffset=0mm|YOffset=0mm|HoleType=Round|Shape=RoundedRectangle|*
%AMROUNDEDRECTD115*
21,1,3.6000,2.2500,0,0,90.0*
21,1,3.0500,2.8000,0,0,90.0*
1,1,0.5500,1.1250,1.5250*
1,1,0.5500,1.1250,-1.5250*
1,1,0.5500,-1.1250,-1.5250*
1,1,0.5500,-1.1250,1.5250*
%
%ADD115ROUNDEDRECTD115*%
G04:AMPARAMS|DCode=116|XSize=4.2mm|YSize=2.2mm|CornerRadius=0.2mm|HoleSize=0mm|Usage=FLASHONLY|Rotation=90.000|XOffset=0mm|YOffset=0mm|HoleType=Round|Shape=RoundedRectangle|*
%AMROUNDEDRECTD116*
21,1,4.2000,1.8000,0,0,90.0*
21,1,3.8000,2.2000,0,0,90.0*
1,1,0.4000,0.9000,1.9000*
1,1,0.4000,0.9000,-1.9000*
1,1,0.4000,-0.9000,-1.9000*
1,1,0.4000,-0.9000,1.9000*
%
%ADD116ROUNDEDRECTD116*%
G04:AMPARAMS|DCode=117|XSize=1.15mm|YSize=1.15mm|CornerRadius=0.1475mm|HoleSize=0mm|Usage=FLASHONLY|Rotation=90.000|XOffset=0mm|YOffset=0mm|HoleType=Round|Shape=RoundedRectangle|*
%AMROUNDEDRECTD117*
21,1,1.1500,0.8550,0,0,90.0*
21,1,0.8550,1.1500,0,0,90.0*
1,1,0.2950,0.4275,0.4275*
1,1,0.2950,0.4275,-0.4275*
1,1,0.2950,-0.4275,-0.4275*
1,1,0.2950,-0.4275,0.4275*
%
%ADD117ROUNDEDRECTD117*%
G04:AMPARAMS|DCode=118|XSize=4.3mm|YSize=2.2mm|CornerRadius=0.35mm|HoleSize=0mm|Usage=FLASHONLY|Rotation=180.000|XOffset=0mm|YOffset=0mm|HoleType=Round|Shape=RoundedRectangle|*
%AMROUNDEDRECTD118*
21,1,4.3000,1.5000,0,0,180.0*
21,1,3.6000,2.2000,0,0,180.0*
1,1,0.7000,-1.8000,0.7500*
1,1,0.7000,1.8000,0.7500*
1,1,0.7000,1.8000,-0.7500*
1,1,0.7000,-1.8000,-0.7500*
%
%ADD118ROUNDEDRECTD118*%
G04:AMPARAMS|DCode=119|XSize=2.6mm|YSize=3.5mm|CornerRadius=0.22mm|HoleSize=0mm|Usage=FLASHONLY|Rotation=180.000|XOffset=0mm|YOffset=0mm|HoleType=Round|Shape=RoundedRectangle|*
%AMROUNDEDRECTD119*
21,1,2.6000,3.0600,0,0,180.0*
21,1,2.1600,3.5000,0,0,180.0*
1,1,0.4400,-1.0800,1.5300*
1,1,0.4400,1.0800,1.5300*
1,1,0.4400,1.0800,-1.5300*
1,1,0.4400,-1.0800,-1.5300*
%
%ADD119ROUNDEDRECTD119*%
G04:AMPARAMS|DCode=120|XSize=3.6mm|YSize=2.8mm|CornerRadius=0.275mm|HoleSize=0mm|Usage=FLASHONLY|Rotation=180.000|XOffset=0mm|YOffset=0mm|HoleType=Round|Shape=RoundedRectangle|*
%AMROUNDEDRECTD120*
21,1,3.6000,2.2500,0,0,180.0*
21,1,3.0500,2.8000,0,0,180.0*
1,1,0.5500,-1.5250,1.1250*
1,1,0.5500,1.5250,1.1250*
1,1,0.5500,1.5250,-1.1250*
1,1,0.5500,-1.5250,-1.1250*
%
%ADD120ROUNDEDRECTD120*%
G04:AMPARAMS|DCode=121|XSize=1.6mm|YSize=4.7mm|CornerRadius=0.125mm|HoleSize=0mm|Usage=FLASHONLY|Rotation=180.000|XOffset=0mm|YOffset=0mm|HoleType=Round|Shape=RoundedRectangle|*
%AMROUNDEDRECTD121*
21,1,1.6000,4.4500,0,0,180.0*
21,1,1.3500,4.7000,0,0,180.0*
1,1,0.2500,-0.6750,2.2250*
1,1,0.2500,0.6750,2.2250*
1,1,0.2500,0.6750,-2.2250*
1,1,0.2500,-0.6750,-2.2250*
%
%ADD121ROUNDEDRECTD121*%
G04:AMPARAMS|DCode=122|XSize=2.2mm|YSize=2.6mm|CornerRadius=0.2mm|HoleSize=0mm|Usage=FLASHONLY|Rotation=90.000|XOffset=0mm|YOffset=0mm|HoleType=Round|Shape=RoundedRectangle|*
%AMROUNDEDRECTD122*
21,1,2.2000,2.2000,0,0,90.0*
21,1,1.8000,2.6000,0,0,90.0*
1,1,0.4000,1.1000,0.9000*
1,1,0.4000,1.1000,-0.9000*
1,1,0.4000,-1.1000,-0.9000*
1,1,0.4000,-1.1000,0.9000*
%
%ADD122ROUNDEDRECTD122*%
%ADD123C,1.8000*%
%ADD124C,3.4000*%
%ADD125O,1.4532X1.0032*%
%ADD126O,1.1032X1.9032*%
%ADD127C,1.7000*%
%ADD128C,0.7300*%
%ADD129C,2.7000*%
%ADD130C,2.0032*%
%ADD131C,3.7032*%
%ADD132C,1.4732*%
D29*
X677030Y657860D02*
D03*
X665600Y545030D02*
D03*
D69*
X677030Y657860D02*
D03*
X665600Y545030D02*
D03*
D70*
X1277880Y1257895D02*
D03*
X1119880D02*
D03*
Y1131095D02*
D03*
X1277880D02*
D03*
D71*
X1262280Y1106845D02*
D03*
X1249580D02*
D03*
X1236880D02*
D03*
X1224180D02*
D03*
X1211480D02*
D03*
X1198780D02*
D03*
D72*
X573230Y1216330D02*
D03*
X566730D02*
D03*
X560230D02*
D03*
X553730D02*
D03*
X547230D02*
D03*
D73*
X550230Y1243330D02*
D03*
X570230D02*
D03*
D74*
X1148170Y935990D02*
D03*
X1116330D02*
D03*
D75*
X958850Y436970D02*
D03*
Y405130D02*
D03*
D76*
X895960Y648000D02*
D03*
X876960D02*
D03*
X895960Y622000D02*
D03*
X886460D02*
D03*
X876960D02*
D03*
D77*
X402210Y562360D02*
D03*
Y588260D02*
D03*
X481710Y562360D02*
D03*
Y588260D02*
D03*
X477900Y786380D02*
D03*
Y760480D02*
D03*
X398400Y786380D02*
D03*
Y760480D02*
D03*
X516000Y392680D02*
D03*
Y366780D02*
D03*
X436500Y392680D02*
D03*
Y366780D02*
D03*
D78*
X439420Y1220470D02*
D03*
X505460D02*
D03*
X452120Y905510D02*
D03*
X518160D02*
D03*
D79*
X1107070Y782320D02*
D03*
X1092570D02*
D03*
X735860Y622300D02*
D03*
X721360D02*
D03*
X1250580Y990600D02*
D03*
X1236080D02*
D03*
D80*
X522730Y689610D02*
D03*
X506730D02*
D03*
X705230Y708659D02*
D03*
X689230D02*
D03*
D81*
X732790Y665620D02*
D03*
Y683120D02*
D03*
X1196340Y727570D02*
D03*
Y710070D02*
D03*
X297180Y1026300D02*
D03*
Y1043800D02*
D03*
X438150Y838060D02*
D03*
Y820560D02*
D03*
X1626870Y726720D02*
D03*
Y744220D02*
D03*
X1626870Y406540D02*
D03*
Y424040D02*
D03*
X711200Y603110D02*
D03*
Y585610D02*
D03*
X636270Y589420D02*
D03*
Y606920D02*
D03*
X1236980Y411620D02*
D03*
Y429120D02*
D03*
X1366520Y562710D02*
D03*
Y545210D02*
D03*
X1320800Y545360D02*
D03*
Y562860D02*
D03*
X430530Y1121270D02*
D03*
Y1103770D02*
D03*
X1626870Y581660D02*
D03*
Y564160D02*
D03*
X402590Y688480D02*
D03*
Y705980D02*
D03*
X1539240Y496430D02*
D03*
Y478930D02*
D03*
X1515110Y431660D02*
D03*
Y414160D02*
D03*
X572770Y395110D02*
D03*
Y412610D02*
D03*
X1518920Y542430D02*
D03*
Y559930D02*
D03*
X1513840Y355460D02*
D03*
Y337960D02*
D03*
X1179830Y429120D02*
D03*
Y411620D02*
D03*
X769620Y669150D02*
D03*
Y651650D02*
D03*
X603250Y589420D02*
D03*
Y606920D02*
D03*
X781050Y549770D02*
D03*
Y532270D02*
D03*
X636270Y395110D02*
D03*
Y412610D02*
D03*
X741680Y532270D02*
D03*
Y549770D02*
D03*
D82*
X1261360Y620650D02*
D03*
X1235460D02*
D03*
X1261360Y700150D02*
D03*
X1235460D02*
D03*
X1550920Y621920D02*
D03*
X1525020D02*
D03*
X1550920Y701420D02*
D03*
X1525020D02*
D03*
X1307850Y702690D02*
D03*
X1333750D02*
D03*
X1307850Y623190D02*
D03*
X1333750D02*
D03*
X1448820Y701420D02*
D03*
X1474720D02*
D03*
X1448820Y621920D02*
D03*
X1474720D02*
D03*
X1376180Y700530D02*
D03*
X1402080D02*
D03*
X1376180Y621030D02*
D03*
X1402080D02*
D03*
D83*
X810720Y408940D02*
D03*
X868220D02*
D03*
D84*
X648280Y676910D02*
D03*
Y664210D02*
D03*
Y651510D02*
D03*
Y638810D02*
D03*
X705780Y651510D02*
D03*
Y676910D02*
D03*
Y664210D02*
D03*
Y638810D02*
D03*
X636850Y564080D02*
D03*
Y551380D02*
D03*
Y538680D02*
D03*
Y525980D02*
D03*
X694350Y538680D02*
D03*
Y564080D02*
D03*
Y551380D02*
D03*
Y525980D02*
D03*
D85*
X541160Y751840D02*
D03*
X622160D02*
D03*
D86*
X1405890Y373380D02*
D03*
D87*
X1480890Y298380D02*
D03*
Y311080D02*
D03*
Y323780D02*
D03*
Y336480D02*
D03*
Y349180D02*
D03*
Y361880D02*
D03*
Y374580D02*
D03*
Y387280D02*
D03*
Y399980D02*
D03*
Y412680D02*
D03*
Y425380D02*
D03*
Y438080D02*
D03*
Y450780D02*
D03*
Y463480D02*
D03*
X1310890D02*
D03*
Y450780D02*
D03*
Y438080D02*
D03*
Y425380D02*
D03*
Y412680D02*
D03*
Y399980D02*
D03*
Y387280D02*
D03*
Y374580D02*
D03*
Y361880D02*
D03*
Y349180D02*
D03*
Y336480D02*
D03*
Y323780D02*
D03*
Y311080D02*
D03*
Y298380D02*
D03*
D88*
X1453040Y473480D02*
D03*
X1440340D02*
D03*
X1427640D02*
D03*
X1414940D02*
D03*
X1402240D02*
D03*
X1389540D02*
D03*
X1376840D02*
D03*
X1364140D02*
D03*
X1351440D02*
D03*
X1338740D02*
D03*
D89*
X1220470Y569390D02*
D03*
Y527890D02*
D03*
D90*
X997790Y349250D02*
D03*
X1039290D02*
D03*
D91*
X510540Y820930D02*
D03*
Y836930D02*
D03*
X1004570Y406020D02*
D03*
Y422020D02*
D03*
X1040130Y455550D02*
D03*
Y471550D02*
D03*
X1129030Y412370D02*
D03*
Y428370D02*
D03*
X833120Y912240D02*
D03*
Y896240D02*
D03*
X707390Y933450D02*
D03*
Y949450D02*
D03*
X706120Y1000760D02*
D03*
Y1016760D02*
D03*
X882650Y910970D02*
D03*
Y894970D02*
D03*
X927100Y912240D02*
D03*
Y896240D02*
D03*
X1557020Y782320D02*
D03*
Y766320D02*
D03*
X1071880Y411100D02*
D03*
Y427100D02*
D03*
X928370Y526920D02*
D03*
Y510920D02*
D03*
X703580Y394960D02*
D03*
Y410960D02*
D03*
X549910Y550800D02*
D03*
Y566800D02*
D03*
D92*
X1129710Y753260D02*
D03*
X1108710Y746760D02*
D03*
Y759760D02*
D03*
D93*
X926590Y1116407D02*
D03*
Y1017407D02*
D03*
X767590Y1127407D02*
D03*
Y1116407D02*
D03*
Y1105407D02*
D03*
X926590Y1105407D02*
D03*
X767590Y1083407D02*
D03*
Y1072407D02*
D03*
X926590Y1094407D02*
D03*
Y1083407D02*
D03*
Y1061407D02*
D03*
Y1006407D02*
D03*
Y1028407D02*
D03*
Y1039407D02*
D03*
Y1050407D02*
D03*
Y1127407D02*
D03*
X767590Y1094407D02*
D03*
Y1061407D02*
D03*
Y1050407D02*
D03*
Y1039407D02*
D03*
Y1028407D02*
D03*
Y1006407D02*
D03*
X926590Y1072407D02*
D03*
X767590Y1017407D02*
D03*
D94*
X880090Y1155907D02*
D03*
X858090D02*
D03*
X847090D02*
D03*
X836090D02*
D03*
X825090D02*
D03*
X814090D02*
D03*
X803090D02*
D03*
X802929Y977693D02*
D03*
X813929D02*
D03*
X824929D02*
D03*
X835929D02*
D03*
X846929D02*
D03*
X857929D02*
D03*
X868929D02*
D03*
X879929D02*
D03*
X890929D02*
D03*
X891090Y1155907D02*
D03*
X869090D02*
D03*
D95*
X926712Y683516D02*
D03*
X917211Y662516D02*
D03*
X936211D02*
D03*
X549300Y961730D02*
D03*
X568300D02*
D03*
X558800Y940730D02*
D03*
D96*
X774700Y900430D02*
D03*
X757200D02*
D03*
X566280Y1097280D02*
D03*
X548780D02*
D03*
X566420Y1047750D02*
D03*
X548920D02*
D03*
X567550Y1146810D02*
D03*
X550050D02*
D03*
X567550Y1000760D02*
D03*
X550050D02*
D03*
X1375270Y755650D02*
D03*
X1357770D02*
D03*
X407810Y492760D02*
D03*
X425310D02*
D03*
X473850Y721360D02*
D03*
X491350D02*
D03*
X490360Y303530D02*
D03*
X507860D02*
D03*
X377330Y1033780D02*
D03*
X394830D02*
D03*
X411340Y1177290D02*
D03*
X393840D02*
D03*
D97*
X1062990Y1068550D02*
D03*
Y1001550D02*
D03*
D98*
X849629Y1195960D02*
D03*
Y1211960D02*
D03*
X894080Y1196340D02*
D03*
Y1212340D02*
D03*
X807719Y1197230D02*
D03*
Y1213230D02*
D03*
X689610Y762510D02*
D03*
Y778510D02*
D03*
D99*
X1206900Y1052780D02*
D03*
Y1043280D02*
D03*
Y1033780D02*
D03*
X1233900Y1052780D02*
D03*
Y1043280D02*
D03*
Y1033780D02*
D03*
D100*
X835660Y627310D02*
D03*
Y650310D02*
D03*
D101*
X756680Y831240D02*
D03*
Y850240D02*
D03*
X726680Y831240D02*
D03*
Y840740D02*
D03*
Y850240D02*
D03*
X659370Y851510D02*
D03*
Y832510D02*
D03*
X689370Y851510D02*
D03*
Y842010D02*
D03*
Y832510D02*
D03*
D102*
X654100Y962660D02*
D03*
X673100D02*
D03*
D103*
X706120Y1082650D02*
D03*
Y1063650D02*
D03*
X1278890Y542950D02*
D03*
Y561950D02*
D03*
D104*
X652780Y1095850D02*
D03*
X643280Y1075850D02*
D03*
X662280D02*
D03*
X601980Y1094580D02*
D03*
X592480Y1074580D02*
D03*
X611480D02*
D03*
D105*
X642240Y1027430D02*
D03*
X658240D02*
D03*
X919860Y850900D02*
D03*
X903860D02*
D03*
X996570Y706120D02*
D03*
X1012570D02*
D03*
X912750Y346710D02*
D03*
X928750D02*
D03*
X581280Y486410D02*
D03*
X597280D02*
D03*
D106*
X1473730Y775970D02*
D03*
X1444730D02*
D03*
D107*
X513760Y1113200D02*
D03*
D108*
X477760Y1117200D02*
D03*
X482760D02*
D03*
X487760D02*
D03*
X492760D02*
D03*
X497760D02*
D03*
X502760D02*
D03*
X507760Y1067200D02*
D03*
X502760D02*
D03*
X497760D02*
D03*
X492760D02*
D03*
X487760D02*
D03*
X482760D02*
D03*
X477760D02*
D03*
X507760Y1117200D02*
D03*
D109*
X517760Y1107200D02*
D03*
Y1102200D02*
D03*
Y1097200D02*
D03*
Y1092200D02*
D03*
Y1087200D02*
D03*
Y1082200D02*
D03*
Y1077200D02*
D03*
X467760Y1077200D02*
D03*
Y1082200D02*
D03*
Y1087200D02*
D03*
Y1092200D02*
D03*
Y1097200D02*
D03*
Y1102200D02*
D03*
Y1107200D02*
D03*
D110*
X492760Y1092200D02*
D03*
D111*
X1272410Y938530D02*
D03*
X1186310D02*
D03*
D112*
X1280310Y886800D02*
D03*
X1267310D02*
D03*
X1273810Y865800D02*
D03*
D113*
X988060Y650110D02*
D03*
Y564010D02*
D03*
D114*
X348100Y1127760D02*
D03*
X363100D02*
D03*
D115*
X441750Y642620D02*
D03*
X510750D02*
D03*
D116*
X849630Y485200D02*
D03*
Y556200D02*
D03*
D117*
X755650Y408710D02*
D03*
Y394210D02*
D03*
X648970Y697970D02*
D03*
Y712470D02*
D03*
X544830Y668020D02*
D03*
Y653520D02*
D03*
X580390Y667650D02*
D03*
Y653150D02*
D03*
X1049020Y601450D02*
D03*
Y615950D02*
D03*
X1028769Y762415D02*
D03*
Y747915D02*
D03*
X1165860Y613780D02*
D03*
Y628280D02*
D03*
X831850Y851800D02*
D03*
Y837300D02*
D03*
D118*
X996630Y855980D02*
D03*
X1083630D02*
D03*
D119*
X678160Y308610D02*
D03*
X612160D02*
D03*
D120*
X506730Y449370D02*
D03*
Y518370D02*
D03*
D121*
X590180Y901700D02*
D03*
X639180D02*
D03*
D122*
X1447800Y571500D02*
D03*
Y522500D02*
D03*
X1113790Y627750D02*
D03*
Y578750D02*
D03*
D123*
X1694180Y778510D02*
D03*
Y727710D02*
D03*
Y563880D02*
D03*
Y614680D02*
D03*
Y455930D02*
D03*
Y405130D02*
D03*
X336550Y899160D02*
D03*
Y949960D02*
D03*
X363220Y1098550D02*
D03*
X312420D02*
D03*
X337820D02*
D03*
X1049020Y1224280D02*
D03*
X1074420D02*
D03*
X492760Y1092202D02*
D03*
X1375410Y1169670D02*
D03*
X1324610D02*
D03*
X1493520D02*
D03*
X1442720D02*
D03*
X1611630Y1167130D02*
D03*
X1560830D02*
D03*
X1736090Y1165860D02*
D03*
X1685290D02*
D03*
X336550Y810260D02*
D03*
Y759460D02*
D03*
Y708660D02*
D03*
Y615950D02*
D03*
Y565150D02*
D03*
Y514350D02*
D03*
X337820Y422910D02*
D03*
Y372110D02*
D03*
X336550Y1178560D02*
D03*
X361950D02*
D03*
X311150D02*
D03*
D124*
X1750060Y280670D02*
D03*
X1752600Y1243330D02*
D03*
X279400Y280670D02*
D03*
Y1243330D02*
D03*
D125*
X585230Y1216330D02*
D03*
X535230D02*
D03*
D126*
X525228Y1243330D02*
D03*
X595230D02*
D03*
D127*
X906780Y599440D02*
D03*
X1513840Y312420D02*
D03*
X1412240Y778510D02*
D03*
X1017270Y1002030D02*
D03*
X1151890Y576580D02*
D03*
D128*
X669530Y645360D02*
D03*
X684530D02*
D03*
Y670360D02*
D03*
X669530D02*
D03*
Y657860D02*
D03*
X684530D02*
D03*
X658100Y532530D02*
D03*
X673100D02*
D03*
Y557530D02*
D03*
X658100D02*
D03*
Y545030D02*
D03*
X673100D02*
D03*
D129*
X722630Y1223010D02*
D03*
Y1172210D02*
D03*
X671830D02*
D03*
Y1223010D02*
D03*
X697230Y1197610D02*
D03*
D130*
X1455420Y866140D02*
D03*
X1353820D02*
D03*
X1694180Y867410D02*
D03*
X1592580D02*
D03*
D131*
X1493520Y1018540D02*
D03*
X1315720Y993140D02*
D03*
X1732280Y1019810D02*
D03*
X1554480Y994410D02*
D03*
D132*
X1286510Y441960D02*
D03*
X665480Y712470D02*
D03*
X693420Y735330D02*
D03*
X668020Y777240D02*
D03*
X688340Y595630D02*
D03*
X556260Y425450D02*
D03*
X562610Y486410D02*
D03*
X581660Y1075690D02*
D03*
D03*
X584200Y1141730D02*
D03*
X623570Y1073150D02*
D03*
X654050Y1007110D02*
D03*
X708660Y1141730D02*
D03*
X902970Y902970D02*
D03*
X821690Y929640D02*
D03*
X803698Y901758D02*
D03*
X831850Y869950D02*
D03*
X755650Y930910D02*
D03*
X1628140Y604520D02*
D03*
X706547Y850107D02*
D03*
X885190Y579120D02*
D03*
X1253490Y1042670D02*
D03*
X1181100Y523240D02*
D03*
X1151890D02*
D03*
X1102360Y521970D02*
D03*
X538140Y940730D02*
D03*
X740410Y900430D02*
D03*
X514350Y1169670D02*
D03*
X449580Y1164590D02*
D03*
X459200Y784860D02*
D03*
X436880Y778510D02*
D03*
X396240Y1154430D02*
D03*
X481330Y1146810D02*
D03*
X679450Y989330D02*
D03*
X723900Y934720D02*
D03*
X1068070Y673100D02*
D03*
X1386840Y646430D02*
D03*
X1068070Y599440D02*
D03*
X1052830Y558800D02*
D03*
X981710Y595630D02*
D03*
X875030Y701040D02*
D03*
X891540Y1130300D02*
D03*
X901700Y1084580D02*
D03*
X815340Y998220D02*
D03*
X641350Y1059180D02*
D03*
X869190Y895350D02*
D03*
X440690Y487680D02*
D03*
X1460500Y398780D02*
D03*
X1236980Y647700D02*
D03*
X1143000Y742950D02*
D03*
X563880Y1130300D02*
D03*
X975360Y704850D02*
D03*
X909320Y1017270D02*
D03*
X1082040Y746760D02*
D03*
X1181100Y613410D02*
D03*
X956310Y1007110D02*
D03*
X1289050Y422910D02*
D03*
X1112900Y428370D02*
D03*
X577850Y1035050D02*
D03*
X1290320Y337820D02*
D03*
X789940Y1007110D02*
D03*
X836930Y996950D02*
D03*
X937260Y683260D02*
D03*
X932180Y436880D02*
D03*
X1202830Y429120D02*
D03*
X1063370Y471550D02*
D03*
X476980Y642620D02*
D03*
X580530Y606920D02*
D03*
X463550Y303530D02*
D03*
Y384810D02*
D03*
X839470Y1120140D02*
D03*
X821690Y1131570D02*
D03*
X839470Y1239520D02*
D03*
X1174750Y1088390D02*
D03*
X1139190Y1130300D02*
D03*
X1211580Y1123950D02*
D03*
X932690Y1212340D02*
D03*
X912020Y1205070D02*
D03*
X1217930Y728980D02*
D03*
X1292860Y707390D02*
D03*
X1536560Y431660D02*
D03*
X1459230Y678180D02*
D03*
X1490980Y774700D02*
D03*
X1604010Y744220D02*
D03*
X1581660Y766320D02*
D03*
X1532890Y783590D02*
D03*
X895350Y346710D02*
D03*
X882650Y449580D02*
D03*
X960120Y384810D02*
D03*
X1040130Y438150D02*
D03*
X527940Y566800D02*
D03*
X601980Y653320D02*
D03*
X562610Y659130D02*
D03*
X624840Y651510D02*
D03*
X664350Y606920D02*
D03*
X1051560Y855980D02*
D03*
X1113790Y796290D02*
D03*
X1037590Y707390D02*
D03*
X1051331Y748030D02*
D03*
X751980Y702310D02*
D03*
X459990Y588260D02*
D03*
X509270Y721360D02*
D03*
X803090Y1132390D02*
D03*
X789940Y1073150D02*
D03*
X790526Y1031240D02*
D03*
X673100Y1075690D02*
D03*
X530860Y1108710D02*
D03*
X529589Y1070998D02*
D03*
X430530Y1137920D02*
D03*
X350520Y1045210D02*
D03*
X310021Y1013460D02*
D03*
X330200Y1127760D02*
D03*
X637540Y834390D02*
D03*
X621030Y779780D02*
D03*
X725170Y999490D02*
D03*
X1076960Y782320D02*
D03*
X1012190Y764540D02*
D03*
X1028700Y855980D02*
D03*
X547370Y822960D02*
D03*
X810260Y628650D02*
D03*
X660400Y457200D02*
D03*
X506730Y499110D02*
D03*
X509270Y472440D02*
D03*
X617220Y486410D02*
D03*
X702310Y426720D02*
D03*
X674370Y842010D02*
D03*
X742879Y839530D02*
D03*
X858520Y836930D02*
D03*
X514350Y1130300D02*
D03*
X422910Y706120D02*
D03*
X415290Y836930D02*
D03*
X513080Y858140D02*
D03*
X617220Y904240D02*
D03*
X1531620Y681990D02*
D03*
X1546860Y595630D02*
D03*
X1494790Y538480D02*
D03*
X1452880Y446090D02*
D03*
X1474595Y598295D02*
D03*
X1474470Y483870D02*
D03*
X1626870Y443230D02*
D03*
X1537970Y355600D02*
D03*
X1437640Y373380D02*
D03*
X1332230Y299720D02*
D03*
X1261110Y595630D02*
D03*
X1338580Y494030D02*
D03*
X1259840Y562610D02*
D03*
X1220470Y591820D02*
D03*
X1187444Y1113790D02*
D03*
X1187450Y1043940D02*
D03*
X1267460Y993140D02*
D03*
X1217930Y938530D02*
D03*
X1150620Y913130D02*
D03*
X1256030Y886460D02*
D03*
X1417320Y569860D02*
D03*
X1449070Y549540D02*
D03*
X1356360Y732790D02*
D03*
X1148080Y628650D02*
D03*
X1113790Y605790D02*
D03*
X1069340Y622300D02*
D03*
X930910Y546100D02*
D03*
X988060Y539750D02*
D03*
X927100Y495300D02*
D03*
X1539240Y559680D02*
D03*
X1532890Y642620D02*
D03*
X1455420Y643890D02*
D03*
X1316990Y646430D02*
D03*
X850900Y518160D02*
D03*
X784860Y515620D02*
D03*
X741680Y515620D02*
D03*
X659130Y309880D02*
D03*
X635000Y308610D02*
D03*
X524510Y304800D02*
D03*
X754380Y375920D02*
D03*
X942340Y346710D02*
D03*
X1004570Y443230D02*
D03*
X1257300Y410210D02*
D03*
X1427410Y323780D02*
D03*
X1460500Y300990D02*
D03*
X718620Y536480D02*
D03*
X1261110Y1134110D02*
D03*
X1253410Y1254760D02*
D03*
X1144865Y1257895D02*
D03*
X1062990Y1046480D02*
D03*
X1116330Y972820D02*
D03*
X983513Y349250D02*
D03*
X1129030Y397510D02*
D03*
X1070610Y394970D02*
D03*
X1004570Y391160D02*
D03*
M02*
