G04*
G04 #@! TF.GenerationSoftware,Altium Limited,Altium Designer,23.7.1 (13)*
G04*
G04 Layer_Physical_Order=4*
G04 Layer_Color=16711680*
%FSLAX44Y44*%
%MOMM*%
G71*
G04*
G04 #@! TF.SameCoordinates,D80BC081-2A64-476D-8097-51FF93FC0A54*
G04*
G04*
G04 #@! TF.FilePolarity,Positive*
G04*
G01*
G75*
%ADD13C,0.2540*%
%ADD123C,1.8000*%
%ADD191C,1.6000*%
%ADD192C,3.2000*%
%ADD193O,1.2500X0.8000*%
%ADD194O,0.9000X1.7000*%
%ADD195C,1.5000*%
%ADD196C,0.3300*%
%ADD197C,2.5000*%
%ADD198C,1.4000*%
%ADD199C,3.5000*%
%ADD200C,1.2700*%
G36*
X1770940Y1249409D02*
X1769670Y1249157D01*
X1768551Y1251856D01*
X1766582Y1254804D01*
X1764074Y1257311D01*
X1761126Y1259281D01*
X1757850Y1260638D01*
X1754373Y1261330D01*
X1750827D01*
X1747350Y1260638D01*
X1744074Y1259281D01*
X1741126Y1257311D01*
X1738618Y1254804D01*
X1736649Y1251856D01*
X1735292Y1248580D01*
X1734600Y1245103D01*
Y1241557D01*
X1735292Y1238080D01*
X1736649Y1234804D01*
X1738618Y1231856D01*
X1741126Y1229349D01*
X1744074Y1227379D01*
X1747350Y1226022D01*
X1750827Y1225330D01*
X1754373D01*
X1757850Y1226022D01*
X1761126Y1227379D01*
X1764074Y1229349D01*
X1766582Y1231856D01*
X1768551Y1234804D01*
X1769670Y1237503D01*
X1770940Y1237251D01*
Y261060D01*
X261060D01*
Y274591D01*
X262330Y274843D01*
X263449Y272144D01*
X265418Y269196D01*
X267926Y266688D01*
X270874Y264719D01*
X274150Y263362D01*
X277627Y262670D01*
X281173D01*
X284650Y263362D01*
X287926Y264719D01*
X290874Y266688D01*
X293382Y269196D01*
X295351Y272144D01*
X296708Y275420D01*
X297400Y278897D01*
Y282443D01*
X296708Y285920D01*
X295351Y289196D01*
X293382Y292144D01*
X290874Y294652D01*
X287926Y296621D01*
X284650Y297978D01*
X281173Y298670D01*
X277627D01*
X274150Y297978D01*
X270874Y296621D01*
X267926Y294652D01*
X265418Y292144D01*
X263449Y289196D01*
X262330Y286497D01*
X261060Y286749D01*
Y1237251D01*
X262330Y1237503D01*
X263449Y1234804D01*
X265418Y1231856D01*
X267926Y1229349D01*
X270874Y1227379D01*
X274150Y1226022D01*
X277627Y1225330D01*
X281173D01*
X284650Y1226022D01*
X287926Y1227379D01*
X290874Y1229349D01*
X293382Y1231856D01*
X295351Y1234804D01*
X296708Y1238080D01*
X297400Y1241557D01*
Y1245103D01*
X296708Y1248580D01*
X295351Y1251856D01*
X293382Y1254804D01*
X290874Y1257311D01*
X287926Y1259281D01*
X284650Y1260638D01*
X281173Y1261330D01*
X277627D01*
X274150Y1260638D01*
X270874Y1259281D01*
X267926Y1257311D01*
X265418Y1254804D01*
X263449Y1251856D01*
X262330Y1249157D01*
X261060Y1249409D01*
Y1262940D01*
X1136866D01*
X1137501Y1261840D01*
X1137084Y1261118D01*
X1136515Y1258994D01*
Y1256796D01*
X1137084Y1254672D01*
X1138183Y1252768D01*
X1139738Y1251213D01*
X1141642Y1250114D01*
X1143766Y1249545D01*
X1145964D01*
X1148088Y1250114D01*
X1149992Y1251213D01*
X1151547Y1252768D01*
X1152646Y1254672D01*
X1153215Y1256796D01*
Y1258994D01*
X1152646Y1261118D01*
X1152229Y1261840D01*
X1152864Y1262940D01*
X1248337D01*
X1248678Y1261670D01*
X1248283Y1261442D01*
X1246728Y1259887D01*
X1245629Y1257983D01*
X1245060Y1255859D01*
Y1253661D01*
X1245629Y1251537D01*
X1246728Y1249633D01*
X1248283Y1248078D01*
X1250187Y1246979D01*
X1252311Y1246410D01*
X1254509D01*
X1256633Y1246979D01*
X1258537Y1248078D01*
X1260092Y1249633D01*
X1261191Y1251537D01*
X1261760Y1253661D01*
Y1255859D01*
X1261191Y1257983D01*
X1260092Y1259887D01*
X1258537Y1261442D01*
X1258142Y1261670D01*
X1258483Y1262940D01*
X1770940D01*
Y1249409D01*
D02*
G37*
%LPC*%
G36*
X595230Y1253886D02*
X593533Y1253663D01*
X591952Y1253008D01*
X590594Y1251966D01*
X589552Y1250608D01*
X588897Y1249027D01*
X588674Y1247330D01*
Y1239330D01*
X588897Y1237633D01*
X589552Y1236052D01*
X590594Y1234694D01*
X591952Y1233652D01*
X593533Y1232997D01*
X595230Y1232774D01*
X596927Y1232997D01*
X598508Y1233652D01*
X599866Y1234694D01*
X600908Y1236052D01*
X601563Y1237633D01*
X601786Y1239330D01*
Y1247330D01*
X601563Y1249027D01*
X600908Y1250608D01*
X599866Y1251966D01*
X598508Y1253008D01*
X596927Y1253663D01*
X595230Y1253886D01*
D02*
G37*
G36*
X525228D02*
X523531Y1253663D01*
X521950Y1253008D01*
X520592Y1251966D01*
X519550Y1250608D01*
X518895Y1249027D01*
X518672Y1247330D01*
Y1239330D01*
X518895Y1237633D01*
X519550Y1236052D01*
X520592Y1234694D01*
X521950Y1233652D01*
X523531Y1232997D01*
X525228Y1232774D01*
X526925Y1232997D01*
X528506Y1233652D01*
X529864Y1234694D01*
X530906Y1236052D01*
X531561Y1237633D01*
X531784Y1239330D01*
Y1247330D01*
X531561Y1249027D01*
X530906Y1250608D01*
X529864Y1251966D01*
X528506Y1253008D01*
X526925Y1253663D01*
X525228Y1253886D01*
D02*
G37*
G36*
X587480Y1222926D02*
X586500D01*
Y1217600D01*
X593909D01*
X593852Y1218037D01*
X593193Y1219628D01*
X592144Y1220994D01*
X590778Y1222043D01*
X589187Y1222702D01*
X587480Y1222926D01*
D02*
G37*
G36*
X537480D02*
X536500D01*
Y1217600D01*
X543909D01*
X543852Y1218037D01*
X543193Y1219628D01*
X542144Y1220994D01*
X540778Y1222043D01*
X539187Y1222702D01*
X537480Y1222926D01*
D02*
G37*
G36*
X583960D02*
X582980D01*
X581273Y1222702D01*
X579682Y1222043D01*
X578316Y1220994D01*
X577267Y1219628D01*
X576608Y1218037D01*
X576551Y1217600D01*
X583960D01*
Y1222926D01*
D02*
G37*
G36*
X533960D02*
X532980D01*
X531273Y1222702D01*
X529682Y1222043D01*
X528316Y1220994D01*
X527267Y1219628D01*
X526608Y1218037D01*
X526551Y1217600D01*
X533960D01*
Y1222926D01*
D02*
G37*
G36*
X1075736Y1234280D02*
X1073103D01*
X1070560Y1233598D01*
X1068280Y1232282D01*
X1066418Y1230420D01*
X1065101Y1228140D01*
X1064420Y1225596D01*
Y1222963D01*
X1065101Y1220420D01*
X1066418Y1218140D01*
X1068280Y1216278D01*
X1070560Y1214961D01*
X1073103Y1214280D01*
X1075736D01*
X1078280Y1214961D01*
X1080560Y1216278D01*
X1082422Y1218140D01*
X1083738Y1220420D01*
X1084420Y1222963D01*
Y1225596D01*
X1083738Y1228140D01*
X1082422Y1230420D01*
X1080560Y1232282D01*
X1078280Y1233598D01*
X1075736Y1234280D01*
D02*
G37*
G36*
X1050337D02*
X1047703D01*
X1045160Y1233598D01*
X1042880Y1232282D01*
X1041018Y1230420D01*
X1039702Y1228140D01*
X1039020Y1225596D01*
Y1222963D01*
X1039702Y1220420D01*
X1041018Y1218140D01*
X1042880Y1216278D01*
X1045160Y1214961D01*
X1047703Y1214280D01*
X1050337D01*
X1052880Y1214961D01*
X1055160Y1216278D01*
X1057022Y1218140D01*
X1058338Y1220420D01*
X1059020Y1222963D01*
Y1225596D01*
X1058338Y1228140D01*
X1057022Y1230420D01*
X1055160Y1232282D01*
X1052880Y1233598D01*
X1050337Y1234280D01*
D02*
G37*
G36*
X593909Y1215060D02*
X586500D01*
Y1209734D01*
X587480D01*
X589187Y1209958D01*
X590778Y1210617D01*
X592144Y1211666D01*
X593193Y1213032D01*
X593852Y1214623D01*
X593909Y1215060D01*
D02*
G37*
G36*
X583960D02*
X576551D01*
X576608Y1214623D01*
X577267Y1213032D01*
X578316Y1211666D01*
X579682Y1210617D01*
X581273Y1209958D01*
X582980Y1209734D01*
X583960D01*
Y1215060D01*
D02*
G37*
G36*
X543909D02*
X536500D01*
Y1209734D01*
X537480D01*
X539187Y1209958D01*
X540778Y1210617D01*
X542144Y1211666D01*
X543193Y1213032D01*
X543852Y1214623D01*
X543909Y1215060D01*
D02*
G37*
G36*
X533960D02*
X526551D01*
X526608Y1214623D01*
X527267Y1213032D01*
X528316Y1211666D01*
X529682Y1210617D01*
X531273Y1209958D01*
X532980Y1209734D01*
X533960D01*
Y1215060D01*
D02*
G37*
G36*
X724539Y1237510D02*
X720721D01*
X717033Y1236522D01*
X713727Y1234613D01*
X711027Y1231913D01*
X709118Y1228607D01*
X708130Y1224919D01*
Y1221101D01*
X709118Y1217413D01*
X711027Y1214107D01*
X713727Y1211407D01*
X717033Y1209498D01*
X720721Y1208510D01*
X724539D01*
X728227Y1209498D01*
X731533Y1211407D01*
X734233Y1214107D01*
X736142Y1217413D01*
X737130Y1221101D01*
Y1224919D01*
X736142Y1228607D01*
X734233Y1231913D01*
X731533Y1234613D01*
X728227Y1236522D01*
X724539Y1237510D01*
D02*
G37*
G36*
X673739D02*
X669921D01*
X666233Y1236522D01*
X662927Y1234613D01*
X660227Y1231913D01*
X658318Y1228607D01*
X657330Y1224919D01*
Y1221101D01*
X658318Y1217413D01*
X660227Y1214107D01*
X662927Y1211407D01*
X666233Y1209498D01*
X669921Y1208510D01*
X673739D01*
X677427Y1209498D01*
X680733Y1211407D01*
X683433Y1214107D01*
X685342Y1217413D01*
X686330Y1221101D01*
Y1224919D01*
X685342Y1228607D01*
X683433Y1231913D01*
X680733Y1234613D01*
X677427Y1236522D01*
X673739Y1237510D01*
D02*
G37*
G36*
X933789Y1220690D02*
X931591D01*
X929467Y1220121D01*
X927563Y1219022D01*
X926008Y1217467D01*
X924909Y1215563D01*
X924340Y1213439D01*
Y1211241D01*
X924909Y1209117D01*
X926008Y1207213D01*
X927563Y1205658D01*
X929356Y1204623D01*
Y1194560D01*
X929434Y1194167D01*
X928264Y1193541D01*
X919834Y1201971D01*
X920370Y1203971D01*
Y1206169D01*
X919801Y1208293D01*
X918702Y1210197D01*
X917147Y1211752D01*
X915243Y1212851D01*
X913119Y1213420D01*
X910921D01*
X908797Y1212851D01*
X906893Y1211752D01*
X905338Y1210197D01*
X904239Y1208293D01*
X903670Y1206169D01*
Y1203971D01*
X904239Y1201847D01*
X905338Y1199943D01*
X906893Y1198388D01*
X908797Y1197289D01*
X910921Y1196720D01*
X913119D01*
X915119Y1197256D01*
X1026342Y1086032D01*
X1027424Y1085310D01*
X1028700Y1085056D01*
X1167033D01*
X1168068Y1083263D01*
X1169623Y1081708D01*
X1171527Y1080609D01*
X1173651Y1080040D01*
X1175849D01*
X1177973Y1080609D01*
X1179877Y1081708D01*
X1181432Y1083263D01*
X1182531Y1085167D01*
X1182846Y1086343D01*
X1184116Y1086175D01*
Y1051657D01*
X1182323Y1050622D01*
X1180768Y1049067D01*
X1179669Y1047163D01*
X1179100Y1045039D01*
Y1042841D01*
X1179669Y1040717D01*
X1180768Y1038813D01*
X1182323Y1037258D01*
X1184227Y1036159D01*
X1186351Y1035590D01*
X1188549D01*
X1190673Y1036159D01*
X1192577Y1037258D01*
X1194132Y1038813D01*
X1195231Y1040717D01*
X1195800Y1042841D01*
Y1045039D01*
X1195231Y1047163D01*
X1194132Y1049067D01*
X1192577Y1050622D01*
X1190784Y1051657D01*
Y1098550D01*
Y1106077D01*
X1192571Y1107109D01*
X1194126Y1108663D01*
X1195225Y1110567D01*
X1195794Y1112691D01*
Y1114890D01*
X1195225Y1117013D01*
X1194126Y1118917D01*
X1193697Y1119346D01*
X1194223Y1120616D01*
X1203863D01*
X1204898Y1118823D01*
X1206453Y1117268D01*
X1208357Y1116169D01*
X1210481Y1115600D01*
X1212679D01*
X1214803Y1116169D01*
X1216707Y1117268D01*
X1218262Y1118823D01*
X1219361Y1120727D01*
X1219930Y1122851D01*
Y1125049D01*
X1219361Y1127173D01*
X1218262Y1129077D01*
X1216707Y1130632D01*
X1214803Y1131731D01*
X1212679Y1132300D01*
X1210481D01*
X1208357Y1131731D01*
X1206453Y1130632D01*
X1204898Y1129077D01*
X1203863Y1127284D01*
X1189548D01*
X1188273Y1127030D01*
X1187191Y1126308D01*
X1185703Y1124820D01*
X1184980Y1123738D01*
X1184726Y1122462D01*
Y1121707D01*
X1184221Y1121571D01*
X1182317Y1120472D01*
X1180762Y1118917D01*
X1179663Y1117013D01*
X1179094Y1114890D01*
Y1112691D01*
X1179663Y1110567D01*
X1180762Y1108663D01*
X1182317Y1107109D01*
X1184116Y1106070D01*
Y1101884D01*
X1030081D01*
X936024Y1195941D01*
Y1204623D01*
X937817Y1205658D01*
X939372Y1207213D01*
X940471Y1209117D01*
X941040Y1211241D01*
Y1213439D01*
X940471Y1215563D01*
X939372Y1217467D01*
X937817Y1219022D01*
X935913Y1220121D01*
X933789Y1220690D01*
D02*
G37*
G36*
X699139Y1212110D02*
X695321D01*
X691633Y1211122D01*
X688327Y1209213D01*
X685627Y1206513D01*
X683718Y1203207D01*
X682730Y1199519D01*
Y1195701D01*
X683718Y1192013D01*
X685627Y1188707D01*
X688327Y1186007D01*
X691633Y1184098D01*
X695321Y1183110D01*
X699139D01*
X702827Y1184098D01*
X706133Y1186007D01*
X708833Y1188707D01*
X710742Y1192013D01*
X711730Y1195701D01*
Y1199519D01*
X710742Y1203207D01*
X708833Y1206513D01*
X706133Y1209213D01*
X702827Y1211122D01*
X699139Y1212110D01*
D02*
G37*
G36*
X337938Y1189100D02*
X337820D01*
Y1179830D01*
X347090D01*
Y1179948D01*
X346372Y1182628D01*
X344984Y1185032D01*
X343022Y1186994D01*
X340618Y1188382D01*
X337938Y1189100D01*
D02*
G37*
G36*
X335280D02*
X335162D01*
X332482Y1188382D01*
X330078Y1186994D01*
X328116Y1185032D01*
X326728Y1182628D01*
X326010Y1179948D01*
Y1179830D01*
X335280D01*
Y1189100D01*
D02*
G37*
G36*
X363266Y1188560D02*
X360634D01*
X358090Y1187878D01*
X355810Y1186562D01*
X353948Y1184700D01*
X352631Y1182420D01*
X351950Y1179876D01*
Y1177243D01*
X352631Y1174700D01*
X353948Y1172420D01*
X355810Y1170558D01*
X358090Y1169241D01*
X360634Y1168560D01*
X363266D01*
X365810Y1169241D01*
X368090Y1170558D01*
X369952Y1172420D01*
X371269Y1174700D01*
X371950Y1177243D01*
Y1179876D01*
X371269Y1182420D01*
X369952Y1184700D01*
X368090Y1186562D01*
X365810Y1187878D01*
X363266Y1188560D01*
D02*
G37*
G36*
X312467D02*
X309834D01*
X307290Y1187878D01*
X305010Y1186562D01*
X303148Y1184700D01*
X301831Y1182420D01*
X301150Y1179876D01*
Y1177243D01*
X301831Y1174700D01*
X303148Y1172420D01*
X305010Y1170558D01*
X307290Y1169241D01*
X309834Y1168560D01*
X312467D01*
X315010Y1169241D01*
X317290Y1170558D01*
X319152Y1172420D01*
X320468Y1174700D01*
X321150Y1177243D01*
Y1179876D01*
X320468Y1182420D01*
X319152Y1184700D01*
X317290Y1186562D01*
X315010Y1187878D01*
X312467Y1188560D01*
D02*
G37*
G36*
X347090Y1177290D02*
X337820D01*
Y1168020D01*
X337938D01*
X340618Y1168738D01*
X343022Y1170126D01*
X344984Y1172088D01*
X346372Y1174492D01*
X347090Y1177172D01*
Y1177290D01*
D02*
G37*
G36*
X335280D02*
X326010D01*
Y1177172D01*
X326728Y1174492D01*
X328116Y1172088D01*
X330078Y1170126D01*
X332482Y1168738D01*
X335162Y1168020D01*
X335280D01*
Y1177290D01*
D02*
G37*
G36*
X1494836Y1179670D02*
X1492204D01*
X1489660Y1178988D01*
X1487380Y1177672D01*
X1485518Y1175810D01*
X1484202Y1173530D01*
X1483520Y1170986D01*
Y1168354D01*
X1484202Y1165810D01*
X1485518Y1163530D01*
X1487380Y1161668D01*
X1489660Y1160351D01*
X1492204Y1159670D01*
X1494836D01*
X1497380Y1160351D01*
X1499660Y1161668D01*
X1501522Y1163530D01*
X1502838Y1165810D01*
X1503520Y1168354D01*
Y1170986D01*
X1502838Y1173530D01*
X1501522Y1175810D01*
X1499660Y1177672D01*
X1497380Y1178988D01*
X1494836Y1179670D01*
D02*
G37*
G36*
X1444037D02*
X1441404D01*
X1438860Y1178988D01*
X1436580Y1177672D01*
X1434718Y1175810D01*
X1433401Y1173530D01*
X1432720Y1170986D01*
Y1168354D01*
X1433401Y1165810D01*
X1434718Y1163530D01*
X1436580Y1161668D01*
X1438860Y1160351D01*
X1441404Y1159670D01*
X1444037D01*
X1446580Y1160351D01*
X1448860Y1161668D01*
X1450722Y1163530D01*
X1452039Y1165810D01*
X1452720Y1168354D01*
Y1170986D01*
X1452039Y1173530D01*
X1450722Y1175810D01*
X1448860Y1177672D01*
X1446580Y1178988D01*
X1444037Y1179670D01*
D02*
G37*
G36*
X1376727D02*
X1374093D01*
X1371550Y1178988D01*
X1369270Y1177672D01*
X1367408Y1175810D01*
X1366091Y1173530D01*
X1365410Y1170986D01*
Y1168354D01*
X1366091Y1165810D01*
X1367408Y1163530D01*
X1369270Y1161668D01*
X1371550Y1160351D01*
X1374093Y1159670D01*
X1376727D01*
X1379270Y1160351D01*
X1381550Y1161668D01*
X1383412Y1163530D01*
X1384729Y1165810D01*
X1385410Y1168354D01*
Y1170986D01*
X1384729Y1173530D01*
X1383412Y1175810D01*
X1381550Y1177672D01*
X1379270Y1178988D01*
X1376727Y1179670D01*
D02*
G37*
G36*
X1325927D02*
X1323293D01*
X1320750Y1178988D01*
X1318470Y1177672D01*
X1316608Y1175810D01*
X1315291Y1173530D01*
X1314610Y1170986D01*
Y1168354D01*
X1315291Y1165810D01*
X1316608Y1163530D01*
X1318470Y1161668D01*
X1320750Y1160351D01*
X1323293Y1159670D01*
X1325927D01*
X1328470Y1160351D01*
X1330750Y1161668D01*
X1332612Y1163530D01*
X1333929Y1165810D01*
X1334610Y1168354D01*
Y1170986D01*
X1333929Y1173530D01*
X1332612Y1175810D01*
X1330750Y1177672D01*
X1328470Y1178988D01*
X1325927Y1179670D01*
D02*
G37*
G36*
X724539Y1186710D02*
X720721D01*
X717033Y1185722D01*
X713727Y1183813D01*
X711027Y1181113D01*
X709118Y1177807D01*
X708130Y1174119D01*
Y1170301D01*
X709118Y1166613D01*
X711027Y1163307D01*
X713727Y1160607D01*
X717033Y1158698D01*
X720721Y1157710D01*
X724539D01*
X728227Y1158698D01*
X731533Y1160607D01*
X734233Y1163307D01*
X736142Y1166613D01*
X737130Y1170301D01*
Y1174119D01*
X736142Y1177807D01*
X734233Y1181113D01*
X731533Y1183813D01*
X728227Y1185722D01*
X724539Y1186710D01*
D02*
G37*
G36*
X673739D02*
X669921D01*
X666233Y1185722D01*
X662927Y1183813D01*
X660227Y1181113D01*
X658318Y1177807D01*
X657330Y1174119D01*
Y1170301D01*
X658318Y1166613D01*
X660227Y1163307D01*
X662927Y1160607D01*
X666233Y1158698D01*
X669921Y1157710D01*
X673739D01*
X677427Y1158698D01*
X680733Y1160607D01*
X683433Y1163307D01*
X685342Y1166613D01*
X686330Y1170301D01*
Y1174119D01*
X685342Y1177807D01*
X683433Y1181113D01*
X680733Y1183813D01*
X677427Y1185722D01*
X673739Y1186710D01*
D02*
G37*
G36*
X1612946Y1177130D02*
X1610314D01*
X1607770Y1176449D01*
X1605490Y1175132D01*
X1603628Y1173270D01*
X1602312Y1170990D01*
X1601630Y1168447D01*
Y1165814D01*
X1602312Y1163270D01*
X1603628Y1160990D01*
X1605490Y1159128D01*
X1607770Y1157812D01*
X1610314Y1157130D01*
X1612946D01*
X1615490Y1157812D01*
X1617770Y1159128D01*
X1619632Y1160990D01*
X1620948Y1163270D01*
X1621630Y1165814D01*
Y1168447D01*
X1620948Y1170990D01*
X1619632Y1173270D01*
X1617770Y1175132D01*
X1615490Y1176449D01*
X1612946Y1177130D01*
D02*
G37*
G36*
X1562146D02*
X1559514D01*
X1556970Y1176449D01*
X1554690Y1175132D01*
X1552828Y1173270D01*
X1551512Y1170990D01*
X1550830Y1168447D01*
Y1165814D01*
X1551512Y1163270D01*
X1552828Y1160990D01*
X1554690Y1159128D01*
X1556970Y1157812D01*
X1559514Y1157130D01*
X1562146D01*
X1564690Y1157812D01*
X1566970Y1159128D01*
X1568832Y1160990D01*
X1570148Y1163270D01*
X1570830Y1165814D01*
Y1168447D01*
X1570148Y1170990D01*
X1568832Y1173270D01*
X1566970Y1175132D01*
X1564690Y1176449D01*
X1562146Y1177130D01*
D02*
G37*
G36*
X1737406Y1175860D02*
X1734774D01*
X1732230Y1175179D01*
X1729950Y1173862D01*
X1728088Y1172000D01*
X1726772Y1169720D01*
X1726090Y1167177D01*
Y1164544D01*
X1726772Y1162000D01*
X1728088Y1159720D01*
X1729950Y1157858D01*
X1732230Y1156542D01*
X1734774Y1155860D01*
X1737406D01*
X1739950Y1156542D01*
X1742230Y1157858D01*
X1744092Y1159720D01*
X1745408Y1162000D01*
X1746090Y1164544D01*
Y1167177D01*
X1745408Y1169720D01*
X1744092Y1172000D01*
X1742230Y1173862D01*
X1739950Y1175179D01*
X1737406Y1175860D01*
D02*
G37*
G36*
X1686606D02*
X1683974D01*
X1681430Y1175179D01*
X1679150Y1173862D01*
X1677288Y1172000D01*
X1675972Y1169720D01*
X1675290Y1167177D01*
Y1164544D01*
X1675972Y1162000D01*
X1677288Y1159720D01*
X1679150Y1157858D01*
X1681430Y1156542D01*
X1683974Y1155860D01*
X1686606D01*
X1689150Y1156542D01*
X1691430Y1157858D01*
X1693292Y1159720D01*
X1694608Y1162000D01*
X1695290Y1164544D01*
Y1167177D01*
X1694608Y1169720D01*
X1693292Y1172000D01*
X1691430Y1173862D01*
X1689150Y1175179D01*
X1686606Y1175860D01*
D02*
G37*
G36*
X482429Y1155160D02*
X480231D01*
X478107Y1154591D01*
X476203Y1153492D01*
X474648Y1151937D01*
X473549Y1150033D01*
X472980Y1147909D01*
Y1145711D01*
X473549Y1143587D01*
X474648Y1141683D01*
X476203Y1140128D01*
X478107Y1139029D01*
X480231Y1138460D01*
X482429D01*
X484553Y1139029D01*
X486457Y1140128D01*
X488012Y1141683D01*
X489111Y1143587D01*
X489680Y1145711D01*
Y1147909D01*
X489111Y1150033D01*
X488012Y1151937D01*
X486457Y1153492D01*
X484553Y1154591D01*
X482429Y1155160D01*
D02*
G37*
G36*
X840569Y1247870D02*
X838371D01*
X836247Y1247301D01*
X834343Y1246202D01*
X832788Y1244647D01*
X831689Y1242743D01*
X831120Y1240619D01*
Y1238421D01*
X831689Y1236297D01*
X832788Y1234393D01*
X833222Y1233959D01*
X829492Y1230230D01*
X828770Y1229148D01*
X828516Y1227872D01*
Y1138349D01*
X827246Y1137823D01*
X826817Y1138252D01*
X824913Y1139351D01*
X822789Y1139920D01*
X820591D01*
X818467Y1139351D01*
X816563Y1138252D01*
X815008Y1136697D01*
X813909Y1134793D01*
X813340Y1132669D01*
Y1130471D01*
X813909Y1128347D01*
X815008Y1126443D01*
X816563Y1124888D01*
X818467Y1123789D01*
X820591Y1123220D01*
X822789D01*
X824913Y1123789D01*
X826817Y1124888D01*
X827713Y1125784D01*
X829318Y1125663D01*
X829492Y1125403D01*
X831656Y1123239D01*
X831120Y1121239D01*
Y1119041D01*
X831689Y1116917D01*
X832788Y1115013D01*
X834343Y1113458D01*
X836247Y1112359D01*
X838371Y1111790D01*
X840569D01*
X842693Y1112359D01*
X844597Y1113458D01*
X846152Y1115013D01*
X847251Y1116917D01*
X847820Y1119041D01*
Y1121239D01*
X847251Y1123363D01*
X846152Y1125267D01*
X844597Y1126822D01*
X842693Y1127921D01*
X840569Y1128490D01*
X838371D01*
X836371Y1127954D01*
X835184Y1129141D01*
Y1226491D01*
X839863Y1231170D01*
X840569D01*
X842693Y1231739D01*
X844597Y1232838D01*
X846152Y1234393D01*
X847251Y1236297D01*
X847820Y1238421D01*
Y1240619D01*
X847251Y1242743D01*
X846152Y1244647D01*
X844597Y1246202D01*
X842693Y1247301D01*
X840569Y1247870D01*
D02*
G37*
G36*
X526685Y1184434D02*
X393918D01*
X392642Y1184180D01*
X391560Y1183457D01*
X390073Y1181970D01*
X389350Y1180888D01*
X389096Y1179612D01*
Y1160989D01*
X389350Y1159713D01*
X389510Y1159473D01*
X388459Y1157653D01*
X387890Y1155529D01*
Y1153331D01*
X388459Y1151207D01*
X389558Y1149303D01*
X391113Y1147748D01*
X393017Y1146649D01*
X395141Y1146080D01*
X397339D01*
X399463Y1146649D01*
X401367Y1147748D01*
X402922Y1149303D01*
X404021Y1151207D01*
X404590Y1153331D01*
Y1155529D01*
X404021Y1157653D01*
X402922Y1159557D01*
X401367Y1161112D01*
X399463Y1162211D01*
X397339Y1162780D01*
X395764D01*
Y1177766D01*
X509133D01*
X509473Y1176496D01*
X509223Y1176352D01*
X507668Y1174797D01*
X506569Y1172893D01*
X506000Y1170769D01*
Y1168571D01*
X506569Y1166447D01*
X507668Y1164543D01*
X509223Y1162988D01*
X511016Y1161953D01*
Y1138017D01*
X509223Y1136982D01*
X507668Y1135427D01*
X506569Y1133523D01*
X506000Y1131399D01*
Y1129201D01*
X506569Y1127077D01*
X507668Y1125173D01*
X509223Y1123618D01*
X511127Y1122519D01*
X513251Y1121950D01*
X515449D01*
X517573Y1122519D01*
X519477Y1123618D01*
X521032Y1125173D01*
X522131Y1127077D01*
X522700Y1129201D01*
Y1131399D01*
X522131Y1133523D01*
X521032Y1135427D01*
X519477Y1136982D01*
X517684Y1138017D01*
Y1161953D01*
X519477Y1162988D01*
X521032Y1164543D01*
X522131Y1166447D01*
X522700Y1168571D01*
Y1170769D01*
X522131Y1172893D01*
X521032Y1174797D01*
X519477Y1176352D01*
X519227Y1176496D01*
X519567Y1177766D01*
X525304D01*
X563261Y1139809D01*
X563069Y1139347D01*
X562657Y1138617D01*
X560657Y1138081D01*
X558753Y1136982D01*
X557198Y1135427D01*
X556099Y1133523D01*
X555530Y1131399D01*
Y1129201D01*
X556099Y1127077D01*
X557198Y1125173D01*
X558753Y1123618D01*
X560546Y1122583D01*
Y1035415D01*
X560800Y1034139D01*
X561522Y1033058D01*
X712833Y881747D01*
Y857269D01*
X712371Y857078D01*
X711563Y856853D01*
X709770Y857888D01*
X707647Y858457D01*
X705448D01*
X703324Y857888D01*
X701420Y856789D01*
X699866Y855234D01*
X698766Y853330D01*
X698231Y851331D01*
X697500Y850918D01*
X697038Y850727D01*
X695484Y852281D01*
Y873760D01*
X695230Y875036D01*
X694508Y876118D01*
X627538Y943087D01*
X626456Y943810D01*
X625180Y944064D01*
X545857D01*
X544822Y945857D01*
X543267Y947412D01*
X541363Y948511D01*
X539239Y949080D01*
X537041D01*
X534917Y948511D01*
X533013Y947412D01*
X531458Y945857D01*
X530359Y943953D01*
X529790Y941829D01*
Y939631D01*
X530359Y937507D01*
X531458Y935603D01*
X533013Y934048D01*
X534917Y932949D01*
X537041Y932380D01*
X539239D01*
X541363Y932949D01*
X543267Y934048D01*
X544822Y935603D01*
X545857Y937396D01*
X623799D01*
X688816Y872379D01*
Y850900D01*
X689070Y849624D01*
X689792Y848542D01*
X835571Y702764D01*
Y698160D01*
X835825Y696884D01*
X836548Y695803D01*
X904235Y628115D01*
X905317Y627392D01*
X906593Y627138D01*
X993381D01*
X1052211Y568309D01*
X1052019Y567847D01*
X1051607Y567117D01*
X1049607Y566581D01*
X1047703Y565482D01*
X1046148Y563927D01*
X1045113Y562134D01*
X1019921D01*
X989524Y592531D01*
X990060Y594531D01*
Y596729D01*
X989491Y598853D01*
X988392Y600757D01*
X986837Y602312D01*
X984933Y603411D01*
X982809Y603980D01*
X980611D01*
X978487Y603411D01*
X976583Y602312D01*
X975028Y600757D01*
X973929Y598853D01*
X973360Y596729D01*
Y594531D01*
X973929Y592407D01*
X975028Y590503D01*
X976583Y588948D01*
X978487Y587849D01*
X980611Y587280D01*
X982809D01*
X984809Y587816D01*
X1016182Y556442D01*
X1017264Y555720D01*
X1018540Y555466D01*
X1045113D01*
X1046148Y553673D01*
X1047703Y552118D01*
X1049607Y551019D01*
X1051731Y550450D01*
X1053929D01*
X1056053Y551019D01*
X1057957Y552118D01*
X1059512Y553673D01*
X1060611Y555577D01*
X1061147Y557577D01*
X1061877Y557989D01*
X1062339Y558181D01*
X1094853Y525667D01*
X1094579Y525193D01*
X1094010Y523069D01*
Y520871D01*
X1094579Y518747D01*
X1095678Y516843D01*
X1097233Y515288D01*
X1099137Y514189D01*
X1101261Y513620D01*
X1103459D01*
X1105583Y514189D01*
X1107487Y515288D01*
X1108296Y516097D01*
X1109566Y515571D01*
Y436087D01*
X1107773Y435052D01*
X1106218Y433497D01*
X1105119Y431593D01*
X1104550Y429469D01*
Y427271D01*
X1105119Y425147D01*
X1106218Y423243D01*
X1107773Y421688D01*
X1109677Y420589D01*
X1111801Y420020D01*
X1113999D01*
X1116123Y420589D01*
X1118027Y421688D01*
X1119582Y423243D01*
X1120681Y425147D01*
X1121250Y427271D01*
Y429469D01*
X1120681Y431593D01*
X1119582Y433497D01*
X1118027Y435052D01*
X1116234Y436087D01*
Y452192D01*
X1117407Y452678D01*
X1234622Y335462D01*
X1235704Y334740D01*
X1236980Y334486D01*
X1282603D01*
X1283638Y332693D01*
X1285193Y331138D01*
X1287097Y330039D01*
X1289221Y329470D01*
X1291419D01*
X1293543Y330039D01*
X1295447Y331138D01*
X1297002Y332693D01*
X1298101Y334597D01*
X1298670Y336721D01*
Y338919D01*
X1298101Y341043D01*
X1297002Y342947D01*
X1295447Y344502D01*
X1293543Y345601D01*
X1291419Y346170D01*
X1289221D01*
X1287097Y345601D01*
X1285193Y344502D01*
X1283638Y342947D01*
X1282603Y341154D01*
X1238361D01*
X1120774Y458741D01*
Y533560D01*
X1120520Y534836D01*
X1119798Y535918D01*
X1065563Y590153D01*
X1066220Y591291D01*
X1066971Y591090D01*
X1069169D01*
X1071293Y591659D01*
X1073197Y592758D01*
X1074752Y594313D01*
X1075851Y596217D01*
X1076420Y598341D01*
Y600539D01*
X1075851Y602663D01*
X1074752Y604567D01*
X1073197Y606122D01*
X1071293Y607221D01*
X1069169Y607790D01*
X1066971D01*
X1064847Y607221D01*
X1062943Y606122D01*
X1061388Y604567D01*
X1060289Y602663D01*
X1059720Y600539D01*
Y598341D01*
X1059921Y597590D01*
X1058783Y596933D01*
X993479Y662236D01*
Y664299D01*
X993225Y665575D01*
X992503Y666657D01*
X990664Y668496D01*
X991190Y669766D01*
X1060353D01*
X1061388Y667973D01*
X1062943Y666418D01*
X1064847Y665319D01*
X1066971Y664750D01*
X1069169D01*
X1071293Y665319D01*
X1073197Y666418D01*
X1074752Y667973D01*
X1075851Y669877D01*
X1076420Y672001D01*
Y674199D01*
X1075851Y676323D01*
X1074752Y678227D01*
X1073197Y679782D01*
X1071293Y680881D01*
X1069169Y681450D01*
X1066971D01*
X1064847Y680881D01*
X1062943Y679782D01*
X1061388Y678227D01*
X1060353Y676434D01*
X991981D01*
X972852Y695563D01*
X973510Y696701D01*
X974261Y696500D01*
X976459D01*
X978583Y697069D01*
X980487Y698168D01*
X982042Y699723D01*
X983141Y701627D01*
X983710Y703751D01*
Y705949D01*
X983141Y708073D01*
X982042Y709977D01*
X980487Y711532D01*
X978583Y712631D01*
X976459Y713200D01*
X974261D01*
X972137Y712631D01*
X970233Y711532D01*
X968678Y709977D01*
X967579Y708073D01*
X967010Y705949D01*
Y703751D01*
X967211Y703000D01*
X966072Y702343D01*
X807244Y861171D01*
Y894163D01*
X808825Y895076D01*
X810380Y896631D01*
X811479Y898535D01*
X812048Y900658D01*
Y902857D01*
X811479Y904981D01*
X810380Y906885D01*
X808825Y908439D01*
X806921Y909539D01*
X805252Y909986D01*
X805419Y911256D01*
X813404D01*
X831667Y892992D01*
X832749Y892270D01*
X834025Y892016D01*
X861473D01*
X862508Y890223D01*
X864063Y888668D01*
X865967Y887569D01*
X868091Y887000D01*
X870289D01*
X872413Y887569D01*
X874317Y888668D01*
X875872Y890223D01*
X876971Y892127D01*
X877540Y894251D01*
Y896449D01*
X876971Y898573D01*
X875872Y900477D01*
X874317Y902032D01*
X872413Y903131D01*
X870289Y903700D01*
X868091D01*
X865967Y903131D01*
X864063Y902032D01*
X862508Y900477D01*
X861473Y898684D01*
X835406D01*
X817142Y916947D01*
X816061Y917670D01*
X814785Y917924D01*
X731806D01*
X724519Y925211D01*
X724711Y925673D01*
X725123Y926403D01*
X727123Y926939D01*
X729027Y928038D01*
X730582Y929593D01*
X731681Y931497D01*
X732250Y933621D01*
Y935819D01*
X731681Y937943D01*
X730582Y939847D01*
X729027Y941402D01*
X727123Y942501D01*
X724999Y943070D01*
X722801D01*
X720677Y942501D01*
X718773Y941402D01*
X717218Y939847D01*
X716119Y937943D01*
X715583Y935943D01*
X714853Y935531D01*
X714391Y935339D01*
X698112Y951619D01*
Y1005752D01*
X697858Y1007028D01*
X697135Y1008110D01*
X649164Y1056081D01*
X649700Y1058081D01*
Y1060279D01*
X649131Y1062403D01*
X648032Y1064307D01*
X646477Y1065862D01*
X644573Y1066961D01*
X642449Y1067530D01*
X640251D01*
X638127Y1066961D01*
X636223Y1065862D01*
X634668Y1064307D01*
X633569Y1062403D01*
X633000Y1060279D01*
Y1058081D01*
X633569Y1055957D01*
X634668Y1054053D01*
X636223Y1052498D01*
X638127Y1051399D01*
X640251Y1050830D01*
X642449D01*
X644449Y1051366D01*
X691444Y1004371D01*
Y950238D01*
X691697Y948962D01*
X692420Y947880D01*
X725743Y914557D01*
X725257Y913384D01*
X704231D01*
X585664Y1031951D01*
X586200Y1033951D01*
Y1036149D01*
X585631Y1038273D01*
X584532Y1040177D01*
X582977Y1041732D01*
X581073Y1042831D01*
X578949Y1043400D01*
X576751D01*
X574627Y1042831D01*
X572723Y1041732D01*
X571168Y1040177D01*
X570069Y1038273D01*
X569533Y1036273D01*
X568803Y1035861D01*
X568341Y1035669D01*
X567214Y1036796D01*
Y1122583D01*
X569007Y1123618D01*
X570562Y1125173D01*
X571661Y1127077D01*
X572197Y1129077D01*
X572927Y1129489D01*
X573389Y1129681D01*
X608739Y1094331D01*
Y1035482D01*
X608993Y1034206D01*
X609715Y1033125D01*
X655868Y986973D01*
X656949Y986250D01*
X658225Y985996D01*
X671733D01*
X672768Y984203D01*
X674323Y982648D01*
X676227Y981549D01*
X678351Y980980D01*
X680549D01*
X682673Y981549D01*
X684577Y982648D01*
X686132Y984203D01*
X687231Y986107D01*
X687800Y988231D01*
Y990429D01*
X687231Y992553D01*
X686132Y994457D01*
X684577Y996012D01*
X682673Y997111D01*
X680549Y997680D01*
X678351D01*
X676227Y997111D01*
X674323Y996012D01*
X672768Y994457D01*
X671733Y992664D01*
X659606D01*
X654669Y997601D01*
X654861Y998063D01*
X655273Y998793D01*
X657273Y999329D01*
X659177Y1000428D01*
X660732Y1001983D01*
X661831Y1003887D01*
X662400Y1006011D01*
Y1008209D01*
X661831Y1010333D01*
X660732Y1012237D01*
X659177Y1013792D01*
X657273Y1014891D01*
X655149Y1015460D01*
X652951D01*
X650827Y1014891D01*
X648923Y1013792D01*
X647368Y1012237D01*
X646269Y1010333D01*
X645733Y1008333D01*
X645003Y1007921D01*
X644541Y1007729D01*
X615407Y1036863D01*
Y1068049D01*
X616677Y1068389D01*
X616888Y1068023D01*
X618443Y1066468D01*
X620347Y1065369D01*
X622471Y1064800D01*
X624669D01*
X626793Y1065369D01*
X628697Y1066468D01*
X630252Y1068023D01*
X631351Y1069927D01*
X631920Y1072051D01*
Y1074249D01*
X631351Y1076373D01*
X630252Y1078277D01*
X628697Y1079832D01*
X626793Y1080931D01*
X624669Y1081500D01*
X622471D01*
X620347Y1080931D01*
X618443Y1079832D01*
X616888Y1078277D01*
X616677Y1077911D01*
X615407Y1078251D01*
Y1095712D01*
X615153Y1096988D01*
X614431Y1098069D01*
X578706Y1133794D01*
X579486Y1134810D01*
X580977Y1133949D01*
X583101Y1133380D01*
X585299D01*
X587423Y1133949D01*
X589327Y1135048D01*
X590882Y1136603D01*
X591917Y1138396D01*
X700943D01*
X701978Y1136603D01*
X703533Y1135048D01*
X705437Y1133949D01*
X707561Y1133380D01*
X709759D01*
X711883Y1133949D01*
X713787Y1135048D01*
X715342Y1136603D01*
X716441Y1138507D01*
X717010Y1140631D01*
Y1142829D01*
X716441Y1144953D01*
X715342Y1146857D01*
X713787Y1148412D01*
X711883Y1149511D01*
X709759Y1150080D01*
X707561D01*
X705437Y1149511D01*
X703533Y1148412D01*
X701978Y1146857D01*
X700943Y1145064D01*
X591917D01*
X590882Y1146857D01*
X589327Y1148412D01*
X587423Y1149511D01*
X585299Y1150080D01*
X583101D01*
X580977Y1149511D01*
X579073Y1148412D01*
X577518Y1146857D01*
X576419Y1144953D01*
X575850Y1142829D01*
Y1140631D01*
X576419Y1138507D01*
X577280Y1137016D01*
X576264Y1136236D01*
X529042Y1183457D01*
X527961Y1184180D01*
X526685Y1184434D01*
D02*
G37*
G36*
X431629Y1146270D02*
X429431D01*
X427307Y1145701D01*
X425403Y1144602D01*
X423848Y1143047D01*
X422749Y1141143D01*
X422180Y1139019D01*
Y1136821D01*
X422749Y1134697D01*
X423848Y1132793D01*
X425403Y1131238D01*
X427307Y1130139D01*
X429431Y1129570D01*
X431629D01*
X433753Y1130139D01*
X435657Y1131238D01*
X437212Y1132793D01*
X438311Y1134697D01*
X438880Y1136821D01*
Y1139019D01*
X438311Y1141143D01*
X437212Y1143047D01*
X435657Y1144602D01*
X433753Y1145701D01*
X431629Y1146270D01*
D02*
G37*
G36*
X331470Y1136623D02*
Y1129030D01*
X339063D01*
X338484Y1131191D01*
X337314Y1133219D01*
X335659Y1134874D01*
X333631Y1136044D01*
X331470Y1136623D01*
D02*
G37*
G36*
X328930D02*
X326769Y1136044D01*
X324741Y1134874D01*
X323086Y1133219D01*
X321916Y1131191D01*
X321337Y1129030D01*
X328930D01*
Y1136623D01*
D02*
G37*
G36*
X804189Y1140740D02*
X801991D01*
X799867Y1140171D01*
X797963Y1139072D01*
X796408Y1137517D01*
X795309Y1135613D01*
X794740Y1133489D01*
Y1131291D01*
X795309Y1129167D01*
X796408Y1127263D01*
X797963Y1125708D01*
X799867Y1124609D01*
X801991Y1124040D01*
X804189D01*
X806313Y1124609D01*
X808217Y1125708D01*
X809772Y1127263D01*
X810871Y1129167D01*
X811440Y1131291D01*
Y1133489D01*
X810871Y1135613D01*
X809772Y1137517D01*
X808217Y1139072D01*
X806313Y1140171D01*
X804189Y1140740D01*
D02*
G37*
G36*
X1140289Y1138650D02*
X1138091D01*
X1135967Y1138081D01*
X1134063Y1136982D01*
X1132508Y1135427D01*
X1131409Y1133523D01*
X1130840Y1131399D01*
Y1129201D01*
X1131409Y1127077D01*
X1132508Y1125173D01*
X1134063Y1123618D01*
X1135967Y1122519D01*
X1138091Y1121950D01*
X1140289D01*
X1142413Y1122519D01*
X1144317Y1123618D01*
X1145872Y1125173D01*
X1146971Y1127077D01*
X1147540Y1129201D01*
Y1131399D01*
X1146971Y1133523D01*
X1145872Y1135427D01*
X1144317Y1136982D01*
X1142413Y1138081D01*
X1140289Y1138650D01*
D02*
G37*
G36*
X892639D02*
X890441D01*
X888317Y1138081D01*
X886413Y1136982D01*
X884858Y1135427D01*
X883759Y1133523D01*
X883190Y1131399D01*
Y1129201D01*
X883759Y1127077D01*
X884858Y1125173D01*
X886413Y1123618D01*
X888317Y1122519D01*
X890441Y1121950D01*
X892639D01*
X894763Y1122519D01*
X896667Y1123618D01*
X898222Y1125173D01*
X899321Y1127077D01*
X899890Y1129201D01*
Y1131399D01*
X899321Y1133523D01*
X898222Y1135427D01*
X896667Y1136982D01*
X894763Y1138081D01*
X892639Y1138650D01*
D02*
G37*
G36*
X339063Y1126490D02*
X331470D01*
Y1118897D01*
X333631Y1119476D01*
X335659Y1120646D01*
X337314Y1122301D01*
X338484Y1124329D01*
X339063Y1126490D01*
D02*
G37*
G36*
X328930D02*
X321337D01*
X321916Y1124329D01*
X323086Y1122301D01*
X324741Y1120646D01*
X326769Y1119476D01*
X328930Y1118897D01*
Y1126490D01*
D02*
G37*
G36*
X339208Y1109090D02*
X339090D01*
Y1099820D01*
X348360D01*
Y1099938D01*
X347642Y1102618D01*
X346254Y1105022D01*
X344292Y1106984D01*
X341888Y1108372D01*
X339208Y1109090D01*
D02*
G37*
G36*
X336550D02*
X336432D01*
X333752Y1108372D01*
X331348Y1106984D01*
X329386Y1105022D01*
X327998Y1102618D01*
X327280Y1099938D01*
Y1099820D01*
X336550D01*
Y1109090D01*
D02*
G37*
G36*
X494030Y1101738D02*
Y1093472D01*
X502296D01*
X501650Y1095884D01*
X500394Y1098059D01*
X498618Y1099836D01*
X496442Y1101092D01*
X494030Y1101738D01*
D02*
G37*
G36*
X491490D02*
X489078Y1101092D01*
X486902Y1099836D01*
X485126Y1098059D01*
X483870Y1095884D01*
X483224Y1093472D01*
X491490D01*
Y1101738D01*
D02*
G37*
G36*
X313736Y1108550D02*
X311103D01*
X308560Y1107868D01*
X306280Y1106552D01*
X304418Y1104690D01*
X303102Y1102410D01*
X302420Y1099866D01*
Y1097234D01*
X303102Y1094690D01*
X304418Y1092410D01*
X306280Y1090548D01*
X308560Y1089231D01*
X311103Y1088550D01*
X313736D01*
X316280Y1089231D01*
X318560Y1090548D01*
X320422Y1092410D01*
X321739Y1094690D01*
X322420Y1097234D01*
Y1099866D01*
X321739Y1102410D01*
X320422Y1104690D01*
X318560Y1106552D01*
X316280Y1107868D01*
X313736Y1108550D01*
D02*
G37*
G36*
X348360Y1097280D02*
X339090D01*
Y1088010D01*
X339208D01*
X341888Y1088728D01*
X344292Y1090116D01*
X346254Y1092078D01*
X347642Y1094482D01*
X348360Y1097162D01*
Y1097280D01*
D02*
G37*
G36*
X336550D02*
X327280D01*
Y1097162D01*
X327998Y1094482D01*
X329386Y1092078D01*
X331348Y1090116D01*
X333752Y1088728D01*
X336432Y1088010D01*
X336550D01*
Y1097280D01*
D02*
G37*
G36*
X502296Y1090932D02*
X494030D01*
Y1082665D01*
X496442Y1083312D01*
X498618Y1084568D01*
X500394Y1086344D01*
X501650Y1088519D01*
X502296Y1090932D01*
D02*
G37*
G36*
X491490D02*
X483224D01*
X483870Y1088519D01*
X485126Y1086344D01*
X486902Y1084568D01*
X489078Y1083312D01*
X491490Y1082665D01*
Y1090932D01*
D02*
G37*
G36*
X902799Y1092930D02*
X900601D01*
X898477Y1092361D01*
X896573Y1091262D01*
X895018Y1089707D01*
X893919Y1087803D01*
X893350Y1085679D01*
Y1083481D01*
X893919Y1081357D01*
X895018Y1079453D01*
X896573Y1077898D01*
X898477Y1076799D01*
X900601Y1076230D01*
X902799D01*
X904923Y1076799D01*
X906827Y1077898D01*
X908382Y1079453D01*
X909481Y1081357D01*
X910050Y1083481D01*
Y1085679D01*
X909481Y1087803D01*
X908382Y1089707D01*
X906827Y1091262D01*
X904923Y1092361D01*
X902799Y1092930D01*
D02*
G37*
G36*
X674199Y1084040D02*
X672001D01*
X669877Y1083471D01*
X667973Y1082372D01*
X666418Y1080817D01*
X665319Y1078913D01*
X664750Y1076789D01*
Y1074591D01*
X665319Y1072467D01*
X666418Y1070563D01*
X667973Y1069008D01*
X669877Y1067909D01*
X672001Y1067340D01*
X674199D01*
X676323Y1067909D01*
X678227Y1069008D01*
X679782Y1070563D01*
X680881Y1072467D01*
X681450Y1074591D01*
Y1076789D01*
X680881Y1078913D01*
X679782Y1080817D01*
X678227Y1082372D01*
X676323Y1083471D01*
X674199Y1084040D01*
D02*
G37*
G36*
X582759D02*
X580561D01*
X578437Y1083471D01*
X576533Y1082372D01*
X574978Y1080817D01*
X573879Y1078913D01*
X573310Y1076789D01*
Y1074591D01*
X573879Y1072467D01*
X574978Y1070563D01*
X576533Y1069008D01*
X578437Y1067909D01*
X580561Y1067340D01*
X582759D01*
X584883Y1067909D01*
X586787Y1069008D01*
X588342Y1070563D01*
X589441Y1072467D01*
X590010Y1074591D01*
Y1076789D01*
X589441Y1078913D01*
X588342Y1080817D01*
X586787Y1082372D01*
X584883Y1083471D01*
X582759Y1084040D01*
D02*
G37*
G36*
X791039Y1081500D02*
X788841D01*
X786717Y1080931D01*
X784813Y1079832D01*
X783258Y1078277D01*
X782159Y1076373D01*
X781590Y1074249D01*
Y1072051D01*
X782159Y1069927D01*
X783258Y1068023D01*
X784813Y1066468D01*
X786717Y1065369D01*
X788841Y1064800D01*
X791039D01*
X793163Y1065369D01*
X795067Y1066468D01*
X796622Y1068023D01*
X797721Y1069927D01*
X798290Y1072051D01*
Y1074249D01*
X797721Y1076373D01*
X796622Y1078277D01*
X795067Y1079832D01*
X793163Y1080931D01*
X791039Y1081500D01*
D02*
G37*
G36*
X531959Y1117060D02*
X529761D01*
X527637Y1116491D01*
X525733Y1115392D01*
X524178Y1113837D01*
X523079Y1111933D01*
X522510Y1109809D01*
Y1107611D01*
X523079Y1105487D01*
X524178Y1103583D01*
X525733Y1102028D01*
X526255Y1101727D01*
Y1078715D01*
X524462Y1077679D01*
X522907Y1076125D01*
X521808Y1074221D01*
X521239Y1072097D01*
Y1069898D01*
X521808Y1067775D01*
X522907Y1065871D01*
X524462Y1064316D01*
X526366Y1063217D01*
X528490Y1062648D01*
X530688D01*
X532812Y1063217D01*
X534716Y1064316D01*
X536271Y1065871D01*
X537370Y1067775D01*
X537939Y1069898D01*
Y1072097D01*
X537370Y1074221D01*
X536271Y1076125D01*
X534716Y1077679D01*
X532923Y1078715D01*
Y1100618D01*
X534083Y1100929D01*
X535987Y1102028D01*
X537542Y1103583D01*
X538641Y1105487D01*
X539210Y1107611D01*
Y1109809D01*
X538641Y1111933D01*
X537542Y1113837D01*
X535987Y1115392D01*
X534083Y1116491D01*
X531959Y1117060D01*
D02*
G37*
G36*
X364537Y1108550D02*
X361903D01*
X359360Y1107868D01*
X357080Y1106552D01*
X355218Y1104690D01*
X353901Y1102410D01*
X353220Y1099866D01*
Y1097234D01*
X353901Y1094690D01*
X355218Y1092410D01*
X357080Y1090548D01*
X359360Y1089231D01*
X359886Y1089091D01*
Y1059291D01*
X353619Y1053024D01*
X351619Y1053560D01*
X349421D01*
X347297Y1052991D01*
X345393Y1051892D01*
X343838Y1050337D01*
X342739Y1048433D01*
X342170Y1046309D01*
Y1044111D01*
X342739Y1041987D01*
X343838Y1040083D01*
X345393Y1038528D01*
X347297Y1037429D01*
X349421Y1036860D01*
X351619D01*
X353743Y1037429D01*
X355647Y1038528D01*
X357202Y1040083D01*
X358301Y1041987D01*
X358870Y1044111D01*
Y1046309D01*
X358334Y1048309D01*
X365578Y1055553D01*
X366300Y1056634D01*
X366554Y1057910D01*
Y1089091D01*
X367080Y1089231D01*
X369360Y1090548D01*
X371222Y1092410D01*
X372538Y1094690D01*
X373220Y1097234D01*
Y1099866D01*
X372538Y1102410D01*
X371222Y1104690D01*
X369360Y1106552D01*
X367080Y1107868D01*
X364537Y1108550D01*
D02*
G37*
G36*
X1064089Y1054830D02*
X1061891D01*
X1059767Y1054261D01*
X1057863Y1053162D01*
X1056308Y1051607D01*
X1055209Y1049703D01*
X1054640Y1047579D01*
Y1045381D01*
X1055209Y1043257D01*
X1056308Y1041353D01*
X1057863Y1039798D01*
X1059767Y1038699D01*
X1061891Y1038130D01*
X1064089D01*
X1066213Y1038699D01*
X1068117Y1039798D01*
X1069672Y1041353D01*
X1070771Y1043257D01*
X1071340Y1045381D01*
Y1047579D01*
X1070771Y1049703D01*
X1069672Y1051607D01*
X1068117Y1053162D01*
X1066213Y1054261D01*
X1064089Y1054830D01*
D02*
G37*
G36*
X1254589Y1051020D02*
X1252391D01*
X1250267Y1050451D01*
X1248363Y1049352D01*
X1246808Y1047797D01*
X1245709Y1045893D01*
X1245140Y1043769D01*
Y1041571D01*
X1245709Y1039447D01*
X1246808Y1037543D01*
X1248363Y1035988D01*
X1250267Y1034889D01*
X1252391Y1034320D01*
X1254589D01*
X1256713Y1034889D01*
X1258617Y1035988D01*
X1260172Y1037543D01*
X1261271Y1039447D01*
X1261840Y1041571D01*
Y1043769D01*
X1261271Y1045893D01*
X1260172Y1047797D01*
X1258617Y1049352D01*
X1256713Y1050451D01*
X1254589Y1051020D01*
D02*
G37*
G36*
X791626Y1039590D02*
X789427D01*
X787303Y1039021D01*
X785399Y1037922D01*
X783845Y1036367D01*
X782745Y1034463D01*
X782176Y1032339D01*
Y1030141D01*
X782745Y1028017D01*
X783845Y1026113D01*
X785399Y1024558D01*
X787303Y1023459D01*
X789427Y1022890D01*
X791626D01*
X793749Y1023459D01*
X795653Y1024558D01*
X797208Y1026113D01*
X798307Y1028017D01*
X798876Y1030141D01*
Y1032339D01*
X798307Y1034463D01*
X797208Y1036367D01*
X795653Y1037922D01*
X793749Y1039021D01*
X791626Y1039590D01*
D02*
G37*
G36*
X311120Y1021810D02*
X308921D01*
X306798Y1021241D01*
X304893Y1020142D01*
X303339Y1018587D01*
X302239Y1016683D01*
X301670Y1014559D01*
Y1012361D01*
X302239Y1010237D01*
X303339Y1008333D01*
X304893Y1006778D01*
X306798Y1005679D01*
X308921Y1005110D01*
X311120D01*
X313243Y1005679D01*
X315147Y1006778D01*
X316702Y1008333D01*
X317801Y1010237D01*
X318370Y1012361D01*
Y1014559D01*
X317801Y1016683D01*
X316702Y1018587D01*
X315147Y1020142D01*
X313243Y1021241D01*
X311120Y1021810D01*
D02*
G37*
G36*
X1734201Y1039310D02*
X1730359D01*
X1726592Y1038561D01*
X1723043Y1037091D01*
X1719850Y1034957D01*
X1717133Y1032241D01*
X1714999Y1029047D01*
X1713529Y1025498D01*
X1712780Y1021731D01*
Y1017889D01*
X1713529Y1014122D01*
X1714999Y1010573D01*
X1717133Y1007380D01*
X1719850Y1004663D01*
X1723043Y1002529D01*
X1726592Y1001059D01*
X1730359Y1000310D01*
X1734201D01*
X1737968Y1001059D01*
X1741517Y1002529D01*
X1744711Y1004663D01*
X1747427Y1007380D01*
X1749561Y1010573D01*
X1751031Y1014122D01*
X1751780Y1017889D01*
Y1021731D01*
X1751031Y1025498D01*
X1749561Y1029047D01*
X1747427Y1032241D01*
X1744711Y1034957D01*
X1741517Y1037091D01*
X1737968Y1038561D01*
X1734201Y1039310D01*
D02*
G37*
G36*
X1495441Y1038040D02*
X1491599D01*
X1487832Y1037291D01*
X1484283Y1035821D01*
X1481089Y1033687D01*
X1478373Y1030971D01*
X1476239Y1027777D01*
X1474769Y1024228D01*
X1474020Y1020461D01*
Y1016619D01*
X1474769Y1012852D01*
X1476239Y1009303D01*
X1478373Y1006109D01*
X1481089Y1003393D01*
X1484283Y1001259D01*
X1487832Y999789D01*
X1491599Y999040D01*
X1495441D01*
X1499208Y999789D01*
X1502757Y1001259D01*
X1505950Y1003393D01*
X1508667Y1006109D01*
X1510801Y1009303D01*
X1512271Y1012852D01*
X1513020Y1016619D01*
Y1020461D01*
X1512271Y1024228D01*
X1510801Y1027777D01*
X1508667Y1030971D01*
X1505950Y1033687D01*
X1502757Y1035821D01*
X1499208Y1037291D01*
X1495441Y1038040D01*
D02*
G37*
G36*
X791039Y1015460D02*
X788841D01*
X786717Y1014891D01*
X784813Y1013792D01*
X783258Y1012237D01*
X782159Y1010333D01*
X781590Y1008209D01*
Y1006011D01*
X782159Y1003887D01*
X783258Y1001983D01*
X784813Y1000428D01*
X786717Y999329D01*
X788841Y998760D01*
X791039D01*
X793163Y999329D01*
X795067Y1000428D01*
X796622Y1001983D01*
X797721Y1003887D01*
X798290Y1006011D01*
Y1008209D01*
X797721Y1010333D01*
X796622Y1012237D01*
X795067Y1013792D01*
X793163Y1014891D01*
X791039Y1015460D01*
D02*
G37*
G36*
X1018521Y1011530D02*
X1016019D01*
X1013603Y1010883D01*
X1011437Y1009632D01*
X1009668Y1007863D01*
X1008417Y1005697D01*
X1007770Y1003281D01*
Y1000779D01*
X1008417Y998363D01*
X1009668Y996197D01*
X1011437Y994428D01*
X1013603Y993177D01*
X1016019Y992530D01*
X1018521D01*
X1020937Y993177D01*
X1023103Y994428D01*
X1024872Y996197D01*
X1026123Y998363D01*
X1026770Y1000779D01*
Y1003281D01*
X1026123Y1005697D01*
X1024872Y1007863D01*
X1023103Y1009632D01*
X1020937Y1010883D01*
X1018521Y1011530D01*
D02*
G37*
G36*
X726269Y1007840D02*
X724071D01*
X721947Y1007271D01*
X720043Y1006172D01*
X718488Y1004617D01*
X717389Y1002713D01*
X716820Y1000589D01*
Y998391D01*
X717389Y996267D01*
X718488Y994363D01*
X720043Y992808D01*
X721947Y991709D01*
X724071Y991140D01*
X726269D01*
X728393Y991709D01*
X730297Y992808D01*
X731852Y994363D01*
X732951Y996267D01*
X733520Y998391D01*
Y1000589D01*
X732951Y1002713D01*
X731852Y1004617D01*
X730297Y1006172D01*
X728393Y1007271D01*
X726269Y1007840D01*
D02*
G37*
G36*
X816439Y1006570D02*
X814241D01*
X812117Y1006001D01*
X810213Y1004902D01*
X808658Y1003347D01*
X807559Y1001443D01*
X806990Y999319D01*
Y997121D01*
X807559Y994997D01*
X808658Y993093D01*
X810213Y991538D01*
X812117Y990439D01*
X814241Y989870D01*
X816439D01*
X818563Y990439D01*
X820467Y991538D01*
X822022Y993093D01*
X823121Y994997D01*
X823690Y997121D01*
Y999319D01*
X823121Y1001443D01*
X822022Y1003347D01*
X820467Y1004902D01*
X818563Y1006001D01*
X816439Y1006570D01*
D02*
G37*
G36*
X838029Y1005300D02*
X835831D01*
X833707Y1004731D01*
X831803Y1003632D01*
X830248Y1002077D01*
X829149Y1000173D01*
X828580Y998049D01*
Y995851D01*
X829149Y993727D01*
X830248Y991823D01*
X831803Y990268D01*
X833707Y989169D01*
X835831Y988600D01*
X838029D01*
X840153Y989169D01*
X842057Y990268D01*
X843612Y991823D01*
X844711Y993727D01*
X845280Y995851D01*
Y998049D01*
X844711Y1000173D01*
X843612Y1002077D01*
X842057Y1003632D01*
X840153Y1004731D01*
X838029Y1005300D01*
D02*
G37*
G36*
X1268559Y1001490D02*
X1266361D01*
X1264237Y1000921D01*
X1262333Y999822D01*
X1260778Y998267D01*
X1259679Y996363D01*
X1259110Y994239D01*
Y992041D01*
X1259679Y989917D01*
X1260778Y988013D01*
X1262333Y986458D01*
X1264237Y985359D01*
X1266361Y984790D01*
X1268559D01*
X1270683Y985359D01*
X1272587Y986458D01*
X1274142Y988013D01*
X1275241Y989917D01*
X1275810Y992041D01*
Y994239D01*
X1275241Y996363D01*
X1274142Y998267D01*
X1272587Y999822D01*
X1270683Y1000921D01*
X1268559Y1001490D01*
D02*
G37*
G36*
X1556401Y1013910D02*
X1552559D01*
X1548792Y1013161D01*
X1545243Y1011691D01*
X1542050Y1009557D01*
X1539333Y1006841D01*
X1537199Y1003647D01*
X1535729Y1000098D01*
X1534980Y996331D01*
Y992489D01*
X1535729Y988722D01*
X1537199Y985173D01*
X1539333Y981980D01*
X1542050Y979263D01*
X1545243Y977129D01*
X1548792Y975659D01*
X1552559Y974910D01*
X1556401D01*
X1560168Y975659D01*
X1563717Y977129D01*
X1566911Y979263D01*
X1569627Y981980D01*
X1571761Y985173D01*
X1573231Y988722D01*
X1573980Y992489D01*
Y996331D01*
X1573231Y1000098D01*
X1571761Y1003647D01*
X1569627Y1006841D01*
X1566911Y1009557D01*
X1563717Y1011691D01*
X1560168Y1013161D01*
X1556401Y1013910D01*
D02*
G37*
G36*
X1317641Y1012640D02*
X1313799D01*
X1310032Y1011891D01*
X1306483Y1010421D01*
X1303289Y1008287D01*
X1300573Y1005571D01*
X1298439Y1002377D01*
X1296969Y998828D01*
X1296220Y995061D01*
Y991219D01*
X1296969Y987452D01*
X1298439Y983903D01*
X1300573Y980710D01*
X1303289Y977993D01*
X1306483Y975859D01*
X1310032Y974389D01*
X1313799Y973640D01*
X1317641D01*
X1321408Y974389D01*
X1324957Y975859D01*
X1328150Y977993D01*
X1330867Y980710D01*
X1333001Y983903D01*
X1334471Y987452D01*
X1335220Y991219D01*
Y995061D01*
X1334471Y998828D01*
X1333001Y1002377D01*
X1330867Y1005571D01*
X1328150Y1008287D01*
X1324957Y1010421D01*
X1321408Y1011891D01*
X1317641Y1012640D01*
D02*
G37*
G36*
X1117429Y981170D02*
X1115231D01*
X1113107Y980601D01*
X1111203Y979502D01*
X1109648Y977947D01*
X1108549Y976043D01*
X1107980Y973919D01*
Y971721D01*
X1108549Y969597D01*
X1109648Y967693D01*
X1111203Y966138D01*
X1113107Y965039D01*
X1115231Y964470D01*
X1117429D01*
X1119553Y965039D01*
X1121457Y966138D01*
X1123012Y967693D01*
X1124111Y969597D01*
X1124680Y971721D01*
Y973919D01*
X1124111Y976043D01*
X1123012Y977947D01*
X1121457Y979502D01*
X1119553Y980601D01*
X1117429Y981170D01*
D02*
G37*
G36*
X337938Y960500D02*
X337820D01*
Y951230D01*
X347090D01*
Y951348D01*
X346372Y954028D01*
X344984Y956432D01*
X343022Y958394D01*
X340618Y959782D01*
X337938Y960500D01*
D02*
G37*
G36*
X335280D02*
X335162D01*
X332482Y959782D01*
X330078Y958394D01*
X328116Y956432D01*
X326728Y954028D01*
X326010Y951348D01*
Y951230D01*
X335280D01*
Y960500D01*
D02*
G37*
G36*
X347090Y948690D02*
X337820D01*
Y939420D01*
X337938D01*
X340618Y940138D01*
X343022Y941526D01*
X344984Y943488D01*
X346372Y945892D01*
X347090Y948572D01*
Y948690D01*
D02*
G37*
G36*
X335280D02*
X326010D01*
Y948572D01*
X326728Y945892D01*
X328116Y943488D01*
X330078Y941526D01*
X332482Y940138D01*
X335162Y939420D01*
X335280D01*
Y948690D01*
D02*
G37*
G36*
X1219029Y946880D02*
X1216831D01*
X1214707Y946311D01*
X1212803Y945212D01*
X1211248Y943657D01*
X1210149Y941753D01*
X1209580Y939629D01*
Y937431D01*
X1210149Y935307D01*
X1211248Y933403D01*
X1212803Y931848D01*
X1214707Y930749D01*
X1216831Y930180D01*
X1219029D01*
X1221153Y930749D01*
X1223057Y931848D01*
X1224612Y933403D01*
X1225711Y935307D01*
X1226280Y937431D01*
Y939629D01*
X1225711Y941753D01*
X1224612Y943657D01*
X1223057Y945212D01*
X1221153Y946311D01*
X1219029Y946880D01*
D02*
G37*
G36*
X756749Y939260D02*
X754551D01*
X752427Y938691D01*
X750523Y937592D01*
X748968Y936037D01*
X747869Y934133D01*
X747300Y932009D01*
Y929811D01*
X747869Y927687D01*
X748968Y925783D01*
X750523Y924228D01*
X752427Y923129D01*
X754551Y922560D01*
X756749D01*
X758873Y923129D01*
X760777Y924228D01*
X762332Y925783D01*
X763431Y927687D01*
X764000Y929811D01*
Y932009D01*
X763431Y934133D01*
X762332Y936037D01*
X760777Y937592D01*
X758873Y938691D01*
X756749Y939260D01*
D02*
G37*
G36*
X822789Y937990D02*
X820591D01*
X818467Y937421D01*
X816563Y936322D01*
X815008Y934767D01*
X813909Y932863D01*
X813340Y930739D01*
Y928541D01*
X813909Y926417D01*
X815008Y924513D01*
X816563Y922958D01*
X818467Y921859D01*
X820591Y921290D01*
X822789D01*
X824913Y921859D01*
X826817Y922958D01*
X828372Y924513D01*
X829471Y926417D01*
X830040Y928541D01*
Y930739D01*
X829471Y932863D01*
X828372Y934767D01*
X826817Y936322D01*
X824913Y937421D01*
X822789Y937990D01*
D02*
G37*
G36*
X1151890Y921993D02*
Y914400D01*
X1159483D01*
X1158904Y916561D01*
X1157734Y918589D01*
X1156079Y920244D01*
X1154051Y921414D01*
X1151890Y921993D01*
D02*
G37*
G36*
X1149350D02*
X1147189Y921414D01*
X1145161Y920244D01*
X1143506Y918589D01*
X1142336Y916561D01*
X1141757Y914400D01*
X1149350D01*
Y921993D01*
D02*
G37*
G36*
X1159483Y911860D02*
X1151890D01*
Y904267D01*
X1154051Y904846D01*
X1156079Y906016D01*
X1157734Y907671D01*
X1158904Y909699D01*
X1159483Y911860D01*
D02*
G37*
G36*
X1149350D02*
X1141757D01*
X1142336Y909699D01*
X1143506Y907671D01*
X1145161Y906016D01*
X1147189Y904846D01*
X1149350Y904267D01*
Y911860D01*
D02*
G37*
G36*
X618319Y912590D02*
X616121D01*
X613997Y912021D01*
X612093Y910922D01*
X610538Y909367D01*
X609439Y907463D01*
X608870Y905339D01*
Y903141D01*
X609439Y901017D01*
X610538Y899113D01*
X612093Y897558D01*
X613997Y896459D01*
X616121Y895890D01*
X618319D01*
X620443Y896459D01*
X622347Y897558D01*
X623902Y899113D01*
X625001Y901017D01*
X625570Y903141D01*
Y905339D01*
X625001Y907463D01*
X623902Y909367D01*
X622347Y910922D01*
X620443Y912021D01*
X618319Y912590D01*
D02*
G37*
G36*
X904069Y911320D02*
X901871D01*
X899747Y910751D01*
X897843Y909652D01*
X896288Y908097D01*
X895189Y906193D01*
X894620Y904069D01*
Y901871D01*
X895189Y899747D01*
X896288Y897843D01*
X897843Y896288D01*
X899747Y895189D01*
X901871Y894620D01*
X904069D01*
X906193Y895189D01*
X908097Y896288D01*
X909652Y897843D01*
X910751Y899747D01*
X911320Y901871D01*
Y904069D01*
X910751Y906193D01*
X909652Y908097D01*
X908097Y909652D01*
X906193Y910751D01*
X904069Y911320D01*
D02*
G37*
G36*
X337867Y909160D02*
X335233D01*
X332690Y908478D01*
X330410Y907162D01*
X328548Y905300D01*
X327231Y903020D01*
X326550Y900477D01*
Y897843D01*
X327231Y895300D01*
X328548Y893020D01*
X330410Y891158D01*
X332690Y889842D01*
X335233Y889160D01*
X337867D01*
X340410Y889842D01*
X342690Y891158D01*
X344552Y893020D01*
X345868Y895300D01*
X346550Y897843D01*
Y900477D01*
X345868Y903020D01*
X344552Y905300D01*
X342690Y907162D01*
X340410Y908478D01*
X337867Y909160D01*
D02*
G37*
G36*
X1257300Y895323D02*
Y887730D01*
X1264893D01*
X1264314Y889891D01*
X1263144Y891919D01*
X1261489Y893574D01*
X1259461Y894744D01*
X1257300Y895323D01*
D02*
G37*
G36*
X1254760D02*
X1252599Y894744D01*
X1250571Y893574D01*
X1248916Y891919D01*
X1247746Y889891D01*
X1247167Y887730D01*
X1254760D01*
Y895323D01*
D02*
G37*
G36*
X1264893Y885190D02*
X1257300D01*
Y877597D01*
X1259461Y878176D01*
X1261489Y879346D01*
X1263144Y881001D01*
X1264314Y883029D01*
X1264893Y885190D01*
D02*
G37*
G36*
X1254760D02*
X1247167D01*
X1247746Y883029D01*
X1248916Y881001D01*
X1250571Y879346D01*
X1252599Y878176D01*
X1254760Y877597D01*
Y885190D01*
D02*
G37*
G36*
X1594028Y878410D02*
X1591132D01*
X1588334Y877660D01*
X1585826Y876212D01*
X1583778Y874164D01*
X1582330Y871656D01*
X1582085Y870744D01*
X1474042D01*
X1472767Y870490D01*
X1471685Y869768D01*
X1467690Y865773D01*
X1466420Y866299D01*
Y867588D01*
X1465670Y870386D01*
X1464222Y872894D01*
X1462174Y874942D01*
X1459666Y876390D01*
X1456868Y877140D01*
X1453972D01*
X1451174Y876390D01*
X1448666Y874942D01*
X1446618Y872894D01*
X1445170Y870386D01*
X1444420Y867588D01*
Y864692D01*
X1445170Y861894D01*
X1446618Y859386D01*
X1448666Y857338D01*
X1451174Y855890D01*
X1453972Y855140D01*
X1455261D01*
X1455787Y853870D01*
X1348201Y746284D01*
X1150717D01*
X1149682Y748077D01*
X1148127Y749632D01*
X1146223Y750731D01*
X1144099Y751300D01*
X1141901D01*
X1139777Y750731D01*
X1137873Y749632D01*
X1136318Y748077D01*
X1135219Y746173D01*
X1134650Y744049D01*
Y741851D01*
X1135219Y739727D01*
X1136318Y737823D01*
X1137873Y736268D01*
X1139777Y735169D01*
X1141901Y734600D01*
X1144099D01*
X1146223Y735169D01*
X1148127Y736268D01*
X1149682Y737823D01*
X1150717Y739616D01*
X1349581D01*
X1349584Y739613D01*
X1350206Y738445D01*
X1349678Y737917D01*
X1348579Y736013D01*
X1348010Y733889D01*
Y731691D01*
X1348579Y729567D01*
X1349678Y727663D01*
X1351233Y726108D01*
X1353137Y725009D01*
X1355261Y724440D01*
X1357459D01*
X1359583Y725009D01*
X1361487Y726108D01*
X1363042Y727663D01*
X1364141Y729567D01*
X1364710Y731691D01*
Y733889D01*
X1364141Y736013D01*
X1363042Y737917D01*
X1361487Y739472D01*
X1359583Y740571D01*
X1357459Y741140D01*
X1355261D01*
X1353926Y740782D01*
X1353268Y741921D01*
X1475423Y864076D01*
X1582085D01*
X1582330Y863164D01*
X1583778Y860656D01*
X1585826Y858608D01*
X1588334Y857160D01*
X1591132Y856410D01*
X1594028D01*
X1596826Y857160D01*
X1599334Y858608D01*
X1601382Y860656D01*
X1602830Y863164D01*
X1603580Y865962D01*
Y868858D01*
X1602830Y871656D01*
X1601382Y874164D01*
X1599334Y876212D01*
X1596826Y877660D01*
X1594028Y878410D01*
D02*
G37*
G36*
X832949Y878300D02*
X830751D01*
X828627Y877731D01*
X826723Y876632D01*
X825168Y875077D01*
X824069Y873173D01*
X823500Y871049D01*
Y868851D01*
X824069Y866727D01*
X825168Y864823D01*
X826723Y863268D01*
X828627Y862169D01*
X830751Y861600D01*
X832949D01*
X835073Y862169D01*
X836977Y863268D01*
X838532Y864823D01*
X839631Y866727D01*
X840200Y868851D01*
Y871049D01*
X839631Y873173D01*
X838532Y875077D01*
X836977Y876632D01*
X835073Y877731D01*
X832949Y878300D01*
D02*
G37*
G36*
X1695628Y878410D02*
X1692732D01*
X1689934Y877660D01*
X1687426Y876212D01*
X1685378Y874164D01*
X1683930Y871656D01*
X1683180Y868858D01*
Y865962D01*
X1683930Y863164D01*
X1685378Y860656D01*
X1687426Y858608D01*
X1689934Y857160D01*
X1692732Y856410D01*
X1695628D01*
X1698426Y857160D01*
X1700934Y858608D01*
X1702982Y860656D01*
X1704430Y863164D01*
X1705180Y865962D01*
Y868858D01*
X1704430Y871656D01*
X1702982Y874164D01*
X1700934Y876212D01*
X1698426Y877660D01*
X1695628Y878410D01*
D02*
G37*
G36*
X1355268Y877140D02*
X1352372D01*
X1349574Y876390D01*
X1347066Y874942D01*
X1345018Y872894D01*
X1343570Y870386D01*
X1342820Y867588D01*
Y864692D01*
X1343570Y861894D01*
X1345018Y859386D01*
X1347066Y857338D01*
X1349574Y855890D01*
X1352372Y855140D01*
X1355268D01*
X1358066Y855890D01*
X1360574Y857338D01*
X1362622Y859386D01*
X1364070Y861894D01*
X1364820Y864692D01*
Y867588D01*
X1364070Y870386D01*
X1362622Y872894D01*
X1360574Y874942D01*
X1358066Y876390D01*
X1355268Y877140D01*
D02*
G37*
G36*
X514179Y866490D02*
X511981D01*
X509857Y865921D01*
X507953Y864822D01*
X506398Y863267D01*
X505299Y861363D01*
X504730Y859239D01*
Y857041D01*
X505299Y854917D01*
X506398Y853013D01*
X507953Y851458D01*
X509857Y850359D01*
X511981Y849790D01*
X514179D01*
X516303Y850359D01*
X518207Y851458D01*
X519762Y853013D01*
X520861Y854917D01*
X521430Y857041D01*
Y859239D01*
X520861Y861363D01*
X519762Y863267D01*
X518207Y864822D01*
X516303Y865921D01*
X514179Y866490D01*
D02*
G37*
G36*
X1029799Y864330D02*
X1027601D01*
X1025477Y863761D01*
X1023573Y862662D01*
X1022018Y861107D01*
X1020919Y859203D01*
X1020350Y857079D01*
Y854881D01*
X1020919Y852757D01*
X1022018Y850853D01*
X1023573Y849298D01*
X1025477Y848199D01*
X1027601Y847630D01*
X1029799D01*
X1031923Y848199D01*
X1033827Y849298D01*
X1035382Y850853D01*
X1036481Y852757D01*
X1037050Y854881D01*
Y857079D01*
X1036481Y859203D01*
X1035382Y861107D01*
X1033827Y862662D01*
X1031923Y863761D01*
X1029799Y864330D01*
D02*
G37*
G36*
X1050290Y854710D02*
X1042697D01*
X1043276Y852549D01*
X1044446Y850521D01*
X1046101Y848866D01*
X1048129Y847696D01*
X1050290Y847117D01*
Y854710D01*
D02*
G37*
G36*
X675640Y850873D02*
Y843280D01*
X683233D01*
X682654Y845441D01*
X681484Y847469D01*
X679829Y849124D01*
X677801Y850294D01*
X675640Y850873D01*
D02*
G37*
G36*
X673100D02*
X670939Y850294D01*
X668911Y849124D01*
X667256Y847469D01*
X666086Y845441D01*
X665507Y843280D01*
X673100D01*
Y850873D01*
D02*
G37*
G36*
X859790Y845793D02*
Y838200D01*
X867383D01*
X866804Y840361D01*
X865634Y842389D01*
X863979Y844044D01*
X861951Y845214D01*
X859790Y845793D01*
D02*
G37*
G36*
X857250D02*
X855089Y845214D01*
X853061Y844044D01*
X851406Y842389D01*
X850236Y840361D01*
X849657Y838200D01*
X857250D01*
Y845793D01*
D02*
G37*
G36*
X683233Y840740D02*
X675640D01*
Y833147D01*
X677801Y833726D01*
X679829Y834896D01*
X681484Y836551D01*
X682654Y838579D01*
X683233Y840740D01*
D02*
G37*
G36*
X673100D02*
X665507D01*
X666086Y838579D01*
X667256Y836551D01*
X668911Y834896D01*
X670939Y833726D01*
X673100Y833147D01*
Y840740D01*
D02*
G37*
G36*
X416389Y845280D02*
X414191D01*
X412067Y844711D01*
X410163Y843612D01*
X408608Y842057D01*
X407509Y840153D01*
X406940Y838029D01*
Y835831D01*
X407509Y833707D01*
X408608Y831803D01*
X410163Y830248D01*
X412067Y829149D01*
X414191Y828580D01*
X416389D01*
X418513Y829149D01*
X420417Y830248D01*
X421972Y831803D01*
X423071Y833707D01*
X423640Y835831D01*
Y838029D01*
X423071Y840153D01*
X421972Y842057D01*
X420417Y843612D01*
X418513Y844711D01*
X416389Y845280D01*
D02*
G37*
G36*
X867383Y835660D02*
X859790D01*
Y828067D01*
X861951Y828646D01*
X863979Y829816D01*
X865634Y831471D01*
X866804Y833499D01*
X867383Y835660D01*
D02*
G37*
G36*
X857250D02*
X849657D01*
X850236Y833499D01*
X851406Y831471D01*
X853061Y829816D01*
X855089Y828646D01*
X857250Y828067D01*
Y835660D01*
D02*
G37*
G36*
X638639Y842740D02*
X636441D01*
X634317Y842171D01*
X632413Y841072D01*
X630858Y839517D01*
X629759Y837613D01*
X629190Y835489D01*
Y833291D01*
X629759Y831167D01*
X630858Y829263D01*
X632413Y827708D01*
X634317Y826609D01*
X636441Y826040D01*
X638639D01*
X640763Y826609D01*
X642667Y827708D01*
X644222Y829263D01*
X645321Y831167D01*
X645890Y833291D01*
Y835489D01*
X645321Y837613D01*
X644222Y839517D01*
X642667Y841072D01*
X640763Y842171D01*
X638639Y842740D01*
D02*
G37*
G36*
X548640Y831823D02*
Y824230D01*
X556233D01*
X555654Y826391D01*
X554484Y828419D01*
X552829Y830074D01*
X550801Y831244D01*
X548640Y831823D01*
D02*
G37*
G36*
X546100D02*
X543939Y831244D01*
X541911Y830074D01*
X540256Y828419D01*
X539086Y826391D01*
X538507Y824230D01*
X546100D01*
Y831823D01*
D02*
G37*
G36*
X556233Y821690D02*
X548640D01*
Y814097D01*
X550801Y814676D01*
X552829Y815846D01*
X554484Y817501D01*
X555654Y819529D01*
X556233Y821690D01*
D02*
G37*
G36*
X546100D02*
X538507D01*
X539086Y819529D01*
X540256Y817501D01*
X541911Y815846D01*
X543939Y814676D01*
X546100Y814097D01*
Y821690D01*
D02*
G37*
G36*
X337867Y820260D02*
X335233D01*
X332690Y819578D01*
X330410Y818262D01*
X328548Y816400D01*
X327231Y814120D01*
X326550Y811577D01*
Y808943D01*
X327231Y806400D01*
X328548Y804120D01*
X330410Y802258D01*
X332690Y800941D01*
X335233Y800260D01*
X337867D01*
X340410Y800941D01*
X342690Y802258D01*
X344552Y804120D01*
X345868Y806400D01*
X346550Y808943D01*
Y811577D01*
X345868Y814120D01*
X344552Y816400D01*
X342690Y818262D01*
X340410Y819578D01*
X337867Y820260D01*
D02*
G37*
G36*
X1115060Y805153D02*
Y797560D01*
X1122653D01*
X1122074Y799721D01*
X1120904Y801749D01*
X1119249Y803404D01*
X1117221Y804574D01*
X1115060Y805153D01*
D02*
G37*
G36*
X1112520D02*
X1110359Y804574D01*
X1108331Y803404D01*
X1106676Y801749D01*
X1105506Y799721D01*
X1104927Y797560D01*
X1112520D01*
Y805153D01*
D02*
G37*
G36*
X1122653Y795020D02*
X1115060D01*
Y787427D01*
X1117221Y788006D01*
X1119249Y789176D01*
X1120904Y790831D01*
X1122074Y792859D01*
X1122653Y795020D01*
D02*
G37*
G36*
X1112520D02*
X1104927D01*
X1105506Y792859D01*
X1106676Y790831D01*
X1108331Y789176D01*
X1110359Y788006D01*
X1112520Y787427D01*
Y795020D01*
D02*
G37*
G36*
X450679Y1172940D02*
X448481D01*
X446357Y1172371D01*
X444453Y1171272D01*
X442898Y1169717D01*
X441799Y1167813D01*
X441230Y1165689D01*
Y1163491D01*
X441799Y1161367D01*
X442898Y1159463D01*
X444453Y1157908D01*
X446246Y1156873D01*
Y780725D01*
X444976Y780557D01*
X444661Y781733D01*
X443562Y783637D01*
X442007Y785192D01*
X440103Y786291D01*
X437979Y786860D01*
X435781D01*
X433657Y786291D01*
X431753Y785192D01*
X430198Y783637D01*
X429099Y781733D01*
X428530Y779609D01*
Y777411D01*
X429099Y775287D01*
X430198Y773383D01*
X431753Y771828D01*
X433546Y770793D01*
Y519795D01*
X433800Y518519D01*
X434523Y517438D01*
X556355Y395605D01*
X557437Y394882D01*
X558713Y394629D01*
X583271D01*
X657944Y319956D01*
X657466Y318638D01*
X655699Y318164D01*
X653671Y316994D01*
X652016Y315339D01*
X650846Y313311D01*
X650267Y311150D01*
X659130D01*
Y309880D01*
X660400D01*
Y301017D01*
X662561Y301596D01*
X664589Y302766D01*
X666244Y304421D01*
X667414Y306449D01*
X667888Y308216D01*
X669205Y308694D01*
X690157Y287743D01*
X691239Y287020D01*
X692515Y286766D01*
X1407335D01*
X1408611Y287020D01*
X1409692Y287743D01*
X1462858Y340908D01*
X1463580Y341989D01*
X1463834Y343265D01*
Y391063D01*
X1465627Y392098D01*
X1467182Y393653D01*
X1468281Y395557D01*
X1468850Y397681D01*
Y399879D01*
X1468281Y402003D01*
X1467182Y403907D01*
X1465627Y405462D01*
X1463723Y406561D01*
X1461599Y407130D01*
X1459401D01*
X1457277Y406561D01*
X1455373Y405462D01*
X1453818Y403907D01*
X1452719Y402003D01*
X1452150Y399879D01*
Y397681D01*
X1452719Y395557D01*
X1453818Y393653D01*
X1455373Y392098D01*
X1457166Y391063D01*
Y344646D01*
X1436919Y324399D01*
X1436457Y324591D01*
X1435727Y325003D01*
X1435191Y327003D01*
X1434092Y328907D01*
X1432537Y330462D01*
X1430633Y331561D01*
X1428509Y332130D01*
X1426311D01*
X1424311Y331594D01*
X1343338Y412567D01*
X1342256Y413290D01*
X1340980Y413544D01*
X1291265D01*
X1291097Y414814D01*
X1292273Y415129D01*
X1294177Y416228D01*
X1295732Y417783D01*
X1296831Y419687D01*
X1297400Y421811D01*
Y424009D01*
X1296831Y426133D01*
X1295732Y428037D01*
X1294177Y429592D01*
X1292273Y430691D01*
X1290149Y431260D01*
X1287951D01*
X1285951Y430724D01*
X1284003Y432673D01*
X1284660Y433811D01*
X1285411Y433610D01*
X1287609D01*
X1289733Y434179D01*
X1291637Y435278D01*
X1293192Y436833D01*
X1294291Y438737D01*
X1294860Y440861D01*
Y443059D01*
X1294291Y445183D01*
X1293192Y447087D01*
X1291637Y448642D01*
X1289733Y449741D01*
X1287609Y450310D01*
X1285411D01*
X1283287Y449741D01*
X1282581Y449334D01*
X1198594Y533321D01*
Y646311D01*
Y662821D01*
X1198340Y664096D01*
X1197617Y665178D01*
X1099518Y763278D01*
X1098436Y764000D01*
X1097160Y764254D01*
X1086136D01*
X1077579Y772811D01*
X1077771Y773273D01*
X1078183Y774003D01*
X1080183Y774539D01*
X1082087Y775638D01*
X1083642Y777193D01*
X1084741Y779097D01*
X1085310Y781221D01*
Y783419D01*
X1084741Y785543D01*
X1083642Y787447D01*
X1082087Y789002D01*
X1080183Y790101D01*
X1078059Y790670D01*
X1075861D01*
X1073737Y790101D01*
X1071944Y789066D01*
X1071136Y789290D01*
X1070674Y789482D01*
Y865600D01*
X1070420Y866876D01*
X1069697Y867958D01*
X959644Y978011D01*
Y999393D01*
X961437Y1000428D01*
X962992Y1001983D01*
X964091Y1003887D01*
X964660Y1006011D01*
Y1008209D01*
X964091Y1010333D01*
X962992Y1012237D01*
X961437Y1013792D01*
X959533Y1014891D01*
X957409Y1015460D01*
X955211D01*
X953087Y1014891D01*
X951183Y1013792D01*
X949628Y1012237D01*
X948529Y1010333D01*
X947960Y1008209D01*
Y1006011D01*
X948529Y1003887D01*
X949628Y1001983D01*
X951183Y1000428D01*
X952976Y999393D01*
Y976630D01*
X953230Y975354D01*
X953952Y974273D01*
X1063178Y865047D01*
X1063144Y864877D01*
X1061766Y864459D01*
X915042Y1011183D01*
X916002Y1012143D01*
X917101Y1014047D01*
X917670Y1016171D01*
Y1018369D01*
X917101Y1020493D01*
X916002Y1022397D01*
X914447Y1023952D01*
X912543Y1025051D01*
X910419Y1025620D01*
X908221D01*
X906097Y1025051D01*
X904193Y1023952D01*
X902638Y1022397D01*
X901539Y1020493D01*
X900970Y1018369D01*
Y1016171D01*
X901539Y1014047D01*
X902638Y1012143D01*
X904193Y1010588D01*
X906097Y1009489D01*
X907748Y1009047D01*
X1050795Y866000D01*
X1050184Y864815D01*
X1048129Y864264D01*
X1046101Y863094D01*
X1044446Y861439D01*
X1043276Y859411D01*
X1042697Y857250D01*
X1051560D01*
Y855980D01*
X1052830D01*
Y847117D01*
X1054991Y847696D01*
X1056576Y848611D01*
X1057846Y848017D01*
Y778075D01*
X1058100Y776799D01*
X1058822Y775717D01*
X1078347Y756193D01*
X1078032Y754711D01*
X1076581Y753874D01*
X1074926Y752219D01*
X1073756Y750191D01*
X1073177Y748030D01*
X1090903D01*
X1090324Y750191D01*
X1089409Y751776D01*
X1090003Y753046D01*
X1093899D01*
X1187386Y659559D01*
Y620572D01*
X1186924Y620380D01*
X1186116Y620156D01*
X1184323Y621191D01*
X1182199Y621760D01*
X1180001D01*
X1177877Y621191D01*
X1175973Y620092D01*
X1174418Y618537D01*
X1173319Y616633D01*
X1172750Y614509D01*
Y612311D01*
X1173319Y610187D01*
X1174418Y608283D01*
X1175973Y606728D01*
X1177877Y605629D01*
X1180001Y605060D01*
X1182199D01*
X1184323Y605629D01*
X1186116Y606664D01*
X1186924Y606440D01*
X1187386Y606248D01*
Y530402D01*
X1186924Y530210D01*
X1186116Y529986D01*
X1184323Y531021D01*
X1182199Y531590D01*
X1180001D01*
X1177877Y531021D01*
X1175973Y529922D01*
X1174418Y528367D01*
X1173383Y526574D01*
X1159607D01*
X1158572Y528367D01*
X1157017Y529922D01*
X1155113Y531021D01*
X1152989Y531590D01*
X1150791D01*
X1148667Y531021D01*
X1146763Y529922D01*
X1145208Y528367D01*
X1144109Y526463D01*
X1143540Y524339D01*
Y522141D01*
X1144109Y520017D01*
X1145208Y518113D01*
X1146763Y516558D01*
X1148667Y515459D01*
X1150791Y514890D01*
X1152989D01*
X1155113Y515459D01*
X1157017Y516558D01*
X1158572Y518113D01*
X1159607Y519906D01*
X1173383D01*
X1174418Y518113D01*
X1175973Y516558D01*
X1177877Y515459D01*
X1180001Y514890D01*
X1182199D01*
X1184323Y515459D01*
X1186227Y516558D01*
X1187559Y517890D01*
X1188334Y518084D01*
X1189206Y518039D01*
X1281236Y426009D01*
X1280700Y424009D01*
Y421811D01*
X1281269Y419687D01*
X1282368Y417783D01*
X1283923Y416228D01*
X1285827Y415129D01*
X1287003Y414814D01*
X1286835Y413544D01*
X1265017D01*
X1263982Y415337D01*
X1262427Y416892D01*
X1260523Y417991D01*
X1258399Y418560D01*
X1256201D01*
X1254077Y417991D01*
X1252173Y416892D01*
X1250618Y415337D01*
X1249519Y413433D01*
X1248950Y411309D01*
Y409111D01*
X1249519Y406987D01*
X1250618Y405083D01*
X1252173Y403528D01*
X1254077Y402429D01*
X1256201Y401860D01*
X1258399D01*
X1260523Y402429D01*
X1262427Y403528D01*
X1263982Y405083D01*
X1265017Y406876D01*
X1339599D01*
X1419596Y326879D01*
X1419060Y324879D01*
Y322681D01*
X1419629Y320557D01*
X1420728Y318653D01*
X1422283Y317098D01*
X1424187Y315999D01*
X1426187Y315463D01*
X1426599Y314733D01*
X1426791Y314271D01*
X1405954Y293434D01*
X1339392D01*
X1339200Y293896D01*
X1338976Y294704D01*
X1340011Y296497D01*
X1340580Y298621D01*
Y300819D01*
X1340011Y302943D01*
X1338912Y304847D01*
X1337357Y306402D01*
X1335453Y307501D01*
X1333329Y308070D01*
X1331131D01*
X1329007Y307501D01*
X1327103Y306402D01*
X1325548Y304847D01*
X1324449Y302943D01*
X1323880Y300819D01*
Y298621D01*
X1324449Y296497D01*
X1325484Y294704D01*
X1325260Y293896D01*
X1325068Y293434D01*
X693896D01*
X587010Y400320D01*
X585928Y401043D01*
X584652Y401297D01*
X560094D01*
X440214Y521176D01*
Y770793D01*
X442007Y771828D01*
X443562Y773383D01*
X444661Y775287D01*
X444976Y776463D01*
X446246Y776295D01*
Y585065D01*
X446500Y583789D01*
X447223Y582708D01*
X453648Y576283D01*
X454729Y575560D01*
X456005Y575306D01*
X463975D01*
X465251Y575560D01*
X466332Y576283D01*
X471968Y581918D01*
X472690Y582999D01*
X472944Y584275D01*
Y593728D01*
X472690Y595004D01*
X471968Y596086D01*
X470694Y597360D01*
Y603586D01*
X572813D01*
X573849Y601793D01*
X575403Y600238D01*
X577307Y599139D01*
X579431Y598570D01*
X581630D01*
X583629Y599105D01*
X649846Y532889D01*
Y530492D01*
X650100Y529216D01*
X650822Y528135D01*
X834604Y344352D01*
X835686Y343630D01*
X836962Y343376D01*
X887633D01*
X888668Y341583D01*
X890223Y340028D01*
X892127Y338929D01*
X894251Y338360D01*
X896449D01*
X898573Y338929D01*
X900477Y340028D01*
X902032Y341583D01*
X903131Y343487D01*
X903700Y345611D01*
Y347809D01*
X903131Y349933D01*
X902032Y351837D01*
X900477Y353392D01*
X898573Y354491D01*
X896449Y355060D01*
X894251D01*
X892127Y354491D01*
X890223Y353392D01*
X888668Y351837D01*
X887633Y350044D01*
X838343D01*
X660619Y527768D01*
X660839Y529344D01*
X661652Y530157D01*
X662109Y531260D01*
X658100D01*
Y532530D01*
X656830D01*
Y536539D01*
X655864Y536139D01*
X655537Y536628D01*
X588344Y603820D01*
X588880Y605820D01*
Y608019D01*
X588311Y610143D01*
X587212Y612047D01*
X585657Y613601D01*
X583753Y614701D01*
X581630Y615270D01*
X579431D01*
X577307Y614701D01*
X575403Y613601D01*
X573849Y612047D01*
X572813Y610254D01*
X468848D01*
X467572Y610000D01*
X466490Y609277D01*
X465003Y607789D01*
X464594Y607178D01*
X463324Y607563D01*
Y777599D01*
X464327Y778178D01*
X465882Y779733D01*
X466981Y781637D01*
X467550Y783761D01*
Y785959D01*
X466981Y788083D01*
X465882Y789987D01*
X464327Y791542D01*
X462423Y792641D01*
X460299Y793210D01*
X458101D01*
X455977Y792641D01*
X454184Y791606D01*
X453376Y791830D01*
X452914Y792022D01*
Y1156873D01*
X454707Y1157908D01*
X456262Y1159463D01*
X457361Y1161367D01*
X457930Y1163491D01*
Y1165689D01*
X457361Y1167813D01*
X456262Y1169717D01*
X454707Y1171272D01*
X452803Y1172371D01*
X450679Y1172940D01*
D02*
G37*
G36*
X1695568Y789050D02*
X1695450D01*
Y779780D01*
X1704720D01*
Y779898D01*
X1704002Y782578D01*
X1702614Y784982D01*
X1700652Y786944D01*
X1698248Y788332D01*
X1695568Y789050D01*
D02*
G37*
G36*
X1692910D02*
X1692792D01*
X1690112Y788332D01*
X1687708Y786944D01*
X1685746Y784982D01*
X1684358Y782578D01*
X1683640Y779898D01*
Y779780D01*
X1692910D01*
Y789050D01*
D02*
G37*
G36*
X1492250Y783563D02*
Y775970D01*
X1499843D01*
X1499264Y778131D01*
X1498094Y780159D01*
X1496439Y781814D01*
X1494411Y782984D01*
X1492250Y783563D01*
D02*
G37*
G36*
X1489710D02*
X1487549Y782984D01*
X1485521Y781814D01*
X1483866Y780159D01*
X1482696Y778131D01*
X1482117Y775970D01*
X1489710D01*
Y783563D01*
D02*
G37*
G36*
X1533989Y791940D02*
X1531791D01*
X1529667Y791371D01*
X1527763Y790272D01*
X1526208Y788717D01*
X1525109Y786813D01*
X1524540Y784689D01*
Y782491D01*
X1525109Y780367D01*
X1526208Y778463D01*
X1527763Y776908D01*
X1529667Y775809D01*
X1531791Y775240D01*
X1533989D01*
X1536113Y775809D01*
X1538017Y776908D01*
X1539572Y778463D01*
X1540671Y780367D01*
X1541240Y782491D01*
Y784689D01*
X1540671Y786813D01*
X1539572Y788717D01*
X1538017Y790272D01*
X1536113Y791371D01*
X1533989Y791940D01*
D02*
G37*
G36*
X622129Y788130D02*
X619931D01*
X617807Y787561D01*
X615903Y786462D01*
X614348Y784907D01*
X613249Y783003D01*
X612680Y780879D01*
Y778681D01*
X613249Y776557D01*
X614348Y774653D01*
X615903Y773098D01*
X617807Y771999D01*
X619931Y771430D01*
X622129D01*
X624253Y771999D01*
X626157Y773098D01*
X627712Y774653D01*
X628811Y776557D01*
X629380Y778681D01*
Y780879D01*
X628811Y783003D01*
X627712Y784907D01*
X626157Y786462D01*
X624253Y787561D01*
X622129Y788130D01*
D02*
G37*
G36*
X1413491Y788010D02*
X1410989D01*
X1408573Y787363D01*
X1406407Y786112D01*
X1404638Y784343D01*
X1403387Y782177D01*
X1402740Y779761D01*
Y777259D01*
X1403387Y774843D01*
X1404638Y772677D01*
X1406407Y770908D01*
X1408573Y769657D01*
X1410989Y769010D01*
X1413491D01*
X1415907Y769657D01*
X1418073Y770908D01*
X1419842Y772677D01*
X1421093Y774843D01*
X1421740Y777259D01*
Y779761D01*
X1421093Y782177D01*
X1419842Y784343D01*
X1418073Y786112D01*
X1415907Y787363D01*
X1413491Y788010D01*
D02*
G37*
G36*
X669119Y785590D02*
X666921D01*
X664797Y785021D01*
X662893Y783922D01*
X661338Y782367D01*
X660239Y780463D01*
X659670Y778339D01*
Y776141D01*
X660239Y774017D01*
X661338Y772113D01*
X662893Y770558D01*
X664797Y769459D01*
X666921Y768890D01*
X669119D01*
X671243Y769459D01*
X673147Y770558D01*
X674702Y772113D01*
X675801Y774017D01*
X676370Y776141D01*
Y778339D01*
X675801Y780463D01*
X674702Y782367D01*
X673147Y783922D01*
X671243Y785021D01*
X669119Y785590D01*
D02*
G37*
G36*
X1704720Y777240D02*
X1695450D01*
Y767970D01*
X1695568D01*
X1698248Y768688D01*
X1700652Y770076D01*
X1702614Y772038D01*
X1704002Y774442D01*
X1704720Y777122D01*
Y777240D01*
D02*
G37*
G36*
X1692910D02*
X1683640D01*
Y777122D01*
X1684358Y774442D01*
X1685746Y772038D01*
X1687708Y770076D01*
X1690112Y768688D01*
X1692792Y767970D01*
X1692910D01*
Y777240D01*
D02*
G37*
G36*
X1582930Y775183D02*
Y767590D01*
X1590523D01*
X1589944Y769751D01*
X1588774Y771779D01*
X1587119Y773434D01*
X1585091Y774604D01*
X1582930Y775183D01*
D02*
G37*
G36*
X1580390D02*
X1578229Y774604D01*
X1576201Y773434D01*
X1574546Y771779D01*
X1573376Y769751D01*
X1572797Y767590D01*
X1580390D01*
Y775183D01*
D02*
G37*
G36*
X1499843Y773430D02*
X1492250D01*
Y765837D01*
X1494411Y766416D01*
X1496439Y767586D01*
X1498094Y769241D01*
X1499264Y771269D01*
X1499843Y773430D01*
D02*
G37*
G36*
X1489710D02*
X1482117D01*
X1482696Y771269D01*
X1483866Y769241D01*
X1485521Y767586D01*
X1487549Y766416D01*
X1489710Y765837D01*
Y773430D01*
D02*
G37*
G36*
X1590523Y765050D02*
X1582930D01*
Y757457D01*
X1585091Y758036D01*
X1587119Y759206D01*
X1588774Y760861D01*
X1589944Y762889D01*
X1590523Y765050D01*
D02*
G37*
G36*
X1580390D02*
X1572797D01*
X1573376Y762889D01*
X1574546Y760861D01*
X1576201Y759206D01*
X1578229Y758036D01*
X1580390Y757457D01*
Y765050D01*
D02*
G37*
G36*
X1013289Y772890D02*
X1011091D01*
X1008967Y772321D01*
X1007063Y771222D01*
X1005508Y769667D01*
X1004409Y767763D01*
X1003840Y765639D01*
Y763441D01*
X1004409Y761317D01*
X1005508Y759413D01*
X1007063Y757858D01*
X1008967Y756759D01*
X1011091Y756190D01*
X1013289D01*
X1015413Y756759D01*
X1017317Y757858D01*
X1018872Y759413D01*
X1019971Y761317D01*
X1020540Y763441D01*
Y765639D01*
X1019971Y767763D01*
X1018872Y769667D01*
X1017317Y771222D01*
X1015413Y772321D01*
X1013289Y772890D01*
D02*
G37*
G36*
X337867Y769460D02*
X335233D01*
X332690Y768779D01*
X330410Y767462D01*
X328548Y765600D01*
X327231Y763320D01*
X326550Y760777D01*
Y758143D01*
X327231Y755600D01*
X328548Y753320D01*
X330410Y751458D01*
X332690Y750142D01*
X335233Y749460D01*
X337867D01*
X340410Y750142D01*
X342690Y751458D01*
X344552Y753320D01*
X345868Y755600D01*
X346550Y758143D01*
Y760777D01*
X345868Y763320D01*
X344552Y765600D01*
X342690Y767462D01*
X340410Y768779D01*
X337867Y769460D01*
D02*
G37*
G36*
X1052601Y756893D02*
Y749300D01*
X1060194D01*
X1059615Y751461D01*
X1058445Y753489D01*
X1056790Y755144D01*
X1054762Y756314D01*
X1052601Y756893D01*
D02*
G37*
G36*
X1050061D02*
X1047900Y756314D01*
X1045872Y755144D01*
X1044217Y753489D01*
X1043047Y751461D01*
X1042468Y749300D01*
X1050061D01*
Y756893D01*
D02*
G37*
G36*
X1605280Y753083D02*
Y745490D01*
X1612873D01*
X1612294Y747651D01*
X1611124Y749679D01*
X1609469Y751334D01*
X1607441Y752504D01*
X1605280Y753083D01*
D02*
G37*
G36*
X1602740D02*
X1600579Y752504D01*
X1598551Y751334D01*
X1596896Y749679D01*
X1595726Y747651D01*
X1595147Y745490D01*
X1602740D01*
Y753083D01*
D02*
G37*
G36*
X1060194Y746760D02*
X1052601D01*
Y739167D01*
X1054762Y739746D01*
X1056790Y740916D01*
X1058445Y742571D01*
X1059615Y744599D01*
X1060194Y746760D01*
D02*
G37*
G36*
X1050061D02*
X1042468D01*
X1043047Y744599D01*
X1044217Y742571D01*
X1045872Y740916D01*
X1047900Y739746D01*
X1050061Y739167D01*
Y746760D01*
D02*
G37*
G36*
X1090903Y745490D02*
X1083310D01*
Y737897D01*
X1085471Y738476D01*
X1087499Y739646D01*
X1089154Y741301D01*
X1090324Y743329D01*
X1090903Y745490D01*
D02*
G37*
G36*
X1080770D02*
X1073177D01*
X1073756Y743329D01*
X1074926Y741301D01*
X1076581Y739646D01*
X1078609Y738476D01*
X1080770Y737897D01*
Y745490D01*
D02*
G37*
G36*
X694690Y744193D02*
Y736600D01*
X702283D01*
X701704Y738761D01*
X700534Y740789D01*
X698879Y742444D01*
X696851Y743614D01*
X694690Y744193D01*
D02*
G37*
G36*
X692150D02*
X689989Y743614D01*
X687961Y742444D01*
X686306Y740789D01*
X685136Y738761D01*
X684557Y736600D01*
X692150D01*
Y744193D01*
D02*
G37*
G36*
X1612873Y742950D02*
X1605280D01*
Y735357D01*
X1607441Y735936D01*
X1609469Y737106D01*
X1611124Y738761D01*
X1612294Y740789D01*
X1612873Y742950D01*
D02*
G37*
G36*
X1602740D02*
X1595147D01*
X1595726Y740789D01*
X1596896Y738761D01*
X1598551Y737106D01*
X1600579Y735936D01*
X1602740Y735357D01*
Y742950D01*
D02*
G37*
G36*
X702283Y734060D02*
X694690D01*
Y726467D01*
X696851Y727046D01*
X698879Y728216D01*
X700534Y729871D01*
X701704Y731899D01*
X702283Y734060D01*
D02*
G37*
G36*
X692150D02*
X684557D01*
X685136Y731899D01*
X686306Y729871D01*
X687961Y728216D01*
X689989Y727046D01*
X692150Y726467D01*
Y734060D01*
D02*
G37*
G36*
X1219029Y737330D02*
X1216831D01*
X1214707Y736761D01*
X1212803Y735662D01*
X1211248Y734107D01*
X1210149Y732203D01*
X1209580Y730079D01*
Y727881D01*
X1210149Y725757D01*
X1211248Y723853D01*
X1212803Y722298D01*
X1214707Y721199D01*
X1216831Y720630D01*
X1219029D01*
X1221153Y721199D01*
X1223057Y722298D01*
X1224612Y723853D01*
X1225711Y725757D01*
X1226280Y727881D01*
Y730079D01*
X1225711Y732203D01*
X1224612Y734107D01*
X1223057Y735662D01*
X1221153Y736761D01*
X1219029Y737330D01*
D02*
G37*
G36*
X1695497Y737710D02*
X1692863D01*
X1690320Y737029D01*
X1688040Y735712D01*
X1686178Y733850D01*
X1684861Y731570D01*
X1684180Y729026D01*
Y726394D01*
X1684861Y723850D01*
X1686178Y721570D01*
X1688040Y719708D01*
X1690320Y718391D01*
X1692863Y717710D01*
X1695497D01*
X1698040Y718391D01*
X1700320Y719708D01*
X1702182Y721570D01*
X1703499Y723850D01*
X1704180Y726394D01*
Y729026D01*
X1703499Y731570D01*
X1702182Y733850D01*
X1700320Y735712D01*
X1698040Y737029D01*
X1695497Y737710D01*
D02*
G37*
G36*
X666750Y721333D02*
Y713740D01*
X674343D01*
X673764Y715901D01*
X672594Y717929D01*
X670939Y719584D01*
X668911Y720754D01*
X666750Y721333D01*
D02*
G37*
G36*
X664210D02*
X662049Y720754D01*
X660021Y719584D01*
X658366Y717929D01*
X657196Y715901D01*
X656617Y713740D01*
X664210D01*
Y721333D01*
D02*
G37*
G36*
X510369Y729710D02*
X508171D01*
X506047Y729141D01*
X504143Y728042D01*
X502588Y726487D01*
X501489Y724583D01*
X500920Y722459D01*
Y720261D01*
X501489Y718137D01*
X502588Y716233D01*
X504143Y714678D01*
X506047Y713579D01*
X508171Y713010D01*
X510369D01*
X512493Y713579D01*
X514397Y714678D01*
X515952Y716233D01*
X517051Y718137D01*
X517620Y720261D01*
Y722459D01*
X517051Y724583D01*
X515952Y726487D01*
X514397Y728042D01*
X512493Y729141D01*
X510369Y729710D01*
D02*
G37*
G36*
X337938Y719200D02*
X337820D01*
Y709930D01*
X347090D01*
Y710048D01*
X346372Y712728D01*
X344984Y715132D01*
X343022Y717094D01*
X340618Y718482D01*
X337938Y719200D01*
D02*
G37*
G36*
X335280D02*
X335162D01*
X332482Y718482D01*
X330078Y717094D01*
X328116Y715132D01*
X326728Y712728D01*
X326010Y710048D01*
Y709930D01*
X335280D01*
Y719200D01*
D02*
G37*
G36*
X1038860Y716253D02*
Y708660D01*
X1046453D01*
X1045874Y710821D01*
X1044704Y712849D01*
X1043049Y714504D01*
X1041021Y715674D01*
X1038860Y716253D01*
D02*
G37*
G36*
X1036320D02*
X1034159Y715674D01*
X1032131Y714504D01*
X1030476Y712849D01*
X1029306Y710821D01*
X1028727Y708660D01*
X1036320D01*
Y716253D01*
D02*
G37*
G36*
X674343Y711200D02*
X666750D01*
Y703607D01*
X668911Y704186D01*
X670939Y705356D01*
X672594Y707011D01*
X673764Y709039D01*
X674343Y711200D01*
D02*
G37*
G36*
X664210D02*
X656617D01*
X657196Y709039D01*
X658366Y707011D01*
X660021Y705356D01*
X662049Y704186D01*
X664210Y703607D01*
Y711200D01*
D02*
G37*
G36*
X753250Y711173D02*
Y703580D01*
X760844D01*
X760264Y705741D01*
X759094Y707769D01*
X757439Y709424D01*
X755412Y710594D01*
X753250Y711173D01*
D02*
G37*
G36*
X750710D02*
X748549Y710594D01*
X746522Y709424D01*
X744866Y707769D01*
X743696Y705741D01*
X743117Y703580D01*
X750710D01*
Y711173D01*
D02*
G37*
G36*
X1293959Y715740D02*
X1291761D01*
X1289637Y715171D01*
X1287733Y714072D01*
X1286178Y712517D01*
X1285079Y710613D01*
X1284510Y708489D01*
Y706291D01*
X1285079Y704167D01*
X1286178Y702263D01*
X1287733Y700708D01*
X1289637Y699609D01*
X1291761Y699040D01*
X1293959D01*
X1296083Y699609D01*
X1297987Y700708D01*
X1299542Y702263D01*
X1300641Y704167D01*
X1301210Y706291D01*
Y708489D01*
X1300641Y710613D01*
X1299542Y712517D01*
X1297987Y714072D01*
X1296083Y715171D01*
X1293959Y715740D01*
D02*
G37*
G36*
X1046453Y706120D02*
X1038860D01*
Y698527D01*
X1041021Y699106D01*
X1043049Y700276D01*
X1044704Y701931D01*
X1045874Y703959D01*
X1046453Y706120D01*
D02*
G37*
G36*
X1036320D02*
X1028727D01*
X1029306Y703959D01*
X1030476Y701931D01*
X1032131Y700276D01*
X1034159Y699106D01*
X1036320Y698527D01*
Y706120D01*
D02*
G37*
G36*
X347090Y707390D02*
X337820D01*
Y698120D01*
X337938D01*
X340618Y698838D01*
X343022Y700226D01*
X344984Y702188D01*
X346372Y704592D01*
X347090Y707272D01*
Y707390D01*
D02*
G37*
G36*
X335280D02*
X326010D01*
Y707272D01*
X326728Y704592D01*
X328116Y702188D01*
X330078Y700226D01*
X332482Y698838D01*
X335162Y698120D01*
X335280D01*
Y707390D01*
D02*
G37*
G36*
X424009Y714470D02*
X421811D01*
X419687Y713901D01*
X417783Y712802D01*
X416228Y711247D01*
X415129Y709343D01*
X414560Y707219D01*
Y705021D01*
X415129Y702897D01*
X416228Y700993D01*
X417783Y699438D01*
X419687Y698339D01*
X421811Y697770D01*
X424009D01*
X426133Y698339D01*
X428037Y699438D01*
X429592Y700993D01*
X430691Y702897D01*
X431260Y705021D01*
Y707219D01*
X430691Y709343D01*
X429592Y711247D01*
X428037Y712802D01*
X426133Y713901D01*
X424009Y714470D01*
D02*
G37*
G36*
X760844Y701040D02*
X753250D01*
Y693447D01*
X755412Y694026D01*
X757439Y695196D01*
X759094Y696851D01*
X760264Y698879D01*
X760844Y701040D01*
D02*
G37*
G36*
X750710D02*
X743117D01*
X743696Y698879D01*
X744866Y696851D01*
X746522Y695196D01*
X748549Y694026D01*
X750710Y693447D01*
Y701040D01*
D02*
G37*
G36*
X1532719Y690340D02*
X1530521D01*
X1528397Y689771D01*
X1526493Y688672D01*
X1524938Y687117D01*
X1523839Y685213D01*
X1523270Y683089D01*
Y680891D01*
X1523839Y678767D01*
X1524938Y676863D01*
X1526493Y675308D01*
X1528397Y674209D01*
X1530521Y673640D01*
X1532719D01*
X1534843Y674209D01*
X1536747Y675308D01*
X1538302Y676863D01*
X1539401Y678767D01*
X1539970Y680891D01*
Y683089D01*
X1539401Y685213D01*
X1538302Y687117D01*
X1536747Y688672D01*
X1534843Y689771D01*
X1532719Y690340D01*
D02*
G37*
G36*
X685800Y674369D02*
Y671630D01*
X688539D01*
X688082Y672733D01*
X686903Y673912D01*
X685800Y674369D01*
D02*
G37*
G36*
X670800D02*
Y671630D01*
X673539D01*
X673082Y672733D01*
X671903Y673912D01*
X670800Y674369D01*
D02*
G37*
G36*
X683260D02*
X682157Y673912D01*
X680978Y672733D01*
X680521Y671630D01*
X683260D01*
Y674369D01*
D02*
G37*
G36*
X668260D02*
X667157Y673912D01*
X665978Y672733D01*
X665521Y671630D01*
X668260D01*
Y674369D01*
D02*
G37*
G36*
X1460329Y686530D02*
X1458131D01*
X1456007Y685961D01*
X1454103Y684862D01*
X1452548Y683307D01*
X1451449Y681403D01*
X1450880Y679279D01*
Y677081D01*
X1451449Y674957D01*
X1452548Y673053D01*
X1454103Y671498D01*
X1456007Y670399D01*
X1458131Y669830D01*
X1460329D01*
X1462453Y670399D01*
X1464357Y671498D01*
X1465912Y673053D01*
X1467011Y674957D01*
X1467580Y677081D01*
Y679279D01*
X1467011Y681403D01*
X1465912Y683307D01*
X1464357Y684862D01*
X1462453Y685961D01*
X1460329Y686530D01*
D02*
G37*
G36*
X688539Y669090D02*
X685800D01*
Y666351D01*
X686903Y666808D01*
X688082Y667987D01*
X688539Y669090D01*
D02*
G37*
G36*
X673539D02*
X670800D01*
Y666351D01*
X671903Y666808D01*
X673082Y667987D01*
X673539Y669090D01*
D02*
G37*
G36*
X683260D02*
X680521D01*
X680978Y667987D01*
X682157Y666808D01*
X683260Y666351D01*
Y669090D01*
D02*
G37*
G36*
X668260D02*
X665521D01*
X665978Y667987D01*
X667157Y666808D01*
X668260Y666351D01*
Y669090D01*
D02*
G37*
G36*
X563880Y667993D02*
Y660400D01*
X571473D01*
X570894Y662561D01*
X569724Y664589D01*
X568069Y666244D01*
X566041Y667414D01*
X563880Y667993D01*
D02*
G37*
G36*
X561340D02*
X559179Y667414D01*
X557151Y666244D01*
X555496Y664589D01*
X554326Y662561D01*
X553747Y660400D01*
X561340D01*
Y667993D01*
D02*
G37*
G36*
X685800Y661869D02*
Y659130D01*
X688539D01*
X688082Y660233D01*
X686903Y661412D01*
X685800Y661869D01*
D02*
G37*
G36*
X670800D02*
Y659130D01*
X673539D01*
X673082Y660233D01*
X671903Y661412D01*
X670800Y661869D01*
D02*
G37*
G36*
X683260D02*
X682157Y661412D01*
X680978Y660233D01*
X680521Y659130D01*
X683260D01*
Y661869D01*
D02*
G37*
G36*
X668260D02*
X667157Y661412D01*
X665978Y660233D01*
X665521Y659130D01*
X668260D01*
Y661869D01*
D02*
G37*
G36*
X603250Y662183D02*
Y654590D01*
X610843D01*
X610264Y656751D01*
X609094Y658779D01*
X607439Y660434D01*
X605411Y661604D01*
X603250Y662183D01*
D02*
G37*
G36*
X600710D02*
X598549Y661604D01*
X596521Y660434D01*
X594866Y658779D01*
X593696Y656751D01*
X593117Y654590D01*
X600710D01*
Y662183D01*
D02*
G37*
G36*
X688539Y656590D02*
X685800D01*
Y653851D01*
X686903Y654308D01*
X688082Y655487D01*
X688539Y656590D01*
D02*
G37*
G36*
X673539D02*
X670800D01*
Y653851D01*
X671903Y654308D01*
X673082Y655487D01*
X673539Y656590D01*
D02*
G37*
G36*
X683260D02*
X680521D01*
X680978Y655487D01*
X682157Y654308D01*
X683260Y653851D01*
Y656590D01*
D02*
G37*
G36*
X668260D02*
X665521D01*
X665978Y655487D01*
X667157Y654308D01*
X668260Y653851D01*
Y656590D01*
D02*
G37*
G36*
X626110Y660373D02*
Y652780D01*
X633703D01*
X633124Y654941D01*
X631954Y656969D01*
X630299Y658624D01*
X628271Y659794D01*
X626110Y660373D01*
D02*
G37*
G36*
X623570D02*
X621409Y659794D01*
X619381Y658624D01*
X617726Y656969D01*
X616556Y654941D01*
X615977Y652780D01*
X623570D01*
Y660373D01*
D02*
G37*
G36*
X571473Y657860D02*
X563880D01*
Y650267D01*
X566041Y650846D01*
X568069Y652016D01*
X569724Y653671D01*
X570894Y655699D01*
X571473Y657860D01*
D02*
G37*
G36*
X561340D02*
X553747D01*
X554326Y655699D01*
X555496Y653671D01*
X557151Y652016D01*
X559179Y650846D01*
X561340Y650267D01*
Y657860D01*
D02*
G37*
G36*
X685800Y649369D02*
Y646630D01*
X688539D01*
X688082Y647733D01*
X686903Y648912D01*
X685800Y649369D01*
D02*
G37*
G36*
X670800D02*
Y646630D01*
X673539D01*
X673082Y647733D01*
X671903Y648912D01*
X670800Y649369D01*
D02*
G37*
G36*
X683260D02*
X682157Y648912D01*
X680978Y647733D01*
X680521Y646630D01*
X683260D01*
Y649369D01*
D02*
G37*
G36*
X668260D02*
X667157Y648912D01*
X665978Y647733D01*
X665521Y646630D01*
X668260D01*
Y649369D01*
D02*
G37*
G36*
X610843Y652050D02*
X603250D01*
Y644457D01*
X605411Y645036D01*
X607439Y646206D01*
X609094Y647861D01*
X610264Y649889D01*
X610843Y652050D01*
D02*
G37*
G36*
X600710D02*
X593117D01*
X593696Y649889D01*
X594866Y647861D01*
X596521Y646206D01*
X598549Y645036D01*
X600710Y644457D01*
Y652050D01*
D02*
G37*
G36*
X478250Y651483D02*
Y643890D01*
X485843D01*
X485264Y646051D01*
X484094Y648078D01*
X482439Y649734D01*
X480411Y650904D01*
X478250Y651483D01*
D02*
G37*
G36*
X475710D02*
X473549Y650904D01*
X471521Y649734D01*
X469866Y648078D01*
X468696Y646051D01*
X468117Y643890D01*
X475710D01*
Y651483D01*
D02*
G37*
G36*
X633703Y650240D02*
X626110D01*
Y642647D01*
X628271Y643226D01*
X630299Y644396D01*
X631954Y646051D01*
X633124Y648079D01*
X633703Y650240D01*
D02*
G37*
G36*
X623570D02*
X615977D01*
X616556Y648079D01*
X617726Y646051D01*
X619381Y644396D01*
X621409Y643226D01*
X623570Y642647D01*
Y650240D01*
D02*
G37*
G36*
X688539Y644090D02*
X685800D01*
Y641351D01*
X686903Y641808D01*
X688082Y642987D01*
X688539Y644090D01*
D02*
G37*
G36*
X673539D02*
X670800D01*
Y641351D01*
X671903Y641808D01*
X673082Y642987D01*
X673539Y644090D01*
D02*
G37*
G36*
X683260D02*
X680521D01*
X680978Y642987D01*
X682157Y641808D01*
X683260Y641351D01*
Y644090D01*
D02*
G37*
G36*
X668260D02*
X665521D01*
X665978Y642987D01*
X667157Y641808D01*
X668260Y641351D01*
Y644090D01*
D02*
G37*
G36*
X1238079Y656050D02*
X1235881D01*
X1233757Y655481D01*
X1231853Y654382D01*
X1230298Y652827D01*
X1229199Y650923D01*
X1228630Y648799D01*
Y646601D01*
X1229199Y644477D01*
X1230298Y642573D01*
X1231853Y641018D01*
X1233757Y639919D01*
X1235881Y639350D01*
X1238079D01*
X1240203Y639919D01*
X1242107Y641018D01*
X1243662Y642573D01*
X1244761Y644477D01*
X1245330Y646601D01*
Y648799D01*
X1244761Y650923D01*
X1243662Y652827D01*
X1242107Y654382D01*
X1240203Y655481D01*
X1238079Y656050D01*
D02*
G37*
G36*
X1387939Y654780D02*
X1385741D01*
X1383617Y654211D01*
X1381713Y653112D01*
X1380158Y651557D01*
X1379059Y649653D01*
X1378490Y647529D01*
Y645331D01*
X1379059Y643207D01*
X1380158Y641303D01*
X1381713Y639748D01*
X1383617Y638649D01*
X1385741Y638080D01*
X1387939D01*
X1390063Y638649D01*
X1391967Y639748D01*
X1393522Y641303D01*
X1394621Y643207D01*
X1395190Y645331D01*
Y647529D01*
X1394621Y649653D01*
X1393522Y651557D01*
X1391967Y653112D01*
X1390063Y654211D01*
X1387939Y654780D01*
D02*
G37*
G36*
X1318089D02*
X1315891D01*
X1313767Y654211D01*
X1311863Y653112D01*
X1310308Y651557D01*
X1309209Y649653D01*
X1308640Y647529D01*
Y645331D01*
X1309209Y643207D01*
X1310308Y641303D01*
X1311863Y639748D01*
X1313767Y638649D01*
X1315891Y638080D01*
X1318089D01*
X1320213Y638649D01*
X1322117Y639748D01*
X1323672Y641303D01*
X1324771Y643207D01*
X1325340Y645331D01*
Y647529D01*
X1324771Y649653D01*
X1323672Y651557D01*
X1322117Y653112D01*
X1320213Y654211D01*
X1318089Y654780D01*
D02*
G37*
G36*
X1456519Y652240D02*
X1454321D01*
X1452197Y651671D01*
X1450293Y650572D01*
X1448738Y649017D01*
X1447639Y647113D01*
X1447070Y644989D01*
Y642791D01*
X1447639Y640667D01*
X1448738Y638763D01*
X1450293Y637208D01*
X1452197Y636109D01*
X1454321Y635540D01*
X1456519D01*
X1458643Y636109D01*
X1460547Y637208D01*
X1462102Y638763D01*
X1463201Y640667D01*
X1463770Y642791D01*
Y644989D01*
X1463201Y647113D01*
X1462102Y649017D01*
X1460547Y650572D01*
X1458643Y651671D01*
X1456519Y652240D01*
D02*
G37*
G36*
X1533989Y650970D02*
X1531791D01*
X1529667Y650401D01*
X1527763Y649302D01*
X1526208Y647747D01*
X1525109Y645843D01*
X1524540Y643719D01*
Y641521D01*
X1525109Y639397D01*
X1526208Y637493D01*
X1527763Y635938D01*
X1529667Y634839D01*
X1531791Y634270D01*
X1533989D01*
X1536113Y634839D01*
X1538017Y635938D01*
X1539572Y637493D01*
X1540671Y639397D01*
X1541240Y641521D01*
Y643719D01*
X1540671Y645843D01*
X1539572Y647747D01*
X1538017Y649302D01*
X1536113Y650401D01*
X1533989Y650970D01*
D02*
G37*
G36*
X485843Y641350D02*
X478250D01*
Y633756D01*
X480411Y634336D01*
X482439Y635506D01*
X484094Y637161D01*
X485264Y639188D01*
X485843Y641350D01*
D02*
G37*
G36*
X475710D02*
X468117D01*
X468696Y639188D01*
X469866Y637161D01*
X471521Y635506D01*
X473549Y634336D01*
X475710Y633756D01*
Y641350D01*
D02*
G37*
G36*
X1149350Y637513D02*
Y629920D01*
X1156943D01*
X1156364Y632081D01*
X1155194Y634109D01*
X1153539Y635764D01*
X1151511Y636934D01*
X1149350Y637513D01*
D02*
G37*
G36*
X1146810D02*
X1144649Y636934D01*
X1142621Y635764D01*
X1140966Y634109D01*
X1139796Y632081D01*
X1139217Y629920D01*
X1146810D01*
Y637513D01*
D02*
G37*
G36*
X1070610Y631163D02*
Y623570D01*
X1078203D01*
X1077624Y625731D01*
X1076454Y627759D01*
X1074799Y629414D01*
X1072771Y630584D01*
X1070610Y631163D01*
D02*
G37*
G36*
X1068070D02*
X1065909Y630584D01*
X1063881Y629414D01*
X1062226Y627759D01*
X1061056Y625731D01*
X1060477Y623570D01*
X1068070D01*
Y631163D01*
D02*
G37*
G36*
X811359Y637000D02*
X809161D01*
X807037Y636431D01*
X805133Y635332D01*
X803578Y633777D01*
X802479Y631873D01*
X801910Y629749D01*
Y627551D01*
X802479Y625427D01*
X803578Y623523D01*
X805133Y621968D01*
X807037Y620869D01*
X809161Y620300D01*
X811359D01*
X813483Y620869D01*
X815387Y621968D01*
X816942Y623523D01*
X818041Y625427D01*
X818610Y627551D01*
Y629749D01*
X818041Y631873D01*
X816942Y633777D01*
X815387Y635332D01*
X813483Y636431D01*
X811359Y637000D01*
D02*
G37*
G36*
X1156943Y627380D02*
X1149350D01*
Y619787D01*
X1151511Y620366D01*
X1153539Y621536D01*
X1155194Y623191D01*
X1156364Y625219D01*
X1156943Y627380D01*
D02*
G37*
G36*
X1146810D02*
X1139217D01*
X1139796Y625219D01*
X1140966Y623191D01*
X1142621Y621536D01*
X1144649Y620366D01*
X1146810Y619787D01*
Y627380D01*
D02*
G37*
G36*
X1695568Y625220D02*
X1695450D01*
Y615950D01*
X1704720D01*
Y616068D01*
X1704002Y618748D01*
X1702614Y621152D01*
X1700652Y623114D01*
X1698248Y624502D01*
X1695568Y625220D01*
D02*
G37*
G36*
X1692910D02*
X1692792D01*
X1690112Y624502D01*
X1687708Y623114D01*
X1685746Y621152D01*
X1684358Y618748D01*
X1683640Y616068D01*
Y615950D01*
X1692910D01*
Y625220D01*
D02*
G37*
G36*
X1078203Y621030D02*
X1070610D01*
Y613437D01*
X1072771Y614016D01*
X1074799Y615186D01*
X1076454Y616841D01*
X1077624Y618869D01*
X1078203Y621030D01*
D02*
G37*
G36*
X1068070D02*
X1060477D01*
X1061056Y618869D01*
X1062226Y616841D01*
X1063881Y615186D01*
X1065909Y614016D01*
X1068070Y613437D01*
Y621030D01*
D02*
G37*
G36*
X665620Y615783D02*
Y608190D01*
X673213D01*
X672634Y610351D01*
X671464Y612379D01*
X669809Y614034D01*
X667782Y615204D01*
X665620Y615783D01*
D02*
G37*
G36*
X663080D02*
X660919Y615204D01*
X658892Y614034D01*
X657236Y612379D01*
X656066Y610351D01*
X655487Y608190D01*
X663080D01*
Y615783D01*
D02*
G37*
G36*
X1115060Y614653D02*
Y607060D01*
X1122653D01*
X1122074Y609221D01*
X1120904Y611249D01*
X1119249Y612904D01*
X1117221Y614074D01*
X1115060Y614653D01*
D02*
G37*
G36*
X1112520D02*
X1110359Y614074D01*
X1108331Y612904D01*
X1106676Y611249D01*
X1105506Y609221D01*
X1104927Y607060D01*
X1112520D01*
Y614653D01*
D02*
G37*
G36*
X337867Y625950D02*
X335233D01*
X332690Y625269D01*
X330410Y623952D01*
X328548Y622090D01*
X327231Y619810D01*
X326550Y617267D01*
Y614633D01*
X327231Y612090D01*
X328548Y609810D01*
X330410Y607948D01*
X332690Y606632D01*
X335233Y605950D01*
X337867D01*
X340410Y606632D01*
X342690Y607948D01*
X344552Y609810D01*
X345868Y612090D01*
X346550Y614633D01*
Y617267D01*
X345868Y619810D01*
X344552Y622090D01*
X342690Y623952D01*
X340410Y625269D01*
X337867Y625950D01*
D02*
G37*
G36*
X1629410Y613383D02*
Y605790D01*
X1637003D01*
X1636424Y607951D01*
X1635254Y609979D01*
X1633599Y611634D01*
X1631571Y612804D01*
X1629410Y613383D01*
D02*
G37*
G36*
X1626870D02*
X1624709Y612804D01*
X1622681Y611634D01*
X1621026Y609979D01*
X1619856Y607951D01*
X1619277Y605790D01*
X1626870D01*
Y613383D01*
D02*
G37*
G36*
X1704720Y613410D02*
X1695450D01*
Y604140D01*
X1695568D01*
X1698248Y604858D01*
X1700652Y606246D01*
X1702614Y608208D01*
X1704002Y610612D01*
X1704720Y613292D01*
Y613410D01*
D02*
G37*
G36*
X1692910D02*
X1683640D01*
Y613292D01*
X1684358Y610612D01*
X1685746Y608208D01*
X1687708Y606246D01*
X1690112Y604858D01*
X1692792Y604140D01*
X1692910D01*
Y613410D01*
D02*
G37*
G36*
X673213Y605650D02*
X665620D01*
Y598057D01*
X667782Y598636D01*
X669809Y599806D01*
X671464Y601461D01*
X672634Y603489D01*
X673213Y605650D01*
D02*
G37*
G36*
X663080D02*
X655487D01*
X656066Y603489D01*
X657236Y601461D01*
X658892Y599806D01*
X660919Y598636D01*
X663080Y598057D01*
Y605650D01*
D02*
G37*
G36*
X1122653Y604520D02*
X1115060D01*
Y596927D01*
X1117221Y597506D01*
X1119249Y598676D01*
X1120904Y600331D01*
X1122074Y602359D01*
X1122653Y604520D01*
D02*
G37*
G36*
X1112520D02*
X1104927D01*
X1105506Y602359D01*
X1106676Y600331D01*
X1108331Y598676D01*
X1110359Y597506D01*
X1112520Y596927D01*
Y604520D01*
D02*
G37*
G36*
X689610Y604493D02*
Y596900D01*
X697203D01*
X696624Y599061D01*
X695454Y601089D01*
X693799Y602744D01*
X691771Y603914D01*
X689610Y604493D01*
D02*
G37*
G36*
X687070D02*
X684909Y603914D01*
X682881Y602744D01*
X681226Y601089D01*
X680056Y599061D01*
X679477Y596900D01*
X687070D01*
Y604493D01*
D02*
G37*
G36*
X1637003Y603250D02*
X1629410D01*
Y595657D01*
X1631571Y596236D01*
X1633599Y597406D01*
X1635254Y599061D01*
X1636424Y601089D01*
X1637003Y603250D01*
D02*
G37*
G36*
X1626870D02*
X1619277D01*
X1619856Y601089D01*
X1621026Y599061D01*
X1622681Y597406D01*
X1624709Y596236D01*
X1626870Y595657D01*
Y603250D01*
D02*
G37*
G36*
X1221740Y600683D02*
Y593090D01*
X1229333D01*
X1228754Y595251D01*
X1227584Y597279D01*
X1225929Y598934D01*
X1223901Y600104D01*
X1221740Y600683D01*
D02*
G37*
G36*
X1219200D02*
X1217039Y600104D01*
X1215011Y598934D01*
X1213356Y597279D01*
X1212186Y595251D01*
X1211607Y593090D01*
X1219200D01*
Y600683D01*
D02*
G37*
G36*
X908031Y608940D02*
X905529D01*
X903113Y608293D01*
X900947Y607042D01*
X899178Y605273D01*
X897927Y603107D01*
X897280Y600691D01*
Y598189D01*
X897927Y595773D01*
X899178Y593607D01*
X900947Y591838D01*
X903113Y590587D01*
X905529Y589940D01*
X908031D01*
X910447Y590587D01*
X912613Y591838D01*
X914382Y593607D01*
X915633Y595773D01*
X916280Y598189D01*
Y600691D01*
X915633Y603107D01*
X914382Y605273D01*
X912613Y607042D01*
X910447Y608293D01*
X908031Y608940D01*
D02*
G37*
G36*
X697203Y594360D02*
X689610D01*
Y586767D01*
X691771Y587346D01*
X693799Y588516D01*
X695454Y590171D01*
X696624Y592199D01*
X697203Y594360D01*
D02*
G37*
G36*
X687070D02*
X679477D01*
X680056Y592199D01*
X681226Y590171D01*
X682881Y588516D01*
X684909Y587346D01*
X687070Y586767D01*
Y594360D01*
D02*
G37*
G36*
X1229333Y590550D02*
X1221740D01*
Y582957D01*
X1223901Y583536D01*
X1225929Y584706D01*
X1227584Y586361D01*
X1228754Y588389D01*
X1229333Y590550D01*
D02*
G37*
G36*
X1219200D02*
X1211607D01*
X1212186Y588389D01*
X1213356Y586361D01*
X1215011Y584706D01*
X1217039Y583536D01*
X1219200Y582957D01*
Y590550D01*
D02*
G37*
G36*
X886460Y587983D02*
Y580390D01*
X894053D01*
X893474Y582551D01*
X892304Y584579D01*
X890649Y586234D01*
X888621Y587404D01*
X886460Y587983D01*
D02*
G37*
G36*
X883920D02*
X881759Y587404D01*
X879731Y586234D01*
X878076Y584579D01*
X876906Y582551D01*
X876327Y580390D01*
X883920D01*
Y587983D01*
D02*
G37*
G36*
X1418590Y578723D02*
Y571130D01*
X1426183D01*
X1425604Y573291D01*
X1424434Y575319D01*
X1422779Y576974D01*
X1420751Y578144D01*
X1418590Y578723D01*
D02*
G37*
G36*
X1416050D02*
X1413889Y578144D01*
X1411861Y576974D01*
X1410206Y575319D01*
X1409036Y573291D01*
X1408457Y571130D01*
X1416050D01*
Y578723D01*
D02*
G37*
G36*
X894053Y577850D02*
X886460D01*
Y570257D01*
X888621Y570836D01*
X890649Y572006D01*
X892304Y573661D01*
X893474Y575689D01*
X894053Y577850D01*
D02*
G37*
G36*
X883920D02*
X876327D01*
X876906Y575689D01*
X878076Y573661D01*
X879731Y572006D01*
X881759Y570836D01*
X883920Y570257D01*
Y577850D01*
D02*
G37*
G36*
X529210Y575663D02*
Y568070D01*
X536803D01*
X536224Y570231D01*
X535054Y572259D01*
X533399Y573914D01*
X531371Y575084D01*
X529210Y575663D01*
D02*
G37*
G36*
X526670D02*
X524509Y575084D01*
X522481Y573914D01*
X520826Y572259D01*
X519656Y570231D01*
X519077Y568070D01*
X526670D01*
Y575663D01*
D02*
G37*
G36*
X1153141Y586080D02*
X1150639D01*
X1148223Y585432D01*
X1146057Y584182D01*
X1144288Y582413D01*
X1143037Y580247D01*
X1142390Y577831D01*
Y575329D01*
X1143037Y572913D01*
X1144288Y570747D01*
X1146057Y568978D01*
X1148223Y567727D01*
X1150639Y567080D01*
X1153141D01*
X1155557Y567727D01*
X1157723Y568978D01*
X1159492Y570747D01*
X1160742Y572913D01*
X1161390Y575329D01*
Y577831D01*
X1160742Y580247D01*
X1159492Y582413D01*
X1157723Y584182D01*
X1155557Y585432D01*
X1153141Y586080D01*
D02*
G37*
G36*
X1261110Y571473D02*
Y563880D01*
X1268703D01*
X1268124Y566041D01*
X1266954Y568069D01*
X1265299Y569724D01*
X1263271Y570894D01*
X1261110Y571473D01*
D02*
G37*
G36*
X1258570D02*
X1256409Y570894D01*
X1254381Y569724D01*
X1252726Y568069D01*
X1251556Y566041D01*
X1250977Y563880D01*
X1258570D01*
Y571473D01*
D02*
G37*
G36*
X1426183Y568590D02*
X1418590D01*
Y560997D01*
X1420751Y561576D01*
X1422779Y562746D01*
X1424434Y564401D01*
X1425604Y566429D01*
X1426183Y568590D01*
D02*
G37*
G36*
X1416050D02*
X1408457D01*
X1409036Y566429D01*
X1410206Y564401D01*
X1411861Y562746D01*
X1413889Y561576D01*
X1416050Y560997D01*
Y568590D01*
D02*
G37*
G36*
X674370Y561539D02*
Y558800D01*
X677109D01*
X676652Y559903D01*
X675473Y561082D01*
X674370Y561539D01*
D02*
G37*
G36*
X659370D02*
Y558800D01*
X662109D01*
X661652Y559903D01*
X660473Y561082D01*
X659370Y561539D01*
D02*
G37*
G36*
X671830D02*
X670727Y561082D01*
X669548Y559903D01*
X669091Y558800D01*
X671830D01*
Y561539D01*
D02*
G37*
G36*
X656830D02*
X655727Y561082D01*
X654548Y559903D01*
X654091Y558800D01*
X656830D01*
Y561539D01*
D02*
G37*
G36*
X536803Y565530D02*
X529210D01*
Y557937D01*
X531371Y558516D01*
X533399Y559686D01*
X535054Y561341D01*
X536224Y563369D01*
X536803Y565530D01*
D02*
G37*
G36*
X526670D02*
X519077D01*
X519656Y563369D01*
X520826Y561341D01*
X522481Y559686D01*
X524509Y558516D01*
X526670Y557937D01*
Y565530D01*
D02*
G37*
G36*
X337867Y575150D02*
X335233D01*
X332690Y574468D01*
X330410Y573152D01*
X328548Y571290D01*
X327231Y569010D01*
X326550Y566466D01*
Y563834D01*
X327231Y561290D01*
X328548Y559010D01*
X330410Y557148D01*
X332690Y555831D01*
X335233Y555150D01*
X337867D01*
X340410Y555831D01*
X342690Y557148D01*
X344552Y559010D01*
X345868Y561290D01*
X346550Y563834D01*
Y566466D01*
X345868Y569010D01*
X344552Y571290D01*
X342690Y573152D01*
X340410Y574468D01*
X337867Y575150D01*
D02*
G37*
G36*
X1695497Y573880D02*
X1692863D01*
X1690320Y573199D01*
X1688040Y571882D01*
X1686178Y570020D01*
X1684861Y567740D01*
X1684180Y565196D01*
Y562564D01*
X1684861Y560020D01*
X1686178Y557740D01*
X1688040Y555878D01*
X1690320Y554562D01*
X1692863Y553880D01*
X1695497D01*
X1698040Y554562D01*
X1700320Y555878D01*
X1702182Y557740D01*
X1703499Y560020D01*
X1704180Y562564D01*
Y565196D01*
X1703499Y567740D01*
X1702182Y570020D01*
X1700320Y571882D01*
X1698040Y573199D01*
X1695497Y573880D01*
D02*
G37*
G36*
X1268703Y561340D02*
X1261110D01*
Y553747D01*
X1263271Y554326D01*
X1265299Y555496D01*
X1266954Y557151D01*
X1268124Y559179D01*
X1268703Y561340D01*
D02*
G37*
G36*
X1258570D02*
X1250977D01*
X1251556Y559179D01*
X1252726Y557151D01*
X1254381Y555496D01*
X1256409Y554326D01*
X1258570Y553747D01*
Y561340D01*
D02*
G37*
G36*
X677109Y556260D02*
X674370D01*
Y553521D01*
X675473Y553978D01*
X676652Y555157D01*
X677109Y556260D01*
D02*
G37*
G36*
X662109D02*
X659370D01*
Y553521D01*
X660473Y553978D01*
X661652Y555157D01*
X662109Y556260D01*
D02*
G37*
G36*
X656830D02*
X654091D01*
X654548Y555157D01*
X655727Y553978D01*
X656830Y553521D01*
Y556260D01*
D02*
G37*
G36*
X671830D02*
X669091D01*
X669548Y555157D01*
X670727Y553978D01*
X671830Y553521D01*
Y556260D01*
D02*
G37*
G36*
X1540339Y568030D02*
X1538141D01*
X1536017Y567461D01*
X1534113Y566362D01*
X1532558Y564807D01*
X1531459Y562903D01*
X1530890Y560779D01*
Y558581D01*
X1531459Y556457D01*
X1532558Y554553D01*
X1534113Y552998D01*
X1536017Y551899D01*
X1538141Y551330D01*
X1540339D01*
X1542463Y551899D01*
X1544367Y552998D01*
X1545922Y554553D01*
X1547021Y556457D01*
X1547590Y558581D01*
Y560779D01*
X1547021Y562903D01*
X1545922Y564807D01*
X1544367Y566362D01*
X1542463Y567461D01*
X1540339Y568030D01*
D02*
G37*
G36*
X674370Y549039D02*
Y546300D01*
X677109D01*
X676652Y547403D01*
X675473Y548582D01*
X674370Y549039D01*
D02*
G37*
G36*
X659370D02*
Y546300D01*
X662109D01*
X661652Y547403D01*
X660473Y548582D01*
X659370Y549039D01*
D02*
G37*
G36*
X671830D02*
X670727Y548582D01*
X669548Y547403D01*
X669091Y546300D01*
X671830D01*
Y549039D01*
D02*
G37*
G36*
X656830D02*
X655727Y548582D01*
X654548Y547403D01*
X654091Y546300D01*
X656830D01*
Y549039D01*
D02*
G37*
G36*
X1547959Y603980D02*
X1545761D01*
X1543637Y603411D01*
X1541733Y602312D01*
X1540178Y600757D01*
X1539079Y598853D01*
X1538510Y596729D01*
Y594531D01*
X1539079Y592407D01*
X1540178Y590503D01*
X1541138Y589543D01*
X1497889Y546294D01*
X1495889Y546830D01*
X1493691D01*
X1491567Y546261D01*
X1489663Y545162D01*
X1488108Y543607D01*
X1487009Y541703D01*
X1486440Y539579D01*
Y537381D01*
X1487009Y535257D01*
X1488108Y533353D01*
X1489663Y531798D01*
X1491567Y530699D01*
X1493691Y530130D01*
X1495889D01*
X1498013Y530699D01*
X1499917Y531798D01*
X1501472Y533353D01*
X1502571Y535257D01*
X1503140Y537381D01*
Y539579D01*
X1502604Y541579D01*
X1548432Y587407D01*
X1550083Y587849D01*
X1551987Y588948D01*
X1553542Y590503D01*
X1554641Y592407D01*
X1555210Y594531D01*
Y596729D01*
X1554641Y598853D01*
X1553542Y600757D01*
X1551987Y602312D01*
X1550083Y603411D01*
X1547959Y603980D01*
D02*
G37*
G36*
X1450169Y557890D02*
X1447971D01*
X1445847Y557321D01*
X1443943Y556222D01*
X1442388Y554667D01*
X1441289Y552763D01*
X1440720Y550639D01*
Y548441D01*
X1441289Y546317D01*
X1442388Y544413D01*
X1443943Y542858D01*
X1445847Y541759D01*
X1447971Y541190D01*
X1450169D01*
X1452293Y541759D01*
X1454197Y542858D01*
X1455752Y544413D01*
X1456851Y546317D01*
X1457420Y548441D01*
Y550639D01*
X1456851Y552763D01*
X1455752Y554667D01*
X1454197Y556222D01*
X1452293Y557321D01*
X1450169Y557890D01*
D02*
G37*
G36*
X677109Y543760D02*
X674370D01*
Y541021D01*
X675473Y541478D01*
X676652Y542657D01*
X677109Y543760D01*
D02*
G37*
G36*
X662109D02*
X659370D01*
Y541021D01*
X660473Y541478D01*
X661652Y542657D01*
X662109Y543760D01*
D02*
G37*
G36*
X671830D02*
X669091D01*
X669548Y542657D01*
X670727Y541478D01*
X671830Y541021D01*
Y543760D01*
D02*
G37*
G36*
X656830D02*
X654091D01*
X654548Y542657D01*
X655727Y541478D01*
X656830Y541021D01*
Y543760D01*
D02*
G37*
G36*
X932009Y554450D02*
X929811D01*
X927687Y553881D01*
X925783Y552782D01*
X924228Y551227D01*
X923129Y549323D01*
X922560Y547199D01*
Y545001D01*
X923129Y542877D01*
X924228Y540973D01*
X925783Y539418D01*
X927687Y538319D01*
X929811Y537750D01*
X932009D01*
X934133Y538319D01*
X936037Y539418D01*
X937592Y540973D01*
X938691Y542877D01*
X939260Y545001D01*
Y547199D01*
X938691Y549323D01*
X937592Y551227D01*
X936037Y552782D01*
X934133Y553881D01*
X932009Y554450D01*
D02*
G37*
G36*
X674370Y536539D02*
Y533800D01*
X677109D01*
X676652Y534903D01*
X675473Y536082D01*
X674370Y536539D01*
D02*
G37*
G36*
X659370D02*
Y533800D01*
X662109D01*
X661652Y534903D01*
X660473Y536082D01*
X659370Y536539D01*
D02*
G37*
G36*
X671830D02*
X670727Y536082D01*
X669548Y534903D01*
X669091Y533800D01*
X671830D01*
Y536539D01*
D02*
G37*
G36*
X989159Y548100D02*
X986961D01*
X984837Y547531D01*
X982933Y546432D01*
X981378Y544877D01*
X980279Y542973D01*
X979710Y540849D01*
Y538651D01*
X980279Y536527D01*
X981378Y534623D01*
X982933Y533068D01*
X984837Y531969D01*
X986961Y531400D01*
X989159D01*
X991283Y531969D01*
X993187Y533068D01*
X994742Y534623D01*
X995841Y536527D01*
X996410Y538651D01*
Y540849D01*
X995841Y542973D01*
X994742Y544877D01*
X993187Y546432D01*
X991283Y547531D01*
X989159Y548100D01*
D02*
G37*
G36*
X677109Y531260D02*
X674370D01*
Y528521D01*
X675473Y528978D01*
X676652Y530157D01*
X677109Y531260D01*
D02*
G37*
G36*
X671830D02*
X669091D01*
X669548Y530157D01*
X670727Y528978D01*
X671830Y528521D01*
Y531260D01*
D02*
G37*
G36*
X719719Y544830D02*
X717521D01*
X715397Y544261D01*
X713493Y543162D01*
X711938Y541607D01*
X710839Y539703D01*
X710270Y537579D01*
Y535381D01*
X710839Y533257D01*
X711938Y531353D01*
X713493Y529798D01*
X715397Y528699D01*
X717521Y528130D01*
X719719D01*
X721843Y528699D01*
X723747Y529798D01*
X725302Y531353D01*
X726401Y533257D01*
X726970Y535381D01*
Y537579D01*
X726401Y539703D01*
X725302Y541607D01*
X723747Y543162D01*
X721843Y544261D01*
X719719Y544830D01*
D02*
G37*
G36*
X852170Y527023D02*
Y519430D01*
X859763D01*
X859184Y521591D01*
X858014Y523619D01*
X856359Y525274D01*
X854331Y526444D01*
X852170Y527023D01*
D02*
G37*
G36*
X849630D02*
X847469Y526444D01*
X845441Y525274D01*
X843786Y523619D01*
X842616Y521591D01*
X842037Y519430D01*
X849630D01*
Y527023D01*
D02*
G37*
G36*
X742950Y524483D02*
Y516890D01*
X750543D01*
X749964Y519051D01*
X748794Y521078D01*
X747139Y522734D01*
X745111Y523904D01*
X742950Y524483D01*
D02*
G37*
G36*
X740410D02*
X738249Y523904D01*
X736221Y522734D01*
X734566Y521078D01*
X733396Y519051D01*
X732817Y516890D01*
X740410D01*
Y524483D01*
D02*
G37*
G36*
X337938Y524890D02*
X337820D01*
Y515620D01*
X347090D01*
Y515738D01*
X346372Y518418D01*
X344984Y520822D01*
X343022Y522784D01*
X340618Y524172D01*
X337938Y524890D01*
D02*
G37*
G36*
X335280D02*
X335162D01*
X332482Y524172D01*
X330078Y522784D01*
X328116Y520822D01*
X326728Y518418D01*
X326010Y515738D01*
Y515620D01*
X335280D01*
Y524890D01*
D02*
G37*
G36*
X859763Y516890D02*
X852170D01*
Y509297D01*
X854331Y509876D01*
X856359Y511046D01*
X858014Y512701D01*
X859184Y514729D01*
X859763Y516890D01*
D02*
G37*
G36*
X849630D02*
X842037D01*
X842616Y514729D01*
X843786Y512701D01*
X845441Y511046D01*
X847469Y509876D01*
X849630Y509297D01*
Y516890D01*
D02*
G37*
G36*
X785959Y523970D02*
X783761D01*
X781637Y523401D01*
X779733Y522302D01*
X778178Y520747D01*
X777079Y518843D01*
X776510Y516719D01*
Y514521D01*
X777079Y512397D01*
X778178Y510493D01*
X779733Y508938D01*
X781637Y507839D01*
X783761Y507270D01*
X785959D01*
X788083Y507839D01*
X789987Y508938D01*
X791542Y510493D01*
X792641Y512397D01*
X793210Y514521D01*
Y516719D01*
X792641Y518843D01*
X791542Y520747D01*
X789987Y522302D01*
X788083Y523401D01*
X785959Y523970D01*
D02*
G37*
G36*
X750543Y514350D02*
X742950D01*
Y506757D01*
X745111Y507336D01*
X747139Y508506D01*
X748794Y510161D01*
X749964Y512188D01*
X750543Y514350D01*
D02*
G37*
G36*
X740410D02*
X732817D01*
X733396Y512188D01*
X734566Y510161D01*
X736221Y508506D01*
X738249Y507336D01*
X740410Y506757D01*
Y514350D01*
D02*
G37*
G36*
X347090Y513080D02*
X337820D01*
Y503810D01*
X337938D01*
X340618Y504528D01*
X343022Y505916D01*
X344984Y507878D01*
X346372Y510282D01*
X347090Y512962D01*
Y513080D01*
D02*
G37*
G36*
X335280D02*
X326010D01*
Y512962D01*
X326728Y510282D01*
X328116Y507878D01*
X330078Y505916D01*
X332482Y504528D01*
X335162Y503810D01*
X335280D01*
Y513080D01*
D02*
G37*
G36*
X928370Y504163D02*
Y496570D01*
X935963D01*
X935384Y498731D01*
X934214Y500759D01*
X932559Y502414D01*
X930531Y503584D01*
X928370Y504163D01*
D02*
G37*
G36*
X925830D02*
X923669Y503584D01*
X921641Y502414D01*
X919986Y500759D01*
X918816Y498731D01*
X918237Y496570D01*
X925830D01*
Y504163D01*
D02*
G37*
G36*
X618490Y495273D02*
Y487680D01*
X626083D01*
X625504Y489841D01*
X624334Y491869D01*
X622679Y493524D01*
X620651Y494694D01*
X618490Y495273D01*
D02*
G37*
G36*
X615950D02*
X613789Y494694D01*
X611761Y493524D01*
X610106Y491869D01*
X608936Y489841D01*
X608357Y487680D01*
X615950D01*
Y495273D01*
D02*
G37*
G36*
X935963Y494030D02*
X928370D01*
Y486437D01*
X930531Y487016D01*
X932559Y488186D01*
X934214Y489841D01*
X935384Y491869D01*
X935963Y494030D01*
D02*
G37*
G36*
X925830D02*
X918237D01*
X918816Y491869D01*
X919986Y489841D01*
X921641Y488186D01*
X923669Y487016D01*
X925830Y486437D01*
Y494030D01*
D02*
G37*
G36*
X1262209Y603980D02*
X1260011D01*
X1257887Y603411D01*
X1255983Y602312D01*
X1254428Y600757D01*
X1253329Y598853D01*
X1252760Y596729D01*
Y594531D01*
X1253329Y592407D01*
X1254428Y590503D01*
X1255983Y588948D01*
X1257887Y587849D01*
X1259314Y587467D01*
X1259499Y586535D01*
X1260222Y585453D01*
X1335246Y510429D01*
Y501747D01*
X1333453Y500712D01*
X1331898Y499157D01*
X1330799Y497253D01*
X1330230Y495129D01*
Y492931D01*
X1330799Y490807D01*
X1331898Y488903D01*
X1333453Y487348D01*
X1335357Y486249D01*
X1337481Y485680D01*
X1339679D01*
X1341803Y486249D01*
X1343707Y487348D01*
X1345262Y488903D01*
X1346361Y490807D01*
X1346930Y492931D01*
Y495129D01*
X1346361Y497253D01*
X1345262Y499157D01*
X1343707Y500712D01*
X1341914Y501747D01*
Y511810D01*
X1341660Y513086D01*
X1340938Y514168D01*
X1267078Y588027D01*
X1267095Y589806D01*
X1267792Y590503D01*
X1268891Y592407D01*
X1269460Y594531D01*
Y596729D01*
X1268891Y598853D01*
X1267792Y600757D01*
X1266237Y602312D01*
X1264333Y603411D01*
X1262209Y603980D01*
D02*
G37*
G36*
X441789Y496030D02*
X439591D01*
X437467Y495461D01*
X435563Y494362D01*
X434008Y492807D01*
X432909Y490903D01*
X432340Y488779D01*
Y486581D01*
X432909Y484457D01*
X434008Y482553D01*
X435563Y480998D01*
X437467Y479899D01*
X439591Y479330D01*
X441789D01*
X443913Y479899D01*
X445817Y480998D01*
X447372Y482553D01*
X448471Y484457D01*
X449040Y486581D01*
Y488779D01*
X448471Y490903D01*
X447372Y492807D01*
X445817Y494362D01*
X443913Y495461D01*
X441789Y496030D01*
D02*
G37*
G36*
X563709Y494760D02*
X561511D01*
X559387Y494191D01*
X557483Y493092D01*
X555928Y491537D01*
X554829Y489633D01*
X554260Y487509D01*
Y485311D01*
X554829Y483187D01*
X555928Y481283D01*
X557483Y479728D01*
X559387Y478629D01*
X561511Y478060D01*
X563709D01*
X565833Y478629D01*
X567737Y479728D01*
X569292Y481283D01*
X570391Y483187D01*
X570960Y485311D01*
Y487509D01*
X570391Y489633D01*
X569292Y491537D01*
X567737Y493092D01*
X565833Y494191D01*
X563709Y494760D01*
D02*
G37*
G36*
X626083Y485140D02*
X618490D01*
Y477547D01*
X620651Y478126D01*
X622679Y479296D01*
X624334Y480951D01*
X625504Y482979D01*
X626083Y485140D01*
D02*
G37*
G36*
X615950D02*
X608357D01*
X608936Y482979D01*
X610106Y480951D01*
X611761Y479296D01*
X613789Y478126D01*
X615950Y477547D01*
Y485140D01*
D02*
G37*
G36*
X1475694Y606645D02*
X1473496D01*
X1471372Y606076D01*
X1469468Y604977D01*
X1467913Y603422D01*
X1466814Y601518D01*
X1466245Y599394D01*
Y597196D01*
X1466814Y595072D01*
X1467913Y593168D01*
X1469468Y591613D01*
X1471198Y590614D01*
Y491623D01*
X1469343Y490552D01*
X1467788Y488997D01*
X1466689Y487093D01*
X1466120Y484969D01*
Y482771D01*
X1466689Y480647D01*
X1467788Y478743D01*
X1469343Y477188D01*
X1471247Y476089D01*
X1473371Y475520D01*
X1475569D01*
X1477693Y476089D01*
X1479597Y477188D01*
X1481152Y478743D01*
X1482251Y480647D01*
X1482820Y482771D01*
Y484969D01*
X1482251Y487093D01*
X1481152Y488997D01*
X1479597Y490552D01*
X1477867Y491551D01*
Y590542D01*
X1479722Y591613D01*
X1481277Y593168D01*
X1482376Y595072D01*
X1482945Y597196D01*
Y599394D01*
X1482376Y601518D01*
X1481277Y603422D01*
X1479722Y604977D01*
X1477818Y606076D01*
X1475694Y606645D01*
D02*
G37*
G36*
X510540Y481303D02*
Y473710D01*
X518133D01*
X517554Y475871D01*
X516384Y477899D01*
X514729Y479554D01*
X512701Y480724D01*
X510540Y481303D01*
D02*
G37*
G36*
X508000D02*
X505839Y480724D01*
X503811Y479554D01*
X502156Y477899D01*
X500986Y475871D01*
X500407Y473710D01*
X508000D01*
Y481303D01*
D02*
G37*
G36*
X518133Y471170D02*
X510540D01*
Y463577D01*
X512701Y464156D01*
X514729Y465326D01*
X516384Y466981D01*
X517554Y469009D01*
X518133Y471170D01*
D02*
G37*
G36*
X508000D02*
X500407D01*
X500986Y469009D01*
X502156Y466981D01*
X503811Y465326D01*
X505839Y464156D01*
X508000Y463577D01*
Y471170D01*
D02*
G37*
G36*
X1064469Y479900D02*
X1062271D01*
X1060147Y479331D01*
X1058243Y478232D01*
X1056688Y476677D01*
X1055589Y474773D01*
X1055020Y472649D01*
Y470451D01*
X1055589Y468327D01*
X1056688Y466423D01*
X1058243Y464868D01*
X1060147Y463769D01*
X1062271Y463200D01*
X1064469D01*
X1066593Y463769D01*
X1068497Y464868D01*
X1070052Y466423D01*
X1071151Y468327D01*
X1071720Y470451D01*
Y472649D01*
X1071151Y474773D01*
X1070052Y476677D01*
X1068497Y478232D01*
X1066593Y479331D01*
X1064469Y479900D01*
D02*
G37*
G36*
X1695568Y466470D02*
X1695450D01*
Y457200D01*
X1704720D01*
Y457318D01*
X1704002Y459998D01*
X1702614Y462402D01*
X1700652Y464364D01*
X1698248Y465752D01*
X1695568Y466470D01*
D02*
G37*
G36*
X1692910D02*
X1692792D01*
X1690112Y465752D01*
X1687708Y464364D01*
X1685746Y462402D01*
X1684358Y459998D01*
X1683640Y457318D01*
Y457200D01*
X1692910D01*
Y466470D01*
D02*
G37*
G36*
X507829Y507460D02*
X505631D01*
X503507Y506891D01*
X501603Y505792D01*
X500048Y504237D01*
X498949Y502333D01*
X498380Y500209D01*
Y498011D01*
X498949Y495887D01*
X500048Y493983D01*
X501603Y492428D01*
X503507Y491329D01*
X505631Y490760D01*
X507829D01*
X509829Y491296D01*
X547552Y453573D01*
X548634Y452850D01*
X549910Y452596D01*
X653416D01*
X653718Y452073D01*
X655273Y450518D01*
X657177Y449419D01*
X659301Y448850D01*
X661499D01*
X663623Y449419D01*
X665527Y450518D01*
X667082Y452073D01*
X668181Y453977D01*
X668750Y456101D01*
Y458299D01*
X668181Y460423D01*
X667082Y462327D01*
X665527Y463882D01*
X663623Y464981D01*
X661499Y465550D01*
X659301D01*
X657177Y464981D01*
X655273Y463882D01*
X653718Y462327D01*
X652619Y460423D01*
X652309Y459264D01*
X551291D01*
X514544Y496011D01*
X515080Y498011D01*
Y500209D01*
X514511Y502333D01*
X513412Y504237D01*
X511857Y505792D01*
X509953Y506891D01*
X507829Y507460D01*
D02*
G37*
G36*
X1704720Y454660D02*
X1695450D01*
Y445390D01*
X1695568D01*
X1698248Y446108D01*
X1700652Y447496D01*
X1702614Y449458D01*
X1704002Y451862D01*
X1704720Y454542D01*
Y454660D01*
D02*
G37*
G36*
X1692910D02*
X1683640D01*
Y454542D01*
X1684358Y451862D01*
X1685746Y449458D01*
X1687708Y447496D01*
X1690112Y446108D01*
X1692792Y445390D01*
X1692910D01*
Y454660D01*
D02*
G37*
G36*
X1628140Y452093D02*
Y444500D01*
X1635733D01*
X1635154Y446661D01*
X1633984Y448689D01*
X1632329Y450344D01*
X1630302Y451514D01*
X1628140Y452093D01*
D02*
G37*
G36*
X1625600D02*
X1623439Y451514D01*
X1621411Y450344D01*
X1619756Y448689D01*
X1618586Y446661D01*
X1618007Y444500D01*
X1625600D01*
Y452093D01*
D02*
G37*
G36*
X883749Y457930D02*
X881551D01*
X879427Y457361D01*
X877523Y456262D01*
X875968Y454707D01*
X874869Y452803D01*
X874300Y450679D01*
Y448481D01*
X874869Y446357D01*
X875968Y444453D01*
X877523Y442898D01*
X879427Y441799D01*
X881551Y441230D01*
X883749D01*
X885873Y441799D01*
X887777Y442898D01*
X889332Y444453D01*
X890431Y446357D01*
X891000Y448481D01*
Y450679D01*
X890431Y452803D01*
X889332Y454707D01*
X887777Y456262D01*
X885873Y457361D01*
X883749Y457930D01*
D02*
G37*
G36*
X933450Y445743D02*
Y438150D01*
X941043D01*
X940464Y440311D01*
X939294Y442339D01*
X937639Y443994D01*
X935611Y445164D01*
X933450Y445743D01*
D02*
G37*
G36*
X930910D02*
X928749Y445164D01*
X926721Y443994D01*
X925066Y442339D01*
X923896Y440311D01*
X923317Y438150D01*
X930910D01*
Y445743D01*
D02*
G37*
G36*
X1453979Y454440D02*
X1451781D01*
X1449657Y453871D01*
X1447753Y452772D01*
X1446198Y451217D01*
X1445099Y449313D01*
X1444530Y447189D01*
Y444991D01*
X1445099Y442867D01*
X1446198Y440963D01*
X1447753Y439408D01*
X1449657Y438309D01*
X1451781Y437740D01*
X1453979D01*
X1456103Y438309D01*
X1458007Y439408D01*
X1459562Y440963D01*
X1460661Y442867D01*
X1461230Y444991D01*
Y447189D01*
X1460661Y449313D01*
X1459562Y451217D01*
X1458007Y452772D01*
X1456103Y453871D01*
X1453979Y454440D01*
D02*
G37*
G36*
X1005669Y451580D02*
X1003471D01*
X1001347Y451011D01*
X999443Y449912D01*
X997888Y448357D01*
X996789Y446453D01*
X996220Y444329D01*
Y442131D01*
X996789Y440007D01*
X997888Y438103D01*
X999443Y436548D01*
X1001347Y435449D01*
X1003471Y434880D01*
X1005669D01*
X1007793Y435449D01*
X1009697Y436548D01*
X1011252Y438103D01*
X1012351Y440007D01*
X1012920Y442131D01*
Y444329D01*
X1012351Y446453D01*
X1011252Y448357D01*
X1009697Y449912D01*
X1007793Y451011D01*
X1005669Y451580D01*
D02*
G37*
G36*
X1635733Y441960D02*
X1628140D01*
Y434367D01*
X1630302Y434946D01*
X1632329Y436116D01*
X1633984Y437771D01*
X1635154Y439799D01*
X1635733Y441960D01*
D02*
G37*
G36*
X1625600D02*
X1618007D01*
X1618586Y439799D01*
X1619756Y437771D01*
X1621411Y436116D01*
X1623439Y434946D01*
X1625600Y434367D01*
Y441960D01*
D02*
G37*
G36*
X1537830Y440523D02*
Y432930D01*
X1545423D01*
X1544844Y435091D01*
X1543674Y437118D01*
X1542018Y438774D01*
X1539991Y439944D01*
X1537830Y440523D01*
D02*
G37*
G36*
X1535290D02*
X1533129Y439944D01*
X1531101Y438774D01*
X1529446Y437118D01*
X1528276Y435091D01*
X1527697Y432930D01*
X1535290D01*
Y440523D01*
D02*
G37*
G36*
X1041229Y446500D02*
X1039031D01*
X1036907Y445931D01*
X1035003Y444832D01*
X1033448Y443277D01*
X1032349Y441373D01*
X1031780Y439249D01*
Y437051D01*
X1032349Y434927D01*
X1033448Y433023D01*
X1035003Y431468D01*
X1036907Y430369D01*
X1039031Y429800D01*
X1041229D01*
X1043353Y430369D01*
X1045257Y431468D01*
X1046812Y433023D01*
X1047911Y434927D01*
X1048480Y437051D01*
Y439249D01*
X1047911Y441373D01*
X1046812Y443277D01*
X1045257Y444832D01*
X1043353Y445931D01*
X1041229Y446500D01*
D02*
G37*
G36*
X941043Y435610D02*
X933450D01*
Y428017D01*
X935611Y428596D01*
X937639Y429766D01*
X939294Y431421D01*
X940464Y433449D01*
X941043Y435610D01*
D02*
G37*
G36*
X930910D02*
X923317D01*
X923896Y433449D01*
X925066Y431421D01*
X926721Y429766D01*
X928749Y428596D01*
X930910Y428017D01*
Y435610D01*
D02*
G37*
G36*
X703580Y435583D02*
Y427990D01*
X711173D01*
X710594Y430151D01*
X709424Y432179D01*
X707769Y433834D01*
X705741Y435004D01*
X703580Y435583D01*
D02*
G37*
G36*
X701040D02*
X698879Y435004D01*
X696851Y433834D01*
X695196Y432179D01*
X694026Y430151D01*
X693447Y427990D01*
X701040D01*
Y435583D01*
D02*
G37*
G36*
X1545423Y430390D02*
X1537830D01*
Y422797D01*
X1539991Y423376D01*
X1542018Y424546D01*
X1543674Y426201D01*
X1544844Y428228D01*
X1545423Y430390D01*
D02*
G37*
G36*
X1535290D02*
X1527697D01*
X1528276Y428228D01*
X1529446Y426201D01*
X1531101Y424546D01*
X1533129Y423376D01*
X1535290Y422797D01*
Y430390D01*
D02*
G37*
G36*
X1203929Y437470D02*
X1201731D01*
X1199607Y436901D01*
X1197703Y435802D01*
X1196148Y434247D01*
X1195049Y432343D01*
X1194480Y430219D01*
Y428021D01*
X1195049Y425897D01*
X1196148Y423993D01*
X1197703Y422438D01*
X1199607Y421339D01*
X1201731Y420770D01*
X1203929D01*
X1206053Y421339D01*
X1207957Y422438D01*
X1209512Y423993D01*
X1210611Y425897D01*
X1211180Y428021D01*
Y430219D01*
X1210611Y432343D01*
X1209512Y434247D01*
X1207957Y435802D01*
X1206053Y436901D01*
X1203929Y437470D01*
D02*
G37*
G36*
X711173Y425450D02*
X703580D01*
Y417857D01*
X705741Y418436D01*
X707769Y419606D01*
X709424Y421261D01*
X710594Y423289D01*
X711173Y425450D01*
D02*
G37*
G36*
X701040D02*
X693447D01*
X694026Y423289D01*
X695196Y421261D01*
X696851Y419606D01*
X698879Y418436D01*
X701040Y417857D01*
Y425450D01*
D02*
G37*
G36*
X557359Y433800D02*
X555161D01*
X553037Y433231D01*
X551133Y432132D01*
X549578Y430577D01*
X548479Y428673D01*
X547910Y426549D01*
Y424351D01*
X548479Y422227D01*
X549578Y420323D01*
X551133Y418768D01*
X553037Y417669D01*
X555161Y417100D01*
X557359D01*
X559483Y417669D01*
X561387Y418768D01*
X562942Y420323D01*
X564041Y422227D01*
X564610Y424351D01*
Y426549D01*
X564041Y428673D01*
X562942Y430577D01*
X561387Y432132D01*
X559483Y433231D01*
X557359Y433800D01*
D02*
G37*
G36*
X339137Y432910D02*
X336503D01*
X333960Y432229D01*
X331680Y430912D01*
X329818Y429050D01*
X328502Y426770D01*
X327820Y424226D01*
Y421594D01*
X328502Y419050D01*
X329818Y416770D01*
X331680Y414908D01*
X333960Y413591D01*
X336503Y412910D01*
X339137D01*
X341680Y413591D01*
X343960Y414908D01*
X345822Y416770D01*
X347138Y419050D01*
X347820Y421594D01*
Y424226D01*
X347138Y426770D01*
X345822Y429050D01*
X343960Y430912D01*
X341680Y432229D01*
X339137Y432910D01*
D02*
G37*
G36*
X1695497Y415130D02*
X1692863D01*
X1690320Y414449D01*
X1688040Y413132D01*
X1686178Y411270D01*
X1684861Y408990D01*
X1684180Y406446D01*
Y403814D01*
X1684861Y401270D01*
X1686178Y398990D01*
X1688040Y397128D01*
X1690320Y395812D01*
X1692863Y395130D01*
X1695497D01*
X1698040Y395812D01*
X1700320Y397128D01*
X1702182Y398990D01*
X1703499Y401270D01*
X1704180Y403814D01*
Y406446D01*
X1703499Y408990D01*
X1702182Y411270D01*
X1700320Y413132D01*
X1698040Y414449D01*
X1695497Y415130D01*
D02*
G37*
G36*
X1130129Y405860D02*
X1127931D01*
X1125807Y405291D01*
X1123903Y404192D01*
X1122348Y402637D01*
X1121249Y400733D01*
X1120680Y398609D01*
Y396411D01*
X1121249Y394287D01*
X1122348Y392383D01*
X1123903Y390828D01*
X1125807Y389729D01*
X1127931Y389160D01*
X1130129D01*
X1132253Y389729D01*
X1134157Y390828D01*
X1135712Y392383D01*
X1136811Y394287D01*
X1137380Y396411D01*
Y398609D01*
X1136811Y400733D01*
X1135712Y402637D01*
X1134157Y404192D01*
X1132253Y405291D01*
X1130129Y405860D01*
D02*
G37*
G36*
X1071709Y403320D02*
X1069511D01*
X1067387Y402751D01*
X1065483Y401652D01*
X1063928Y400097D01*
X1062829Y398193D01*
X1062260Y396069D01*
Y393871D01*
X1062829Y391747D01*
X1063928Y389843D01*
X1065483Y388288D01*
X1067387Y387189D01*
X1069511Y386620D01*
X1071709D01*
X1073833Y387189D01*
X1075737Y388288D01*
X1077292Y389843D01*
X1078391Y391747D01*
X1078960Y393871D01*
Y396069D01*
X1078391Y398193D01*
X1077292Y400097D01*
X1075737Y401652D01*
X1073833Y402751D01*
X1071709Y403320D01*
D02*
G37*
G36*
X1005669Y399510D02*
X1003471D01*
X1001347Y398941D01*
X999443Y397842D01*
X997888Y396287D01*
X996789Y394383D01*
X996220Y392259D01*
Y390061D01*
X996789Y387937D01*
X997888Y386033D01*
X999443Y384478D01*
X1001347Y383379D01*
X1003471Y382810D01*
X1005669D01*
X1007793Y383379D01*
X1009697Y384478D01*
X1011252Y386033D01*
X1012351Y387937D01*
X1012920Y390061D01*
Y392259D01*
X1012351Y394383D01*
X1011252Y396287D01*
X1009697Y397842D01*
X1007793Y398941D01*
X1005669Y399510D01*
D02*
G37*
G36*
X755650Y384783D02*
Y377190D01*
X763243D01*
X762664Y379351D01*
X761494Y381379D01*
X759839Y383034D01*
X757811Y384204D01*
X755650Y384783D01*
D02*
G37*
G36*
X753110D02*
X750949Y384204D01*
X748921Y383034D01*
X747266Y381379D01*
X746096Y379351D01*
X745517Y377190D01*
X753110D01*
Y384783D01*
D02*
G37*
G36*
X961219Y393160D02*
X959021D01*
X956897Y392591D01*
X954993Y391492D01*
X953438Y389937D01*
X952339Y388033D01*
X951770Y385909D01*
Y383711D01*
X952339Y381587D01*
X953438Y379683D01*
X954993Y378128D01*
X956897Y377029D01*
X959021Y376460D01*
X961219D01*
X963343Y377029D01*
X965247Y378128D01*
X966802Y379683D01*
X967901Y381587D01*
X968470Y383711D01*
Y385909D01*
X967901Y388033D01*
X966802Y389937D01*
X965247Y391492D01*
X963343Y392591D01*
X961219Y393160D01*
D02*
G37*
G36*
X339208Y382650D02*
X339090D01*
Y373380D01*
X348360D01*
Y373498D01*
X347642Y376178D01*
X346254Y378582D01*
X344292Y380544D01*
X341888Y381932D01*
X339208Y382650D01*
D02*
G37*
G36*
X336550D02*
X336432D01*
X333752Y381932D01*
X331348Y380544D01*
X329386Y378582D01*
X327998Y376178D01*
X327280Y373498D01*
Y373380D01*
X336550D01*
Y382650D01*
D02*
G37*
G36*
X763243Y374650D02*
X755650D01*
Y367057D01*
X757811Y367636D01*
X759839Y368806D01*
X761494Y370461D01*
X762664Y372489D01*
X763243Y374650D01*
D02*
G37*
G36*
X753110D02*
X745517D01*
X746096Y372489D01*
X747266Y370461D01*
X748921Y368806D01*
X750949Y367636D01*
X753110Y367057D01*
Y374650D01*
D02*
G37*
G36*
X1438739Y381730D02*
X1436541D01*
X1434417Y381161D01*
X1432513Y380062D01*
X1430958Y378507D01*
X1429859Y376603D01*
X1429290Y374479D01*
Y372281D01*
X1429859Y370157D01*
X1430958Y368253D01*
X1432513Y366698D01*
X1434417Y365599D01*
X1436541Y365030D01*
X1438739D01*
X1440863Y365599D01*
X1442767Y366698D01*
X1444322Y368253D01*
X1445421Y370157D01*
X1445990Y372281D01*
Y374479D01*
X1445421Y376603D01*
X1444322Y378507D01*
X1442767Y380062D01*
X1440863Y381161D01*
X1438739Y381730D01*
D02*
G37*
G36*
X348360Y370840D02*
X339090D01*
Y361570D01*
X339208D01*
X341888Y362288D01*
X344292Y363676D01*
X346254Y365638D01*
X347642Y368042D01*
X348360Y370722D01*
Y370840D01*
D02*
G37*
G36*
X336550D02*
X327280D01*
Y370722D01*
X327998Y368042D01*
X329386Y365638D01*
X331348Y363676D01*
X333752Y362288D01*
X336432Y361570D01*
X336550D01*
Y370840D01*
D02*
G37*
G36*
X1539240Y364463D02*
Y356870D01*
X1546833D01*
X1546254Y359031D01*
X1545084Y361059D01*
X1543429Y362714D01*
X1541401Y363884D01*
X1539240Y364463D01*
D02*
G37*
G36*
X1536700D02*
X1534539Y363884D01*
X1532511Y362714D01*
X1530856Y361059D01*
X1529686Y359031D01*
X1529107Y356870D01*
X1536700D01*
Y364463D01*
D02*
G37*
G36*
X943610Y355573D02*
Y347980D01*
X951203D01*
X950624Y350141D01*
X949454Y352169D01*
X947799Y353824D01*
X945771Y354994D01*
X943610Y355573D01*
D02*
G37*
G36*
X941070D02*
X938909Y354994D01*
X936881Y353824D01*
X935226Y352169D01*
X934056Y350141D01*
X933477Y347980D01*
X941070D01*
Y355573D01*
D02*
G37*
G36*
X1546833Y354330D02*
X1539240D01*
Y346737D01*
X1541401Y347316D01*
X1543429Y348486D01*
X1545084Y350141D01*
X1546254Y352169D01*
X1546833Y354330D01*
D02*
G37*
G36*
X1536700D02*
X1529107D01*
X1529686Y352169D01*
X1530856Y350141D01*
X1532511Y348486D01*
X1534539Y347316D01*
X1536700Y346737D01*
Y354330D01*
D02*
G37*
G36*
X984613Y357600D02*
X982414D01*
X980291Y357031D01*
X978386Y355932D01*
X976832Y354377D01*
X975732Y352473D01*
X975163Y350349D01*
Y348151D01*
X975732Y346027D01*
X976832Y344123D01*
X978386Y342568D01*
X980291Y341469D01*
X982414Y340900D01*
X984613D01*
X986736Y341469D01*
X988641Y342568D01*
X990195Y344123D01*
X991294Y346027D01*
X991863Y348151D01*
Y350349D01*
X991294Y352473D01*
X990195Y354377D01*
X988641Y355932D01*
X986736Y357031D01*
X984613Y357600D01*
D02*
G37*
G36*
X951203Y345440D02*
X943610D01*
Y337847D01*
X945771Y338426D01*
X947799Y339596D01*
X949454Y341251D01*
X950624Y343279D01*
X951203Y345440D01*
D02*
G37*
G36*
X941070D02*
X933477D01*
X934056Y343279D01*
X935226Y341251D01*
X936881Y339596D01*
X938909Y338426D01*
X941070Y337847D01*
Y345440D01*
D02*
G37*
G36*
X1515091Y321920D02*
X1512589D01*
X1510173Y321272D01*
X1508007Y320022D01*
X1506238Y318253D01*
X1504987Y316087D01*
X1504340Y313671D01*
Y311169D01*
X1504987Y308753D01*
X1506238Y306587D01*
X1508007Y304818D01*
X1510173Y303567D01*
X1512589Y302920D01*
X1515091D01*
X1517507Y303567D01*
X1519673Y304818D01*
X1521442Y306587D01*
X1522693Y308753D01*
X1523340Y311169D01*
Y313671D01*
X1522693Y316087D01*
X1521442Y318253D01*
X1519673Y320022D01*
X1517507Y321272D01*
X1515091Y321920D01*
D02*
G37*
G36*
X657860Y308610D02*
X650267D01*
X650846Y306449D01*
X652016Y304421D01*
X653671Y302766D01*
X655699Y301596D01*
X657860Y301017D01*
Y308610D01*
D02*
G37*
G36*
X636099Y316960D02*
X633901D01*
X631777Y316391D01*
X629873Y315292D01*
X628318Y313737D01*
X627219Y311833D01*
X626650Y309709D01*
Y307511D01*
X627219Y305387D01*
X628318Y303483D01*
X629873Y301929D01*
X631777Y300829D01*
X633901Y300260D01*
X636099D01*
X638223Y300829D01*
X640127Y301929D01*
X641682Y303483D01*
X642781Y305387D01*
X643350Y307511D01*
Y309709D01*
X642781Y311833D01*
X641682Y313737D01*
X640127Y315292D01*
X638223Y316391D01*
X636099Y316960D01*
D02*
G37*
G36*
X525609Y313150D02*
X523411D01*
X521287Y312581D01*
X519383Y311482D01*
X517828Y309927D01*
X516729Y308023D01*
X516160Y305899D01*
Y303701D01*
X516729Y301577D01*
X517828Y299673D01*
X519383Y298118D01*
X521287Y297019D01*
X523411Y296450D01*
X525609D01*
X527733Y297019D01*
X529637Y298118D01*
X531192Y299673D01*
X532291Y301577D01*
X532860Y303701D01*
Y305899D01*
X532291Y308023D01*
X531192Y309927D01*
X529637Y311482D01*
X527733Y312581D01*
X525609Y313150D01*
D02*
G37*
G36*
X464649Y393160D02*
X462451D01*
X460327Y392591D01*
X458423Y391492D01*
X456868Y389937D01*
X455769Y388033D01*
X455200Y385909D01*
Y383711D01*
X455769Y381587D01*
X456868Y379683D01*
X458423Y378128D01*
X460216Y377093D01*
Y311247D01*
X458423Y310212D01*
X456868Y308657D01*
X455769Y306753D01*
X455200Y304629D01*
Y302431D01*
X455769Y300307D01*
X456868Y298403D01*
X458423Y296848D01*
X460327Y295749D01*
X462451Y295180D01*
X464649D01*
X466773Y295749D01*
X468677Y296848D01*
X470232Y298403D01*
X471331Y300307D01*
X471900Y302431D01*
Y304629D01*
X471331Y306753D01*
X470232Y308657D01*
X468677Y310212D01*
X466884Y311247D01*
Y377093D01*
X468677Y378128D01*
X470232Y379683D01*
X471331Y381587D01*
X471900Y383711D01*
Y385909D01*
X471331Y388033D01*
X470232Y389937D01*
X468677Y391492D01*
X466773Y392591D01*
X464649Y393160D01*
D02*
G37*
G36*
X1461599Y309340D02*
X1459401D01*
X1457277Y308771D01*
X1455373Y307672D01*
X1453818Y306117D01*
X1452719Y304213D01*
X1452150Y302089D01*
Y299891D01*
X1452719Y297767D01*
X1453818Y295863D01*
X1455373Y294308D01*
X1457277Y293209D01*
X1459401Y292640D01*
X1461599D01*
X1463723Y293209D01*
X1465627Y294308D01*
X1467182Y295863D01*
X1468281Y297767D01*
X1468850Y299891D01*
Y302089D01*
X1468281Y304213D01*
X1467182Y306117D01*
X1465627Y307672D01*
X1463723Y308771D01*
X1461599Y309340D01*
D02*
G37*
G36*
X1751833Y298670D02*
X1748287D01*
X1744810Y297978D01*
X1741534Y296621D01*
X1738586Y294652D01*
X1736078Y292144D01*
X1734109Y289196D01*
X1732752Y285920D01*
X1732060Y282443D01*
Y278897D01*
X1732752Y275420D01*
X1734109Y272144D01*
X1736078Y269196D01*
X1738586Y266688D01*
X1741534Y264719D01*
X1744810Y263362D01*
X1748287Y262670D01*
X1751833D01*
X1755310Y263362D01*
X1758586Y264719D01*
X1761534Y266688D01*
X1764041Y269196D01*
X1766011Y272144D01*
X1767368Y275420D01*
X1768060Y278897D01*
Y282443D01*
X1767368Y285920D01*
X1766011Y289196D01*
X1764041Y292144D01*
X1761534Y294652D01*
X1758586Y296621D01*
X1755310Y297978D01*
X1751833Y298670D01*
D02*
G37*
%LPD*%
G36*
X700492Y907692D02*
X701574Y906970D01*
X702850Y906716D01*
X733248D01*
X733440Y906254D01*
X733664Y905446D01*
X732629Y903653D01*
X732060Y901529D01*
Y899331D01*
X732629Y897207D01*
X733728Y895303D01*
X735283Y893748D01*
X737187Y892649D01*
X739311Y892080D01*
X741509D01*
X743633Y892649D01*
X745537Y893748D01*
X747092Y895303D01*
X748191Y897207D01*
X748727Y899207D01*
X749457Y899619D01*
X749919Y899811D01*
X961970Y687759D01*
X961345Y686589D01*
X961320Y686594D01*
X944977D01*
X943942Y688387D01*
X942387Y689942D01*
X940483Y691041D01*
X938359Y691610D01*
X936161D01*
X934037Y691041D01*
X932133Y689942D01*
X930578Y688387D01*
X929479Y686483D01*
X928910Y684359D01*
Y682161D01*
X929479Y680037D01*
X930578Y678133D01*
X932133Y676578D01*
X934037Y675479D01*
X936161Y674910D01*
X938359D01*
X940483Y675479D01*
X942387Y676578D01*
X943942Y678133D01*
X944977Y679926D01*
X959939D01*
X1109566Y530299D01*
Y528369D01*
X1108296Y527843D01*
X1107487Y528652D01*
X1105583Y529751D01*
X1103459Y530320D01*
X1101261D01*
X1099974Y529975D01*
X997120Y632830D01*
X996038Y633553D01*
X994762Y633806D01*
X907974D01*
X842239Y699541D01*
Y704145D01*
X841985Y705421D01*
X841263Y706502D01*
X707167Y840599D01*
X707358Y841060D01*
X707770Y841791D01*
X709770Y842326D01*
X711674Y843426D01*
X713229Y844980D01*
X714129Y846540D01*
X715520Y846945D01*
X862512Y699952D01*
X863594Y699230D01*
X864870Y698976D01*
X866938D01*
X867249Y697817D01*
X868348Y695913D01*
X869903Y694358D01*
X871807Y693259D01*
X873931Y692690D01*
X876129D01*
X878253Y693259D01*
X880157Y694358D01*
X881712Y695913D01*
X882811Y697817D01*
X883380Y699941D01*
Y702139D01*
X882811Y704263D01*
X881712Y706167D01*
X880157Y707722D01*
X878253Y708821D01*
X876129Y709390D01*
X873931D01*
X871807Y708821D01*
X869903Y707722D01*
X868348Y706167D01*
X868046Y705644D01*
X866251D01*
X742525Y829370D01*
X743051Y830640D01*
X744049D01*
X746310Y831246D01*
X748338Y832416D01*
X749993Y834072D01*
X751163Y836099D01*
X751742Y838260D01*
X742879D01*
Y839530D01*
X741609D01*
Y848393D01*
X739448Y847814D01*
X737420Y846644D01*
X735765Y844989D01*
X734595Y842962D01*
X733989Y840701D01*
Y839702D01*
X732719Y839176D01*
X719501Y852394D01*
Y883128D01*
X719248Y884404D01*
X718525Y885486D01*
X578469Y1025541D01*
X578661Y1026003D01*
X579073Y1026733D01*
X580949Y1027236D01*
X700492Y907692D01*
D02*
G37*
%LPC*%
G36*
X744149Y848393D02*
Y840800D01*
X751742D01*
X751163Y842962D01*
X749993Y844989D01*
X748338Y846644D01*
X746310Y847814D01*
X744149Y848393D01*
D02*
G37*
%LPD*%
D13*
X1190720Y521240D02*
X1289050Y422910D01*
X1190720Y521240D02*
Y660940D01*
X1195260Y531940D02*
X1285240Y441960D01*
X1286510D01*
X584200Y1141730D02*
X708660D01*
X612073Y1035482D02*
Y1095712D01*
X526685Y1181100D02*
X612073Y1095712D01*
Y1035482D02*
X658225Y989330D01*
X563880Y1035415D02*
Y1130300D01*
Y1035415D02*
X716167Y883128D01*
X814785Y914590D02*
X834025Y895350D01*
X730425Y914590D02*
X814785D01*
X834025Y895350D02*
X869190D01*
X803698Y901758D02*
X803910Y901546D01*
Y859790D02*
Y901546D01*
X694778Y950238D02*
X730425Y914590D01*
X692150Y850900D02*
Y873760D01*
Y850900D02*
X838905Y704145D01*
X716167Y851013D02*
X864870Y702310D01*
X716167Y851013D02*
Y883128D01*
X838905Y698160D02*
Y704145D01*
X873760Y702310D02*
X875030Y701040D01*
X864870Y702310D02*
X873760D01*
X1151890Y523240D02*
X1181100D01*
X1195260Y531940D02*
Y646311D01*
X1097160Y760920D02*
X1195260Y662821D01*
Y646311D02*
Y662821D01*
X1095280Y756380D02*
X1190720Y660940D01*
X1102360Y521970D02*
Y522875D01*
X994762Y630472D02*
X1102360Y522875D01*
X838905Y698160D02*
X906593Y630472D01*
X994762D01*
X1018540Y558800D02*
X1052830D01*
X981710Y595630D02*
X1018540Y558800D01*
X538140Y940730D02*
X625180D01*
X692150Y873760D01*
X702850Y910050D02*
X744395D01*
X990145Y664299D01*
Y660855D02*
X1117440Y533560D01*
Y457360D02*
Y533560D01*
X990145Y660855D02*
Y664299D01*
X694778Y950238D02*
Y1005752D01*
X641350Y1059180D02*
X694778Y1005752D01*
X658225Y989330D02*
X679450D01*
X396240Y1154430D02*
Y1157179D01*
X392430Y1160989D02*
X396240Y1157179D01*
X392430Y1160989D02*
Y1179612D01*
X393918Y1181100D01*
X526685D01*
X514350Y1130300D02*
Y1169670D01*
X449580Y585065D02*
Y1164590D01*
X469610Y584275D02*
Y593728D01*
X456005Y578640D02*
X463975D01*
X467360Y595979D02*
Y605432D01*
X463975Y578640D02*
X469610Y584275D01*
X459990Y588260D02*
Y784070D01*
X459200Y784860D02*
X459990Y784070D01*
X436880Y519795D02*
Y778510D01*
X449580Y585065D02*
X456005Y578640D01*
X467360Y595979D02*
X469610Y593728D01*
X436880Y519795D02*
X558713Y397963D01*
X467360Y605432D02*
X468848Y606920D01*
X580530D01*
X577850Y1035050D02*
X702850Y910050D01*
X803910Y859790D02*
X990600Y673100D01*
X1068070D01*
X961320Y683260D02*
X1112900Y531679D01*
X937260Y683260D02*
X961320D01*
X1112900Y428370D02*
Y531679D01*
X1117440Y457360D02*
X1236980Y337820D01*
X584652Y397963D02*
X692515Y290100D01*
X1407335D02*
X1460500Y343265D01*
X692515Y290100D02*
X1407335D01*
X558713Y397963D02*
X584652D01*
X1460500Y343265D02*
Y398780D01*
X1257300Y410210D02*
X1340980D01*
X1427410Y323780D01*
X1143000Y742950D02*
X1349582D01*
X1474042Y867410D01*
X1592580D01*
X956310Y976630D02*
Y1007110D01*
Y976630D02*
X1067340Y865600D01*
Y778335D02*
Y865600D01*
X1082875Y756380D02*
X1095280D01*
X1084755Y760920D02*
X1097160D01*
X909320Y1012190D02*
Y1017270D01*
Y1012190D02*
X1061180Y860330D01*
X1067340Y778335D02*
X1084755Y760920D01*
X1061180Y778075D02*
Y860330D01*
Y778075D02*
X1082875Y756380D01*
X1236980Y337820D02*
X1290320D01*
X549910Y455930D02*
X659130D01*
X506730Y499110D02*
X549910Y455930D01*
X659130D02*
X660400Y457200D01*
X836962Y346710D02*
X895350D01*
X653180Y530492D02*
X836962Y346710D01*
X653180Y530492D02*
Y534270D01*
X580530Y606920D02*
X653180Y534270D01*
X463550Y303530D02*
Y384810D01*
X831850Y1127760D02*
X839470Y1120140D01*
X831850Y1227872D02*
X837526Y1233548D01*
X831850Y1127760D02*
Y1227872D01*
X837526Y1237576D02*
X839470Y1239520D01*
X837526Y1233548D02*
Y1237576D01*
X1187450Y1098550D02*
Y1113784D01*
X1187444Y1113790D02*
X1188061Y1114407D01*
X1189548Y1123950D02*
X1211580D01*
X1188061Y1114407D02*
Y1122462D01*
X1189548Y1123950D01*
X932690Y1194560D02*
X1028700Y1098550D01*
X1187450D01*
Y1043940D02*
Y1098550D01*
X1028700Y1088390D02*
X1174750D01*
X912020Y1205070D02*
X1028700Y1088390D01*
X932690Y1194560D02*
Y1212340D01*
X1187444Y1113790D02*
X1187450Y1113784D01*
X529589Y1107439D02*
X530860Y1108710D01*
X529589Y1070998D02*
Y1107439D01*
X363220Y1057910D02*
Y1098550D01*
X350520Y1045210D02*
X363220Y1057910D01*
X1546860Y595630D02*
X1548348Y594142D01*
Y592038D02*
Y594142D01*
X1494790Y538480D02*
X1548348Y592038D01*
X1474470Y483870D02*
X1474532Y483932D01*
Y598232D01*
X1474595Y598295D01*
X1261110Y595630D02*
X1262579Y594161D01*
Y587811D02*
Y594161D01*
Y587811D02*
X1338580Y511810D01*
Y494030D02*
Y511810D01*
X718620Y536480D02*
X720820D01*
D123*
X1455420Y866140D02*
D03*
X1353820D02*
D03*
X1694180Y867410D02*
D03*
X1592580D02*
D03*
D191*
X1694180Y778510D02*
D03*
Y727710D02*
D03*
Y563880D02*
D03*
Y614680D02*
D03*
Y455930D02*
D03*
Y405130D02*
D03*
X336550Y899160D02*
D03*
Y949960D02*
D03*
X363220Y1098550D02*
D03*
X312420D02*
D03*
X337820D02*
D03*
X1049020Y1224280D02*
D03*
X1074420D02*
D03*
X1375410Y1169670D02*
D03*
X1324610D02*
D03*
X1493520D02*
D03*
X1442720D02*
D03*
X1611630Y1167130D02*
D03*
X1560830D02*
D03*
X1736090Y1165860D02*
D03*
X1685290D02*
D03*
X336550Y810260D02*
D03*
Y759460D02*
D03*
Y708660D02*
D03*
Y615950D02*
D03*
Y565150D02*
D03*
Y514350D02*
D03*
X337820Y422910D02*
D03*
Y372110D02*
D03*
X336550Y1178560D02*
D03*
X361950D02*
D03*
X311150D02*
D03*
D192*
X1750060Y280670D02*
D03*
X1752600Y1243330D02*
D03*
X279400Y280670D02*
D03*
Y1243330D02*
D03*
D193*
X585230Y1216330D02*
D03*
X535230D02*
D03*
D194*
X525228Y1243330D02*
D03*
X595230D02*
D03*
D195*
X906780Y599440D02*
D03*
X1513840Y312420D02*
D03*
X1412240Y778510D02*
D03*
X1017270Y1002030D02*
D03*
X1151890Y576580D02*
D03*
D196*
X669530Y645360D02*
D03*
X684530D02*
D03*
Y670360D02*
D03*
X669530D02*
D03*
Y657860D02*
D03*
X684530D02*
D03*
X658100Y532530D02*
D03*
X673100D02*
D03*
Y557530D02*
D03*
X658100D02*
D03*
Y545030D02*
D03*
X673100D02*
D03*
D197*
X722630Y1223010D02*
D03*
Y1172210D02*
D03*
X671830D02*
D03*
Y1223010D02*
D03*
X697230Y1197610D02*
D03*
D198*
X492760Y1092202D02*
D03*
D199*
X1493520Y1018540D02*
D03*
X1315720Y993140D02*
D03*
X1732280Y1019810D02*
D03*
X1554480Y994410D02*
D03*
D200*
X1286510Y441960D02*
D03*
X665480Y712470D02*
D03*
X693420Y735330D02*
D03*
X668020Y777240D02*
D03*
X688340Y595630D02*
D03*
X556260Y425450D02*
D03*
X562610Y486410D02*
D03*
X581660Y1075690D02*
D03*
X584200Y1141730D02*
D03*
X654050Y1007110D02*
D03*
X623570Y1073150D02*
D03*
X708660Y1141730D02*
D03*
X902970Y902970D02*
D03*
X821690Y929640D02*
D03*
X803698Y901758D02*
D03*
X831850Y869950D02*
D03*
X755650Y930910D02*
D03*
X1628140Y604520D02*
D03*
X706547Y850107D02*
D03*
X885190Y579120D02*
D03*
X1253490Y1042670D02*
D03*
X1181100Y523240D02*
D03*
X1151890D02*
D03*
X1102360Y521970D02*
D03*
X538140Y940730D02*
D03*
X740410Y900430D02*
D03*
X514350Y1169670D02*
D03*
X449580Y1164590D02*
D03*
X459200Y784860D02*
D03*
X436880Y778510D02*
D03*
X396240Y1154430D02*
D03*
X481330Y1146810D02*
D03*
X679450Y989330D02*
D03*
X723900Y934720D02*
D03*
X1068070Y673100D02*
D03*
X1386840Y646430D02*
D03*
X1068070Y599440D02*
D03*
X1052830Y558800D02*
D03*
X981710Y595630D02*
D03*
X875030Y701040D02*
D03*
X891540Y1130300D02*
D03*
X901700Y1084580D02*
D03*
X815340Y998220D02*
D03*
X641350Y1059180D02*
D03*
X869190Y895350D02*
D03*
X440690Y487680D02*
D03*
X1460500Y398780D02*
D03*
X1236980Y647700D02*
D03*
X1143000Y742950D02*
D03*
X563880Y1130300D02*
D03*
X975360Y704850D02*
D03*
X909320Y1017270D02*
D03*
X1082040Y746760D02*
D03*
X1181100Y613410D02*
D03*
X956310Y1007110D02*
D03*
X1289050Y422910D02*
D03*
X1112900Y428370D02*
D03*
X577850Y1035050D02*
D03*
X1290320Y337820D02*
D03*
X789940Y1007110D02*
D03*
X836930Y996950D02*
D03*
X937260Y683260D02*
D03*
X932180Y436880D02*
D03*
X1202830Y429120D02*
D03*
X1063370Y471550D02*
D03*
X476980Y642620D02*
D03*
X580530Y606920D02*
D03*
X463550Y303530D02*
D03*
Y384810D02*
D03*
X839470Y1120140D02*
D03*
X821690Y1131570D02*
D03*
X839470Y1239520D02*
D03*
X1174750Y1088390D02*
D03*
X1139190Y1130300D02*
D03*
X1211580Y1123950D02*
D03*
X932690Y1212340D02*
D03*
X912020Y1205070D02*
D03*
X1217930Y728980D02*
D03*
X1292860Y707390D02*
D03*
X1536560Y431660D02*
D03*
X1459230Y678180D02*
D03*
X1490980Y774700D02*
D03*
X1604010Y744220D02*
D03*
X1581660Y766320D02*
D03*
X1532890Y783590D02*
D03*
X895350Y346710D02*
D03*
X882650Y449580D02*
D03*
X960120Y384810D02*
D03*
X1040130Y438150D02*
D03*
X527940Y566800D02*
D03*
X601980Y653320D02*
D03*
X562610Y659130D02*
D03*
X624840Y651510D02*
D03*
X664350Y606920D02*
D03*
X1051560Y855980D02*
D03*
X1113790Y796290D02*
D03*
X1037590Y707390D02*
D03*
X1051331Y748030D02*
D03*
X751980Y702310D02*
D03*
X459990Y588260D02*
D03*
X509270Y721360D02*
D03*
X803090Y1132390D02*
D03*
X789940Y1073150D02*
D03*
X790526Y1031240D02*
D03*
X673100Y1075690D02*
D03*
X530860Y1108710D02*
D03*
X529589Y1070998D02*
D03*
X430530Y1137920D02*
D03*
X350520Y1045210D02*
D03*
X310021Y1013460D02*
D03*
X330200Y1127760D02*
D03*
X637540Y834390D02*
D03*
X621030Y779780D02*
D03*
X725170Y999490D02*
D03*
X1076960Y782320D02*
D03*
X1012190Y764540D02*
D03*
X1028700Y855980D02*
D03*
X547370Y822960D02*
D03*
X810260Y628650D02*
D03*
X660400Y457200D02*
D03*
X506730Y499110D02*
D03*
X509270Y472440D02*
D03*
X617220Y486410D02*
D03*
X702310Y426720D02*
D03*
X674370Y842010D02*
D03*
X742879Y839530D02*
D03*
X858520Y836930D02*
D03*
X514350Y1130300D02*
D03*
X422910Y706120D02*
D03*
X415290Y836930D02*
D03*
X513080Y858140D02*
D03*
X617220Y904240D02*
D03*
X1531620Y681990D02*
D03*
X1546860Y595630D02*
D03*
X1494790Y538480D02*
D03*
X1452880Y446090D02*
D03*
X1474595Y598295D02*
D03*
X1474470Y483870D02*
D03*
X1626870Y443230D02*
D03*
X1537970Y355600D02*
D03*
X1437640Y373380D02*
D03*
X1332230Y299720D02*
D03*
X1261110Y595630D02*
D03*
X1338580Y494030D02*
D03*
X1259840Y562610D02*
D03*
X1220470Y591820D02*
D03*
X1187444Y1113790D02*
D03*
X1187450Y1043940D02*
D03*
X1267460Y993140D02*
D03*
X1217930Y938530D02*
D03*
X1150620Y913130D02*
D03*
X1256030Y886460D02*
D03*
X1417320Y569860D02*
D03*
X1449070Y549540D02*
D03*
X1356360Y732790D02*
D03*
X1148080Y628650D02*
D03*
X1113790Y605790D02*
D03*
X1069340Y622300D02*
D03*
X930910Y546100D02*
D03*
X988060Y539750D02*
D03*
X927100Y495300D02*
D03*
X1539240Y559680D02*
D03*
X1532890Y642620D02*
D03*
X1455420Y643890D02*
D03*
X1316990Y646430D02*
D03*
X850900Y518160D02*
D03*
X784860Y515620D02*
D03*
X741680Y515620D02*
D03*
X659130Y309880D02*
D03*
X635000Y308610D02*
D03*
X524510Y304800D02*
D03*
X754380Y375920D02*
D03*
X942340Y346710D02*
D03*
X1004570Y443230D02*
D03*
X1257300Y410210D02*
D03*
X1427410Y323780D02*
D03*
X1460500Y300990D02*
D03*
X718620Y536480D02*
D03*
X1253410Y1254760D02*
D03*
X1144865Y1257895D02*
D03*
X1062990Y1046480D02*
D03*
X1116330Y972820D02*
D03*
X983513Y349250D02*
D03*
X1129030Y397510D02*
D03*
X1070610Y394970D02*
D03*
X1004570Y391160D02*
D03*
M02*
